G04*
G04 #@! TF.GenerationSoftware,Altium Limited,Altium Designer,19.0.15 (446)*
G04*
G04 Layer_Color=2752767*
%FSLAX25Y25*%
%MOIN*%
G70*
G01*
G75*
%ADD122C,0.00200*%
%ADD123C,0.00267*%
%ADD124C,0.00133*%
D122*
X520460Y467586D02*
Y469186D01*
X522060D01*
Y467586D01*
X520460D01*
Y457586D02*
Y459186D01*
X522060D01*
Y457586D01*
X520460D01*
X480709Y358649D02*
X479909Y360249D01*
X481509D01*
X480709Y358649D01*
X455118Y467310D02*
X455518Y467710D01*
X455918D01*
X455518Y468110D01*
X455918Y468510D01*
X455518D01*
X455118Y468910D01*
X454718Y468510D01*
X454318D01*
X454718Y468110D01*
X454318Y467710D01*
X454718D01*
X455118Y467310D01*
X397638D02*
X398038Y467710D01*
X398438D01*
X398038Y468110D01*
X398438Y468510D01*
X398038D01*
X397638Y468910D01*
X397238Y468510D01*
X396838D01*
X397238Y468110D01*
X396838Y467710D01*
X397238D01*
X397638Y467310D01*
X508255Y448413D02*
X508655Y449213D01*
X508255Y450013D01*
X509055Y449613D01*
X509855Y450013D01*
X509455Y449213D01*
X509855Y448413D01*
X509055Y448813D01*
X508255Y448413D01*
X235420Y462980D02*
X235821Y463779D01*
X235420Y464579D01*
X236221Y464180D01*
X237020Y464579D01*
X236620Y463779D01*
X237020Y462980D01*
X236221Y463379D01*
X235420Y462980D01*
X266923Y401175D02*
Y400775D01*
X267723D01*
Y401175D01*
X268123D01*
Y401975D01*
X267723D01*
Y402375D01*
X266923D01*
Y401975D01*
X266523D01*
Y401175D01*
X266923D01*
X314167D02*
Y400775D01*
X314967D01*
Y401175D01*
X315367D01*
Y401975D01*
X314967D01*
Y402375D01*
X314167D01*
Y401975D01*
X313767D01*
Y401175D01*
X314167D01*
X376365Y464948D02*
X376765D01*
X377165Y465348D01*
X377565Y464948D01*
X377965D01*
Y465348D01*
X377565Y465748D01*
X377965Y466148D01*
Y466548D01*
X377565D01*
X377165Y466148D01*
X376765Y466548D01*
X376365D01*
Y466148D01*
X376765Y465748D01*
X376365Y465348D01*
Y464948D01*
X348019D02*
X348419D01*
X348819Y465348D01*
X349219Y464948D01*
X349619D01*
Y465348D01*
X349219Y465748D01*
X349619Y466148D01*
Y466548D01*
X349219D01*
X348819Y466148D01*
X348419Y466548D01*
X348019D01*
Y466148D01*
X348419Y465748D01*
X348019Y465348D01*
Y464948D01*
X434633Y461024D02*
X435433Y461824D01*
X436233Y461024D01*
X435433Y460224D01*
X434633Y461024D01*
X424633D02*
X425433Y461824D01*
X426233Y461024D01*
X425433Y460224D01*
X424633Y461024D01*
X414633D02*
X415433Y461824D01*
X416233Y461024D01*
X415433Y460224D01*
X414633Y461024D01*
X400381Y390145D02*
Y391745D01*
X401981D01*
Y390145D01*
X400381D01*
X400781Y390545D02*
Y391345D01*
X401581D01*
Y390545D01*
X400781D01*
X400381Y458649D02*
Y460249D01*
X401981D01*
Y458649D01*
X400381D01*
X400781Y459049D02*
Y459849D01*
X401581D01*
Y459049D01*
X400781D01*
X411798Y443377D02*
X412198D01*
X412598Y443777D01*
X412998Y443377D01*
X413398D01*
Y443777D01*
X412998Y444177D01*
X413398Y444577D01*
Y444977D01*
X412998D01*
X412598Y444577D01*
X412198Y444977D01*
X411798D01*
Y444577D01*
X412198Y444177D01*
X411798Y443777D01*
Y443377D01*
Y420377D02*
X412198D01*
X412598Y420777D01*
X412998Y420377D01*
X413398D01*
Y420777D01*
X412998Y421177D01*
X413398Y421577D01*
Y421977D01*
X412998D01*
X412598Y421577D01*
X412198Y421977D01*
X411798D01*
Y421577D01*
X412198Y421177D01*
X411798Y420777D01*
Y420377D01*
X441681Y429834D02*
X440881Y431434D01*
X442481D01*
X441681Y429834D01*
Y430234D02*
X441281Y431034D01*
X442081D01*
X441681Y430234D01*
X432181Y421834D02*
X431381Y423434D01*
X432981D01*
X432181Y421834D01*
Y422234D02*
X431781Y423034D01*
X432581D01*
X432181Y422234D01*
X422681Y428834D02*
X421881Y430434D01*
X423481D01*
X422681Y428834D01*
Y429234D02*
X422281Y430034D01*
X423081D01*
X422681Y429234D01*
X427181Y437334D02*
X426381Y438934D01*
X427981D01*
X427181Y437334D01*
Y437734D02*
X426781Y438534D01*
X427581D01*
X427181Y437734D01*
X436681Y439834D02*
X435881Y441434D01*
X437481D01*
X436681Y439834D01*
Y440234D02*
X436281Y441034D01*
X437081D01*
X436681Y440234D01*
X448806Y453531D02*
X449206D01*
X449606Y453931D01*
X450006Y453531D01*
X450406D01*
Y453931D01*
X450006Y454331D01*
X450406Y454731D01*
Y455131D01*
X450006D01*
X449606Y454731D01*
X449206Y455131D01*
X448806D01*
Y454731D01*
X449206Y454331D01*
X448806Y453931D01*
Y453531D01*
X467507D02*
X467907D01*
X468307Y453931D01*
X468707Y453531D01*
X469107D01*
Y453931D01*
X468707Y454331D01*
X469107Y454731D01*
Y455131D01*
X468707D01*
X468307Y454731D01*
X467907Y455131D01*
X467507D01*
Y454731D01*
X467907Y454331D01*
X467507Y453931D01*
Y453531D01*
X464764Y465342D02*
X465164Y465742D01*
X465564D01*
X465164Y466142D01*
X465564Y466542D01*
X465164D01*
X464764Y466942D01*
X464364Y466542D01*
X463964D01*
X464364Y466142D01*
X463964Y465742D01*
X464364D01*
X464764Y465342D01*
Y465742D02*
X464964Y465942D01*
X465164D01*
X464964Y466142D01*
X465164Y466342D01*
X464964D01*
X464764Y466542D01*
X464564Y466342D01*
X464364D01*
X464564Y466142D01*
X464364Y465942D01*
X464564D01*
X464764Y465742D01*
X502165Y465342D02*
X502565Y465742D01*
X502965D01*
X502565Y466142D01*
X502965Y466542D01*
X502565D01*
X502165Y466942D01*
X501765Y466542D01*
X501365D01*
X501765Y466142D01*
X501365Y465742D01*
X501765D01*
X502165Y465342D01*
Y465742D02*
X502365Y465942D01*
X502565D01*
X502365Y466142D01*
X502565Y466342D01*
X502365D01*
X502165Y466542D01*
X501965Y466342D01*
X501765D01*
X501965Y466142D01*
X501765Y465942D01*
X501965D01*
X502165Y465742D01*
X272763Y463373D02*
X273163D01*
X273563Y463773D01*
X273963Y463373D01*
X274363D01*
Y463773D01*
X273963Y464173D01*
X274363Y464573D01*
Y464973D01*
X273963D01*
X273563Y464573D01*
X273163Y464973D01*
X272763D01*
Y464573D01*
X273163Y464173D01*
X272763Y463773D01*
Y463373D01*
X287763D02*
X288163D01*
X288563Y463773D01*
X288963Y463373D01*
X289363D01*
Y463773D01*
X288963Y464173D01*
X289363Y464573D01*
Y464973D01*
X288963D01*
X288563Y464573D01*
X288163Y464973D01*
X287763D01*
Y464573D01*
X288163Y464173D01*
X287763Y463773D01*
Y463373D01*
X302763D02*
X303163D01*
X303563Y463773D01*
X303963Y463373D01*
X304363D01*
Y463773D01*
X303963Y464173D01*
X304363Y464573D01*
Y464973D01*
X303963D01*
X303563Y464573D01*
X303163Y464973D01*
X302763D01*
Y464573D01*
X303163Y464173D01*
X302763Y463773D01*
Y463373D01*
X317763D02*
X318163D01*
X318563Y463773D01*
X318963Y463373D01*
X319363D01*
Y463773D01*
X318963Y464173D01*
X319363Y464573D01*
Y464973D01*
X318963D01*
X318563Y464573D01*
X318163Y464973D01*
X317763D01*
Y464573D01*
X318163Y464173D01*
X317763Y463773D01*
Y463373D01*
X407080Y369285D02*
Y368885D01*
X407880D01*
Y369285D01*
X408280D01*
Y370085D01*
X407880D01*
Y370485D01*
X407080D01*
Y370085D01*
X406680D01*
Y369285D01*
X407080D01*
Y361411D02*
Y361011D01*
X407880D01*
Y361411D01*
X408280D01*
Y362211D01*
X407880D01*
Y362611D01*
X407080D01*
Y362211D01*
X406680D01*
Y361411D01*
X407080D01*
X290506Y383340D02*
Y382940D01*
X291305D01*
Y383340D01*
X291705D01*
Y384140D01*
X291305D01*
Y384540D01*
X290506D01*
Y384140D01*
X290106D01*
Y383340D01*
X290506D01*
X309005D02*
Y382940D01*
X309805D01*
Y383340D01*
X310206D01*
Y384140D01*
X309805D01*
Y384540D01*
X309005D01*
Y384140D01*
X308606D01*
Y383340D01*
X309005D01*
Y367340D02*
Y366940D01*
X309805D01*
Y367340D01*
X310206D01*
Y368140D01*
X309805D01*
Y368540D01*
X309005D01*
Y368140D01*
X308606D01*
Y367340D01*
X309005D01*
X290506D02*
Y366940D01*
X291305D01*
Y367340D01*
X291705D01*
Y368140D01*
X291305D01*
Y368540D01*
X290506D01*
Y368140D01*
X290106D01*
Y367340D01*
X290506D01*
X263137Y362980D02*
Y364580D01*
X264737D01*
Y362980D01*
X263137D01*
X243137D02*
Y364580D01*
X244737D01*
Y362980D01*
X243137D01*
X528340Y400387D02*
Y399987D01*
X529140D01*
Y400387D01*
X529540D01*
Y401187D01*
X529140D01*
Y401587D01*
X528340D01*
Y401187D01*
X527940D01*
Y400387D01*
X528340D01*
X506293D02*
Y399987D01*
X507093D01*
Y400387D01*
X507493D01*
Y401187D01*
X507093D01*
Y401587D01*
X506293D01*
Y401187D01*
X505893D01*
Y400387D01*
X506293D01*
X504318Y367310D02*
X504718Y368110D01*
X504318Y368910D01*
X505118Y368510D01*
X505918Y368910D01*
X505518Y368110D01*
X505918Y367310D01*
X505118Y367710D01*
X504318Y367310D01*
X504718Y367710D02*
X504918Y368110D01*
X504718Y368510D01*
X505118Y368310D01*
X505518Y368510D01*
X505318Y368110D01*
X505518Y367710D01*
X505118Y367910D01*
X504718Y367710D01*
X514318Y367310D02*
X514718Y368110D01*
X514318Y368910D01*
X515118Y368510D01*
X515918Y368910D01*
X515518Y368110D01*
X515918Y367310D01*
X515118Y367710D01*
X514318Y367310D01*
X514718Y367710D02*
X514918Y368110D01*
X514718Y368510D01*
X515118Y368310D01*
X515518Y368510D01*
X515318Y368110D01*
X515518Y367710D01*
X515118Y367910D01*
X514718Y367710D01*
X524318Y367310D02*
X524718Y368110D01*
X524318Y368910D01*
X525118Y368510D01*
X525918Y368910D01*
X525518Y368110D01*
X525918Y367310D01*
X525118Y367710D01*
X524318Y367310D01*
X524718Y367710D02*
X524918Y368110D01*
X524718Y368510D01*
X525118Y368310D01*
X525518Y368510D01*
X525318Y368110D01*
X525518Y367710D01*
X525118Y367910D01*
X524718Y367710D01*
X287356Y420096D02*
Y419696D01*
X288156D01*
Y420096D01*
X288556D01*
Y420896D01*
X288156D01*
Y421296D01*
X287356D01*
Y420896D01*
X286956D01*
Y420096D01*
X287356D01*
X305856D02*
Y419696D01*
X306656D01*
Y420096D01*
X307056D01*
Y420896D01*
X306656D01*
Y421296D01*
X305856D01*
Y420896D01*
X305456D01*
Y420096D01*
X305856D01*
Y442596D02*
Y442196D01*
X306656D01*
Y442596D01*
X307056D01*
Y443396D01*
X306656D01*
Y443796D01*
X305856D01*
Y443396D01*
X305456D01*
Y442596D01*
X305856D01*
X287356D02*
Y442196D01*
X288156D01*
Y442596D01*
X288556D01*
Y443396D01*
X288156D01*
Y443796D01*
X287356D01*
Y443396D01*
X286956D01*
Y442596D01*
X287356D01*
X374797Y456687D02*
Y456287D01*
X375597D01*
Y456687D01*
X375997D01*
Y457487D01*
X375597D01*
Y457887D01*
X374797D01*
Y457487D01*
X374397D01*
Y456687D01*
X374797D01*
X374997Y456887D02*
Y456687D01*
X375397D01*
Y456887D01*
X375597D01*
Y457287D01*
X375397D01*
Y457487D01*
X374997D01*
Y457287D01*
X374797D01*
Y456887D01*
X374997D01*
X273222Y455112D02*
Y454712D01*
X274022D01*
Y455112D01*
X274422D01*
Y455912D01*
X274022D01*
Y456312D01*
X273222D01*
Y455912D01*
X272822D01*
Y455112D01*
X273222D01*
X273422Y455312D02*
Y455112D01*
X273822D01*
Y455312D01*
X274022D01*
Y455712D01*
X273822D01*
Y455912D01*
X273422D01*
Y455712D01*
X273222D01*
Y455312D01*
X273422D01*
X385821Y462592D02*
Y462192D01*
X386620D01*
Y462592D01*
X387020D01*
Y463392D01*
X386620D01*
Y463792D01*
X385821D01*
Y463392D01*
X385420D01*
Y462592D01*
X385821D01*
X386020Y462792D02*
Y462592D01*
X386420D01*
Y462792D01*
X386620D01*
Y463192D01*
X386420D01*
Y463392D01*
X386020D01*
Y463192D01*
X385821D01*
Y462792D01*
X386020D01*
X385821Y418891D02*
Y418491D01*
X386620D01*
Y418891D01*
X387020D01*
Y419691D01*
X386620D01*
Y420091D01*
X385821D01*
Y419691D01*
X385420D01*
Y418891D01*
X385821D01*
X386020Y419091D02*
Y418891D01*
X386420D01*
Y419091D01*
X386620D01*
Y419491D01*
X386420D01*
Y419691D01*
X386020D01*
Y419491D01*
X385821D01*
Y419091D01*
X386020D01*
D123*
X223635Y463779D02*
G03*
X223635Y463779I-800J0D01*
G01*
X530328Y440945D02*
G03*
X530328Y440945I-800J0D01*
G01*
X488981Y368634D02*
G03*
X488981Y368634I-800J0D01*
G01*
X493481Y382634D02*
G03*
X493481Y382634I-800J0D01*
G01*
X272453Y381102D02*
G03*
X272453Y381102I-800J0D01*
G01*
X224422Y364567D02*
G03*
X224422Y364567I-800J0D01*
G01*
X515367Y434252D02*
G03*
X515367Y434252I-800J0D01*
G01*
D124*
X488581Y368634D02*
G03*
X488581Y368634I-400J0D01*
G01*
X493081Y382634D02*
G03*
X493081Y382634I-400J0D01*
G01*
M02*
