G04*
G04 #@! TF.GenerationSoftware,Altium Limited,Altium Designer,19.0.15 (446)*
G04*
G04 Layer_Color=8388736*
%FSLAX25Y25*%
%MOIN*%
G70*
G01*
G75*
%ADD19R,0.00500X0.16500*%
%ADD21R,0.33000X0.00500*%
%ADD22C,0.06737*%
%ADD23R,0.06737X0.06737*%
%ADD24C,0.08300*%
G04:AMPARAMS|DCode=25|XSize=106.42mil|YSize=67.06mil|CornerRadius=18.76mil|HoleSize=0mil|Usage=FLASHONLY|Rotation=0.000|XOffset=0mil|YOffset=0mil|HoleType=Round|Shape=RoundedRectangle|*
%AMROUNDEDRECTD25*
21,1,0.10642,0.02953,0,0,0.0*
21,1,0.06890,0.06706,0,0,0.0*
1,1,0.03753,0.03445,-0.01476*
1,1,0.03753,-0.03445,-0.01476*
1,1,0.03753,-0.03445,0.01476*
1,1,0.03753,0.03445,0.01476*
%
%ADD25ROUNDEDRECTD25*%
G04:AMPARAMS|DCode=26|XSize=86.74mil|YSize=67.06mil|CornerRadius=18.76mil|HoleSize=0mil|Usage=FLASHONLY|Rotation=0.000|XOffset=0mil|YOffset=0mil|HoleType=Round|Shape=RoundedRectangle|*
%AMROUNDEDRECTD26*
21,1,0.08674,0.02953,0,0,0.0*
21,1,0.04921,0.06706,0,0,0.0*
1,1,0.03753,0.02461,-0.01476*
1,1,0.03753,-0.02461,-0.01476*
1,1,0.03753,-0.02461,0.01476*
1,1,0.03753,0.02461,0.01476*
%
%ADD26ROUNDEDRECTD26*%
G04:AMPARAMS|DCode=27|XSize=67.06mil|YSize=106.42mil|CornerRadius=18.76mil|HoleSize=0mil|Usage=FLASHONLY|Rotation=0.000|XOffset=0mil|YOffset=0mil|HoleType=Round|Shape=RoundedRectangle|*
%AMROUNDEDRECTD27*
21,1,0.06706,0.06890,0,0,0.0*
21,1,0.02953,0.10642,0,0,0.0*
1,1,0.03753,0.01476,-0.03445*
1,1,0.03753,-0.01476,-0.03445*
1,1,0.03753,-0.01476,0.03445*
1,1,0.03753,0.01476,0.03445*
%
%ADD27ROUNDEDRECTD27*%
G04:AMPARAMS|DCode=28|XSize=68mil|YSize=106.42mil|CornerRadius=19mil|HoleSize=0mil|Usage=FLASHONLY|Rotation=0.000|XOffset=0mil|YOffset=0mil|HoleType=Round|Shape=RoundedRectangle|*
%AMROUNDEDRECTD28*
21,1,0.06800,0.06843,0,0,0.0*
21,1,0.03000,0.10642,0,0,0.0*
1,1,0.03800,0.01500,-0.03421*
1,1,0.03800,-0.01500,-0.03421*
1,1,0.03800,-0.01500,0.03421*
1,1,0.03800,0.01500,0.03421*
%
%ADD28ROUNDEDRECTD28*%
%ADD29C,0.07493*%
G04:AMPARAMS|DCode=30|XSize=68mil|YSize=78mil|CornerRadius=11.5mil|HoleSize=0mil|Usage=FLASHONLY|Rotation=180.000|XOffset=0mil|YOffset=0mil|HoleType=Round|Shape=RoundedRectangle|*
%AMROUNDEDRECTD30*
21,1,0.06800,0.05500,0,0,180.0*
21,1,0.04500,0.07800,0,0,180.0*
1,1,0.02300,-0.02250,0.02750*
1,1,0.02300,0.02250,0.02750*
1,1,0.02300,0.02250,-0.02750*
1,1,0.02300,-0.02250,-0.02750*
%
%ADD30ROUNDEDRECTD30*%
%ADD31O,0.06800X0.07800*%
G04:AMPARAMS|DCode=32|XSize=67.06mil|YSize=67.06mil|CornerRadius=18.76mil|HoleSize=0mil|Usage=FLASHONLY|Rotation=0.000|XOffset=0mil|YOffset=0mil|HoleType=Round|Shape=RoundedRectangle|*
%AMROUNDEDRECTD32*
21,1,0.06706,0.02953,0,0,0.0*
21,1,0.02953,0.06706,0,0,0.0*
1,1,0.03753,0.01476,-0.01476*
1,1,0.03753,-0.01476,-0.01476*
1,1,0.03753,-0.01476,0.01476*
1,1,0.03753,0.01476,0.01476*
%
%ADD32ROUNDEDRECTD32*%
%ADD33C,0.08800*%
%ADD34C,0.07001*%
%ADD35R,0.07001X0.07001*%
%ADD36C,0.07700*%
%ADD37C,0.00800*%
%ADD38C,0.08320*%
%ADD39R,0.08320X0.08320*%
%ADD40C,0.04737*%
%ADD41R,0.04737X0.04737*%
%ADD42C,0.05556*%
%ADD43R,0.05556X0.05556*%
%ADD44C,0.09068*%
%ADD45C,0.05800*%
D19*
X270187Y364030D02*
D03*
X237687D02*
D03*
D21*
X253937Y372029D02*
D03*
D22*
X521260Y468386D02*
D03*
D23*
Y458386D02*
D03*
D24*
X222835Y463779D02*
D03*
X529528Y440945D02*
D03*
X449606Y454331D02*
D03*
X468307D02*
D03*
X271654Y381102D02*
D03*
X223622Y364567D02*
D03*
X514567Y434252D02*
D03*
D25*
X480709Y359449D02*
D03*
D26*
X455118Y468110D02*
D03*
X397638D02*
D03*
D27*
X509055Y449213D02*
D03*
D28*
X236221Y463779D02*
D03*
D29*
X267323Y401575D02*
D03*
X314567D02*
D03*
D30*
X377165Y465748D02*
D03*
D31*
X348819D02*
D03*
D32*
X435433Y461024D02*
D03*
X425433D02*
D03*
X415433D02*
D03*
X505118Y368110D02*
D03*
X515118D02*
D03*
X525118D02*
D03*
D33*
X401181Y390945D02*
D03*
Y459449D02*
D03*
D34*
X412598Y444177D02*
D03*
D35*
Y421177D02*
D03*
D36*
X488181Y368634D02*
D03*
X441681Y430634D02*
D03*
X492681Y382634D02*
D03*
X432181Y422634D02*
D03*
X422681Y429634D02*
D03*
X427181Y438134D02*
D03*
X436681Y440634D02*
D03*
D37*
X464764Y466142D02*
D03*
X502165D02*
D03*
D38*
X273563Y464173D02*
D03*
X288563D02*
D03*
X303563D02*
D03*
D39*
X318563D02*
D03*
D40*
X407480Y369685D02*
D03*
X528740Y400787D02*
D03*
X506693D02*
D03*
D41*
X407480Y361811D02*
D03*
D42*
X290905Y383740D02*
D03*
X309405D02*
D03*
X290905Y367740D02*
D03*
X287756Y420496D02*
D03*
X306256Y442996D02*
D03*
X287756D02*
D03*
D43*
X309405Y367740D02*
D03*
X306256Y420496D02*
D03*
D44*
X263937Y363779D02*
D03*
X243937D02*
D03*
D45*
X375197Y457087D02*
D03*
X273622Y455512D02*
D03*
X386221Y462992D02*
D03*
Y419291D02*
D03*
M02*
