G04*
G04 #@! TF.GenerationSoftware,Altium Limited,Altium Designer,19.0.15 (446)*
G04*
G04 Layer_Physical_Order=1*
G04 Layer_Color=255*
%FSLAX25Y25*%
%MOIN*%
G70*
G01*
G75*
%ADD13C,0.01000*%
%ADD46C,0.05937*%
%ADD47R,0.05937X0.05937*%
%ADD48C,0.07500*%
G04:AMPARAMS|DCode=49|XSize=98.43mil|YSize=59.06mil|CornerRadius=14.76mil|HoleSize=0mil|Usage=FLASHONLY|Rotation=0.000|XOffset=0mil|YOffset=0mil|HoleType=Round|Shape=RoundedRectangle|*
%AMROUNDEDRECTD49*
21,1,0.09843,0.02953,0,0,0.0*
21,1,0.06890,0.05906,0,0,0.0*
1,1,0.02953,0.03445,-0.01476*
1,1,0.02953,-0.03445,-0.01476*
1,1,0.02953,-0.03445,0.01476*
1,1,0.02953,0.03445,0.01476*
%
%ADD49ROUNDEDRECTD49*%
G04:AMPARAMS|DCode=50|XSize=78.74mil|YSize=59.06mil|CornerRadius=14.76mil|HoleSize=0mil|Usage=FLASHONLY|Rotation=0.000|XOffset=0mil|YOffset=0mil|HoleType=Round|Shape=RoundedRectangle|*
%AMROUNDEDRECTD50*
21,1,0.07874,0.02953,0,0,0.0*
21,1,0.04921,0.05906,0,0,0.0*
1,1,0.02953,0.02461,-0.01476*
1,1,0.02953,-0.02461,-0.01476*
1,1,0.02953,-0.02461,0.01476*
1,1,0.02953,0.02461,0.01476*
%
%ADD50ROUNDEDRECTD50*%
G04:AMPARAMS|DCode=51|XSize=59.06mil|YSize=98.43mil|CornerRadius=14.76mil|HoleSize=0mil|Usage=FLASHONLY|Rotation=0.000|XOffset=0mil|YOffset=0mil|HoleType=Round|Shape=RoundedRectangle|*
%AMROUNDEDRECTD51*
21,1,0.05906,0.06890,0,0,0.0*
21,1,0.02953,0.09843,0,0,0.0*
1,1,0.02953,0.01476,-0.03445*
1,1,0.02953,-0.01476,-0.03445*
1,1,0.02953,-0.01476,0.03445*
1,1,0.02953,0.01476,0.03445*
%
%ADD51ROUNDEDRECTD51*%
G04:AMPARAMS|DCode=52|XSize=60mil|YSize=98.43mil|CornerRadius=15mil|HoleSize=0mil|Usage=FLASHONLY|Rotation=0.000|XOffset=0mil|YOffset=0mil|HoleType=Round|Shape=RoundedRectangle|*
%AMROUNDEDRECTD52*
21,1,0.06000,0.06843,0,0,0.0*
21,1,0.03000,0.09843,0,0,0.0*
1,1,0.03000,0.01500,-0.03421*
1,1,0.03000,-0.01500,-0.03421*
1,1,0.03000,-0.01500,0.03421*
1,1,0.03000,0.01500,0.03421*
%
%ADD52ROUNDEDRECTD52*%
%ADD53C,0.06693*%
G04:AMPARAMS|DCode=54|XSize=60mil|YSize=70mil|CornerRadius=7.5mil|HoleSize=0mil|Usage=FLASHONLY|Rotation=180.000|XOffset=0mil|YOffset=0mil|HoleType=Round|Shape=RoundedRectangle|*
%AMROUNDEDRECTD54*
21,1,0.06000,0.05500,0,0,180.0*
21,1,0.04500,0.07000,0,0,180.0*
1,1,0.01500,-0.02250,0.02750*
1,1,0.01500,0.02250,0.02750*
1,1,0.01500,0.02250,-0.02750*
1,1,0.01500,-0.02250,-0.02750*
%
%ADD54ROUNDEDRECTD54*%
%ADD55O,0.06000X0.07000*%
G04:AMPARAMS|DCode=56|XSize=59.06mil|YSize=59.06mil|CornerRadius=14.76mil|HoleSize=0mil|Usage=FLASHONLY|Rotation=0.000|XOffset=0mil|YOffset=0mil|HoleType=Round|Shape=RoundedRectangle|*
%AMROUNDEDRECTD56*
21,1,0.05906,0.02953,0,0,0.0*
21,1,0.02953,0.05906,0,0,0.0*
1,1,0.02953,0.01476,-0.01476*
1,1,0.02953,-0.01476,-0.01476*
1,1,0.02953,-0.01476,0.01476*
1,1,0.02953,0.01476,0.01476*
%
%ADD56ROUNDEDRECTD56*%
%ADD57C,0.08000*%
%ADD58C,0.06201*%
%ADD59R,0.06201X0.06201*%
%ADD60C,0.06900*%
%ADD61C,0.07520*%
%ADD62R,0.07520X0.07520*%
%ADD63C,0.03937*%
%ADD64R,0.03937X0.03937*%
%ADD65C,0.04756*%
%ADD66R,0.04756X0.04756*%
%ADD67C,0.08268*%
%ADD68C,0.05000*%
D13*
X373622Y455512D02*
X375197Y457087D01*
X273622Y455512D02*
X373622D01*
X386221Y419291D02*
Y462992D01*
D46*
X521260Y468386D02*
D03*
D47*
Y458386D02*
D03*
D48*
X222835Y463779D02*
D03*
X529528Y440945D02*
D03*
X449606Y454331D02*
D03*
X468307D02*
D03*
X271654Y381102D02*
D03*
X223622Y364567D02*
D03*
X514567Y434252D02*
D03*
D49*
X480709Y359449D02*
D03*
D50*
X455118Y468110D02*
D03*
X397638D02*
D03*
D51*
X509055Y449213D02*
D03*
D52*
X236221Y463779D02*
D03*
D53*
X267323Y401575D02*
D03*
X314567D02*
D03*
D54*
X377165Y465748D02*
D03*
D55*
X348819D02*
D03*
D56*
X435433Y461024D02*
D03*
X425433D02*
D03*
X415433D02*
D03*
X505118Y368110D02*
D03*
X515118D02*
D03*
X525118D02*
D03*
D57*
X401181Y390945D02*
D03*
Y459449D02*
D03*
D58*
X412598Y444177D02*
D03*
D59*
Y421177D02*
D03*
D60*
X488181Y368634D02*
D03*
X441681Y430634D02*
D03*
X492681Y382634D02*
D03*
X432181Y422634D02*
D03*
X422681Y429634D02*
D03*
X427181Y438134D02*
D03*
X436681Y440634D02*
D03*
D61*
X273563Y464173D02*
D03*
X288563D02*
D03*
X303563D02*
D03*
D62*
X318563D02*
D03*
D63*
X407480Y369685D02*
D03*
X528740Y400787D02*
D03*
X506693D02*
D03*
D64*
X407480Y361811D02*
D03*
D65*
X290905Y383740D02*
D03*
X309405D02*
D03*
X290905Y367740D02*
D03*
X287756Y420496D02*
D03*
X306256Y442996D02*
D03*
X287756D02*
D03*
D66*
X309405Y367740D02*
D03*
X306256Y420496D02*
D03*
D67*
X263937Y363779D02*
D03*
X243937D02*
D03*
D68*
X375197Y457087D02*
D03*
X273622Y455512D02*
D03*
X386221Y462992D02*
D03*
Y419291D02*
D03*
M02*
