G04*
G04 #@! TF.GenerationSoftware,Altium Limited,Altium Designer,19.0.15 (446)*
G04*
G04 Layer_Color=32768*
%FSLAX25Y25*%
%MOIN*%
G70*
G01*
G75*
%ADD10C,0.00500*%
%ADD11C,0.00787*%
%ADD15C,0.00394*%
%ADD117C,0.00300*%
%ADD118C,0.00197*%
%ADD119C,0.01000*%
%ADD120C,0.02000*%
%ADD121C,0.01968*%
D10*
X417354Y365748D02*
G03*
X417354Y365748I-9874J0D01*
G01*
X537574Y400787D02*
G03*
X537574Y400787I-19858J0D01*
G01*
X408591Y472280D02*
X442591D01*
Y452280D02*
Y472280D01*
X408591Y452280D02*
X442591D01*
X408591D02*
Y472280D01*
X497961Y354886D02*
X531961D01*
X497961D02*
Y374886D01*
X531961D01*
Y354886D02*
Y374886D01*
D11*
X426181Y373228D02*
X469882D01*
X426181Y357480D02*
Y373228D01*
Y357480D02*
X469882D01*
Y373228D01*
D15*
X528740Y459252D02*
X534252D01*
X528740Y471063D02*
X534252D01*
Y459252D02*
Y471063D01*
X528740Y459252D02*
Y471063D01*
X521654Y410630D02*
X525591D01*
X523622Y408661D02*
Y412598D01*
X526772Y405118D02*
Y416142D01*
X520472Y405118D02*
Y416142D01*
Y405118D02*
X526772D01*
X520472Y416142D02*
X526772D01*
X473819Y413583D02*
X477756D01*
X475787Y411614D02*
Y415551D01*
X469488Y407283D02*
Y419882D01*
X482087Y407283D02*
Y419882D01*
X469488D02*
X482087D01*
X469488Y407283D02*
X482087D01*
X461024Y375197D02*
Y393307D01*
X469685Y375197D02*
Y393307D01*
X461024D02*
X469685D01*
X461024Y375197D02*
X469685D01*
X529134Y359055D02*
Y371654D01*
X536221Y359055D02*
Y371654D01*
X529134D02*
X536221D01*
X529134Y359055D02*
X536221D01*
X515354Y386221D02*
X533465D01*
X515354Y394882D02*
X533465D01*
X515354Y386221D02*
Y394882D01*
X533465Y386221D02*
Y394882D01*
X511417Y377165D02*
X529528D01*
X511417Y385827D02*
X529528D01*
X511417Y377165D02*
Y385827D01*
X529528Y377165D02*
Y385827D01*
X412598Y437587D02*
Y439677D01*
Y425177D02*
Y427779D01*
X407972Y432406D02*
X412598Y427779D01*
X407972D02*
X417224D01*
Y437677D01*
X407972Y437587D02*
X417224D01*
X407972Y427779D02*
Y437677D01*
X375984Y357283D02*
Y375394D01*
X384646Y357283D02*
Y375394D01*
X375984D02*
X384646D01*
X375984Y357283D02*
X384646D01*
X425197Y391339D02*
Y409449D01*
X433858Y391339D02*
Y409449D01*
X425197D02*
X433858D01*
X425197Y391339D02*
X433858D01*
X364764Y374016D02*
X371457D01*
X364764Y361417D02*
X371457D01*
X364764D02*
Y374016D01*
X371457Y361417D02*
Y374016D01*
X321260Y427559D02*
Y445669D01*
X312598Y427559D02*
Y445669D01*
Y427559D02*
X321260D01*
X312598Y445669D02*
X321260D01*
X477953Y375000D02*
Y386811D01*
X472441Y375000D02*
Y386811D01*
Y375000D02*
X477953D01*
X472441Y386811D02*
X477953D01*
X397441Y395079D02*
Y407677D01*
X390748Y395079D02*
Y407677D01*
Y395079D02*
X397441D01*
X390748Y407677D02*
X397441D01*
X369685Y450787D02*
X378346D01*
X369685Y432677D02*
X378346D01*
X369685D02*
Y450787D01*
X378346Y432677D02*
Y450787D01*
X348819D02*
X357480D01*
X348819Y432677D02*
X357480D01*
X348819D02*
Y450787D01*
X357480Y432677D02*
Y450787D01*
X337402Y435827D02*
X346063D01*
X337402Y453937D02*
X346063D01*
Y435827D02*
Y453937D01*
X337402Y435827D02*
Y453937D01*
X492913Y425787D02*
X501575D01*
X492913Y407677D02*
X501575D01*
X492913D02*
Y425787D01*
X501575Y407677D02*
Y425787D01*
X412205Y373622D02*
Y385433D01*
X417717Y373622D02*
Y385433D01*
X412205D02*
X417717D01*
X412205Y373622D02*
X417717D01*
X349606Y368110D02*
X355118D01*
X349606Y356299D02*
X355118D01*
X349606D02*
Y368110D01*
X355118Y356299D02*
Y368110D01*
X479724Y374803D02*
Y387402D01*
X486417Y374803D02*
Y387402D01*
X479724D02*
X486417D01*
X479724Y374803D02*
X486417D01*
X418898Y379724D02*
X424409D01*
X418898Y367913D02*
X424409D01*
X418898D02*
Y379724D01*
X424409Y367913D02*
Y379724D01*
X405512Y459449D02*
Y471260D01*
X411024Y459449D02*
Y471260D01*
X405512D02*
X411024D01*
X405512Y459449D02*
X411024D01*
X360630Y378150D02*
X366142D01*
X360630Y389961D02*
X366142D01*
Y378150D02*
Y389961D01*
X360630Y378150D02*
Y389961D01*
X376772Y404331D02*
X382283D01*
X376772Y416142D02*
X382283D01*
Y404331D02*
Y416142D01*
X376772Y404331D02*
Y416142D01*
X344094Y422047D02*
X349606D01*
X344094Y410236D02*
X349606D01*
X344094D02*
Y422047D01*
X349606Y410236D02*
Y422047D01*
X355906Y403346D02*
Y415158D01*
X350394Y403346D02*
Y415158D01*
Y403346D02*
X355906D01*
X350394Y415158D02*
X355906D01*
X474803Y388976D02*
Y400787D01*
X480315Y388976D02*
Y400787D01*
X474803D02*
X480315D01*
X474803Y388976D02*
X480315D01*
X359842Y449213D02*
X368504D01*
X359842Y467323D02*
X368504D01*
Y449213D02*
Y467323D01*
X359842Y449213D02*
Y467323D01*
X329528Y420472D02*
X338189D01*
X329528Y402362D02*
X338189D01*
X329528D02*
Y420472D01*
X338189Y402362D02*
Y420472D01*
X502362Y425591D02*
X511024D01*
X502362Y407480D02*
X511024D01*
X502362D02*
Y425591D01*
X511024Y407480D02*
Y425591D01*
X496457Y394882D02*
Y406693D01*
X501968Y394882D02*
Y406693D01*
X496457D02*
X501968D01*
X496457Y394882D02*
X501968D01*
X484646Y418898D02*
X490158D01*
X484646Y407087D02*
X490158D01*
X484646D02*
Y418898D01*
X490158Y407087D02*
Y418898D01*
X490551Y406693D02*
X496063D01*
X490551Y394882D02*
X496063D01*
X490551D02*
Y406693D01*
X496063Y394882D02*
Y406693D01*
X484646Y394882D02*
Y406693D01*
X490158Y394882D02*
Y406693D01*
X484646D02*
X490158D01*
X484646Y394882D02*
X490158D01*
X431102Y374410D02*
Y386221D01*
X425591Y374410D02*
Y386221D01*
Y374410D02*
X431102D01*
X425591Y386221D02*
X431102D01*
X373031Y382283D02*
Y394882D01*
X379724Y382283D02*
Y394882D01*
X373031D02*
X379724D01*
X373031Y382283D02*
X379724D01*
X441339Y406693D02*
Y418504D01*
X446850Y406693D02*
Y418504D01*
X441339D02*
X446850D01*
X441339Y406693D02*
X446850D01*
X366929Y387665D02*
X372441D01*
X366929Y399476D02*
X372441D01*
Y387665D02*
Y399476D01*
X366929Y387665D02*
Y399476D01*
X370866Y404331D02*
Y416142D01*
X376378Y404331D02*
Y416142D01*
X370866D02*
X376378D01*
X370866Y404331D02*
X376378D01*
X446063Y365354D02*
X450000D01*
X448032Y363386D02*
Y367323D01*
X325984Y449803D02*
X334646D01*
X325984Y467913D02*
X334646D01*
Y449803D02*
Y467913D01*
X325984Y449803D02*
Y467913D01*
X294882Y405905D02*
X312992D01*
X294882Y414567D02*
X312992D01*
X294882Y405905D02*
Y414567D01*
X312992Y405905D02*
Y414567D01*
X270079Y405905D02*
X288189D01*
X270079Y414567D02*
X288189D01*
X270079Y405905D02*
Y414567D01*
X288189Y405905D02*
Y414567D01*
D117*
X403937Y373524D02*
Y394193D01*
Y373524D02*
X411811D01*
Y394193D01*
X403937D02*
X411811D01*
X356496Y418307D02*
X370276D01*
X356496Y403346D02*
Y418307D01*
Y403346D02*
X370276D01*
Y418307D01*
X433465Y394488D02*
X440551D01*
X433465Y407874D02*
X440551D01*
Y394488D02*
Y407874D01*
X433465Y394488D02*
Y407874D01*
X379528Y396260D02*
X387402D01*
Y382480D02*
Y396260D01*
X379528Y382480D02*
X387402D01*
X379528D02*
Y396260D01*
X415748Y402559D02*
X423622D01*
Y388779D02*
Y402559D01*
X415748Y388779D02*
X423622D01*
X415748D02*
Y402559D01*
D118*
X526309Y451006D02*
G03*
X516210Y451006I-5049J11341D01*
G01*
X516260Y450984D02*
X526260D01*
X360236Y368504D02*
Y397638D01*
X338189Y368504D02*
Y397638D01*
Y368504D02*
X360236D01*
X338189Y397638D02*
X360236D01*
X325091Y457173D02*
Y470673D01*
X267563Y470642D02*
X325091D01*
X267535Y457173D02*
Y470673D01*
X267563Y457205D02*
X325091D01*
X279929Y363768D02*
Y387402D01*
Y363768D02*
X320866Y363747D01*
X320776Y363740D02*
Y387402D01*
X279921Y387479D02*
X320776Y387402D01*
X263787Y446965D02*
X330256D01*
X330224Y416496D02*
Y446996D01*
X263756Y416530D02*
X330256Y416496D01*
X263787D02*
Y446996D01*
D119*
X531496Y465158D02*
D03*
X532677Y365354D02*
D03*
X368110Y367717D02*
D03*
X475197Y380906D02*
D03*
X394094Y401378D02*
D03*
X414961Y379528D02*
D03*
X352362Y362205D02*
D03*
X483071Y381102D02*
D03*
X421654Y373819D02*
D03*
X408268Y465354D02*
D03*
X363386Y384055D02*
D03*
X379528Y410236D02*
D03*
X346850Y416142D02*
D03*
X353150Y409252D02*
D03*
X477559Y394882D02*
D03*
X499213Y400787D02*
D03*
X487402Y412992D02*
D03*
X493307Y400787D02*
D03*
X487402D02*
D03*
X428346Y380315D02*
D03*
X376378Y388583D02*
D03*
X444095Y412598D02*
D03*
X369685Y393571D02*
D03*
X373622Y410236D02*
D03*
D120*
X465354Y384252D02*
D03*
X524409Y390551D02*
D03*
X520472Y381496D02*
D03*
X362992Y465748D02*
D03*
X380315Y366339D02*
D03*
X429528Y400394D02*
D03*
X407874Y383858D02*
D03*
X316929Y436614D02*
D03*
X390551Y368110D02*
D03*
X374016Y441732D02*
D03*
X353150D02*
D03*
X341732Y444882D02*
D03*
X497244Y416732D02*
D03*
X364173Y458268D02*
D03*
X333858Y411417D02*
D03*
X506693Y416535D02*
D03*
X437008Y401181D02*
D03*
X383465Y389370D02*
D03*
X419685Y395669D02*
D03*
X330315Y458858D02*
D03*
X303937Y410236D02*
D03*
X279134D02*
D03*
D121*
X363386Y410827D02*
D03*
X253937Y363779D02*
D03*
M02*
