G04*
G04 #@! TF.GenerationSoftware,Altium Limited,Altium Designer,19.0.15 (446)*
G04*
G04 Layer_Color=65535*
%FSLAX25Y25*%
%MOIN*%
G70*
G01*
G75*
%ADD10C,0.00500*%
%ADD11C,0.00787*%
%ADD12C,0.00000*%
%ADD13C,0.01000*%
%ADD14C,0.00700*%
%ADD15C,0.00394*%
%ADD16C,0.00701*%
%ADD17C,0.00600*%
%ADD18R,0.00500X0.16000*%
%ADD19R,0.00500X0.16500*%
%ADD20R,0.32500X0.00500*%
%ADD21R,0.33000X0.00500*%
G36*
X343047Y467225D02*
X344094D01*
Y466786D01*
X343047D01*
Y465739D01*
X342603D01*
Y466786D01*
X341556D01*
Y467225D01*
X342603D01*
Y468278D01*
X343047D01*
Y467225D01*
D02*
G37*
G36*
X415646Y457839D02*
X415693D01*
X415792Y457827D01*
X415904Y457810D01*
X416032Y457786D01*
X416161Y457751D01*
X416290Y457704D01*
X416295D01*
X416307Y457698D01*
X416325Y457693D01*
X416348Y457681D01*
X416407Y457652D01*
X416483Y457605D01*
X416570Y457552D01*
X416658Y457488D01*
X416746Y457418D01*
X416822Y457330D01*
X416828Y457318D01*
X416851Y457289D01*
X416886Y457236D01*
X416933Y457160D01*
X416980Y457073D01*
X417027Y456967D01*
X417073Y456844D01*
X417114Y456704D01*
X416652Y456575D01*
Y456581D01*
X416646Y456587D01*
X416641Y456622D01*
X416617Y456675D01*
X416594Y456745D01*
X416565Y456815D01*
X416530Y456891D01*
X416489Y456967D01*
X416442Y457037D01*
X416436Y457043D01*
X416418Y457067D01*
X416389Y457096D01*
X416348Y457137D01*
X416295Y457178D01*
X416231Y457225D01*
X416161Y457266D01*
X416073Y457307D01*
X416061Y457312D01*
X416032Y457324D01*
X415980Y457342D01*
X415915Y457359D01*
X415839Y457377D01*
X415752Y457394D01*
X415652Y457406D01*
X415547Y457412D01*
X415488D01*
X415424Y457406D01*
X415342Y457400D01*
X415248Y457383D01*
X415143Y457365D01*
X415044Y457336D01*
X414944Y457301D01*
X414932Y457295D01*
X414903Y457283D01*
X414856Y457260D01*
X414798Y457225D01*
X414734Y457184D01*
X414663Y457137D01*
X414599Y457084D01*
X414535Y457020D01*
X414529Y457014D01*
X414511Y456991D01*
X414482Y456956D01*
X414447Y456909D01*
X414406Y456850D01*
X414365Y456786D01*
X414330Y456716D01*
X414295Y456640D01*
Y456634D01*
X414289Y456622D01*
X414283Y456605D01*
X414271Y456575D01*
X414260Y456546D01*
X414248Y456505D01*
X414225Y456412D01*
X414195Y456294D01*
X414172Y456166D01*
X414154Y456020D01*
X414149Y455867D01*
Y455862D01*
Y455844D01*
Y455821D01*
X414154Y455780D01*
Y455739D01*
X414160Y455686D01*
X414166Y455628D01*
X414172Y455569D01*
X414189Y455429D01*
X414225Y455282D01*
X414265Y455142D01*
X414324Y455002D01*
Y454996D01*
X414330Y454984D01*
X414342Y454967D01*
X414359Y454943D01*
X414400Y454885D01*
X414453Y454809D01*
X414523Y454727D01*
X414611Y454639D01*
X414716Y454557D01*
X414833Y454487D01*
X414839D01*
X414851Y454481D01*
X414868Y454469D01*
X414891Y454463D01*
X414921Y454452D01*
X414962Y454434D01*
X415049Y454405D01*
X415161Y454376D01*
X415278Y454347D01*
X415412Y454329D01*
X415553Y454323D01*
X415611D01*
X415675Y454329D01*
X415757Y454341D01*
X415851Y454352D01*
X415962Y454376D01*
X416079Y454405D01*
X416196Y454446D01*
X416202D01*
X416208Y454452D01*
X416225Y454458D01*
X416249Y454469D01*
X416307Y454493D01*
X416377Y454528D01*
X416453Y454569D01*
X416530Y454616D01*
X416606Y454668D01*
X416676Y454721D01*
Y455446D01*
X415547D01*
Y455897D01*
X417173D01*
Y454469D01*
X417167Y454463D01*
X417156Y454458D01*
X417138Y454440D01*
X417109Y454423D01*
X417073Y454393D01*
X417033Y454370D01*
X416933Y454300D01*
X416816Y454229D01*
X416687Y454153D01*
X416541Y454083D01*
X416395Y454019D01*
X416389D01*
X416377Y454013D01*
X416354Y454007D01*
X416325Y453996D01*
X416290Y453984D01*
X416249Y453972D01*
X416196Y453960D01*
X416143Y453949D01*
X416021Y453919D01*
X415886Y453896D01*
X415734Y453878D01*
X415582Y453873D01*
X415529D01*
X415488Y453878D01*
X415436D01*
X415377Y453884D01*
X415313Y453890D01*
X415242Y453902D01*
X415079Y453931D01*
X414909Y453972D01*
X414728Y454031D01*
X414552Y454112D01*
X414546Y454118D01*
X414535Y454124D01*
X414505Y454136D01*
X414476Y454159D01*
X414435Y454183D01*
X414394Y454212D01*
X414295Y454288D01*
X414178Y454387D01*
X414067Y454510D01*
X413955Y454651D01*
X413856Y454809D01*
Y454814D01*
X413844Y454832D01*
X413833Y454855D01*
X413821Y454890D01*
X413803Y454931D01*
X413780Y454984D01*
X413762Y455043D01*
X413739Y455113D01*
X413716Y455183D01*
X413698Y455265D01*
X413657Y455440D01*
X413634Y455633D01*
X413622Y455838D01*
Y455844D01*
Y455862D01*
Y455891D01*
X413628Y455932D01*
Y455984D01*
X413634Y456043D01*
X413640Y456107D01*
X413651Y456178D01*
X413681Y456341D01*
X413722Y456517D01*
X413780Y456704D01*
X413856Y456885D01*
Y456891D01*
X413868Y456909D01*
X413879Y456932D01*
X413897Y456967D01*
X413926Y457008D01*
X413955Y457049D01*
X414026Y457160D01*
X414125Y457277D01*
X414236Y457394D01*
X414377Y457506D01*
X414447Y457558D01*
X414529Y457605D01*
X414535D01*
X414546Y457617D01*
X414576Y457628D01*
X414605Y457640D01*
X414646Y457663D01*
X414698Y457681D01*
X414757Y457704D01*
X414821Y457728D01*
X414891Y457745D01*
X414968Y457769D01*
X415143Y457810D01*
X415330Y457833D01*
X415541Y457845D01*
X415611D01*
X415646Y457839D01*
D02*
G37*
G36*
X426219Y457775D02*
X426325Y457769D01*
X426442Y457757D01*
X426553Y457739D01*
X426646Y457722D01*
X426652D01*
X426664Y457716D01*
X426676D01*
X426699Y457704D01*
X426763Y457687D01*
X426839Y457658D01*
X426927Y457622D01*
X427021Y457576D01*
X427114Y457517D01*
X427208Y457447D01*
X427214D01*
X427220Y457435D01*
X427261Y457400D01*
X427313Y457342D01*
X427378Y457266D01*
X427454Y457172D01*
X427530Y457061D01*
X427600Y456932D01*
X427664Y456786D01*
Y456780D01*
X427670Y456768D01*
X427676Y456745D01*
X427688Y456716D01*
X427699Y456681D01*
X427711Y456634D01*
X427729Y456581D01*
X427740Y456523D01*
X427752Y456458D01*
X427770Y456388D01*
X427793Y456236D01*
X427810Y456066D01*
X427816Y455879D01*
Y455873D01*
Y455862D01*
Y455838D01*
Y455803D01*
X427810Y455768D01*
Y455721D01*
X427805Y455616D01*
X427793Y455499D01*
X427770Y455364D01*
X427746Y455230D01*
X427711Y455101D01*
Y455095D01*
X427705Y455084D01*
X427699Y455066D01*
X427694Y455043D01*
X427670Y454984D01*
X427641Y454902D01*
X427606Y454814D01*
X427559Y454721D01*
X427506Y454627D01*
X427448Y454539D01*
X427442Y454528D01*
X427419Y454504D01*
X427389Y454463D01*
X427343Y454411D01*
X427296Y454358D01*
X427231Y454300D01*
X427167Y454241D01*
X427097Y454189D01*
X427091Y454183D01*
X427062Y454171D01*
X427021Y454148D01*
X426968Y454118D01*
X426904Y454089D01*
X426828Y454060D01*
X426740Y454031D01*
X426641Y454001D01*
X426629D01*
X426594Y453990D01*
X426541Y453984D01*
X426465Y453972D01*
X426377Y453960D01*
X426272Y453949D01*
X426155Y453943D01*
X426026Y453937D01*
X424646D01*
Y457781D01*
X426120D01*
X426219Y457775D01*
D02*
G37*
G36*
X435697Y457839D02*
X435738D01*
X435838Y457827D01*
X435955Y457810D01*
X436084Y457786D01*
X436212Y457751D01*
X436335Y457704D01*
X436341D01*
X436347Y457698D01*
X436364Y457693D01*
X436388Y457681D01*
X436446Y457646D01*
X436522Y457605D01*
X436604Y457547D01*
X436686Y457476D01*
X436768Y457394D01*
X436838Y457301D01*
X436844Y457289D01*
X436867Y457254D01*
X436897Y457195D01*
X436926Y457125D01*
X436961Y457037D01*
X436996Y456932D01*
X437019Y456821D01*
X437031Y456698D01*
X436546Y456663D01*
Y456669D01*
Y456681D01*
X436540Y456698D01*
X436534Y456722D01*
X436522Y456786D01*
X436499Y456868D01*
X436464Y456956D01*
X436417Y457043D01*
X436353Y457131D01*
X436276Y457207D01*
X436265Y457213D01*
X436236Y457236D01*
X436183Y457266D01*
X436113Y457301D01*
X436019Y457336D01*
X435902Y457365D01*
X435768Y457388D01*
X435610Y457394D01*
X435534D01*
X435499Y457388D01*
X435452D01*
X435352Y457371D01*
X435241Y457353D01*
X435130Y457324D01*
X435025Y457283D01*
X434978Y457254D01*
X434937Y457225D01*
X434931Y457219D01*
X434908Y457195D01*
X434872Y457160D01*
X434837Y457108D01*
X434796Y457049D01*
X434767Y456979D01*
X434744Y456903D01*
X434732Y456815D01*
Y456804D01*
Y456780D01*
X434738Y456739D01*
X434750Y456692D01*
X434767Y456640D01*
X434796Y456581D01*
X434832Y456529D01*
X434878Y456476D01*
X434884Y456470D01*
X434913Y456453D01*
X434931Y456441D01*
X434954Y456423D01*
X434990Y456412D01*
X435031Y456394D01*
X435077Y456371D01*
X435130Y456347D01*
X435188Y456330D01*
X435259Y456306D01*
X435340Y456277D01*
X435428Y456254D01*
X435528Y456230D01*
X435639Y456201D01*
X435645D01*
X435668Y456195D01*
X435697Y456189D01*
X435738Y456178D01*
X435791Y456166D01*
X435850Y456148D01*
X435978Y456119D01*
X436119Y456078D01*
X436259Y456037D01*
X436329Y456020D01*
X436388Y455996D01*
X436446Y455973D01*
X436493Y455955D01*
X436499D01*
X436511Y455949D01*
X436522Y455938D01*
X436546Y455926D01*
X436604Y455891D01*
X436680Y455850D01*
X436762Y455791D01*
X436844Y455721D01*
X436920Y455645D01*
X436984Y455563D01*
X436990Y455552D01*
X437008Y455522D01*
X437037Y455476D01*
X437066Y455405D01*
X437095Y455329D01*
X437125Y455236D01*
X437142Y455130D01*
X437148Y455019D01*
Y455013D01*
Y455008D01*
Y454990D01*
Y454967D01*
X437137Y454908D01*
X437125Y454832D01*
X437107Y454744D01*
X437072Y454645D01*
X437031Y454539D01*
X436973Y454440D01*
X436967Y454428D01*
X436938Y454393D01*
X436903Y454347D01*
X436844Y454288D01*
X436774Y454218D01*
X436686Y454148D01*
X436581Y454083D01*
X436464Y454019D01*
X436458D01*
X436446Y454013D01*
X436429Y454007D01*
X436405Y453996D01*
X436376Y453984D01*
X436341Y453972D01*
X436247Y453949D01*
X436142Y453919D01*
X436013Y453896D01*
X435879Y453878D01*
X435727Y453873D01*
X435639D01*
X435598Y453878D01*
X435545D01*
X435487Y453884D01*
X435422Y453890D01*
X435288Y453908D01*
X435142Y453937D01*
X434995Y453972D01*
X434855Y454019D01*
X434849D01*
X434837Y454025D01*
X434820Y454036D01*
X434796Y454048D01*
X434732Y454083D01*
X434656Y454136D01*
X434562Y454200D01*
X434475Y454276D01*
X434381Y454370D01*
X434299Y454475D01*
Y454481D01*
X434293Y454487D01*
X434282Y454504D01*
X434270Y454528D01*
X434252Y454557D01*
X434235Y454592D01*
X434200Y454680D01*
X434165Y454779D01*
X434130Y454902D01*
X434106Y455031D01*
X434094Y455171D01*
X434574Y455212D01*
Y455206D01*
Y455201D01*
X434580Y455165D01*
X434592Y455113D01*
X434603Y455043D01*
X434627Y454967D01*
X434650Y454885D01*
X434685Y454809D01*
X434726Y454733D01*
X434732Y454727D01*
X434750Y454703D01*
X434779Y454668D01*
X434826Y454627D01*
X434878Y454580D01*
X434943Y454528D01*
X435025Y454481D01*
X435112Y454434D01*
X435118D01*
X435124Y454428D01*
X435159Y454417D01*
X435212Y454399D01*
X435288Y454382D01*
X435370Y454358D01*
X435475Y454341D01*
X435586Y454329D01*
X435703Y454323D01*
X435750D01*
X435809Y454329D01*
X435873Y454335D01*
X435955Y454341D01*
X436037Y454358D01*
X436124Y454376D01*
X436212Y454405D01*
X436224Y454411D01*
X436247Y454423D01*
X436288Y454440D01*
X436335Y454469D01*
X436393Y454504D01*
X436446Y454545D01*
X436499Y454592D01*
X436546Y454645D01*
X436552Y454651D01*
X436563Y454674D01*
X436581Y454703D01*
X436604Y454744D01*
X436622Y454791D01*
X436639Y454850D01*
X436651Y454908D01*
X436657Y454973D01*
Y454978D01*
Y455002D01*
X436651Y455037D01*
X436645Y455078D01*
X436633Y455130D01*
X436610Y455183D01*
X436587Y455236D01*
X436552Y455288D01*
X436546Y455294D01*
X436534Y455312D01*
X436505Y455335D01*
X436470Y455370D01*
X436423Y455405D01*
X436364Y455440D01*
X436288Y455481D01*
X436206Y455516D01*
X436201Y455522D01*
X436177Y455528D01*
X436130Y455540D01*
X436101Y455552D01*
X436066Y455563D01*
X436019Y455575D01*
X435972Y455587D01*
X435914Y455604D01*
X435855Y455622D01*
X435785Y455639D01*
X435703Y455657D01*
X435615Y455680D01*
X435522Y455704D01*
X435516D01*
X435499Y455710D01*
X435469Y455715D01*
X435434Y455727D01*
X435393Y455739D01*
X435346Y455751D01*
X435235Y455780D01*
X435112Y455821D01*
X434990Y455862D01*
X434878Y455903D01*
X434826Y455920D01*
X434785Y455943D01*
X434779D01*
X434773Y455949D01*
X434738Y455973D01*
X434691Y456002D01*
X434633Y456043D01*
X434562Y456096D01*
X434498Y456154D01*
X434434Y456224D01*
X434375Y456300D01*
X434369Y456312D01*
X434352Y456341D01*
X434334Y456382D01*
X434311Y456441D01*
X434282Y456511D01*
X434264Y456593D01*
X434247Y456686D01*
X434241Y456780D01*
Y456786D01*
Y456792D01*
Y456809D01*
Y456833D01*
X434252Y456885D01*
X434264Y456956D01*
X434282Y457043D01*
X434311Y457131D01*
X434352Y457231D01*
X434405Y457324D01*
Y457330D01*
X434410Y457336D01*
X434434Y457365D01*
X434475Y457412D01*
X434527Y457470D01*
X434592Y457529D01*
X434674Y457593D01*
X434773Y457658D01*
X434884Y457710D01*
X434890D01*
X434896Y457716D01*
X434913Y457722D01*
X434943Y457734D01*
X434972Y457739D01*
X435007Y457751D01*
X435089Y457781D01*
X435194Y457804D01*
X435311Y457821D01*
X435446Y457839D01*
X435586Y457845D01*
X435656D01*
X435697Y457839D01*
D02*
G37*
G36*
X273563Y456047D02*
X272118D01*
Y456521D01*
X273563D01*
Y456047D01*
D02*
G37*
G36*
X319016Y456500D02*
X320063D01*
Y456061D01*
X319016D01*
Y455014D01*
X318571D01*
Y456061D01*
X317524D01*
Y456500D01*
X318571D01*
Y457553D01*
X319016D01*
Y456500D01*
D02*
G37*
G36*
X291595Y453830D02*
X291039D01*
X289477Y457673D01*
X290050D01*
X290495Y456509D01*
X292109D01*
X292525Y457673D01*
X293063D01*
X291595Y453830D01*
D02*
G37*
G36*
X287511Y457732D02*
X287564D01*
X287622Y457726D01*
X287693Y457714D01*
X287763Y457708D01*
X287927Y457673D01*
X288096Y457632D01*
X288260Y457568D01*
X288342Y457533D01*
X288418Y457486D01*
X288424Y457480D01*
X288436Y457474D01*
X288453Y457457D01*
X288482Y457439D01*
X288553Y457381D01*
X288634Y457299D01*
X288734Y457199D01*
X288828Y457071D01*
X288927Y456924D01*
X289009Y456755D01*
Y456749D01*
X289015Y456731D01*
X289026Y456708D01*
X289038Y456673D01*
X289056Y456626D01*
X289073Y456573D01*
X289091Y456515D01*
X289108Y456445D01*
X289126Y456375D01*
X289143Y456293D01*
X289179Y456117D01*
X289202Y455930D01*
X289208Y455725D01*
Y455719D01*
Y455696D01*
Y455667D01*
X289202Y455626D01*
Y455573D01*
X289196Y455509D01*
X289190Y455444D01*
X289179Y455368D01*
X289149Y455204D01*
X289114Y455029D01*
X289056Y454848D01*
X288980Y454678D01*
Y454672D01*
X288968Y454661D01*
X288956Y454637D01*
X288939Y454602D01*
X288915Y454567D01*
X288886Y454526D01*
X288810Y454426D01*
X288722Y454315D01*
X288611Y454204D01*
X288477Y454093D01*
X288330Y453999D01*
X288324D01*
X288313Y453988D01*
X288289Y453976D01*
X288254Y453964D01*
X288219Y453947D01*
X288172Y453923D01*
X288114Y453906D01*
X288055Y453882D01*
X287991Y453859D01*
X287921Y453841D01*
X287763Y453800D01*
X287587Y453777D01*
X287400Y453765D01*
X287342D01*
X287301Y453771D01*
X287254Y453777D01*
X287195Y453783D01*
X287131Y453789D01*
X287061Y453800D01*
X286909Y453836D01*
X286745Y453888D01*
X286663Y453923D01*
X286581Y453964D01*
X286505Y454011D01*
X286429Y454064D01*
X286423Y454070D01*
X286411Y454075D01*
X286394Y454093D01*
X286365Y454116D01*
X286335Y454146D01*
X286295Y454187D01*
X286254Y454228D01*
X286213Y454274D01*
X286166Y454333D01*
X286125Y454391D01*
X286078Y454462D01*
X286031Y454538D01*
X285990Y454614D01*
X285949Y454701D01*
X285879Y454889D01*
X286382Y455006D01*
Y455000D01*
X286388Y454988D01*
X286394Y454965D01*
X286406Y454935D01*
X286423Y454900D01*
X286441Y454859D01*
X286482Y454772D01*
X286534Y454672D01*
X286605Y454567D01*
X286681Y454473D01*
X286774Y454391D01*
X286786Y454386D01*
X286821Y454362D01*
X286874Y454333D01*
X286950Y454292D01*
X287037Y454257D01*
X287149Y454228D01*
X287271Y454204D01*
X287412Y454198D01*
X287453D01*
X287482Y454204D01*
X287523D01*
X287564Y454210D01*
X287669Y454228D01*
X287786Y454251D01*
X287909Y454292D01*
X288032Y454345D01*
X288149Y454415D01*
X288155D01*
X288161Y454426D01*
X288196Y454456D01*
X288248Y454502D01*
X288313Y454567D01*
X288377Y454649D01*
X288447Y454742D01*
X288512Y454859D01*
X288564Y454988D01*
Y454994D01*
X288570Y455006D01*
X288576Y455023D01*
X288582Y455052D01*
X288594Y455082D01*
X288599Y455123D01*
X288623Y455216D01*
X288646Y455327D01*
X288664Y455450D01*
X288675Y455585D01*
X288681Y455725D01*
Y455731D01*
Y455749D01*
Y455772D01*
Y455807D01*
X288675Y455848D01*
Y455901D01*
X288670Y455953D01*
X288664Y456012D01*
X288646Y456146D01*
X288623Y456293D01*
X288588Y456439D01*
X288541Y456579D01*
Y456585D01*
X288535Y456597D01*
X288523Y456614D01*
X288512Y456638D01*
X288482Y456708D01*
X288436Y456784D01*
X288371Y456878D01*
X288295Y456965D01*
X288208Y457053D01*
X288102Y457129D01*
X288096D01*
X288090Y457135D01*
X288073Y457147D01*
X288050Y457158D01*
X287985Y457182D01*
X287903Y457217D01*
X287810Y457246D01*
X287699Y457275D01*
X287576Y457299D01*
X287447Y457305D01*
X287406D01*
X287377Y457299D01*
X287342D01*
X287295Y457293D01*
X287195Y457275D01*
X287084Y457246D01*
X286961Y457199D01*
X286844Y457141D01*
X286727Y457059D01*
X286722Y457053D01*
X286716Y457047D01*
X286681Y457012D01*
X286628Y456954D01*
X286564Y456878D01*
X286499Y456772D01*
X286429Y456649D01*
X286371Y456497D01*
X286324Y456328D01*
X285815Y456456D01*
Y456462D01*
X285821Y456486D01*
X285832Y456515D01*
X285844Y456562D01*
X285868Y456608D01*
X285891Y456673D01*
X285914Y456737D01*
X285949Y456807D01*
X286025Y456965D01*
X286131Y457123D01*
X286248Y457275D01*
X286318Y457346D01*
X286394Y457410D01*
X286400Y457416D01*
X286411Y457422D01*
X286435Y457439D01*
X286470Y457463D01*
X286511Y457486D01*
X286558Y457515D01*
X286610Y457545D01*
X286675Y457574D01*
X286745Y457603D01*
X286821Y457632D01*
X286909Y457661D01*
X286997Y457685D01*
X287190Y457726D01*
X287295Y457732D01*
X287406Y457738D01*
X287464D01*
X287511Y457732D01*
D02*
G37*
G36*
X306095Y453830D02*
X305539D01*
X303977Y457673D01*
X304550D01*
X304995Y456509D01*
X306609D01*
X307025Y457673D01*
X307563D01*
X306095Y453830D01*
D02*
G37*
G36*
X302011Y457732D02*
X302064D01*
X302122Y457726D01*
X302193Y457714D01*
X302263Y457708D01*
X302427Y457673D01*
X302596Y457632D01*
X302760Y457568D01*
X302842Y457533D01*
X302918Y457486D01*
X302924Y457480D01*
X302936Y457474D01*
X302953Y457457D01*
X302982Y457439D01*
X303053Y457381D01*
X303134Y457299D01*
X303234Y457199D01*
X303328Y457071D01*
X303427Y456924D01*
X303509Y456755D01*
Y456749D01*
X303515Y456731D01*
X303526Y456708D01*
X303538Y456673D01*
X303556Y456626D01*
X303573Y456573D01*
X303591Y456515D01*
X303608Y456445D01*
X303626Y456375D01*
X303643Y456293D01*
X303679Y456117D01*
X303702Y455930D01*
X303708Y455725D01*
Y455719D01*
Y455696D01*
Y455667D01*
X303702Y455626D01*
Y455573D01*
X303696Y455509D01*
X303690Y455444D01*
X303679Y455368D01*
X303649Y455204D01*
X303614Y455029D01*
X303556Y454848D01*
X303480Y454678D01*
Y454672D01*
X303468Y454661D01*
X303456Y454637D01*
X303439Y454602D01*
X303415Y454567D01*
X303386Y454526D01*
X303310Y454426D01*
X303222Y454315D01*
X303111Y454204D01*
X302977Y454093D01*
X302830Y453999D01*
X302824D01*
X302813Y453988D01*
X302789Y453976D01*
X302754Y453964D01*
X302719Y453947D01*
X302672Y453923D01*
X302614Y453906D01*
X302555Y453882D01*
X302491Y453859D01*
X302421Y453841D01*
X302263Y453800D01*
X302087Y453777D01*
X301900Y453765D01*
X301842D01*
X301801Y453771D01*
X301754Y453777D01*
X301695Y453783D01*
X301631Y453789D01*
X301561Y453800D01*
X301409Y453836D01*
X301245Y453888D01*
X301163Y453923D01*
X301081Y453964D01*
X301005Y454011D01*
X300929Y454064D01*
X300923Y454070D01*
X300911Y454075D01*
X300894Y454093D01*
X300865Y454116D01*
X300835Y454146D01*
X300795Y454187D01*
X300754Y454228D01*
X300713Y454274D01*
X300666Y454333D01*
X300625Y454391D01*
X300578Y454462D01*
X300531Y454538D01*
X300490Y454614D01*
X300449Y454701D01*
X300379Y454889D01*
X300882Y455006D01*
Y455000D01*
X300888Y454988D01*
X300894Y454965D01*
X300906Y454935D01*
X300923Y454900D01*
X300941Y454859D01*
X300982Y454772D01*
X301034Y454672D01*
X301105Y454567D01*
X301181Y454473D01*
X301274Y454391D01*
X301286Y454386D01*
X301321Y454362D01*
X301374Y454333D01*
X301450Y454292D01*
X301537Y454257D01*
X301649Y454228D01*
X301771Y454204D01*
X301912Y454198D01*
X301953D01*
X301982Y454204D01*
X302023D01*
X302064Y454210D01*
X302169Y454228D01*
X302286Y454251D01*
X302409Y454292D01*
X302532Y454345D01*
X302649Y454415D01*
X302655D01*
X302661Y454426D01*
X302696Y454456D01*
X302748Y454502D01*
X302813Y454567D01*
X302877Y454649D01*
X302947Y454742D01*
X303012Y454859D01*
X303064Y454988D01*
Y454994D01*
X303070Y455006D01*
X303076Y455023D01*
X303082Y455052D01*
X303094Y455082D01*
X303099Y455123D01*
X303123Y455216D01*
X303146Y455327D01*
X303164Y455450D01*
X303175Y455585D01*
X303181Y455725D01*
Y455731D01*
Y455749D01*
Y455772D01*
Y455807D01*
X303175Y455848D01*
Y455901D01*
X303170Y455953D01*
X303164Y456012D01*
X303146Y456146D01*
X303123Y456293D01*
X303088Y456439D01*
X303041Y456579D01*
Y456585D01*
X303035Y456597D01*
X303023Y456614D01*
X303012Y456638D01*
X302982Y456708D01*
X302936Y456784D01*
X302871Y456878D01*
X302795Y456965D01*
X302708Y457053D01*
X302602Y457129D01*
X302596D01*
X302590Y457135D01*
X302573Y457147D01*
X302550Y457158D01*
X302485Y457182D01*
X302403Y457217D01*
X302310Y457246D01*
X302199Y457275D01*
X302076Y457299D01*
X301947Y457305D01*
X301906D01*
X301877Y457299D01*
X301842D01*
X301795Y457293D01*
X301695Y457275D01*
X301584Y457246D01*
X301461Y457199D01*
X301344Y457141D01*
X301227Y457059D01*
X301222Y457053D01*
X301216Y457047D01*
X301181Y457012D01*
X301128Y456954D01*
X301064Y456878D01*
X300999Y456772D01*
X300929Y456649D01*
X300871Y456497D01*
X300824Y456328D01*
X300315Y456456D01*
Y456462D01*
X300321Y456486D01*
X300332Y456515D01*
X300344Y456562D01*
X300367Y456608D01*
X300391Y456673D01*
X300414Y456737D01*
X300449Y456807D01*
X300525Y456965D01*
X300631Y457123D01*
X300748Y457275D01*
X300818Y457346D01*
X300894Y457410D01*
X300900Y457416D01*
X300911Y457422D01*
X300935Y457439D01*
X300970Y457463D01*
X301011Y457486D01*
X301058Y457515D01*
X301110Y457545D01*
X301175Y457574D01*
X301245Y457603D01*
X301321Y457632D01*
X301409Y457661D01*
X301497Y457685D01*
X301690Y457726D01*
X301795Y457732D01*
X301906Y457738D01*
X301964D01*
X302011Y457732D01*
D02*
G37*
G36*
X212235Y468075D02*
X212281D01*
X212381Y468063D01*
X212492Y468046D01*
X212621Y468022D01*
X212749Y467987D01*
X212878Y467941D01*
X212884D01*
X212896Y467935D01*
X212913Y467929D01*
X212937Y467917D01*
X212995Y467888D01*
X213071Y467841D01*
X213159Y467789D01*
X213247Y467724D01*
X213334Y467654D01*
X213410Y467566D01*
X213416Y467555D01*
X213440Y467525D01*
X213475Y467473D01*
X213522Y467397D01*
X213568Y467309D01*
X213615Y467204D01*
X213662Y467081D01*
X213703Y466940D01*
X213241Y466812D01*
Y466817D01*
X213235Y466823D01*
X213229Y466858D01*
X213206Y466911D01*
X213182Y466981D01*
X213153Y467051D01*
X213118Y467128D01*
X213077Y467204D01*
X213030Y467274D01*
X213024Y467280D01*
X213007Y467303D01*
X212978Y467332D01*
X212937Y467373D01*
X212884Y467414D01*
X212820Y467461D01*
X212749Y467502D01*
X212662Y467543D01*
X212650Y467549D01*
X212621Y467560D01*
X212568Y467578D01*
X212504Y467595D01*
X212428Y467613D01*
X212340Y467631D01*
X212241Y467642D01*
X212135Y467648D01*
X212077D01*
X212012Y467642D01*
X211930Y467636D01*
X211837Y467619D01*
X211732Y467601D01*
X211632Y467572D01*
X211533Y467537D01*
X211521Y467531D01*
X211492Y467519D01*
X211445Y467496D01*
X211386Y467461D01*
X211322Y467420D01*
X211252Y467373D01*
X211188Y467320D01*
X211123Y467256D01*
X211117Y467250D01*
X211100Y467227D01*
X211070Y467192D01*
X211035Y467145D01*
X210994Y467087D01*
X210953Y467022D01*
X210918Y466952D01*
X210883Y466876D01*
Y466870D01*
X210877Y466858D01*
X210872Y466841D01*
X210860Y466812D01*
X210848Y466782D01*
X210837Y466741D01*
X210813Y466648D01*
X210784Y466531D01*
X210760Y466402D01*
X210743Y466256D01*
X210737Y466104D01*
Y466098D01*
Y466080D01*
Y466057D01*
X210743Y466016D01*
Y465975D01*
X210749Y465922D01*
X210755Y465864D01*
X210760Y465805D01*
X210778Y465665D01*
X210813Y465519D01*
X210854Y465378D01*
X210912Y465238D01*
Y465232D01*
X210918Y465220D01*
X210930Y465203D01*
X210948Y465179D01*
X210989Y465121D01*
X211041Y465045D01*
X211111Y464963D01*
X211199Y464875D01*
X211304Y464793D01*
X211421Y464723D01*
X211427D01*
X211439Y464717D01*
X211457Y464706D01*
X211480Y464700D01*
X211509Y464688D01*
X211550Y464671D01*
X211638Y464641D01*
X211749Y464612D01*
X211866Y464583D01*
X212001Y464565D01*
X212141Y464559D01*
X212199D01*
X212264Y464565D01*
X212346Y464577D01*
X212439Y464589D01*
X212550Y464612D01*
X212667Y464641D01*
X212785Y464682D01*
X212790D01*
X212796Y464688D01*
X212814Y464694D01*
X212837Y464706D01*
X212896Y464729D01*
X212966Y464764D01*
X213042Y464805D01*
X213118Y464852D01*
X213194Y464904D01*
X213264Y464957D01*
Y465683D01*
X212135D01*
Y466133D01*
X213761D01*
Y464706D01*
X213756Y464700D01*
X213744Y464694D01*
X213726Y464676D01*
X213697Y464659D01*
X213662Y464630D01*
X213621Y464606D01*
X213522Y464536D01*
X213405Y464466D01*
X213276Y464390D01*
X213130Y464320D01*
X212983Y464255D01*
X212978D01*
X212966Y464249D01*
X212943Y464243D01*
X212913Y464232D01*
X212878Y464220D01*
X212837Y464208D01*
X212785Y464197D01*
X212732Y464185D01*
X212609Y464156D01*
X212474Y464132D01*
X212322Y464115D01*
X212170Y464109D01*
X212118D01*
X212077Y464115D01*
X212024D01*
X211965Y464121D01*
X211901Y464126D01*
X211831Y464138D01*
X211667Y464167D01*
X211497Y464208D01*
X211316Y464267D01*
X211141Y464349D01*
X211135Y464355D01*
X211123Y464360D01*
X211094Y464372D01*
X211065Y464396D01*
X211024Y464419D01*
X210983Y464448D01*
X210883Y464524D01*
X210766Y464624D01*
X210655Y464747D01*
X210544Y464887D01*
X210444Y465045D01*
Y465051D01*
X210433Y465068D01*
X210421Y465092D01*
X210409Y465127D01*
X210392Y465168D01*
X210368Y465220D01*
X210351Y465279D01*
X210328Y465349D01*
X210304Y465419D01*
X210287Y465501D01*
X210246Y465677D01*
X210222Y465870D01*
X210210Y466075D01*
Y466080D01*
Y466098D01*
Y466127D01*
X210216Y466168D01*
Y466221D01*
X210222Y466279D01*
X210228Y466344D01*
X210240Y466414D01*
X210269Y466578D01*
X210310Y466753D01*
X210368Y466940D01*
X210444Y467122D01*
Y467128D01*
X210456Y467145D01*
X210468Y467168D01*
X210486Y467204D01*
X210515Y467244D01*
X210544Y467285D01*
X210614Y467397D01*
X210714Y467514D01*
X210825Y467631D01*
X210965Y467742D01*
X211035Y467794D01*
X211117Y467841D01*
X211123D01*
X211135Y467853D01*
X211164Y467865D01*
X211193Y467876D01*
X211234Y467900D01*
X211287Y467917D01*
X211345Y467941D01*
X211410Y467964D01*
X211480Y467982D01*
X211556Y468005D01*
X211732Y468046D01*
X211919Y468069D01*
X212129Y468081D01*
X212199D01*
X212235Y468075D01*
D02*
G37*
G36*
X209678Y467566D02*
X207596D01*
Y466367D01*
X209397D01*
Y465916D01*
X207596D01*
Y464173D01*
X207087D01*
Y468017D01*
X209678D01*
Y467566D01*
D02*
G37*
G36*
X468927Y426378D02*
X468454D01*
Y429385D01*
X468448Y429379D01*
X468424Y429356D01*
X468384Y429326D01*
X468331Y429285D01*
X468266Y429233D01*
X468190Y429180D01*
X468103Y429116D01*
X468003Y429057D01*
X467997D01*
X467991Y429051D01*
X467956Y429028D01*
X467904Y428999D01*
X467839Y428964D01*
X467763Y428923D01*
X467682Y428888D01*
X467594Y428847D01*
X467512Y428812D01*
Y429274D01*
X467518D01*
X467529Y429280D01*
X467553Y429291D01*
X467576Y429309D01*
X467611Y429326D01*
X467652Y429344D01*
X467746Y429397D01*
X467851Y429461D01*
X467968Y429537D01*
X468085Y429625D01*
X468196Y429718D01*
X468202Y429724D01*
X468208Y429730D01*
X468243Y429765D01*
X468296Y429818D01*
X468360Y429882D01*
X468430Y429964D01*
X468501Y430052D01*
X468565Y430145D01*
X468617Y430239D01*
X468927D01*
Y426378D01*
D02*
G37*
G36*
X466816Y429771D02*
X465552D01*
Y426378D01*
X465043D01*
Y429771D01*
X463779D01*
Y430221D01*
X466816D01*
Y429771D01*
D02*
G37*
G36*
X460010Y444882D02*
X459537D01*
Y447889D01*
X459531Y447883D01*
X459507Y447859D01*
X459466Y447830D01*
X459414Y447789D01*
X459349Y447737D01*
X459273Y447684D01*
X459186Y447620D01*
X459086Y447561D01*
X459080D01*
X459074Y447555D01*
X459039Y447532D01*
X458987Y447503D01*
X458922Y447468D01*
X458846Y447427D01*
X458765Y447392D01*
X458677Y447351D01*
X458595Y447316D01*
Y447778D01*
X458601D01*
X458612Y447784D01*
X458636Y447795D01*
X458659Y447813D01*
X458694Y447830D01*
X458735Y447848D01*
X458829Y447900D01*
X458934Y447965D01*
X459051Y448041D01*
X459168Y448129D01*
X459279Y448222D01*
X459285Y448228D01*
X459291Y448234D01*
X459326Y448269D01*
X459379Y448322D01*
X459443Y448386D01*
X459513Y448468D01*
X459583Y448556D01*
X459648Y448649D01*
X459700Y448743D01*
X460010D01*
Y444882D01*
D02*
G37*
G36*
X456612Y448737D02*
X456658Y448731D01*
X456711Y448725D01*
X456770Y448720D01*
X456834Y448702D01*
X456974Y448667D01*
X457121Y448614D01*
X457197Y448579D01*
X457267Y448538D01*
X457331Y448486D01*
X457396Y448433D01*
X457401Y448427D01*
X457407Y448421D01*
X457425Y448404D01*
X457448Y448380D01*
X457472Y448345D01*
X457501Y448310D01*
X457559Y448222D01*
X457618Y448111D01*
X457670Y447982D01*
X457711Y447836D01*
X457717Y447754D01*
X457723Y447672D01*
Y447661D01*
Y447631D01*
X457717Y447585D01*
X457711Y447526D01*
X457700Y447456D01*
X457682Y447380D01*
X457659Y447298D01*
X457624Y447216D01*
X457618Y447204D01*
X457606Y447175D01*
X457583Y447134D01*
X457548Y447076D01*
X457507Y447005D01*
X457454Y446923D01*
X457384Y446842D01*
X457308Y446748D01*
X457296Y446736D01*
X457267Y446701D01*
X457214Y446649D01*
X457179Y446614D01*
X457138Y446572D01*
X457091Y446526D01*
X457033Y446473D01*
X456974Y446420D01*
X456910Y446356D01*
X456840Y446292D01*
X456758Y446221D01*
X456676Y446151D01*
X456582Y446069D01*
X456577Y446064D01*
X456565Y446052D01*
X456541Y446034D01*
X456512Y446011D01*
X456442Y445952D01*
X456354Y445876D01*
X456266Y445794D01*
X456173Y445713D01*
X456097Y445642D01*
X456068Y445613D01*
X456038Y445584D01*
X456033Y445578D01*
X456021Y445561D01*
X455997Y445537D01*
X455968Y445502D01*
X455904Y445426D01*
X455839Y445332D01*
X457729D01*
Y444882D01*
X455184D01*
Y444888D01*
Y444911D01*
Y444946D01*
X455190Y444987D01*
X455196Y445034D01*
X455202Y445087D01*
X455219Y445145D01*
X455237Y445204D01*
Y445210D01*
X455243Y445215D01*
X455254Y445250D01*
X455278Y445297D01*
X455313Y445367D01*
X455354Y445443D01*
X455412Y445531D01*
X455471Y445619D01*
X455547Y445713D01*
Y445718D01*
X455559Y445724D01*
X455588Y445759D01*
X455635Y445812D01*
X455705Y445882D01*
X455793Y445964D01*
X455898Y446064D01*
X456027Y446175D01*
X456167Y446298D01*
X456173Y446303D01*
X456196Y446321D01*
X456226Y446344D01*
X456266Y446385D01*
X456319Y446426D01*
X456378Y446479D01*
X456506Y446590D01*
X456647Y446725D01*
X456787Y446859D01*
X456857Y446923D01*
X456916Y446988D01*
X456968Y447052D01*
X457015Y447111D01*
Y447117D01*
X457027Y447122D01*
X457039Y447140D01*
X457050Y447163D01*
X457086Y447222D01*
X457127Y447298D01*
X457167Y447386D01*
X457202Y447479D01*
X457226Y447585D01*
X457238Y447684D01*
Y447690D01*
Y447696D01*
X457232Y447731D01*
X457226Y447784D01*
X457214Y447848D01*
X457185Y447924D01*
X457150Y448000D01*
X457103Y448082D01*
X457033Y448158D01*
X457021Y448164D01*
X456998Y448187D01*
X456951Y448216D01*
X456892Y448257D01*
X456816Y448292D01*
X456729Y448322D01*
X456623Y448345D01*
X456506Y448351D01*
X456471D01*
X456448Y448345D01*
X456389Y448339D01*
X456313Y448327D01*
X456226Y448298D01*
X456132Y448263D01*
X456044Y448210D01*
X455962Y448140D01*
X455957Y448129D01*
X455933Y448105D01*
X455898Y448058D01*
X455863Y447994D01*
X455822Y447912D01*
X455793Y447819D01*
X455769Y447707D01*
X455758Y447579D01*
X455272Y447631D01*
Y447637D01*
Y447655D01*
X455278Y447684D01*
X455284Y447719D01*
X455295Y447766D01*
X455301Y447819D01*
X455336Y447936D01*
X455383Y448070D01*
X455447Y448205D01*
X455535Y448339D01*
X455582Y448398D01*
X455641Y448456D01*
X455646Y448462D01*
X455658Y448468D01*
X455676Y448486D01*
X455699Y448503D01*
X455734Y448521D01*
X455775Y448550D01*
X455822Y448573D01*
X455874Y448602D01*
X455933Y448626D01*
X455997Y448655D01*
X456073Y448678D01*
X456149Y448696D01*
X456325Y448731D01*
X456419Y448737D01*
X456518Y448743D01*
X456571D01*
X456612Y448737D01*
D02*
G37*
G36*
X453406Y448720D02*
X453453D01*
X453570Y448714D01*
X453692Y448702D01*
X453821Y448678D01*
X453944Y448655D01*
X454003Y448638D01*
X454055Y448620D01*
X454061D01*
X454067Y448614D01*
X454102Y448602D01*
X454149Y448573D01*
X454207Y448532D01*
X454278Y448486D01*
X454348Y448421D01*
X454418Y448345D01*
X454482Y448251D01*
X454488Y448240D01*
X454506Y448205D01*
X454535Y448152D01*
X454564Y448082D01*
X454593Y447994D01*
X454623Y447895D01*
X454640Y447789D01*
X454646Y447672D01*
Y447667D01*
Y447655D01*
Y447631D01*
X454640Y447602D01*
Y447567D01*
X454634Y447526D01*
X454611Y447433D01*
X454582Y447321D01*
X454535Y447210D01*
X454465Y447093D01*
X454424Y447035D01*
X454377Y446982D01*
X454365Y446970D01*
X454348Y446959D01*
X454330Y446935D01*
X454301Y446918D01*
X454266Y446888D01*
X454225Y446865D01*
X454178Y446836D01*
X454125Y446806D01*
X454061Y446777D01*
X453997Y446748D01*
X453921Y446719D01*
X453845Y446690D01*
X453757Y446666D01*
X453663Y446649D01*
X453564Y446631D01*
X453576Y446625D01*
X453599Y446614D01*
X453634Y446596D01*
X453675Y446572D01*
X453774Y446508D01*
X453827Y446473D01*
X453868Y446438D01*
X453880Y446426D01*
X453909Y446403D01*
X453950Y446356D01*
X454003Y446298D01*
X454067Y446221D01*
X454137Y446134D01*
X454213Y446034D01*
X454289Y445923D01*
X454956Y444882D01*
X454319D01*
X453809Y445678D01*
Y445683D01*
X453798Y445695D01*
X453786Y445713D01*
X453774Y445736D01*
X453733Y445794D01*
X453681Y445870D01*
X453622Y445958D01*
X453558Y446046D01*
X453499Y446128D01*
X453441Y446204D01*
X453435Y446210D01*
X453418Y446233D01*
X453388Y446268D01*
X453359Y446309D01*
X453271Y446391D01*
X453230Y446432D01*
X453184Y446461D01*
X453178Y446467D01*
X453166Y446473D01*
X453143Y446485D01*
X453113Y446502D01*
X453043Y446537D01*
X452955Y446567D01*
X452949D01*
X452938Y446572D01*
X452914D01*
X452885Y446578D01*
X452844Y446584D01*
X452798D01*
X452739Y446590D01*
X452084D01*
Y444882D01*
X451575D01*
Y448725D01*
X453359D01*
X453406Y448720D01*
D02*
G37*
G36*
X421260Y423094D02*
X418253D01*
X418259Y423089D01*
X418282Y423065D01*
X418311Y423024D01*
X418352Y422972D01*
X418405Y422907D01*
X418458Y422831D01*
X418522Y422743D01*
X418580Y422644D01*
Y422638D01*
X418586Y422632D01*
X418610Y422597D01*
X418639Y422544D01*
X418674Y422480D01*
X418715Y422404D01*
X418750Y422322D01*
X418791Y422234D01*
X418826Y422153D01*
X418364D01*
Y422158D01*
X418358Y422170D01*
X418347Y422193D01*
X418329Y422217D01*
X418311Y422252D01*
X418294Y422293D01*
X418241Y422387D01*
X418177Y422492D01*
X418101Y422609D01*
X418013Y422726D01*
X417919Y422837D01*
X417914Y422843D01*
X417908Y422849D01*
X417873Y422884D01*
X417820Y422936D01*
X417756Y423001D01*
X417674Y423071D01*
X417586Y423141D01*
X417492Y423206D01*
X417399Y423258D01*
Y423568D01*
X421260D01*
Y423094D01*
D02*
G37*
G36*
X419429Y421275D02*
X419476D01*
X419581Y421269D01*
X419698Y421257D01*
X419832Y421234D01*
X419967Y421211D01*
X420096Y421176D01*
X420101D01*
X420113Y421170D01*
X420131Y421164D01*
X420154Y421158D01*
X420213Y421135D01*
X420295Y421105D01*
X420382Y421070D01*
X420476Y421024D01*
X420570Y420971D01*
X420657Y420912D01*
X420669Y420906D01*
X420692Y420883D01*
X420733Y420854D01*
X420786Y420807D01*
X420839Y420760D01*
X420897Y420696D01*
X420956Y420632D01*
X421008Y420561D01*
X421014Y420555D01*
X421026Y420526D01*
X421049Y420485D01*
X421078Y420433D01*
X421108Y420368D01*
X421137Y420292D01*
X421166Y420204D01*
X421196Y420105D01*
Y420093D01*
X421207Y420058D01*
X421213Y420006D01*
X421225Y419930D01*
X421236Y419842D01*
X421248Y419736D01*
X421254Y419620D01*
X421260Y419491D01*
Y418110D01*
X417416D01*
Y419584D01*
X417422Y419684D01*
X417428Y419789D01*
X417440Y419906D01*
X417457Y420017D01*
X417475Y420111D01*
Y420117D01*
X417481Y420128D01*
Y420140D01*
X417492Y420164D01*
X417510Y420228D01*
X417539Y420304D01*
X417574Y420392D01*
X417621Y420485D01*
X417680Y420579D01*
X417750Y420673D01*
Y420678D01*
X417762Y420684D01*
X417797Y420725D01*
X417855Y420778D01*
X417931Y420842D01*
X418025Y420918D01*
X418136Y420994D01*
X418265Y421065D01*
X418411Y421129D01*
X418417D01*
X418428Y421135D01*
X418452Y421140D01*
X418481Y421152D01*
X418516Y421164D01*
X418563Y421176D01*
X418616Y421193D01*
X418674Y421205D01*
X418739Y421217D01*
X418809Y421234D01*
X418961Y421257D01*
X419130Y421275D01*
X419318Y421281D01*
X419323D01*
X419335D01*
X419359D01*
X419394D01*
X419429Y421275D01*
D02*
G37*
G36*
X360962Y466500D02*
X361009Y466495D01*
X361068Y466489D01*
X361132Y466483D01*
X361202Y466471D01*
X361354Y466436D01*
X361518Y466383D01*
X361600Y466348D01*
X361682Y466307D01*
X361758Y466260D01*
X361834Y466208D01*
X361840Y466202D01*
X361851Y466196D01*
X361869Y466179D01*
X361898Y466155D01*
X361928Y466126D01*
X361968Y466085D01*
X362009Y466044D01*
X362050Y465997D01*
X362097Y465939D01*
X362138Y465880D01*
X362185Y465810D01*
X362232Y465734D01*
X362273Y465658D01*
X362314Y465570D01*
X362384Y465383D01*
X361881Y465266D01*
Y465272D01*
X361875Y465284D01*
X361869Y465307D01*
X361857Y465336D01*
X361840Y465371D01*
X361822Y465412D01*
X361781Y465500D01*
X361729Y465599D01*
X361658Y465705D01*
X361582Y465798D01*
X361489Y465880D01*
X361477Y465886D01*
X361442Y465909D01*
X361389Y465939D01*
X361313Y465980D01*
X361226Y466015D01*
X361114Y466044D01*
X360992Y466068D01*
X360851Y466073D01*
X360810D01*
X360781Y466068D01*
X360740D01*
X360699Y466062D01*
X360594Y466044D01*
X360477Y466021D01*
X360354Y465980D01*
X360231Y465927D01*
X360114Y465857D01*
X360108D01*
X360102Y465845D01*
X360067Y465816D01*
X360015Y465769D01*
X359950Y465705D01*
X359886Y465623D01*
X359816Y465529D01*
X359751Y465412D01*
X359699Y465284D01*
Y465278D01*
X359693Y465266D01*
X359687Y465248D01*
X359681Y465219D01*
X359669Y465190D01*
X359664Y465149D01*
X359640Y465055D01*
X359617Y464944D01*
X359599Y464821D01*
X359588Y464687D01*
X359582Y464546D01*
Y464541D01*
Y464523D01*
Y464500D01*
Y464465D01*
X359588Y464424D01*
Y464371D01*
X359593Y464318D01*
X359599Y464260D01*
X359617Y464125D01*
X359640Y463979D01*
X359675Y463833D01*
X359722Y463692D01*
Y463687D01*
X359728Y463675D01*
X359740Y463657D01*
X359751Y463634D01*
X359781Y463564D01*
X359827Y463488D01*
X359892Y463394D01*
X359968Y463306D01*
X360055Y463218D01*
X360161Y463142D01*
X360167D01*
X360173Y463137D01*
X360190Y463125D01*
X360213Y463113D01*
X360278Y463090D01*
X360360Y463055D01*
X360453Y463026D01*
X360564Y462996D01*
X360687Y462973D01*
X360816Y462967D01*
X360857D01*
X360886Y462973D01*
X360921D01*
X360968Y462979D01*
X361068Y462996D01*
X361179Y463026D01*
X361301Y463072D01*
X361419Y463131D01*
X361536Y463213D01*
X361541Y463218D01*
X361547Y463224D01*
X361582Y463260D01*
X361635Y463318D01*
X361699Y463394D01*
X361764Y463499D01*
X361834Y463622D01*
X361892Y463774D01*
X361939Y463944D01*
X362448Y463815D01*
Y463809D01*
X362442Y463786D01*
X362431Y463757D01*
X362419Y463710D01*
X362396Y463663D01*
X362372Y463599D01*
X362349Y463534D01*
X362314Y463464D01*
X362238Y463306D01*
X362132Y463148D01*
X362015Y462996D01*
X361945Y462926D01*
X361869Y462862D01*
X361863Y462856D01*
X361851Y462850D01*
X361828Y462832D01*
X361793Y462809D01*
X361752Y462786D01*
X361705Y462756D01*
X361652Y462727D01*
X361588Y462698D01*
X361518Y462669D01*
X361442Y462639D01*
X361354Y462610D01*
X361266Y462587D01*
X361073Y462546D01*
X360968Y462540D01*
X360857Y462534D01*
X360798D01*
X360752Y462540D01*
X360699D01*
X360641Y462546D01*
X360570Y462558D01*
X360500Y462563D01*
X360336Y462598D01*
X360167Y462639D01*
X360003Y462704D01*
X359921Y462739D01*
X359845Y462786D01*
X359839Y462791D01*
X359827Y462797D01*
X359810Y462815D01*
X359781Y462832D01*
X359710Y462891D01*
X359628Y462973D01*
X359529Y463072D01*
X359435Y463201D01*
X359336Y463347D01*
X359254Y463517D01*
Y463523D01*
X359248Y463540D01*
X359237Y463564D01*
X359225Y463599D01*
X359207Y463646D01*
X359190Y463698D01*
X359172Y463757D01*
X359155Y463827D01*
X359137Y463897D01*
X359120Y463979D01*
X359084Y464154D01*
X359061Y464342D01*
X359055Y464546D01*
Y464552D01*
Y464576D01*
Y464605D01*
X359061Y464646D01*
Y464699D01*
X359067Y464763D01*
X359073Y464827D01*
X359084Y464903D01*
X359114Y465067D01*
X359149Y465243D01*
X359207Y465424D01*
X359283Y465594D01*
Y465599D01*
X359295Y465611D01*
X359307Y465635D01*
X359324Y465670D01*
X359348Y465705D01*
X359377Y465746D01*
X359453Y465845D01*
X359541Y465956D01*
X359652Y466068D01*
X359786Y466179D01*
X359933Y466272D01*
X359939D01*
X359950Y466284D01*
X359974Y466296D01*
X360009Y466307D01*
X360044Y466325D01*
X360091Y466348D01*
X360149Y466366D01*
X360208Y466389D01*
X360272Y466413D01*
X360342Y466430D01*
X360500Y466471D01*
X360676Y466495D01*
X360863Y466506D01*
X360921D01*
X360962Y466500D01*
D02*
G37*
G36*
X364197Y466454D02*
X364273Y466442D01*
X364361Y466424D01*
X364460Y466401D01*
X364560Y466366D01*
X364659Y466319D01*
X364665D01*
X364671Y466313D01*
X364706Y466296D01*
X364753Y466266D01*
X364811Y466225D01*
X364876Y466173D01*
X364946Y466108D01*
X365010Y466032D01*
X365069Y465950D01*
X365075Y465939D01*
X365092Y465909D01*
X365116Y465863D01*
X365139Y465804D01*
X365162Y465728D01*
X365186Y465646D01*
X365203Y465558D01*
X365209Y465459D01*
Y465447D01*
Y465418D01*
X365203Y465371D01*
X365192Y465313D01*
X365174Y465243D01*
X365151Y465167D01*
X365122Y465085D01*
X365075Y465009D01*
X365069Y464997D01*
X365051Y464973D01*
X365016Y464938D01*
X364975Y464892D01*
X364917Y464839D01*
X364852Y464786D01*
X364771Y464728D01*
X364677Y464681D01*
X364683D01*
X364694Y464675D01*
X364712D01*
X364736Y464664D01*
X364794Y464646D01*
X364870Y464611D01*
X364952Y464570D01*
X365040Y464511D01*
X365127Y464441D01*
X365203Y464353D01*
X365209Y464342D01*
X365233Y464307D01*
X365262Y464254D01*
X365303Y464184D01*
X365338Y464096D01*
X365367Y463991D01*
X365391Y463868D01*
X365396Y463733D01*
Y463728D01*
Y463710D01*
Y463687D01*
X365391Y463651D01*
X365385Y463605D01*
X365379Y463558D01*
X365367Y463499D01*
X365350Y463441D01*
X365309Y463306D01*
X365280Y463230D01*
X365239Y463160D01*
X365198Y463090D01*
X365151Y463020D01*
X365092Y462949D01*
X365028Y462879D01*
X365022Y462873D01*
X365010Y462862D01*
X364993Y462850D01*
X364964Y462827D01*
X364929Y462797D01*
X364882Y462768D01*
X364829Y462739D01*
X364776Y462710D01*
X364712Y462675D01*
X364642Y462645D01*
X364566Y462616D01*
X364484Y462587D01*
X364396Y462563D01*
X364303Y462552D01*
X364203Y462540D01*
X364104Y462534D01*
X364057D01*
X364022Y462540D01*
X363975Y462546D01*
X363928Y462552D01*
X363870Y462558D01*
X363811Y462569D01*
X363677Y462604D01*
X363536Y462663D01*
X363466Y462692D01*
X363402Y462733D01*
X363332Y462780D01*
X363267Y462832D01*
X363261Y462838D01*
X363255Y462844D01*
X363238Y462862D01*
X363214Y462885D01*
X363191Y462920D01*
X363162Y462955D01*
X363127Y462996D01*
X363098Y463043D01*
X363027Y463160D01*
X362969Y463295D01*
X362916Y463447D01*
X362899Y463529D01*
X362887Y463616D01*
X363361Y463681D01*
Y463675D01*
X363367Y463663D01*
Y463640D01*
X363378Y463616D01*
X363396Y463546D01*
X363425Y463458D01*
X363460Y463365D01*
X363507Y463265D01*
X363565Y463178D01*
X363630Y463101D01*
X363642Y463096D01*
X363665Y463072D01*
X363706Y463049D01*
X363764Y463014D01*
X363829Y462985D01*
X363911Y462955D01*
X364004Y462932D01*
X364104Y462926D01*
X364139D01*
X364162Y462932D01*
X364221Y462938D01*
X364297Y462955D01*
X364390Y462985D01*
X364484Y463020D01*
X364578Y463078D01*
X364665Y463154D01*
X364677Y463166D01*
X364700Y463195D01*
X364736Y463242D01*
X364782Y463312D01*
X364823Y463394D01*
X364858Y463493D01*
X364882Y463605D01*
X364893Y463728D01*
Y463733D01*
Y463739D01*
Y463757D01*
X364888Y463780D01*
X364882Y463839D01*
X364864Y463915D01*
X364841Y463997D01*
X364800Y464090D01*
X364747Y464178D01*
X364677Y464260D01*
X364665Y464271D01*
X364642Y464295D01*
X364595Y464324D01*
X364531Y464365D01*
X364455Y464406D01*
X364361Y464435D01*
X364262Y464459D01*
X364145Y464470D01*
X364092D01*
X364051Y464465D01*
X364004Y464459D01*
X363946Y464453D01*
X363881Y464441D01*
X363811Y464424D01*
X363864Y464839D01*
X363893D01*
X363916Y464833D01*
X363993D01*
X364045Y464839D01*
X364121Y464851D01*
X364203Y464868D01*
X364291Y464897D01*
X364385Y464933D01*
X364478Y464985D01*
X364490Y464991D01*
X364519Y465015D01*
X364554Y465055D01*
X364601Y465108D01*
X364648Y465172D01*
X364683Y465254D01*
X364712Y465354D01*
X364724Y465471D01*
Y465477D01*
Y465483D01*
Y465512D01*
X364712Y465558D01*
X364700Y465623D01*
X364683Y465687D01*
X364648Y465757D01*
X364607Y465834D01*
X364548Y465898D01*
X364542Y465904D01*
X364519Y465927D01*
X364478Y465956D01*
X364425Y465986D01*
X364361Y466021D01*
X364285Y466044D01*
X364197Y466068D01*
X364098Y466073D01*
X364051D01*
X363998Y466062D01*
X363940Y466050D01*
X363864Y466032D01*
X363788Y465997D01*
X363712Y465956D01*
X363636Y465898D01*
X363630Y465892D01*
X363606Y465869D01*
X363577Y465828D01*
X363542Y465769D01*
X363501Y465699D01*
X363466Y465611D01*
X363431Y465506D01*
X363407Y465383D01*
X362934Y465465D01*
Y465471D01*
X362940Y465488D01*
X362945Y465512D01*
X362951Y465541D01*
X362963Y465582D01*
X362975Y465629D01*
X363016Y465734D01*
X363062Y465851D01*
X363133Y465974D01*
X363214Y466091D01*
X363320Y466196D01*
X363326Y466202D01*
X363332Y466208D01*
X363349Y466220D01*
X363378Y466237D01*
X363407Y466255D01*
X363443Y466278D01*
X363530Y466331D01*
X363642Y466377D01*
X363776Y466419D01*
X363922Y466448D01*
X364004Y466459D01*
X364139D01*
X364197Y466454D01*
D02*
G37*
G36*
X265623Y383465D02*
X265102D01*
X263084Y386483D01*
Y383465D01*
X262598D01*
Y387308D01*
X263113D01*
X265137Y384289D01*
Y387308D01*
X265623D01*
Y383465D01*
D02*
G37*
G36*
X523660Y429134D02*
X523139D01*
X521648Y432977D01*
X522203D01*
X523198Y430187D01*
Y430181D01*
X523204Y430169D01*
X523210Y430152D01*
X523221Y430128D01*
X523239Y430064D01*
X523268Y429982D01*
X523303Y429883D01*
X523338Y429777D01*
X523403Y429555D01*
Y429561D01*
X523409Y429567D01*
X523414Y429584D01*
X523420Y429608D01*
X523438Y429672D01*
X523461Y429754D01*
X523490Y429848D01*
X523525Y429953D01*
X523566Y430070D01*
X523607Y430187D01*
X524649Y432977D01*
X525164D01*
X523660Y429134D01*
D02*
G37*
G36*
X532821Y430754D02*
Y430749D01*
Y430731D01*
Y430702D01*
Y430661D01*
X532815Y430608D01*
Y430555D01*
X532809Y430491D01*
X532804Y430421D01*
X532786Y430275D01*
X532763Y430123D01*
X532733Y429970D01*
X532687Y429836D01*
Y429830D01*
X532681Y429818D01*
X532675Y429801D01*
X532663Y429777D01*
X532628Y429719D01*
X532581Y429637D01*
X532517Y429549D01*
X532435Y429456D01*
X532330Y429368D01*
X532213Y429280D01*
X532207D01*
X532195Y429268D01*
X532178Y429263D01*
X532148Y429245D01*
X532119Y429233D01*
X532078Y429216D01*
X532026Y429192D01*
X531973Y429175D01*
X531914Y429157D01*
X531844Y429134D01*
X531774Y429116D01*
X531692Y429105D01*
X531517Y429081D01*
X531318Y429070D01*
X531265D01*
X531230Y429075D01*
X531183D01*
X531131Y429081D01*
X531072Y429087D01*
X531008Y429093D01*
X530867Y429116D01*
X530721Y429146D01*
X530569Y429192D01*
X530434Y429251D01*
X530429D01*
X530417Y429263D01*
X530405Y429268D01*
X530382Y429286D01*
X530317Y429327D01*
X530247Y429391D01*
X530165Y429467D01*
X530089Y429555D01*
X530013Y429666D01*
X529949Y429789D01*
Y429795D01*
X529943Y429807D01*
X529937Y429824D01*
X529925Y429853D01*
X529914Y429888D01*
X529902Y429935D01*
X529890Y429988D01*
X529879Y430047D01*
X529861Y430111D01*
X529849Y430181D01*
X529838Y430263D01*
X529826Y430345D01*
X529814Y430438D01*
X529808Y430538D01*
X529803Y430643D01*
Y430754D01*
Y432977D01*
X530311D01*
Y430754D01*
Y430749D01*
Y430731D01*
Y430708D01*
Y430672D01*
Y430631D01*
X530317Y430585D01*
X530323Y430474D01*
X530335Y430357D01*
X530347Y430234D01*
X530370Y430117D01*
X530382Y430064D01*
X530399Y430017D01*
X530405Y430006D01*
X530417Y429976D01*
X530440Y429935D01*
X530475Y429883D01*
X530516Y429824D01*
X530575Y429760D01*
X530639Y429701D01*
X530721Y429649D01*
X530733Y429643D01*
X530762Y429631D01*
X530809Y429608D01*
X530873Y429590D01*
X530955Y429567D01*
X531049Y429543D01*
X531154Y429532D01*
X531271Y429526D01*
X531324D01*
X531364Y429532D01*
X531411D01*
X531464Y429537D01*
X531581Y429555D01*
X531715Y429590D01*
X531844Y429631D01*
X531967Y429696D01*
X532026Y429731D01*
X532072Y429777D01*
Y429783D01*
X532084Y429789D01*
X532096Y429807D01*
X532107Y429830D01*
X532131Y429859D01*
X532148Y429894D01*
X532172Y429941D01*
X532195Y429994D01*
X532213Y430058D01*
X532236Y430128D01*
X532260Y430204D01*
X532277Y430298D01*
X532289Y430398D01*
X532301Y430503D01*
X532312Y430626D01*
Y430754D01*
Y432977D01*
X532821D01*
Y430754D01*
D02*
G37*
G36*
X536419Y432527D02*
X535155D01*
Y429134D01*
X534646D01*
Y432527D01*
X533383D01*
Y432977D01*
X536419D01*
Y432527D01*
D02*
G37*
G36*
X527392Y433036D02*
X527439D01*
X527498Y433030D01*
X527556Y433018D01*
X527626Y433012D01*
X527773Y432977D01*
X527936Y432931D01*
X528100Y432872D01*
X528182Y432831D01*
X528264Y432784D01*
X528270D01*
X528282Y432773D01*
X528305Y432761D01*
X528334Y432737D01*
X528369Y432714D01*
X528410Y432679D01*
X528504Y432603D01*
X528609Y432504D01*
X528720Y432381D01*
X528820Y432240D01*
X528913Y432076D01*
Y432071D01*
X528925Y432053D01*
X528937Y432030D01*
X528948Y431994D01*
X528966Y431954D01*
X528984Y431901D01*
X529007Y431842D01*
X529030Y431778D01*
X529048Y431702D01*
X529071Y431626D01*
X529106Y431451D01*
X529130Y431257D01*
X529142Y431047D01*
Y431041D01*
Y431023D01*
Y430988D01*
X529136Y430947D01*
Y430895D01*
X529130Y430836D01*
X529124Y430772D01*
X529112Y430696D01*
X529083Y430532D01*
X529042Y430357D01*
X528984Y430175D01*
X528902Y430000D01*
Y429994D01*
X528890Y429982D01*
X528878Y429959D01*
X528861Y429924D01*
X528831Y429888D01*
X528802Y429842D01*
X528732Y429742D01*
X528638Y429631D01*
X528521Y429514D01*
X528387Y429403D01*
X528235Y429304D01*
X528229D01*
X528217Y429292D01*
X528194Y429280D01*
X528159Y429268D01*
X528118Y429251D01*
X528071Y429227D01*
X528018Y429210D01*
X527954Y429186D01*
X527819Y429146D01*
X527662Y429105D01*
X527486Y429081D01*
X527305Y429070D01*
X527252D01*
X527211Y429075D01*
X527164D01*
X527112Y429081D01*
X527047Y429093D01*
X526977Y429105D01*
X526831Y429134D01*
X526667Y429181D01*
X526497Y429245D01*
X526415Y429280D01*
X526334Y429327D01*
X526328Y429333D01*
X526316Y429339D01*
X526293Y429356D01*
X526263Y429374D01*
X526228Y429403D01*
X526187Y429432D01*
X526094Y429514D01*
X525988Y429619D01*
X525877Y429736D01*
X525778Y429883D01*
X525684Y430041D01*
Y430047D01*
X525672Y430064D01*
X525667Y430087D01*
X525649Y430123D01*
X525632Y430163D01*
X525614Y430210D01*
X525596Y430269D01*
X525579Y430333D01*
X525556Y430403D01*
X525538Y430474D01*
X525503Y430637D01*
X525479Y430813D01*
X525468Y431000D01*
Y431012D01*
Y431041D01*
X525474Y431094D01*
Y431158D01*
X525485Y431240D01*
X525497Y431333D01*
X525509Y431433D01*
X525532Y431550D01*
X525561Y431667D01*
X525591Y431790D01*
X525632Y431913D01*
X525684Y432035D01*
X525743Y432158D01*
X525807Y432281D01*
X525889Y432392D01*
X525977Y432498D01*
X525983Y432504D01*
X526000Y432521D01*
X526029Y432550D01*
X526070Y432585D01*
X526123Y432626D01*
X526181Y432667D01*
X526252Y432720D01*
X526334Y432773D01*
X526427Y432819D01*
X526527Y432872D01*
X526638Y432913D01*
X526755Y432960D01*
X526878Y432989D01*
X527012Y433018D01*
X527158Y433036D01*
X527305Y433042D01*
X527357D01*
X527392Y433036D01*
D02*
G37*
G36*
X410265Y415466D02*
X410300D01*
X410394Y415454D01*
X410493Y415431D01*
X410610Y415408D01*
X410727Y415367D01*
X410844Y415314D01*
X410850D01*
X410856Y415308D01*
X410873Y415297D01*
X410897Y415285D01*
X410949Y415250D01*
X411020Y415203D01*
X411096Y415139D01*
X411172Y415063D01*
X411248Y414981D01*
X411318Y414881D01*
X411324Y414869D01*
X411341Y414834D01*
X411371Y414776D01*
X411400Y414706D01*
X411429Y414612D01*
X411458Y414507D01*
X411476Y414390D01*
X411482Y414267D01*
Y414244D01*
X411476Y414208D01*
Y414167D01*
X411470Y414121D01*
X411458Y414062D01*
X411447Y413998D01*
X411429Y413928D01*
X411406Y413852D01*
X411376Y413770D01*
X411341Y413694D01*
X411300Y413612D01*
X411248Y413530D01*
X411189Y413448D01*
X411125Y413372D01*
X411049Y413302D01*
X411043Y413296D01*
X411025Y413284D01*
X411002Y413267D01*
X410967Y413243D01*
X410920Y413214D01*
X410862Y413185D01*
X410791Y413150D01*
X410709Y413120D01*
X410616Y413085D01*
X410511Y413050D01*
X410394Y413021D01*
X410265Y412992D01*
X410124Y412968D01*
X409967Y412951D01*
X409803Y412939D01*
X409621Y412933D01*
X409616D01*
X409610D01*
X409592D01*
X409575D01*
X409516D01*
X409440Y412939D01*
X409346Y412945D01*
X409241Y412956D01*
X409124Y412968D01*
X409001Y412986D01*
X408867Y413003D01*
X408732Y413033D01*
X408598Y413068D01*
X408469Y413109D01*
X408334Y413155D01*
X408217Y413208D01*
X408100Y413272D01*
X408001Y413343D01*
X407995Y413348D01*
X407983Y413360D01*
X407960Y413378D01*
X407931Y413407D01*
X407896Y413448D01*
X407861Y413489D01*
X407820Y413542D01*
X407779Y413600D01*
X407738Y413664D01*
X407697Y413740D01*
X407662Y413816D01*
X407626Y413904D01*
X407597Y413998D01*
X407574Y414097D01*
X407562Y414203D01*
X407556Y414314D01*
Y414355D01*
X407562Y414390D01*
Y414425D01*
X407568Y414472D01*
X407586Y414577D01*
X407621Y414694D01*
X407667Y414817D01*
X407726Y414940D01*
X407767Y414998D01*
X407814Y415057D01*
Y415063D01*
X407825Y415068D01*
X407861Y415103D01*
X407919Y415150D01*
X407995Y415209D01*
X408095Y415273D01*
X408212Y415326D01*
X408352Y415378D01*
X408510Y415408D01*
X408545Y414940D01*
X408539D01*
X408533D01*
X408498Y414928D01*
X408451Y414910D01*
X408393Y414893D01*
X408258Y414834D01*
X408200Y414799D01*
X408147Y414758D01*
X408136Y414752D01*
X408112Y414723D01*
X408083Y414682D01*
X408042Y414630D01*
X408007Y414559D01*
X407972Y414477D01*
X407948Y414384D01*
X407942Y414285D01*
Y414244D01*
X407948Y414203D01*
X407960Y414150D01*
X407972Y414086D01*
X407995Y414015D01*
X408030Y413951D01*
X408071Y413881D01*
X408077Y413869D01*
X408100Y413846D01*
X408141Y413805D01*
X408194Y413758D01*
X408258Y413699D01*
X408340Y413641D01*
X408440Y413583D01*
X408551Y413530D01*
X408557D01*
X408563Y413524D01*
X408586Y413518D01*
X408609Y413512D01*
X408639Y413501D01*
X408679Y413489D01*
X408726Y413477D01*
X408779Y413465D01*
X408838Y413454D01*
X408902Y413442D01*
X408978Y413430D01*
X409054Y413419D01*
X409142Y413413D01*
X409235Y413407D01*
X409335Y413401D01*
X409434D01*
X409428Y413407D01*
X409399Y413430D01*
X409352Y413465D01*
X409294Y413518D01*
X409229Y413577D01*
X409165Y413647D01*
X409107Y413729D01*
X409054Y413816D01*
X409048Y413828D01*
X409036Y413857D01*
X409013Y413910D01*
X408990Y413974D01*
X408966Y414050D01*
X408943Y414138D01*
X408931Y414232D01*
X408925Y414331D01*
Y414378D01*
X408931Y414413D01*
X408937Y414454D01*
X408943Y414501D01*
X408966Y414612D01*
X409013Y414735D01*
X409036Y414805D01*
X409071Y414869D01*
X409112Y414940D01*
X409159Y415010D01*
X409212Y415074D01*
X409276Y415139D01*
X409282Y415144D01*
X409294Y415150D01*
X409311Y415168D01*
X409341Y415191D01*
X409376Y415215D01*
X409417Y415244D01*
X409463Y415273D01*
X409516Y415308D01*
X409580Y415338D01*
X409645Y415367D01*
X409721Y415396D01*
X409797Y415419D01*
X409885Y415443D01*
X409972Y415460D01*
X410072Y415466D01*
X410171Y415472D01*
X410177D01*
X410189D01*
X410206D01*
X410230D01*
X410265Y415466D01*
D02*
G37*
G36*
X411417Y411278D02*
X408410D01*
X408416Y411272D01*
X408440Y411248D01*
X408469Y411207D01*
X408510Y411155D01*
X408563Y411090D01*
X408615Y411014D01*
X408679Y410927D01*
X408738Y410827D01*
Y410821D01*
X408744Y410815D01*
X408767Y410780D01*
X408797Y410728D01*
X408832Y410663D01*
X408873Y410587D01*
X408908Y410505D01*
X408949Y410418D01*
X408984Y410336D01*
X408522D01*
Y410342D01*
X408516Y410353D01*
X408504Y410377D01*
X408487Y410400D01*
X408469Y410435D01*
X408451Y410476D01*
X408399Y410570D01*
X408334Y410675D01*
X408258Y410792D01*
X408171Y410909D01*
X408077Y411020D01*
X408071Y411026D01*
X408065Y411032D01*
X408030Y411067D01*
X407977Y411120D01*
X407913Y411184D01*
X407831Y411254D01*
X407744Y411324D01*
X407650Y411389D01*
X407556Y411441D01*
Y411751D01*
X411417D01*
Y411278D01*
D02*
G37*
G36*
Y409043D02*
X410622Y408534D01*
X410616D01*
X410604Y408522D01*
X410587Y408510D01*
X410563Y408499D01*
X410505Y408458D01*
X410429Y408405D01*
X410341Y408347D01*
X410253Y408282D01*
X410171Y408224D01*
X410095Y408165D01*
X410089Y408159D01*
X410066Y408142D01*
X410031Y408113D01*
X409990Y408083D01*
X409908Y407996D01*
X409867Y407955D01*
X409838Y407908D01*
X409832Y407902D01*
X409826Y407890D01*
X409814Y407867D01*
X409797Y407838D01*
X409762Y407768D01*
X409732Y407680D01*
Y407674D01*
X409727Y407662D01*
Y407639D01*
X409721Y407610D01*
X409715Y407569D01*
Y407522D01*
X409709Y407463D01*
Y406808D01*
X411417D01*
Y406299D01*
X407574D01*
Y408083D01*
X407580Y408130D01*
Y408177D01*
X407586Y408294D01*
X407597Y408417D01*
X407621Y408546D01*
X407644Y408669D01*
X407662Y408727D01*
X407679Y408780D01*
Y408785D01*
X407685Y408791D01*
X407697Y408826D01*
X407726Y408873D01*
X407767Y408932D01*
X407814Y409002D01*
X407878Y409072D01*
X407954Y409142D01*
X408048Y409207D01*
X408059Y409212D01*
X408095Y409230D01*
X408147Y409259D01*
X408217Y409289D01*
X408305Y409318D01*
X408405Y409347D01*
X408510Y409365D01*
X408627Y409371D01*
X408633D01*
X408644D01*
X408668D01*
X408697Y409365D01*
X408732D01*
X408773Y409359D01*
X408867Y409335D01*
X408978Y409306D01*
X409089Y409259D01*
X409206Y409189D01*
X409265Y409148D01*
X409317Y409101D01*
X409329Y409090D01*
X409341Y409072D01*
X409364Y409055D01*
X409381Y409025D01*
X409411Y408990D01*
X409434Y408949D01*
X409463Y408903D01*
X409493Y408850D01*
X409522Y408785D01*
X409551Y408721D01*
X409580Y408645D01*
X409610Y408569D01*
X409633Y408481D01*
X409651Y408388D01*
X409668Y408288D01*
X409674Y408300D01*
X409686Y408323D01*
X409703Y408358D01*
X409727Y408399D01*
X409791Y408499D01*
X409826Y408552D01*
X409861Y408592D01*
X409873Y408604D01*
X409896Y408633D01*
X409943Y408674D01*
X410002Y408727D01*
X410078Y408791D01*
X410165Y408861D01*
X410265Y408938D01*
X410376Y409014D01*
X411417Y409681D01*
Y409043D01*
D02*
G37*
G36*
X429172Y447244D02*
X428698D01*
Y450251D01*
X428692Y450245D01*
X428669Y450222D01*
X428628Y450192D01*
X428575Y450151D01*
X428511Y450099D01*
X428435Y450046D01*
X428347Y449982D01*
X428248Y449923D01*
X428242D01*
X428236Y449918D01*
X428201Y449894D01*
X428148Y449865D01*
X428084Y449830D01*
X428008Y449789D01*
X427926Y449754D01*
X427838Y449713D01*
X427756Y449678D01*
Y450140D01*
X427762D01*
X427774Y450146D01*
X427797Y450157D01*
X427821Y450175D01*
X427856Y450192D01*
X427897Y450210D01*
X427990Y450263D01*
X428096Y450327D01*
X428213Y450403D01*
X428330Y450491D01*
X428441Y450584D01*
X428447Y450590D01*
X428452Y450596D01*
X428487Y450631D01*
X428540Y450684D01*
X428605Y450748D01*
X428675Y450830D01*
X428745Y450918D01*
X428809Y451012D01*
X428862Y451105D01*
X429172D01*
Y447244D01*
D02*
G37*
G36*
X425147Y451146D02*
X425194D01*
X425252Y451140D01*
X425311Y451128D01*
X425381Y451123D01*
X425527Y451088D01*
X425691Y451041D01*
X425855Y450982D01*
X425937Y450941D01*
X426019Y450894D01*
X426025D01*
X426036Y450883D01*
X426060Y450871D01*
X426089Y450848D01*
X426124Y450824D01*
X426165Y450789D01*
X426259Y450713D01*
X426364Y450614D01*
X426475Y450491D01*
X426575Y450350D01*
X426668Y450187D01*
Y450181D01*
X426680Y450169D01*
X426692Y450140D01*
X426703Y450105D01*
X426721Y450064D01*
X426738Y450017D01*
X426762Y449959D01*
X426785Y449888D01*
X426803Y449818D01*
X426826Y449736D01*
X426861Y449567D01*
X426885Y449373D01*
X426896Y449163D01*
Y449157D01*
Y449139D01*
Y449116D01*
Y449081D01*
X426890Y449040D01*
Y448993D01*
X426885Y448941D01*
X426879Y448876D01*
X426861Y448747D01*
X426832Y448601D01*
X426797Y448455D01*
X426750Y448309D01*
Y448303D01*
X426744Y448291D01*
X426732Y448274D01*
X426721Y448244D01*
X426709Y448215D01*
X426686Y448174D01*
X426639Y448087D01*
X426580Y447987D01*
X426504Y447876D01*
X426417Y447765D01*
X426311Y447654D01*
X426317D01*
X426329Y447642D01*
X426346Y447630D01*
X426370Y447613D01*
X426405Y447595D01*
X426440Y447572D01*
X426528Y447519D01*
X426627Y447461D01*
X426738Y447402D01*
X426855Y447343D01*
X426972Y447297D01*
X426814Y446952D01*
X426809D01*
X426797Y446957D01*
X426773Y446969D01*
X426744Y446981D01*
X426709Y446992D01*
X426662Y447016D01*
X426615Y447039D01*
X426557Y447063D01*
X426434Y447127D01*
X426294Y447209D01*
X426142Y447303D01*
X425989Y447414D01*
X425984D01*
X425972Y447402D01*
X425949Y447390D01*
X425913Y447379D01*
X425873Y447361D01*
X425826Y447338D01*
X425773Y447320D01*
X425715Y447297D01*
X425644Y447273D01*
X425574Y447256D01*
X425410Y447215D01*
X425235Y447191D01*
X425048Y447180D01*
X424995D01*
X424960Y447186D01*
X424913D01*
X424860Y447191D01*
X424802Y447203D01*
X424738Y447209D01*
X424591Y447238D01*
X424433Y447285D01*
X424270Y447343D01*
X424106Y447425D01*
X424100Y447431D01*
X424088Y447437D01*
X424065Y447455D01*
X424036Y447472D01*
X424001Y447496D01*
X423960Y447531D01*
X423866Y447607D01*
X423761Y447706D01*
X423655Y447829D01*
X423550Y447969D01*
X423456Y448133D01*
Y448139D01*
X423445Y448157D01*
X423433Y448180D01*
X423421Y448215D01*
X423404Y448256D01*
X423386Y448309D01*
X423363Y448367D01*
X423345Y448432D01*
X423322Y448508D01*
X423299Y448584D01*
X423264Y448759D01*
X423240Y448952D01*
X423228Y449163D01*
Y449169D01*
Y449186D01*
Y449221D01*
X423234Y449257D01*
Y449309D01*
X423240Y449368D01*
X423246Y449432D01*
X423258Y449502D01*
X423287Y449666D01*
X423322Y449836D01*
X423381Y450017D01*
X423456Y450192D01*
Y450198D01*
X423468Y450216D01*
X423480Y450239D01*
X423497Y450269D01*
X423521Y450310D01*
X423550Y450356D01*
X423626Y450456D01*
X423720Y450573D01*
X423831Y450690D01*
X423960Y450807D01*
X424112Y450906D01*
X424118Y450912D01*
X424129Y450918D01*
X424153Y450930D01*
X424188Y450947D01*
X424229Y450965D01*
X424275Y450982D01*
X424328Y451006D01*
X424393Y451029D01*
X424457Y451052D01*
X424533Y451076D01*
X424691Y451111D01*
X424872Y451140D01*
X425059Y451152D01*
X425112D01*
X425147Y451146D01*
D02*
G37*
G36*
X271153Y452955D02*
X271200Y452949D01*
X271252Y452944D01*
X271311Y452938D01*
X271375Y452920D01*
X271516Y452885D01*
X271662Y452832D01*
X271738Y452797D01*
X271808Y452756D01*
X271872Y452704D01*
X271937Y452651D01*
X271943Y452645D01*
X271949Y452639D01*
X271966Y452622D01*
X271989Y452598D01*
X272013Y452563D01*
X272042Y452528D01*
X272101Y452440D01*
X272159Y452329D01*
X272212Y452201D01*
X272253Y452054D01*
X272259Y451972D01*
X272264Y451890D01*
Y451879D01*
Y451850D01*
X272259Y451803D01*
X272253Y451744D01*
X272241Y451674D01*
X272223Y451598D01*
X272200Y451516D01*
X272165Y451434D01*
X272159Y451423D01*
X272147Y451393D01*
X272124Y451352D01*
X272089Y451294D01*
X272048Y451224D01*
X271995Y451142D01*
X271925Y451060D01*
X271849Y450966D01*
X271837Y450954D01*
X271808Y450919D01*
X271756Y450867D01*
X271720Y450832D01*
X271679Y450791D01*
X271633Y450744D01*
X271574Y450691D01*
X271516Y450639D01*
X271451Y450574D01*
X271381Y450510D01*
X271299Y450440D01*
X271217Y450369D01*
X271124Y450288D01*
X271118Y450282D01*
X271106Y450270D01*
X271083Y450252D01*
X271054Y450229D01*
X270983Y450171D01*
X270896Y450095D01*
X270808Y450013D01*
X270714Y449931D01*
X270638Y449860D01*
X270609Y449831D01*
X270580Y449802D01*
X270574Y449796D01*
X270562Y449779D01*
X270539Y449755D01*
X270509Y449720D01*
X270445Y449644D01*
X270381Y449550D01*
X272270D01*
Y449100D01*
X269725D01*
Y449106D01*
Y449129D01*
Y449164D01*
X269731Y449205D01*
X269737Y449252D01*
X269743Y449305D01*
X269761Y449363D01*
X269778Y449422D01*
Y449428D01*
X269784Y449433D01*
X269796Y449469D01*
X269819Y449515D01*
X269854Y449585D01*
X269895Y449662D01*
X269954Y449749D01*
X270012Y449837D01*
X270088Y449931D01*
Y449936D01*
X270100Y449942D01*
X270129Y449977D01*
X270176Y450030D01*
X270246Y450100D01*
X270334Y450182D01*
X270439Y450282D01*
X270568Y450393D01*
X270708Y450516D01*
X270714Y450522D01*
X270738Y450539D01*
X270767Y450562D01*
X270808Y450603D01*
X270860Y450644D01*
X270919Y450697D01*
X271048Y450808D01*
X271188Y450943D01*
X271328Y451077D01*
X271399Y451142D01*
X271457Y451206D01*
X271510Y451270D01*
X271557Y451329D01*
Y451335D01*
X271568Y451340D01*
X271580Y451358D01*
X271592Y451381D01*
X271627Y451440D01*
X271668Y451516D01*
X271709Y451604D01*
X271744Y451697D01*
X271767Y451803D01*
X271779Y451902D01*
Y451908D01*
Y451914D01*
X271773Y451949D01*
X271767Y452002D01*
X271756Y452066D01*
X271726Y452142D01*
X271691Y452218D01*
X271644Y452300D01*
X271574Y452376D01*
X271562Y452382D01*
X271539Y452405D01*
X271492Y452434D01*
X271434Y452476D01*
X271358Y452510D01*
X271270Y452540D01*
X271165Y452563D01*
X271048Y452569D01*
X271012D01*
X270989Y452563D01*
X270931Y452557D01*
X270855Y452546D01*
X270767Y452516D01*
X270673Y452481D01*
X270585Y452429D01*
X270503Y452358D01*
X270498Y452347D01*
X270474Y452323D01*
X270439Y452277D01*
X270404Y452212D01*
X270363Y452130D01*
X270334Y452037D01*
X270310Y451926D01*
X270299Y451797D01*
X269813Y451850D01*
Y451855D01*
Y451873D01*
X269819Y451902D01*
X269825Y451937D01*
X269837Y451984D01*
X269843Y452037D01*
X269878Y452154D01*
X269924Y452288D01*
X269989Y452423D01*
X270076Y452557D01*
X270123Y452616D01*
X270182Y452674D01*
X270188Y452680D01*
X270199Y452686D01*
X270217Y452704D01*
X270240Y452721D01*
X270275Y452739D01*
X270316Y452768D01*
X270363Y452791D01*
X270416Y452821D01*
X270474Y452844D01*
X270539Y452873D01*
X270615Y452897D01*
X270691Y452914D01*
X270866Y452949D01*
X270960Y452955D01*
X271059Y452961D01*
X271112D01*
X271153Y452955D01*
D02*
G37*
G36*
X269322Y452493D02*
X267239D01*
Y451294D01*
X269041D01*
Y450843D01*
X267239D01*
Y449100D01*
X266730D01*
Y452944D01*
X269322D01*
Y452493D01*
D02*
G37*
G36*
X264209Y449550D02*
X266098D01*
Y449100D01*
X263700D01*
Y452944D01*
X264209D01*
Y449550D01*
D02*
G37*
G36*
X319636Y358543D02*
X319162D01*
Y361550D01*
X319156Y361544D01*
X319133Y361521D01*
X319092Y361492D01*
X319039Y361451D01*
X318975Y361398D01*
X318899Y361346D01*
X318811Y361281D01*
X318712Y361223D01*
X318706D01*
X318700Y361217D01*
X318665Y361193D01*
X318612Y361164D01*
X318548Y361129D01*
X318472Y361088D01*
X318390Y361053D01*
X318302Y361012D01*
X318220Y360977D01*
Y361439D01*
X318226D01*
X318238Y361445D01*
X318261Y361457D01*
X318285Y361474D01*
X318320Y361492D01*
X318361Y361509D01*
X318454Y361562D01*
X318560Y361626D01*
X318677Y361702D01*
X318794Y361790D01*
X318905Y361884D01*
X318911Y361890D01*
X318916Y361895D01*
X318952Y361930D01*
X319004Y361983D01*
X319069Y362048D01*
X319139Y362129D01*
X319209Y362217D01*
X319273Y362311D01*
X319326Y362404D01*
X319636D01*
Y358543D01*
D02*
G37*
G36*
X317390Y361936D02*
X315307D01*
Y360737D01*
X317109D01*
Y360287D01*
X315307D01*
Y358543D01*
X314798D01*
Y362387D01*
X317390D01*
Y361936D01*
D02*
G37*
G36*
X312277Y358994D02*
X314166D01*
Y358543D01*
X311768D01*
Y362387D01*
X312277D01*
Y358994D01*
D02*
G37*
G36*
X265122Y463034D02*
Y463028D01*
Y463010D01*
Y462987D01*
Y462952D01*
X265116Y462911D01*
Y462864D01*
X265110Y462759D01*
X265092Y462636D01*
X265075Y462513D01*
X265045Y462390D01*
X265004Y462285D01*
X264999Y462273D01*
X264981Y462244D01*
X264952Y462197D01*
X264917Y462139D01*
X264864Y462068D01*
X264800Y462004D01*
X264718Y461940D01*
X264630Y461881D01*
X264618Y461875D01*
X264583Y461858D01*
X264531Y461840D01*
X264460Y461817D01*
X264373Y461788D01*
X264273Y461770D01*
X264156Y461753D01*
X264033Y461747D01*
X263987D01*
X263951Y461753D01*
X263911Y461758D01*
X263858Y461764D01*
X263747Y461782D01*
X263624Y461817D01*
X263495Y461869D01*
X263431Y461899D01*
X263372Y461940D01*
X263314Y461981D01*
X263261Y462033D01*
Y462039D01*
X263249Y462045D01*
X263238Y462063D01*
X263220Y462086D01*
X263197Y462121D01*
X263179Y462156D01*
X263150Y462203D01*
X263127Y462250D01*
X263103Y462308D01*
X263080Y462373D01*
X263056Y462443D01*
X263039Y462525D01*
X263021Y462607D01*
X263010Y462700D01*
X263004Y462794D01*
Y462899D01*
X263460Y462963D01*
Y462958D01*
Y462946D01*
Y462922D01*
X263466Y462893D01*
Y462858D01*
X263472Y462817D01*
X263489Y462724D01*
X263507Y462618D01*
X263536Y462519D01*
X263577Y462431D01*
X263600Y462390D01*
X263624Y462355D01*
X263630Y462349D01*
X263653Y462332D01*
X263682Y462302D01*
X263729Y462279D01*
X263788Y462250D01*
X263858Y462220D01*
X263940Y462203D01*
X264033Y462197D01*
X264069D01*
X264104Y462203D01*
X264145Y462209D01*
X264197Y462220D01*
X264256Y462232D01*
X264308Y462256D01*
X264361Y462285D01*
X264367Y462291D01*
X264384Y462302D01*
X264408Y462320D01*
X264437Y462349D01*
X264472Y462379D01*
X264501Y462419D01*
X264531Y462466D01*
X264554Y462519D01*
Y462525D01*
X264566Y462548D01*
X264572Y462583D01*
X264583Y462636D01*
X264595Y462706D01*
X264601Y462788D01*
X264613Y462887D01*
Y463004D01*
Y465655D01*
X265122D01*
Y463034D01*
D02*
G37*
G36*
X267538Y461811D02*
X267064D01*
Y464818D01*
X267058Y464812D01*
X267035Y464789D01*
X266993Y464759D01*
X266941Y464718D01*
X266877Y464666D01*
X266800Y464613D01*
X266713Y464549D01*
X266613Y464490D01*
X266607D01*
X266602Y464485D01*
X266566Y464461D01*
X266514Y464432D01*
X266449Y464397D01*
X266373Y464356D01*
X266291Y464321D01*
X266204Y464280D01*
X266122Y464245D01*
Y464707D01*
X266128D01*
X266139Y464713D01*
X266163Y464724D01*
X266186Y464742D01*
X266221Y464759D01*
X266262Y464777D01*
X266356Y464830D01*
X266461Y464894D01*
X266578Y464970D01*
X266695Y465058D01*
X266806Y465151D01*
X266812Y465157D01*
X266818Y465163D01*
X266853Y465198D01*
X266906Y465251D01*
X266970Y465315D01*
X267040Y465397D01*
X267110Y465485D01*
X267175Y465578D01*
X267228Y465672D01*
X267538D01*
Y461811D01*
D02*
G37*
G36*
X235547Y357480D02*
X235073D01*
Y360487D01*
X235067Y360481D01*
X235044Y360458D01*
X235003Y360429D01*
X234950Y360388D01*
X234886Y360335D01*
X234809Y360282D01*
X234722Y360218D01*
X234622Y360160D01*
X234616D01*
X234611Y360154D01*
X234576Y360130D01*
X234523Y360101D01*
X234458Y360066D01*
X234383Y360025D01*
X234301Y359990D01*
X234213Y359949D01*
X234131Y359914D01*
Y360376D01*
X234137D01*
X234149Y360382D01*
X234172Y360394D01*
X234195Y360411D01*
X234230Y360429D01*
X234271Y360446D01*
X234365Y360499D01*
X234470Y360563D01*
X234587Y360639D01*
X234704Y360727D01*
X234815Y360821D01*
X234821Y360826D01*
X234827Y360832D01*
X234862Y360868D01*
X234915Y360920D01*
X234979Y360984D01*
X235049Y361066D01*
X235120Y361154D01*
X235184Y361248D01*
X235237Y361341D01*
X235547D01*
Y357480D01*
D02*
G37*
G36*
X233300Y360873D02*
X231218D01*
Y359674D01*
X233019D01*
Y359224D01*
X231218D01*
Y357480D01*
X230709D01*
Y361324D01*
X233300D01*
Y360873D01*
D02*
G37*
G36*
X502725Y381012D02*
X502772Y381006D01*
X502825Y381000D01*
X502883Y380994D01*
X502948Y380977D01*
X503088Y380942D01*
X503234Y380889D01*
X503310Y380854D01*
X503381Y380813D01*
X503445Y380760D01*
X503509Y380708D01*
X503515Y380702D01*
X503521Y380696D01*
X503539Y380678D01*
X503562Y380655D01*
X503585Y380620D01*
X503615Y380585D01*
X503673Y380497D01*
X503732Y380386D01*
X503784Y380257D01*
X503825Y380111D01*
X503831Y380029D01*
X503837Y379947D01*
Y379935D01*
Y379906D01*
X503831Y379859D01*
X503825Y379801D01*
X503814Y379731D01*
X503796Y379655D01*
X503772Y379573D01*
X503737Y379491D01*
X503732Y379479D01*
X503720Y379450D01*
X503696Y379409D01*
X503661Y379350D01*
X503620Y379280D01*
X503568Y379198D01*
X503498Y379116D01*
X503421Y379023D01*
X503410Y379011D01*
X503381Y378976D01*
X503328Y378923D01*
X503293Y378888D01*
X503252Y378847D01*
X503205Y378801D01*
X503147Y378748D01*
X503088Y378695D01*
X503024Y378631D01*
X502953Y378567D01*
X502872Y378496D01*
X502790Y378426D01*
X502696Y378344D01*
X502690Y378338D01*
X502679Y378327D01*
X502655Y378309D01*
X502626Y378286D01*
X502556Y378227D01*
X502468Y378151D01*
X502380Y378069D01*
X502287Y377987D01*
X502211Y377917D01*
X502181Y377888D01*
X502152Y377859D01*
X502146Y377853D01*
X502135Y377835D01*
X502111Y377812D01*
X502082Y377777D01*
X502017Y377701D01*
X501953Y377607D01*
X503843D01*
Y377157D01*
X501298D01*
Y377163D01*
Y377186D01*
Y377221D01*
X501304Y377262D01*
X501310Y377309D01*
X501315Y377361D01*
X501333Y377420D01*
X501351Y377479D01*
Y377484D01*
X501357Y377490D01*
X501368Y377525D01*
X501392Y377572D01*
X501427Y377642D01*
X501468Y377718D01*
X501526Y377806D01*
X501585Y377894D01*
X501661Y377987D01*
Y377993D01*
X501672Y377999D01*
X501702Y378034D01*
X501748Y378087D01*
X501819Y378157D01*
X501906Y378239D01*
X502012Y378338D01*
X502140Y378450D01*
X502281Y378572D01*
X502287Y378578D01*
X502310Y378596D01*
X502339Y378619D01*
X502380Y378660D01*
X502433Y378701D01*
X502491Y378754D01*
X502620Y378865D01*
X502761Y378999D01*
X502901Y379134D01*
X502971Y379198D01*
X503030Y379263D01*
X503082Y379327D01*
X503129Y379386D01*
Y379391D01*
X503141Y379397D01*
X503152Y379415D01*
X503164Y379438D01*
X503199Y379497D01*
X503240Y379573D01*
X503281Y379661D01*
X503316Y379754D01*
X503340Y379859D01*
X503351Y379959D01*
Y379965D01*
Y379971D01*
X503345Y380006D01*
X503340Y380058D01*
X503328Y380123D01*
X503299Y380199D01*
X503264Y380275D01*
X503217Y380357D01*
X503147Y380433D01*
X503135Y380438D01*
X503112Y380462D01*
X503065Y380491D01*
X503006Y380532D01*
X502930Y380567D01*
X502842Y380596D01*
X502737Y380620D01*
X502620Y380626D01*
X502585D01*
X502562Y380620D01*
X502503Y380614D01*
X502427Y380602D01*
X502339Y380573D01*
X502246Y380538D01*
X502158Y380485D01*
X502076Y380415D01*
X502070Y380403D01*
X502047Y380380D01*
X502012Y380333D01*
X501977Y380269D01*
X501936Y380187D01*
X501906Y380093D01*
X501883Y379982D01*
X501871Y379854D01*
X501386Y379906D01*
Y379912D01*
Y379930D01*
X501392Y379959D01*
X501397Y379994D01*
X501409Y380041D01*
X501415Y380093D01*
X501450Y380210D01*
X501497Y380345D01*
X501561Y380480D01*
X501649Y380614D01*
X501696Y380673D01*
X501754Y380731D01*
X501760Y380737D01*
X501772Y380743D01*
X501789Y380760D01*
X501813Y380778D01*
X501848Y380795D01*
X501889Y380825D01*
X501936Y380848D01*
X501988Y380877D01*
X502047Y380901D01*
X502111Y380930D01*
X502187Y380953D01*
X502263Y380971D01*
X502439Y381006D01*
X502532Y381012D01*
X502632Y381018D01*
X502684D01*
X502725Y381012D01*
D02*
G37*
G36*
X499256Y380994D02*
X499362Y380989D01*
X499479Y380977D01*
X499590Y380959D01*
X499683Y380942D01*
X499689D01*
X499701Y380936D01*
X499713D01*
X499736Y380924D01*
X499800Y380907D01*
X499876Y380877D01*
X499964Y380842D01*
X500058Y380795D01*
X500151Y380737D01*
X500245Y380667D01*
X500251D01*
X500257Y380655D01*
X500298Y380620D01*
X500350Y380561D01*
X500415Y380485D01*
X500491Y380392D01*
X500567Y380281D01*
X500637Y380152D01*
X500701Y380006D01*
Y380000D01*
X500707Y379988D01*
X500713Y379965D01*
X500725Y379935D01*
X500736Y379900D01*
X500748Y379854D01*
X500766Y379801D01*
X500777Y379742D01*
X500789Y379678D01*
X500807Y379608D01*
X500830Y379456D01*
X500847Y379286D01*
X500853Y379099D01*
Y379093D01*
Y379081D01*
Y379058D01*
Y379023D01*
X500847Y378988D01*
Y378941D01*
X500842Y378836D01*
X500830Y378719D01*
X500807Y378584D01*
X500783Y378450D01*
X500748Y378321D01*
Y378315D01*
X500742Y378303D01*
X500736Y378286D01*
X500731Y378262D01*
X500707Y378204D01*
X500678Y378122D01*
X500643Y378034D01*
X500596Y377941D01*
X500543Y377847D01*
X500485Y377759D01*
X500479Y377748D01*
X500456Y377724D01*
X500426Y377683D01*
X500380Y377630D01*
X500333Y377578D01*
X500268Y377519D01*
X500204Y377461D01*
X500134Y377408D01*
X500128Y377402D01*
X500099Y377391D01*
X500058Y377367D01*
X500005Y377338D01*
X499941Y377309D01*
X499865Y377280D01*
X499777Y377250D01*
X499678Y377221D01*
X499666D01*
X499631Y377209D01*
X499578Y377203D01*
X499502Y377192D01*
X499414Y377180D01*
X499309Y377168D01*
X499192Y377163D01*
X499063Y377157D01*
X497683D01*
Y381000D01*
X499157D01*
X499256Y380994D01*
D02*
G37*
G36*
X268443Y423193D02*
X268489Y423187D01*
X268548Y423182D01*
X268612Y423176D01*
X268682Y423164D01*
X268834Y423129D01*
X268998Y423076D01*
X269080Y423041D01*
X269162Y423000D01*
X269238Y422953D01*
X269314Y422901D01*
X269320Y422895D01*
X269332Y422889D01*
X269349Y422871D01*
X269378Y422848D01*
X269408Y422819D01*
X269449Y422778D01*
X269490Y422737D01*
X269531Y422690D01*
X269577Y422632D01*
X269618Y422573D01*
X269665Y422503D01*
X269712Y422427D01*
X269753Y422351D01*
X269794Y422263D01*
X269864Y422076D01*
X269361Y421959D01*
Y421965D01*
X269355Y421977D01*
X269349Y422000D01*
X269338Y422029D01*
X269320Y422064D01*
X269303Y422105D01*
X269262Y422193D01*
X269209Y422292D01*
X269139Y422398D01*
X269063Y422491D01*
X268969Y422573D01*
X268957Y422579D01*
X268922Y422602D01*
X268870Y422632D01*
X268794Y422673D01*
X268706Y422708D01*
X268595Y422737D01*
X268472Y422760D01*
X268331Y422766D01*
X268290D01*
X268261Y422760D01*
X268220D01*
X268179Y422754D01*
X268074Y422737D01*
X267957Y422714D01*
X267834Y422673D01*
X267711Y422620D01*
X267594Y422550D01*
X267588D01*
X267583Y422538D01*
X267547Y422509D01*
X267495Y422462D01*
X267430Y422398D01*
X267366Y422316D01*
X267296Y422222D01*
X267232Y422105D01*
X267179Y421977D01*
Y421971D01*
X267173Y421959D01*
X267167Y421941D01*
X267161Y421912D01*
X267150Y421883D01*
X267144Y421842D01*
X267120Y421748D01*
X267097Y421637D01*
X267079Y421514D01*
X267068Y421380D01*
X267062Y421239D01*
Y421234D01*
Y421216D01*
Y421193D01*
Y421158D01*
X267068Y421116D01*
Y421064D01*
X267074Y421011D01*
X267079Y420953D01*
X267097Y420818D01*
X267120Y420672D01*
X267156Y420526D01*
X267202Y420385D01*
Y420379D01*
X267208Y420368D01*
X267220Y420350D01*
X267232Y420327D01*
X267261Y420257D01*
X267308Y420181D01*
X267372Y420087D01*
X267448Y419999D01*
X267536Y419911D01*
X267641Y419835D01*
X267647D01*
X267653Y419830D01*
X267670Y419818D01*
X267694Y419806D01*
X267758Y419783D01*
X267840Y419748D01*
X267934Y419718D01*
X268045Y419689D01*
X268168Y419666D01*
X268296Y419660D01*
X268337D01*
X268367Y419666D01*
X268402D01*
X268448Y419672D01*
X268548Y419689D01*
X268659Y419718D01*
X268782Y419765D01*
X268899Y419824D01*
X269016Y419906D01*
X269022Y419911D01*
X269027Y419917D01*
X269063Y419952D01*
X269115Y420011D01*
X269180Y420087D01*
X269244Y420192D01*
X269314Y420315D01*
X269373Y420467D01*
X269420Y420637D01*
X269928Y420508D01*
Y420502D01*
X269923Y420479D01*
X269911Y420450D01*
X269899Y420403D01*
X269876Y420356D01*
X269852Y420292D01*
X269829Y420227D01*
X269794Y420157D01*
X269718Y419999D01*
X269613Y419841D01*
X269496Y419689D01*
X269425Y419619D01*
X269349Y419555D01*
X269343Y419549D01*
X269332Y419543D01*
X269308Y419525D01*
X269273Y419502D01*
X269232Y419479D01*
X269185Y419449D01*
X269133Y419420D01*
X269069Y419391D01*
X268998Y419361D01*
X268922Y419332D01*
X268834Y419303D01*
X268747Y419280D01*
X268554Y419239D01*
X268448Y419233D01*
X268337Y419227D01*
X268279D01*
X268232Y419233D01*
X268179D01*
X268121Y419239D01*
X268051Y419250D01*
X267980Y419256D01*
X267817Y419291D01*
X267647Y419332D01*
X267483Y419397D01*
X267401Y419432D01*
X267325Y419479D01*
X267319Y419484D01*
X267308Y419490D01*
X267290Y419508D01*
X267261Y419525D01*
X267191Y419584D01*
X267109Y419666D01*
X267009Y419765D01*
X266916Y419894D01*
X266816Y420040D01*
X266734Y420210D01*
Y420216D01*
X266728Y420233D01*
X266717Y420257D01*
X266705Y420292D01*
X266687Y420338D01*
X266670Y420391D01*
X266652Y420450D01*
X266635Y420520D01*
X266617Y420590D01*
X266600Y420672D01*
X266565Y420847D01*
X266541Y421035D01*
X266535Y421239D01*
Y421245D01*
Y421269D01*
Y421298D01*
X266541Y421339D01*
Y421391D01*
X266547Y421456D01*
X266553Y421520D01*
X266565Y421596D01*
X266594Y421760D01*
X266629Y421936D01*
X266687Y422117D01*
X266764Y422287D01*
Y422292D01*
X266775Y422304D01*
X266787Y422328D01*
X266805Y422363D01*
X266828Y422398D01*
X266857Y422439D01*
X266933Y422538D01*
X267021Y422649D01*
X267132Y422760D01*
X267267Y422871D01*
X267413Y422965D01*
X267419D01*
X267430Y422977D01*
X267454Y422989D01*
X267489Y423000D01*
X267524Y423018D01*
X267571Y423041D01*
X267629Y423059D01*
X267688Y423082D01*
X267752Y423105D01*
X267822Y423123D01*
X267980Y423164D01*
X268156Y423187D01*
X268343Y423199D01*
X268402D01*
X268443Y423193D01*
D02*
G37*
G36*
X272239Y421304D02*
X273684Y419291D01*
X273058D01*
X272087Y420660D01*
X272081Y420666D01*
X272075Y420678D01*
X272058Y420701D01*
X272034Y420736D01*
X271988Y420807D01*
X271929Y420894D01*
X271923Y420888D01*
X271906Y420865D01*
X271888Y420830D01*
X271859Y420783D01*
X271795Y420695D01*
X271765Y420654D01*
X271742Y420619D01*
X270771Y419291D01*
X270162D01*
X271648Y421280D01*
X270338Y423135D01*
X270940D01*
X271642Y422146D01*
Y422140D01*
X271654Y422134D01*
X271678Y422093D01*
X271719Y422041D01*
X271760Y421977D01*
X271812Y421900D01*
X271865Y421818D01*
X271906Y421748D01*
X271947Y421678D01*
X271953Y421690D01*
X271970Y421713D01*
X271999Y421754D01*
X272034Y421807D01*
X272075Y421871D01*
X272128Y421947D01*
X272186Y422023D01*
X272251Y422105D01*
X273023Y423135D01*
X273579D01*
X272239Y421304D01*
D02*
G37*
G36*
X275720Y419291D02*
X275246D01*
Y422298D01*
X275240Y422292D01*
X275217Y422269D01*
X275176Y422240D01*
X275123Y422199D01*
X275059Y422146D01*
X274983Y422093D01*
X274895Y422029D01*
X274796Y421971D01*
X274790D01*
X274784Y421965D01*
X274749Y421941D01*
X274696Y421912D01*
X274632Y421877D01*
X274556Y421836D01*
X274474Y421801D01*
X274386Y421760D01*
X274304Y421725D01*
Y422187D01*
X274310D01*
X274322Y422193D01*
X274345Y422205D01*
X274369Y422222D01*
X274404Y422240D01*
X274445Y422257D01*
X274538Y422310D01*
X274643Y422374D01*
X274761Y422450D01*
X274878Y422538D01*
X274989Y422632D01*
X274994Y422638D01*
X275000Y422643D01*
X275036Y422679D01*
X275088Y422731D01*
X275152Y422795D01*
X275223Y422877D01*
X275293Y422965D01*
X275357Y423059D01*
X275410Y423152D01*
X275720D01*
Y419291D01*
D02*
G37*
G36*
X488755Y458973D02*
X488790D01*
X488836Y458967D01*
X488942Y458950D01*
X489059Y458915D01*
X489182Y458868D01*
X489304Y458810D01*
X489363Y458769D01*
X489421Y458722D01*
X489427D01*
X489433Y458710D01*
X489468Y458675D01*
X489515Y458616D01*
X489573Y458540D01*
X489638Y458441D01*
X489690Y458324D01*
X489743Y458183D01*
X489772Y458026D01*
X489304Y457991D01*
Y457996D01*
Y458002D01*
X489293Y458037D01*
X489275Y458084D01*
X489258Y458143D01*
X489199Y458277D01*
X489164Y458336D01*
X489123Y458388D01*
X489117Y458400D01*
X489088Y458423D01*
X489047Y458453D01*
X488994Y458494D01*
X488924Y458529D01*
X488842Y458564D01*
X488749Y458587D01*
X488649Y458593D01*
X488608D01*
X488567Y458587D01*
X488515Y458575D01*
X488450Y458564D01*
X488380Y458540D01*
X488316Y458505D01*
X488245Y458464D01*
X488234Y458459D01*
X488210Y458435D01*
X488169Y458394D01*
X488123Y458342D01*
X488064Y458277D01*
X488006Y458195D01*
X487947Y458096D01*
X487894Y457985D01*
Y457979D01*
X487889Y457973D01*
X487883Y457949D01*
X487877Y457926D01*
X487865Y457897D01*
X487854Y457856D01*
X487842Y457809D01*
X487830Y457757D01*
X487818Y457698D01*
X487807Y457634D01*
X487795Y457558D01*
X487783Y457481D01*
X487778Y457394D01*
X487772Y457300D01*
X487766Y457201D01*
Y457101D01*
X487772Y457107D01*
X487795Y457136D01*
X487830Y457183D01*
X487883Y457242D01*
X487941Y457306D01*
X488012Y457370D01*
X488093Y457429D01*
X488181Y457481D01*
X488193Y457487D01*
X488222Y457499D01*
X488275Y457522D01*
X488339Y457546D01*
X488415Y457569D01*
X488503Y457593D01*
X488596Y457604D01*
X488696Y457610D01*
X488743D01*
X488778Y457604D01*
X488819Y457598D01*
X488866Y457593D01*
X488977Y457569D01*
X489100Y457522D01*
X489170Y457499D01*
X489234Y457464D01*
X489304Y457423D01*
X489375Y457376D01*
X489439Y457324D01*
X489503Y457259D01*
X489509Y457253D01*
X489515Y457242D01*
X489533Y457224D01*
X489556Y457195D01*
X489579Y457160D01*
X489609Y457119D01*
X489638Y457072D01*
X489673Y457019D01*
X489702Y456955D01*
X489731Y456891D01*
X489761Y456815D01*
X489784Y456739D01*
X489808Y456651D01*
X489825Y456563D01*
X489831Y456464D01*
X489837Y456364D01*
Y456358D01*
Y456347D01*
Y456329D01*
Y456306D01*
X489831Y456271D01*
Y456236D01*
X489819Y456142D01*
X489796Y456042D01*
X489772Y455925D01*
X489731Y455808D01*
X489679Y455691D01*
Y455686D01*
X489673Y455680D01*
X489661Y455662D01*
X489649Y455639D01*
X489614Y455586D01*
X489568Y455516D01*
X489503Y455440D01*
X489427Y455364D01*
X489345Y455288D01*
X489246Y455218D01*
X489234Y455212D01*
X489199Y455194D01*
X489141Y455165D01*
X489070Y455136D01*
X488977Y455106D01*
X488871Y455077D01*
X488755Y455060D01*
X488632Y455054D01*
X488608D01*
X488573Y455060D01*
X488532D01*
X488485Y455065D01*
X488427Y455077D01*
X488363Y455089D01*
X488292Y455106D01*
X488216Y455130D01*
X488134Y455159D01*
X488058Y455194D01*
X487976Y455235D01*
X487894Y455288D01*
X487813Y455346D01*
X487737Y455411D01*
X487666Y455487D01*
X487661Y455492D01*
X487649Y455510D01*
X487631Y455534D01*
X487608Y455569D01*
X487579Y455615D01*
X487549Y455674D01*
X487514Y455744D01*
X487485Y455826D01*
X487450Y455920D01*
X487415Y456025D01*
X487386Y456142D01*
X487356Y456271D01*
X487333Y456411D01*
X487315Y456569D01*
X487304Y456733D01*
X487298Y456914D01*
Y456920D01*
Y456926D01*
Y456943D01*
Y456961D01*
Y457019D01*
X487304Y457095D01*
X487310Y457189D01*
X487321Y457294D01*
X487333Y457411D01*
X487351Y457534D01*
X487368Y457669D01*
X487397Y457803D01*
X487432Y457938D01*
X487473Y458067D01*
X487520Y458201D01*
X487573Y458318D01*
X487637Y458435D01*
X487707Y458534D01*
X487713Y458540D01*
X487725Y458552D01*
X487742Y458575D01*
X487772Y458605D01*
X487813Y458640D01*
X487854Y458675D01*
X487906Y458716D01*
X487965Y458757D01*
X488029Y458798D01*
X488105Y458839D01*
X488181Y458874D01*
X488269Y458909D01*
X488363Y458938D01*
X488462Y458962D01*
X488567Y458973D01*
X488678Y458979D01*
X488719D01*
X488755Y458973D01*
D02*
G37*
G36*
X482419Y459020D02*
X482466Y459014D01*
X482524Y459008D01*
X482589Y459002D01*
X482659Y458991D01*
X482811Y458956D01*
X482975Y458903D01*
X483057Y458868D01*
X483139Y458827D01*
X483215Y458780D01*
X483291Y458728D01*
X483296Y458722D01*
X483308Y458716D01*
X483326Y458698D01*
X483355Y458675D01*
X483384Y458646D01*
X483425Y458605D01*
X483466Y458564D01*
X483507Y458517D01*
X483554Y458459D01*
X483595Y458400D01*
X483642Y458330D01*
X483688Y458254D01*
X483729Y458178D01*
X483770Y458090D01*
X483841Y457903D01*
X483337Y457786D01*
Y457792D01*
X483331Y457803D01*
X483326Y457827D01*
X483314Y457856D01*
X483296Y457891D01*
X483279Y457932D01*
X483238Y458020D01*
X483185Y458119D01*
X483115Y458224D01*
X483039Y458318D01*
X482945Y458400D01*
X482934Y458406D01*
X482899Y458429D01*
X482846Y458459D01*
X482770Y458499D01*
X482682Y458534D01*
X482571Y458564D01*
X482448Y458587D01*
X482308Y458593D01*
X482267D01*
X482238Y458587D01*
X482197D01*
X482156Y458581D01*
X482050Y458564D01*
X481933Y458540D01*
X481811Y458499D01*
X481688Y458447D01*
X481571Y458377D01*
X481565D01*
X481559Y458365D01*
X481524Y458336D01*
X481471Y458289D01*
X481407Y458224D01*
X481343Y458143D01*
X481272Y458049D01*
X481208Y457932D01*
X481155Y457803D01*
Y457797D01*
X481149Y457786D01*
X481144Y457768D01*
X481138Y457739D01*
X481126Y457710D01*
X481120Y457669D01*
X481097Y457575D01*
X481073Y457464D01*
X481056Y457341D01*
X481044Y457207D01*
X481038Y457066D01*
Y457060D01*
Y457043D01*
Y457019D01*
Y456984D01*
X481044Y456943D01*
Y456891D01*
X481050Y456838D01*
X481056Y456779D01*
X481073Y456645D01*
X481097Y456499D01*
X481132Y456353D01*
X481179Y456212D01*
Y456206D01*
X481185Y456194D01*
X481196Y456177D01*
X481208Y456154D01*
X481237Y456083D01*
X481284Y456007D01*
X481348Y455914D01*
X481424Y455826D01*
X481512Y455738D01*
X481617Y455662D01*
X481623D01*
X481629Y455656D01*
X481647Y455645D01*
X481670Y455633D01*
X481735Y455610D01*
X481816Y455574D01*
X481910Y455545D01*
X482021Y455516D01*
X482144Y455492D01*
X482273Y455487D01*
X482314D01*
X482343Y455492D01*
X482378D01*
X482425Y455498D01*
X482524Y455516D01*
X482635Y455545D01*
X482758Y455592D01*
X482875Y455651D01*
X482992Y455732D01*
X482998Y455738D01*
X483004Y455744D01*
X483039Y455779D01*
X483092Y455838D01*
X483156Y455914D01*
X483220Y456019D01*
X483291Y456142D01*
X483349Y456294D01*
X483396Y456464D01*
X483905Y456335D01*
Y456329D01*
X483899Y456306D01*
X483887Y456276D01*
X483876Y456230D01*
X483852Y456183D01*
X483829Y456118D01*
X483805Y456054D01*
X483770Y455984D01*
X483694Y455826D01*
X483589Y455668D01*
X483472Y455516D01*
X483402Y455446D01*
X483326Y455381D01*
X483320Y455375D01*
X483308Y455370D01*
X483285Y455352D01*
X483250Y455329D01*
X483209Y455305D01*
X483162Y455276D01*
X483109Y455247D01*
X483045Y455218D01*
X482975Y455188D01*
X482899Y455159D01*
X482811Y455130D01*
X482723Y455106D01*
X482530Y455065D01*
X482425Y455060D01*
X482314Y455054D01*
X482255D01*
X482208Y455060D01*
X482156D01*
X482097Y455065D01*
X482027Y455077D01*
X481957Y455083D01*
X481793Y455118D01*
X481623Y455159D01*
X481460Y455223D01*
X481378Y455259D01*
X481302Y455305D01*
X481296Y455311D01*
X481284Y455317D01*
X481266Y455335D01*
X481237Y455352D01*
X481167Y455411D01*
X481085Y455492D01*
X480986Y455592D01*
X480892Y455721D01*
X480793Y455867D01*
X480711Y456037D01*
Y456042D01*
X480705Y456060D01*
X480693Y456083D01*
X480682Y456118D01*
X480664Y456165D01*
X480646Y456218D01*
X480629Y456276D01*
X480611Y456347D01*
X480594Y456417D01*
X480576Y456499D01*
X480541Y456674D01*
X480518Y456861D01*
X480512Y457066D01*
Y457072D01*
Y457095D01*
Y457125D01*
X480518Y457166D01*
Y457218D01*
X480523Y457283D01*
X480529Y457347D01*
X480541Y457423D01*
X480570Y457587D01*
X480605Y457762D01*
X480664Y457944D01*
X480740Y458113D01*
Y458119D01*
X480752Y458131D01*
X480763Y458154D01*
X480781Y458189D01*
X480804Y458224D01*
X480834Y458265D01*
X480910Y458365D01*
X480997Y458476D01*
X481109Y458587D01*
X481243Y458698D01*
X481389Y458792D01*
X481395D01*
X481407Y458804D01*
X481430Y458815D01*
X481465Y458827D01*
X481500Y458845D01*
X481547Y458868D01*
X481606Y458885D01*
X481664Y458909D01*
X481729Y458932D01*
X481799Y458950D01*
X481957Y458991D01*
X482132Y459014D01*
X482319Y459026D01*
X482378D01*
X482419Y459020D01*
D02*
G37*
G36*
X486116Y455118D02*
X485642D01*
Y458125D01*
X485636Y458119D01*
X485613Y458096D01*
X485572Y458067D01*
X485519Y458026D01*
X485455Y457973D01*
X485379Y457920D01*
X485291Y457856D01*
X485192Y457797D01*
X485186D01*
X485180Y457792D01*
X485145Y457768D01*
X485092Y457739D01*
X485028Y457704D01*
X484952Y457663D01*
X484870Y457628D01*
X484782Y457587D01*
X484700Y457552D01*
Y458014D01*
X484706D01*
X484718Y458020D01*
X484741Y458031D01*
X484765Y458049D01*
X484800Y458067D01*
X484841Y458084D01*
X484934Y458137D01*
X485040Y458201D01*
X485157Y458277D01*
X485274Y458365D01*
X485385Y458459D01*
X485391Y458464D01*
X485397Y458470D01*
X485432Y458505D01*
X485484Y458558D01*
X485549Y458622D01*
X485619Y458704D01*
X485689Y458792D01*
X485753Y458885D01*
X485806Y458979D01*
X486116D01*
Y455118D01*
D02*
G37*
G36*
X420636Y363040D02*
X420677Y363034D01*
X420729Y363029D01*
X420846Y363005D01*
X420975Y362958D01*
X421045Y362935D01*
X421115Y362900D01*
X421185Y362859D01*
X421256Y362812D01*
X421320Y362759D01*
X421384Y362695D01*
X421390Y362689D01*
X421396Y362678D01*
X421414Y362660D01*
X421437Y362631D01*
X421460Y362596D01*
X421490Y362555D01*
X421519Y362508D01*
X421548Y362449D01*
X421583Y362385D01*
X421613Y362315D01*
X421642Y362239D01*
X421665Y362157D01*
X421689Y362075D01*
X421706Y361981D01*
X421712Y361882D01*
X421718Y361777D01*
Y361724D01*
X421712Y361683D01*
X421706Y361636D01*
X421700Y361578D01*
X421689Y361519D01*
X421677Y361449D01*
X421636Y361303D01*
X421607Y361227D01*
X421578Y361151D01*
X421536Y361075D01*
X421496Y360999D01*
X421443Y360928D01*
X421384Y360858D01*
X421379Y360852D01*
X421367Y360841D01*
X421349Y360829D01*
X421326Y360806D01*
X421291Y360776D01*
X421250Y360747D01*
X421203Y360718D01*
X421150Y360688D01*
X421092Y360653D01*
X421028Y360624D01*
X420887Y360566D01*
X420805Y360542D01*
X420723Y360530D01*
X420636Y360519D01*
X420542Y360513D01*
X420536D01*
X420525D01*
X420507D01*
X420478Y360519D01*
X420448D01*
X420407Y360525D01*
X420326Y360536D01*
X420226Y360560D01*
X420121Y360595D01*
X420015Y360636D01*
X419916Y360700D01*
X419910D01*
X419904Y360712D01*
X419875Y360735D01*
X419828Y360782D01*
X419776Y360841D01*
X419717Y360917D01*
X419659Y361010D01*
X419606Y361121D01*
X419565Y361244D01*
Y361238D01*
X419559Y361232D01*
X419548Y361197D01*
X419518Y361145D01*
X419489Y361080D01*
X419442Y361004D01*
X419390Y360934D01*
X419331Y360864D01*
X419261Y360806D01*
X419249Y360800D01*
X419226Y360782D01*
X419185Y360759D01*
X419126Y360735D01*
X419056Y360712D01*
X418974Y360688D01*
X418887Y360671D01*
X418787Y360665D01*
X418781D01*
X418770D01*
X418746D01*
X418717Y360671D01*
X418682Y360677D01*
X418641Y360683D01*
X418541Y360700D01*
X418430Y360735D01*
X418313Y360794D01*
X418249Y360823D01*
X418190Y360864D01*
X418132Y360911D01*
X418079Y360963D01*
X418073Y360969D01*
X418068Y360975D01*
X418050Y360993D01*
X418032Y361016D01*
X418015Y361051D01*
X417986Y361086D01*
X417962Y361127D01*
X417933Y361180D01*
X417880Y361291D01*
X417839Y361431D01*
X417804Y361589D01*
X417798Y361671D01*
X417793Y361765D01*
Y361812D01*
X417798Y361847D01*
Y361894D01*
X417810Y361940D01*
X417828Y362057D01*
X417863Y362186D01*
X417915Y362321D01*
X417950Y362391D01*
X417986Y362455D01*
X418032Y362520D01*
X418085Y362578D01*
X418091Y362584D01*
X418097Y362590D01*
X418114Y362607D01*
X418138Y362625D01*
X418167Y362648D01*
X418202Y362678D01*
X418284Y362736D01*
X418389Y362789D01*
X418512Y362841D01*
X418647Y362876D01*
X418723Y362882D01*
X418799Y362888D01*
X418810D01*
X418846D01*
X418892Y362882D01*
X418957Y362871D01*
X419033Y362853D01*
X419109Y362830D01*
X419191Y362794D01*
X419267Y362748D01*
X419273Y362742D01*
X419296Y362724D01*
X419331Y362689D01*
X419378Y362642D01*
X419425Y362584D01*
X419472Y362508D01*
X419524Y362420D01*
X419565Y362321D01*
Y362327D01*
X419571Y362338D01*
X419577Y362356D01*
X419589Y362379D01*
X419618Y362443D01*
X419653Y362520D01*
X419705Y362607D01*
X419770Y362695D01*
X419852Y362783D01*
X419940Y362859D01*
X419951Y362865D01*
X419986Y362888D01*
X420039Y362917D01*
X420115Y362952D01*
X420203Y362987D01*
X420308Y363017D01*
X420425Y363040D01*
X420554Y363046D01*
X420560D01*
X420577D01*
X420601D01*
X420636Y363040D01*
D02*
G37*
G36*
X420466Y360080D02*
X420495Y360068D01*
X420542Y360057D01*
X420589Y360033D01*
X420653Y360010D01*
X420717Y359986D01*
X420788Y359951D01*
X420946Y359875D01*
X421104Y359770D01*
X421256Y359653D01*
X421326Y359583D01*
X421390Y359507D01*
X421396Y359501D01*
X421402Y359489D01*
X421419Y359466D01*
X421443Y359431D01*
X421466Y359390D01*
X421496Y359343D01*
X421525Y359290D01*
X421554Y359226D01*
X421583Y359156D01*
X421613Y359080D01*
X421642Y358992D01*
X421665Y358904D01*
X421706Y358711D01*
X421712Y358606D01*
X421718Y358495D01*
Y358436D01*
X421712Y358389D01*
Y358337D01*
X421706Y358278D01*
X421695Y358208D01*
X421689Y358138D01*
X421654Y357974D01*
X421613Y357804D01*
X421548Y357641D01*
X421513Y357559D01*
X421466Y357483D01*
X421460Y357477D01*
X421455Y357465D01*
X421437Y357448D01*
X421419Y357418D01*
X421361Y357348D01*
X421279Y357266D01*
X421180Y357167D01*
X421051Y357073D01*
X420905Y356974D01*
X420735Y356892D01*
X420729D01*
X420712Y356886D01*
X420688Y356874D01*
X420653Y356863D01*
X420606Y356845D01*
X420554Y356827D01*
X420495Y356810D01*
X420425Y356792D01*
X420355Y356775D01*
X420273Y356757D01*
X420097Y356722D01*
X419910Y356699D01*
X419705Y356693D01*
X419700D01*
X419676D01*
X419647D01*
X419606Y356699D01*
X419553D01*
X419489Y356705D01*
X419425Y356711D01*
X419349Y356722D01*
X419185Y356751D01*
X419009Y356786D01*
X418828Y356845D01*
X418658Y356921D01*
X418652D01*
X418641Y356933D01*
X418617Y356944D01*
X418582Y356962D01*
X418547Y356985D01*
X418506Y357015D01*
X418407Y357091D01*
X418296Y357178D01*
X418185Y357290D01*
X418073Y357424D01*
X417980Y357570D01*
Y357576D01*
X417968Y357588D01*
X417956Y357611D01*
X417945Y357646D01*
X417927Y357682D01*
X417904Y357728D01*
X417886Y357787D01*
X417863Y357845D01*
X417839Y357910D01*
X417822Y357980D01*
X417781Y358138D01*
X417757Y358313D01*
X417746Y358501D01*
Y358559D01*
X417752Y358600D01*
X417757Y358647D01*
X417763Y358705D01*
X417769Y358770D01*
X417781Y358840D01*
X417816Y358992D01*
X417869Y359156D01*
X417904Y359238D01*
X417945Y359320D01*
X417991Y359396D01*
X418044Y359472D01*
X418050Y359477D01*
X418056Y359489D01*
X418073Y359507D01*
X418097Y359536D01*
X418126Y359565D01*
X418167Y359606D01*
X418208Y359647D01*
X418255Y359688D01*
X418313Y359735D01*
X418372Y359776D01*
X418442Y359823D01*
X418518Y359870D01*
X418594Y359910D01*
X418682Y359951D01*
X418869Y360022D01*
X418986Y359519D01*
X418980D01*
X418968Y359513D01*
X418945Y359507D01*
X418916Y359495D01*
X418881Y359477D01*
X418840Y359460D01*
X418752Y359419D01*
X418652Y359366D01*
X418547Y359296D01*
X418454Y359220D01*
X418372Y359126D01*
X418366Y359115D01*
X418342Y359080D01*
X418313Y359027D01*
X418272Y358951D01*
X418237Y358863D01*
X418208Y358752D01*
X418185Y358629D01*
X418179Y358489D01*
Y358448D01*
X418185Y358419D01*
Y358378D01*
X418190Y358337D01*
X418208Y358231D01*
X418231Y358115D01*
X418272Y357992D01*
X418325Y357869D01*
X418395Y357752D01*
Y357746D01*
X418407Y357740D01*
X418436Y357705D01*
X418483Y357652D01*
X418547Y357588D01*
X418629Y357524D01*
X418723Y357453D01*
X418840Y357389D01*
X418968Y357336D01*
X418974D01*
X418986Y357331D01*
X419003Y357325D01*
X419033Y357319D01*
X419062Y357307D01*
X419103Y357301D01*
X419197Y357278D01*
X419308Y357255D01*
X419430Y357237D01*
X419565Y357225D01*
X419705Y357219D01*
X419711D01*
X419729D01*
X419752D01*
X419787D01*
X419828Y357225D01*
X419881D01*
X419934Y357231D01*
X419992Y357237D01*
X420127Y357255D01*
X420273Y357278D01*
X420419Y357313D01*
X420560Y357360D01*
X420565D01*
X420577Y357366D01*
X420595Y357377D01*
X420618Y357389D01*
X420688Y357418D01*
X420764Y357465D01*
X420858Y357529D01*
X420946Y357606D01*
X421033Y357693D01*
X421109Y357799D01*
Y357804D01*
X421115Y357810D01*
X421127Y357828D01*
X421139Y357851D01*
X421162Y357916D01*
X421197Y357997D01*
X421227Y358091D01*
X421256Y358202D01*
X421279Y358325D01*
X421285Y358454D01*
Y358495D01*
X421279Y358524D01*
Y358559D01*
X421273Y358606D01*
X421256Y358705D01*
X421227Y358817D01*
X421180Y358939D01*
X421121Y359056D01*
X421039Y359173D01*
X421033Y359179D01*
X421028Y359185D01*
X420993Y359220D01*
X420934Y359273D01*
X420858Y359337D01*
X420753Y359401D01*
X420630Y359472D01*
X420478Y359530D01*
X420308Y359577D01*
X420437Y360086D01*
X420443D01*
X420466Y360080D01*
D02*
G37*
G36*
X499439Y426926D02*
X499485Y426921D01*
X499544Y426915D01*
X499608Y426909D01*
X499678Y426897D01*
X499831Y426862D01*
X499994Y426809D01*
X500076Y426774D01*
X500158Y426733D01*
X500234Y426686D01*
X500310Y426634D01*
X500316Y426628D01*
X500328Y426622D01*
X500345Y426605D01*
X500375Y426581D01*
X500404Y426552D01*
X500445Y426511D01*
X500486Y426470D01*
X500527Y426423D01*
X500573Y426365D01*
X500615Y426306D01*
X500661Y426236D01*
X500708Y426160D01*
X500749Y426084D01*
X500790Y425996D01*
X500860Y425809D01*
X500357Y425692D01*
Y425698D01*
X500351Y425710D01*
X500345Y425733D01*
X500334Y425762D01*
X500316Y425797D01*
X500299Y425838D01*
X500258Y425926D01*
X500205Y426025D01*
X500135Y426131D01*
X500059Y426224D01*
X499965Y426306D01*
X499953Y426312D01*
X499918Y426335D01*
X499866Y426365D01*
X499790Y426406D01*
X499702Y426441D01*
X499591Y426470D01*
X499468Y426494D01*
X499328Y426499D01*
X499287D01*
X499257Y426494D01*
X499216D01*
X499175Y426488D01*
X499070Y426470D01*
X498953Y426447D01*
X498830Y426406D01*
X498707Y426353D01*
X498590Y426283D01*
X498585D01*
X498579Y426271D01*
X498544Y426242D01*
X498491Y426195D01*
X498427Y426131D01*
X498362Y426049D01*
X498292Y425955D01*
X498228Y425838D01*
X498175Y425710D01*
Y425704D01*
X498169Y425692D01*
X498163Y425674D01*
X498157Y425645D01*
X498146Y425616D01*
X498140Y425575D01*
X498116Y425481D01*
X498093Y425370D01*
X498076Y425247D01*
X498064Y425113D01*
X498058Y424972D01*
Y424967D01*
Y424949D01*
Y424926D01*
Y424891D01*
X498064Y424850D01*
Y424797D01*
X498070Y424744D01*
X498076Y424686D01*
X498093Y424551D01*
X498116Y424405D01*
X498152Y424259D01*
X498198Y424118D01*
Y424113D01*
X498204Y424101D01*
X498216Y424083D01*
X498228Y424060D01*
X498257Y423990D01*
X498304Y423914D01*
X498368Y423820D01*
X498444Y423732D01*
X498532Y423644D01*
X498637Y423568D01*
X498643D01*
X498649Y423563D01*
X498666Y423551D01*
X498690Y423539D01*
X498754Y423516D01*
X498836Y423481D01*
X498930Y423452D01*
X499041Y423422D01*
X499164Y423399D01*
X499292Y423393D01*
X499333D01*
X499363Y423399D01*
X499398D01*
X499444Y423405D01*
X499544Y423422D01*
X499655Y423452D01*
X499778Y423498D01*
X499895Y423557D01*
X500012Y423639D01*
X500018Y423644D01*
X500024Y423650D01*
X500059Y423686D01*
X500111Y423744D01*
X500176Y423820D01*
X500240Y423925D01*
X500310Y424048D01*
X500369Y424200D01*
X500416Y424370D01*
X500924Y424241D01*
Y424235D01*
X500919Y424212D01*
X500907Y424183D01*
X500895Y424136D01*
X500872Y424089D01*
X500848Y424025D01*
X500825Y423960D01*
X500790Y423890D01*
X500714Y423732D01*
X500609Y423574D01*
X500492Y423422D01*
X500421Y423352D01*
X500345Y423288D01*
X500340Y423282D01*
X500328Y423276D01*
X500304Y423258D01*
X500269Y423235D01*
X500228Y423212D01*
X500181Y423182D01*
X500129Y423153D01*
X500065Y423124D01*
X499994Y423095D01*
X499918Y423065D01*
X499831Y423036D01*
X499743Y423013D01*
X499550Y422972D01*
X499444Y422966D01*
X499333Y422960D01*
X499275D01*
X499228Y422966D01*
X499175D01*
X499117Y422972D01*
X499047Y422984D01*
X498977Y422989D01*
X498813Y423024D01*
X498643Y423065D01*
X498479Y423130D01*
X498397Y423165D01*
X498321Y423212D01*
X498315Y423217D01*
X498304Y423223D01*
X498286Y423241D01*
X498257Y423258D01*
X498187Y423317D01*
X498105Y423399D01*
X498005Y423498D01*
X497912Y423627D01*
X497812Y423773D01*
X497730Y423943D01*
Y423949D01*
X497724Y423966D01*
X497713Y423990D01*
X497701Y424025D01*
X497684Y424072D01*
X497666Y424124D01*
X497648Y424183D01*
X497631Y424253D01*
X497613Y424323D01*
X497596Y424405D01*
X497561Y424580D01*
X497537Y424768D01*
X497532Y424972D01*
Y424978D01*
Y425002D01*
Y425031D01*
X497537Y425072D01*
Y425125D01*
X497543Y425189D01*
X497549Y425253D01*
X497561Y425329D01*
X497590Y425493D01*
X497625Y425669D01*
X497684Y425850D01*
X497760Y426020D01*
Y426025D01*
X497771Y426037D01*
X497783Y426061D01*
X497801Y426096D01*
X497824Y426131D01*
X497853Y426172D01*
X497929Y426271D01*
X498017Y426382D01*
X498128Y426494D01*
X498263Y426605D01*
X498409Y426698D01*
X498415D01*
X498427Y426710D01*
X498450Y426722D01*
X498485Y426733D01*
X498520Y426751D01*
X498567Y426774D01*
X498626Y426792D01*
X498684Y426815D01*
X498748Y426839D01*
X498818Y426856D01*
X498977Y426897D01*
X499152Y426921D01*
X499339Y426932D01*
X499398D01*
X499439Y426926D01*
D02*
G37*
G36*
X502720Y426880D02*
X502767Y426874D01*
X502820Y426868D01*
X502878Y426862D01*
X502943Y426845D01*
X503083Y426809D01*
X503229Y426757D01*
X503305Y426722D01*
X503376Y426681D01*
X503440Y426628D01*
X503504Y426575D01*
X503510Y426570D01*
X503516Y426564D01*
X503534Y426546D01*
X503557Y426523D01*
X503580Y426488D01*
X503610Y426452D01*
X503668Y426365D01*
X503727Y426254D01*
X503779Y426125D01*
X503820Y425979D01*
X503826Y425897D01*
X503832Y425815D01*
Y425803D01*
Y425774D01*
X503826Y425727D01*
X503820Y425669D01*
X503809Y425598D01*
X503791Y425522D01*
X503768Y425441D01*
X503732Y425359D01*
X503727Y425347D01*
X503715Y425318D01*
X503692Y425277D01*
X503656Y425218D01*
X503616Y425148D01*
X503563Y425066D01*
X503493Y424984D01*
X503417Y424891D01*
X503405Y424879D01*
X503376Y424844D01*
X503323Y424791D01*
X503288Y424756D01*
X503247Y424715D01*
X503200Y424668D01*
X503142Y424616D01*
X503083Y424563D01*
X503019Y424499D01*
X502949Y424434D01*
X502867Y424364D01*
X502785Y424294D01*
X502691Y424212D01*
X502685Y424206D01*
X502674Y424194D01*
X502650Y424177D01*
X502621Y424154D01*
X502551Y424095D01*
X502463Y424019D01*
X502375Y423937D01*
X502282Y423855D01*
X502206Y423785D01*
X502176Y423756D01*
X502147Y423726D01*
X502141Y423721D01*
X502130Y423703D01*
X502106Y423680D01*
X502077Y423644D01*
X502013Y423568D01*
X501948Y423475D01*
X503838D01*
Y423024D01*
X501293D01*
Y423030D01*
Y423054D01*
Y423089D01*
X501299Y423130D01*
X501305Y423176D01*
X501311Y423229D01*
X501328Y423288D01*
X501346Y423346D01*
Y423352D01*
X501352Y423358D01*
X501363Y423393D01*
X501387Y423440D01*
X501422Y423510D01*
X501463Y423586D01*
X501521Y423674D01*
X501580Y423762D01*
X501656Y423855D01*
Y423861D01*
X501667Y423867D01*
X501697Y423902D01*
X501744Y423955D01*
X501814Y424025D01*
X501901Y424107D01*
X502007Y424206D01*
X502136Y424317D01*
X502276Y424440D01*
X502282Y424446D01*
X502305Y424464D01*
X502334Y424487D01*
X502375Y424528D01*
X502428Y424569D01*
X502486Y424621D01*
X502615Y424733D01*
X502756Y424867D01*
X502896Y425002D01*
X502966Y425066D01*
X503025Y425130D01*
X503077Y425195D01*
X503124Y425253D01*
Y425259D01*
X503136Y425265D01*
X503148Y425282D01*
X503159Y425306D01*
X503194Y425364D01*
X503235Y425441D01*
X503276Y425528D01*
X503311Y425622D01*
X503335Y425727D01*
X503346Y425827D01*
Y425832D01*
Y425838D01*
X503340Y425873D01*
X503335Y425926D01*
X503323Y425990D01*
X503294Y426066D01*
X503259Y426143D01*
X503212Y426224D01*
X503142Y426300D01*
X503130Y426306D01*
X503106Y426330D01*
X503060Y426359D01*
X503001Y426400D01*
X502925Y426435D01*
X502837Y426464D01*
X502732Y426488D01*
X502615Y426494D01*
X502580D01*
X502557Y426488D01*
X502498Y426482D01*
X502422Y426470D01*
X502334Y426441D01*
X502241Y426406D01*
X502153Y426353D01*
X502071Y426283D01*
X502065Y426271D01*
X502042Y426248D01*
X502007Y426201D01*
X501972Y426137D01*
X501931Y426055D01*
X501901Y425961D01*
X501878Y425850D01*
X501866Y425721D01*
X501381Y425774D01*
Y425780D01*
Y425797D01*
X501387Y425827D01*
X501393Y425862D01*
X501404Y425909D01*
X501410Y425961D01*
X501445Y426078D01*
X501492Y426213D01*
X501556Y426347D01*
X501644Y426482D01*
X501691Y426540D01*
X501749Y426599D01*
X501755Y426605D01*
X501767Y426611D01*
X501785Y426628D01*
X501808Y426646D01*
X501843Y426663D01*
X501884Y426692D01*
X501931Y426716D01*
X501983Y426745D01*
X502042Y426768D01*
X502106Y426798D01*
X502182Y426821D01*
X502258Y426839D01*
X502434Y426874D01*
X502527Y426880D01*
X502627Y426885D01*
X502679D01*
X502720Y426880D01*
D02*
G37*
G36*
X214288Y361080D02*
X216178D01*
Y360630D01*
X213779D01*
Y364473D01*
X214288D01*
Y361080D01*
D02*
G37*
%LPC*%
G36*
X425956Y457330D02*
X425155D01*
Y454387D01*
X426032D01*
X426096Y454393D01*
X426184Y454399D01*
X426278Y454405D01*
X426377Y454417D01*
X426471Y454434D01*
X426559Y454458D01*
X426570Y454463D01*
X426594Y454469D01*
X426635Y454487D01*
X426682Y454510D01*
X426740Y454539D01*
X426798Y454569D01*
X426851Y454610D01*
X426904Y454657D01*
X426910Y454662D01*
X426933Y454692D01*
X426968Y454733D01*
X427009Y454785D01*
X427050Y454855D01*
X427097Y454937D01*
X427144Y455037D01*
X427185Y455142D01*
Y455148D01*
X427190Y455154D01*
X427196Y455171D01*
X427202Y455195D01*
X427208Y455224D01*
X427220Y455259D01*
X427237Y455347D01*
X427255Y455458D01*
X427272Y455587D01*
X427284Y455727D01*
X427290Y455885D01*
Y455891D01*
Y455914D01*
Y455943D01*
Y455984D01*
X427284Y456037D01*
X427278Y456096D01*
X427272Y456160D01*
X427267Y456224D01*
X427243Y456377D01*
X427208Y456529D01*
X427155Y456675D01*
X427126Y456745D01*
X427091Y456809D01*
Y456815D01*
X427079Y456821D01*
X427073Y456839D01*
X427056Y456862D01*
X427015Y456920D01*
X426956Y456985D01*
X426886Y457061D01*
X426804Y457131D01*
X426711Y457195D01*
X426611Y457248D01*
X426600Y457254D01*
X426570Y457260D01*
X426523Y457271D01*
X426453Y457289D01*
X426360Y457307D01*
X426249Y457318D01*
X426114Y457324D01*
X425956Y457330D01*
D02*
G37*
G36*
X291963Y456094D02*
X290659D01*
X291056Y455035D01*
Y455029D01*
X291062Y455012D01*
X291074Y454988D01*
X291086Y454953D01*
X291103Y454912D01*
X291121Y454865D01*
X291156Y454754D01*
X291203Y454625D01*
X291249Y454491D01*
X291290Y454356D01*
X291331Y454228D01*
Y454233D01*
X291337Y454245D01*
Y454263D01*
X291343Y454292D01*
X291355Y454327D01*
X291367Y454368D01*
X291390Y454462D01*
X291419Y454579D01*
X291454Y454701D01*
X291495Y454836D01*
X291542Y454971D01*
X291963Y456094D01*
D02*
G37*
G36*
X306463D02*
X305159D01*
X305556Y455035D01*
Y455029D01*
X305562Y455012D01*
X305574Y454988D01*
X305586Y454953D01*
X305603Y454912D01*
X305621Y454865D01*
X305656Y454754D01*
X305703Y454625D01*
X305750Y454491D01*
X305790Y454356D01*
X305831Y454228D01*
Y454233D01*
X305837Y454245D01*
Y454263D01*
X305843Y454292D01*
X305855Y454327D01*
X305867Y454368D01*
X305890Y454462D01*
X305919Y454579D01*
X305954Y454701D01*
X305995Y454836D01*
X306042Y454971D01*
X306463Y456094D01*
D02*
G37*
G36*
X453295Y448298D02*
X452084D01*
Y447029D01*
X453230D01*
X453295Y447035D01*
X453371Y447041D01*
X453458Y447046D01*
X453552Y447058D01*
X453640Y447076D01*
X453716Y447099D01*
X453728Y447105D01*
X453751Y447111D01*
X453786Y447128D01*
X453827Y447152D01*
X453874Y447187D01*
X453927Y447228D01*
X453973Y447274D01*
X454014Y447327D01*
X454020Y447333D01*
X454032Y447356D01*
X454049Y447386D01*
X454067Y447433D01*
X454084Y447479D01*
X454102Y447538D01*
X454114Y447602D01*
X454119Y447672D01*
Y447678D01*
Y447684D01*
Y447719D01*
X454108Y447766D01*
X454096Y447830D01*
X454073Y447900D01*
X454038Y447976D01*
X453985Y448053D01*
X453921Y448123D01*
X453909Y448129D01*
X453886Y448152D01*
X453833Y448181D01*
X453768Y448210D01*
X453681Y448246D01*
X453576Y448269D01*
X453447Y448292D01*
X453295Y448298D01*
D02*
G37*
G36*
X419312Y420754D02*
X419306D01*
X419282D01*
X419253D01*
X419212D01*
X419160Y420749D01*
X419101Y420743D01*
X419037Y420737D01*
X418972Y420731D01*
X418820Y420708D01*
X418668Y420673D01*
X418522Y420620D01*
X418452Y420591D01*
X418388Y420555D01*
X418382D01*
X418376Y420544D01*
X418358Y420538D01*
X418335Y420520D01*
X418276Y420479D01*
X418212Y420421D01*
X418136Y420351D01*
X418066Y420269D01*
X418001Y420175D01*
X417949Y420076D01*
X417943Y420064D01*
X417937Y420035D01*
X417925Y419988D01*
X417908Y419918D01*
X417890Y419824D01*
X417878Y419713D01*
X417873Y419579D01*
X417867Y419421D01*
Y418619D01*
X420809D01*
Y419497D01*
X420803Y419561D01*
X420798Y419649D01*
X420792Y419742D01*
X420780Y419842D01*
X420763Y419935D01*
X420739Y420023D01*
X420733Y420035D01*
X420727Y420058D01*
X420710Y420099D01*
X420686Y420146D01*
X420657Y420204D01*
X420628Y420263D01*
X420587Y420316D01*
X420540Y420368D01*
X420534Y420374D01*
X420505Y420398D01*
X420464Y420433D01*
X420412Y420474D01*
X420341Y420515D01*
X420260Y420561D01*
X420160Y420608D01*
X420055Y420649D01*
X420049D01*
X420043Y420655D01*
X420025Y420661D01*
X420002Y420667D01*
X419973Y420673D01*
X419938Y420684D01*
X419850Y420702D01*
X419739Y420719D01*
X419610Y420737D01*
X419470Y420749D01*
X419312Y420754D01*
D02*
G37*
G36*
X527305Y432603D02*
X527252D01*
X527217Y432597D01*
X527170Y432591D01*
X527112Y432585D01*
X527053Y432574D01*
X526989Y432556D01*
X526842Y432509D01*
X526766Y432480D01*
X526690Y432445D01*
X526609Y432404D01*
X526532Y432351D01*
X526456Y432293D01*
X526380Y432229D01*
X526374Y432223D01*
X526363Y432211D01*
X526345Y432188D01*
X526322Y432158D01*
X526293Y432117D01*
X526258Y432065D01*
X526222Y432006D01*
X526187Y431936D01*
X526152Y431854D01*
X526117Y431766D01*
X526082Y431667D01*
X526053Y431550D01*
X526029Y431427D01*
X526012Y431298D01*
X526000Y431152D01*
X525994Y430994D01*
Y430988D01*
Y430965D01*
Y430930D01*
X526000Y430877D01*
X526006Y430819D01*
X526012Y430754D01*
X526023Y430678D01*
X526041Y430596D01*
X526082Y430421D01*
X526117Y430333D01*
X526152Y430239D01*
X526193Y430152D01*
X526240Y430064D01*
X526298Y429976D01*
X526363Y429900D01*
X526369Y429894D01*
X526380Y429883D01*
X526404Y429865D01*
X526433Y429836D01*
X526468Y429807D01*
X526509Y429777D01*
X526562Y429736D01*
X526620Y429701D01*
X526685Y429666D01*
X526755Y429631D01*
X526831Y429596D01*
X526919Y429567D01*
X527006Y429537D01*
X527100Y429520D01*
X527193Y429508D01*
X527299Y429502D01*
X527351D01*
X527392Y429508D01*
X527445Y429514D01*
X527498Y429526D01*
X527562Y429537D01*
X527632Y429555D01*
X527778Y429602D01*
X527860Y429631D01*
X527936Y429672D01*
X528018Y429719D01*
X528094Y429772D01*
X528170Y429830D01*
X528241Y429900D01*
X528246Y429906D01*
X528258Y429918D01*
X528276Y429941D01*
X528299Y429976D01*
X528328Y430017D01*
X528358Y430070D01*
X528393Y430128D01*
X528428Y430193D01*
X528463Y430275D01*
X528498Y430357D01*
X528527Y430450D01*
X528556Y430555D01*
X528580Y430667D01*
X528597Y430784D01*
X528609Y430912D01*
X528615Y431047D01*
Y431053D01*
Y431070D01*
Y431094D01*
Y431123D01*
X528609Y431164D01*
Y431216D01*
X528597Y431328D01*
X528574Y431451D01*
X528545Y431591D01*
X528504Y431731D01*
X528451Y431866D01*
Y431872D01*
X528445Y431883D01*
X528434Y431901D01*
X528422Y431924D01*
X528387Y431989D01*
X528334Y432065D01*
X528270Y432153D01*
X528188Y432246D01*
X528094Y432334D01*
X527989Y432410D01*
X527983D01*
X527977Y432416D01*
X527960Y432427D01*
X527936Y432439D01*
X527872Y432468D01*
X527790Y432509D01*
X527691Y432544D01*
X527574Y432574D01*
X527445Y432597D01*
X527305Y432603D01*
D02*
G37*
G36*
X410201Y414987D02*
X410195D01*
X410183D01*
X410160D01*
X410136Y414981D01*
X410101D01*
X410060Y414975D01*
X409972Y414963D01*
X409873Y414934D01*
X409768Y414899D01*
X409668Y414846D01*
X409575Y414776D01*
X409563Y414764D01*
X409540Y414741D01*
X409499Y414694D01*
X409458Y414630D01*
X409417Y414554D01*
X409376Y414460D01*
X409352Y414355D01*
X409341Y414238D01*
Y414208D01*
X409346Y414185D01*
X409352Y414126D01*
X409370Y414050D01*
X409399Y413969D01*
X409440Y413875D01*
X409499Y413787D01*
X409575Y413699D01*
X409586Y413688D01*
X409616Y413664D01*
X409668Y413629D01*
X409732Y413588D01*
X409820Y413547D01*
X409926Y413512D01*
X410043Y413489D01*
X410177Y413477D01*
X410189D01*
X410218D01*
X410265Y413483D01*
X410323Y413489D01*
X410399Y413501D01*
X410475Y413518D01*
X410557Y413542D01*
X410645Y413577D01*
X410657Y413583D01*
X410680Y413594D01*
X410721Y413618D01*
X410768Y413653D01*
X410826Y413694D01*
X410879Y413740D01*
X410938Y413799D01*
X410984Y413863D01*
X410990Y413869D01*
X411002Y413898D01*
X411020Y413934D01*
X411037Y413980D01*
X411060Y414039D01*
X411078Y414109D01*
X411090Y414179D01*
X411096Y414255D01*
Y414285D01*
X411090Y414308D01*
X411084Y414361D01*
X411066Y414437D01*
X411037Y414513D01*
X410996Y414600D01*
X410938Y414688D01*
X410856Y414770D01*
X410844Y414782D01*
X410809Y414805D01*
X410756Y414840D01*
X410686Y414881D01*
X410593Y414916D01*
X410475Y414951D01*
X410347Y414975D01*
X410201Y414987D01*
D02*
G37*
G36*
X408627Y408844D02*
X408621D01*
X408615D01*
X408580D01*
X408533Y408832D01*
X408469Y408821D01*
X408399Y408797D01*
X408323Y408762D01*
X408247Y408709D01*
X408176Y408645D01*
X408171Y408633D01*
X408147Y408610D01*
X408118Y408557D01*
X408089Y408493D01*
X408054Y408405D01*
X408030Y408300D01*
X408007Y408171D01*
X408001Y408019D01*
Y406808D01*
X409270D01*
Y407955D01*
X409265Y408019D01*
X409259Y408095D01*
X409253Y408183D01*
X409241Y408277D01*
X409224Y408364D01*
X409200Y408440D01*
X409194Y408452D01*
X409189Y408475D01*
X409171Y408510D01*
X409148Y408552D01*
X409112Y408598D01*
X409071Y408651D01*
X409025Y408698D01*
X408972Y408739D01*
X408966Y408744D01*
X408943Y408756D01*
X408914Y408774D01*
X408867Y408791D01*
X408820Y408809D01*
X408761Y408826D01*
X408697Y408838D01*
X408627Y408844D01*
D02*
G37*
G36*
X425065Y450713D02*
X425013D01*
X424972Y450707D01*
X424925Y450701D01*
X424866Y450690D01*
X424802Y450678D01*
X424738Y450666D01*
X424585Y450620D01*
X424509Y450584D01*
X424428Y450549D01*
X424352Y450502D01*
X424270Y450450D01*
X424194Y450391D01*
X424123Y450321D01*
X424118Y450315D01*
X424106Y450304D01*
X424088Y450280D01*
X424065Y450251D01*
X424036Y450210D01*
X424006Y450157D01*
X423971Y450099D01*
X423942Y450035D01*
X423907Y449953D01*
X423872Y449871D01*
X423843Y449771D01*
X423813Y449672D01*
X423790Y449555D01*
X423772Y449432D01*
X423761Y449303D01*
X423755Y449163D01*
Y449157D01*
Y449128D01*
Y449093D01*
X423761Y449040D01*
X423767Y448976D01*
X423772Y448906D01*
X423784Y448824D01*
X423802Y448736D01*
X423843Y448549D01*
X423878Y448455D01*
X423913Y448361D01*
X423954Y448262D01*
X424001Y448174D01*
X424059Y448087D01*
X424123Y448010D01*
X424129Y448005D01*
X424141Y447993D01*
X424158Y447975D01*
X424188Y447946D01*
X424229Y447917D01*
X424270Y447888D01*
X424322Y447847D01*
X424381Y447812D01*
X424445Y447776D01*
X424515Y447741D01*
X424591Y447706D01*
X424679Y447677D01*
X424767Y447648D01*
X424860Y447630D01*
X424960Y447618D01*
X425065Y447613D01*
X425112D01*
X425165Y447618D01*
X425229Y447624D01*
X425305Y447636D01*
X425393Y447654D01*
X425486Y447677D01*
X425574Y447712D01*
X425562Y447718D01*
X425533Y447736D01*
X425486Y447765D01*
X425422Y447800D01*
X425352Y447835D01*
X425264Y447870D01*
X425176Y447905D01*
X425077Y447934D01*
X425200Y448303D01*
X425206D01*
X425217Y448297D01*
X425241Y448291D01*
X425276Y448279D01*
X425311Y448268D01*
X425352Y448250D01*
X425457Y448209D01*
X425568Y448157D01*
X425691Y448098D01*
X425808Y448022D01*
X425919Y447934D01*
X425925Y447940D01*
X425937Y447952D01*
X425960Y447975D01*
X425989Y448010D01*
X426025Y448057D01*
X426060Y448110D01*
X426101Y448168D01*
X426148Y448244D01*
X426189Y448320D01*
X426229Y448414D01*
X426264Y448514D01*
X426300Y448625D01*
X426329Y448747D01*
X426352Y448876D01*
X426364Y449017D01*
X426370Y449163D01*
Y449169D01*
Y449186D01*
Y449210D01*
Y449239D01*
X426364Y449280D01*
Y449327D01*
X426352Y449438D01*
X426329Y449567D01*
X426305Y449701D01*
X426264Y449841D01*
X426212Y449976D01*
Y449982D01*
X426206Y449994D01*
X426194Y450011D01*
X426183Y450035D01*
X426148Y450099D01*
X426095Y450175D01*
X426030Y450263D01*
X425949Y450356D01*
X425855Y450444D01*
X425750Y450520D01*
X425744D01*
X425738Y450526D01*
X425720Y450538D01*
X425697Y450549D01*
X425633Y450579D01*
X425551Y450620D01*
X425451Y450655D01*
X425334Y450684D01*
X425206Y450707D01*
X425065Y450713D01*
D02*
G37*
G36*
X498993Y380550D02*
X498192D01*
Y377607D01*
X499069D01*
X499133Y377613D01*
X499221Y377619D01*
X499315Y377625D01*
X499414Y377636D01*
X499508Y377654D01*
X499596Y377677D01*
X499607Y377683D01*
X499631Y377689D01*
X499672Y377707D01*
X499719Y377730D01*
X499777Y377759D01*
X499835Y377788D01*
X499888Y377829D01*
X499941Y377876D01*
X499947Y377882D01*
X499970Y377911D01*
X500005Y377952D01*
X500046Y378005D01*
X500087Y378075D01*
X500134Y378157D01*
X500181Y378257D01*
X500222Y378362D01*
Y378368D01*
X500227Y378374D01*
X500233Y378391D01*
X500239Y378414D01*
X500245Y378444D01*
X500257Y378479D01*
X500274Y378567D01*
X500292Y378678D01*
X500309Y378806D01*
X500321Y378947D01*
X500327Y379105D01*
Y379111D01*
Y379134D01*
Y379163D01*
Y379204D01*
X500321Y379257D01*
X500315Y379315D01*
X500309Y379380D01*
X500304Y379444D01*
X500280Y379596D01*
X500245Y379748D01*
X500192Y379894D01*
X500163Y379965D01*
X500128Y380029D01*
Y380035D01*
X500116Y380041D01*
X500110Y380058D01*
X500093Y380082D01*
X500052Y380140D01*
X499993Y380205D01*
X499923Y380281D01*
X499841Y380351D01*
X499748Y380415D01*
X499648Y380468D01*
X499637Y380474D01*
X499607Y380480D01*
X499560Y380491D01*
X499490Y380509D01*
X499397Y380526D01*
X499286Y380538D01*
X499151Y380544D01*
X498993Y380550D01*
D02*
G37*
G36*
X488602Y457195D02*
X488573D01*
X488550Y457189D01*
X488491Y457183D01*
X488415Y457166D01*
X488333Y457136D01*
X488240Y457095D01*
X488152Y457037D01*
X488064Y456961D01*
X488053Y456949D01*
X488029Y456920D01*
X487994Y456867D01*
X487953Y456803D01*
X487912Y456715D01*
X487877Y456610D01*
X487854Y456493D01*
X487842Y456358D01*
Y456347D01*
Y456317D01*
X487848Y456271D01*
X487854Y456212D01*
X487865Y456136D01*
X487883Y456060D01*
X487906Y455978D01*
X487941Y455890D01*
X487947Y455879D01*
X487959Y455855D01*
X487982Y455814D01*
X488017Y455767D01*
X488058Y455709D01*
X488105Y455656D01*
X488164Y455598D01*
X488228Y455551D01*
X488234Y455545D01*
X488263Y455534D01*
X488298Y455516D01*
X488345Y455498D01*
X488404Y455475D01*
X488474Y455457D01*
X488544Y455446D01*
X488620Y455440D01*
X488649D01*
X488673Y455446D01*
X488725Y455452D01*
X488801Y455469D01*
X488877Y455498D01*
X488965Y455539D01*
X489053Y455598D01*
X489135Y455680D01*
X489146Y455691D01*
X489170Y455726D01*
X489205Y455779D01*
X489246Y455849D01*
X489281Y455943D01*
X489316Y456060D01*
X489339Y456189D01*
X489351Y456335D01*
Y456341D01*
Y456353D01*
Y456376D01*
X489345Y456399D01*
Y456434D01*
X489339Y456475D01*
X489328Y456563D01*
X489298Y456663D01*
X489263Y456768D01*
X489211Y456867D01*
X489141Y456961D01*
X489129Y456973D01*
X489106Y456996D01*
X489059Y457037D01*
X488994Y457078D01*
X488918Y457119D01*
X488825Y457160D01*
X488719Y457183D01*
X488602Y457195D01*
D02*
G37*
G36*
X418793Y362403D02*
X418787D01*
X418781D01*
X418752D01*
X418699Y362391D01*
X418641Y362379D01*
X418576Y362356D01*
X418500Y362327D01*
X418430Y362280D01*
X418360Y362221D01*
X418354Y362215D01*
X418331Y362192D01*
X418301Y362151D01*
X418266Y362098D01*
X418237Y362034D01*
X418208Y361958D01*
X418185Y361876D01*
X418179Y361777D01*
Y361730D01*
X418190Y361683D01*
X418202Y361619D01*
X418220Y361548D01*
X418255Y361472D01*
X418296Y361396D01*
X418354Y361326D01*
X418360Y361320D01*
X418383Y361297D01*
X418424Y361274D01*
X418471Y361238D01*
X418530Y361209D01*
X418606Y361180D01*
X418682Y361157D01*
X418770Y361151D01*
X418781D01*
X418816D01*
X418863Y361162D01*
X418927Y361174D01*
X418998Y361192D01*
X419068Y361221D01*
X419144Y361262D01*
X419214Y361320D01*
X419220Y361326D01*
X419238Y361350D01*
X419267Y361390D01*
X419296Y361443D01*
X419331Y361508D01*
X419354Y361589D01*
X419378Y361677D01*
X419384Y361777D01*
Y361823D01*
X419372Y361870D01*
X419360Y361934D01*
X419343Y362005D01*
X419313Y362081D01*
X419273Y362157D01*
X419214Y362227D01*
X419208Y362233D01*
X419185Y362256D01*
X419150Y362285D01*
X419097Y362315D01*
X419039Y362350D01*
X418962Y362373D01*
X418881Y362397D01*
X418793Y362403D01*
D02*
G37*
G36*
X420560Y362561D02*
X420554D01*
X420542D01*
X420525D01*
X420501Y362555D01*
X420443Y362549D01*
X420361Y362531D01*
X420273Y362508D01*
X420179Y362467D01*
X420086Y362408D01*
X419998Y362332D01*
X419986Y362321D01*
X419963Y362291D01*
X419928Y362245D01*
X419881Y362180D01*
X419840Y362098D01*
X419805Y361999D01*
X419781Y361888D01*
X419770Y361765D01*
Y361736D01*
X419776Y361712D01*
X419781Y361648D01*
X419799Y361572D01*
X419823Y361484D01*
X419863Y361390D01*
X419916Y361303D01*
X419992Y361215D01*
X420004Y361203D01*
X420033Y361180D01*
X420080Y361145D01*
X420144Y361110D01*
X420226Y361069D01*
X420320Y361034D01*
X420431Y361010D01*
X420548Y360999D01*
X420554D01*
X420583D01*
X420618Y361004D01*
X420671Y361010D01*
X420729Y361022D01*
X420799Y361039D01*
X420870Y361063D01*
X420940Y361092D01*
X420946Y361098D01*
X420969Y361110D01*
X421004Y361133D01*
X421045Y361162D01*
X421092Y361203D01*
X421145Y361250D01*
X421191Y361309D01*
X421232Y361373D01*
X421238Y361385D01*
X421250Y361408D01*
X421262Y361443D01*
X421279Y361496D01*
X421303Y361560D01*
X421314Y361625D01*
X421326Y361701D01*
X421332Y361782D01*
Y361818D01*
X421326Y361841D01*
X421320Y361899D01*
X421303Y361981D01*
X421279Y362069D01*
X421238Y362163D01*
X421185Y362250D01*
X421115Y362338D01*
X421104Y362350D01*
X421074Y362373D01*
X421028Y362408D01*
X420963Y362449D01*
X420887Y362490D01*
X420788Y362525D01*
X420682Y362549D01*
X420560Y362561D01*
D02*
G37*
%LPD*%
D10*
X526260Y451968D02*
G03*
X516260Y451968I-5000J10251D01*
G01*
X332838Y453174D02*
G03*
X332838Y456660I-2753J1743D01*
G01*
X332513Y457784D02*
G03*
X332838Y456660I2086J-6D01*
G01*
X334336Y462795D02*
G03*
X332513Y460823I78J-1900D01*
G01*
X332838Y453174D02*
G03*
X332513Y452050I1761J-1118D01*
G01*
X332513Y361610D02*
G03*
X334336Y359638I1901J-72D01*
G01*
X332044Y453172D02*
G03*
X332044Y456663I-2516J1745D01*
G01*
X333661Y462791D02*
G03*
X331693Y460823I0J-1969D01*
G01*
X332044Y453172D02*
G03*
X331693Y452050I1617J-1122D01*
G01*
Y457784D02*
G03*
X332044Y456663I1969J0D01*
G01*
X331693Y361610D02*
G03*
X333661Y359642I1969J0D01*
G01*
X393944Y456660D02*
G03*
X393944Y453174I2513J-1743D01*
G01*
Y456660D02*
G03*
X394295Y457784I-1621J1124D01*
G01*
Y460823D02*
G03*
X392323Y462795I-1972J0D01*
G01*
X394295Y452050D02*
G03*
X393944Y453174I-1972J0D01*
G01*
X392471Y359638D02*
G03*
X394295Y361462I0J1824D01*
G01*
X258937Y363779D02*
G03*
X253937Y363779I-2500J0D01*
G01*
X248937D02*
G03*
X253937Y363779I2500J0D01*
G01*
X284256Y431996D02*
G03*
X284256Y421996I2000J-5000D01*
G01*
Y441996D02*
G03*
X284256Y431996I1786J-5000D01*
G01*
X309756D02*
G03*
X309756Y441996I-2667J5000D01*
G01*
Y421996D02*
G03*
X309756Y431996I-2667J5000D01*
G01*
X516260Y451968D02*
X526260D01*
X291732Y401575D02*
X302756D01*
X279134D02*
X290158D01*
X291732Y397638D02*
Y405512D01*
X290158Y397638D02*
Y405512D01*
X263386Y388583D02*
Y414567D01*
Y388583D02*
X318504D01*
X263386Y414567D02*
X318504D01*
Y388583D02*
Y414567D01*
X333661Y462791D02*
X334221D01*
X332513Y457784D02*
Y460823D01*
X333669Y359638D02*
X392471D01*
X332513Y361647D02*
Y452050D01*
X331693Y457784D02*
Y460823D01*
Y361610D02*
Y452050D01*
X394295Y457784D02*
Y460823D01*
Y361462D02*
Y452050D01*
X268563Y458189D02*
X324106D01*
X268520Y458173D02*
Y468673D01*
X268563Y468657D02*
X324106D01*
Y458173D02*
Y468673D01*
X319807Y364740D02*
Y386547D01*
X281102Y381102D02*
Y383465D01*
Y364740D02*
Y381102D01*
Y383465D02*
Y386614D01*
X319807Y386547D01*
X281102Y364740D02*
X319685D01*
X284256Y441996D02*
Y443496D01*
Y420496D02*
Y421996D01*
X309756Y420496D02*
Y421996D01*
Y441996D02*
Y443496D01*
X264756Y417496D02*
Y445996D01*
Y417496D02*
X329256D01*
Y445996D01*
X264756D02*
X329256D01*
D11*
X521260Y449606D02*
G03*
X521260Y449606I-394J0D01*
G01*
X401181Y445197D02*
Y450000D01*
Y400394D02*
Y405197D01*
X396181D02*
X406181D01*
Y445197D01*
X396181D02*
X406181D01*
X396181Y405197D02*
Y445197D01*
X412598Y437587D02*
Y439677D01*
Y425177D02*
Y427779D01*
X407972Y432406D02*
X412598Y427779D01*
X407972D02*
X417224D01*
X407972D02*
Y437551D01*
X408008Y437587D01*
X417224Y427779D02*
Y437551D01*
X417189Y437587D02*
X417224Y437551D01*
X408008Y437587D02*
X417189D01*
D12*
X432181Y429334D02*
G03*
X432181Y429334I-2300J0D01*
G01*
D13*
X488558Y404640D02*
G03*
X488558Y404632I-33377J-506D01*
G01*
X417331Y365748D02*
G03*
X417331Y365748I-9850J0D01*
G01*
X537402Y400787D02*
G03*
X537402Y400787I-19685J0D01*
G01*
X212992Y461024D02*
G03*
X218898Y454724I6102J-197D01*
G01*
Y373228D02*
G03*
X212992Y367000I161J-6067D01*
G01*
X402165Y360433D02*
Y363976D01*
X400000Y362205D02*
X404331D01*
X533465Y398819D02*
Y402756D01*
X531693Y400591D02*
X535630D01*
X205000Y461024D02*
X212992D01*
X218898Y454724D02*
X261417D01*
Y373228D02*
Y454724D01*
X218898Y373228D02*
X261417D01*
X205000Y367000D02*
X212992D01*
X205000Y355000D02*
Y367000D01*
Y473000D02*
X537500D01*
X537500Y355000D01*
X205000Y461024D02*
Y473000D01*
Y355000D02*
X537500Y355000D01*
X511811Y465053D02*
Y459055D01*
X514810D01*
X515810Y460055D01*
Y464053D01*
X514810Y465053D01*
X511811D01*
D14*
X454529Y455337D02*
G03*
X454560Y453489I-4923J-1007D01*
G01*
X454606Y455239D02*
X463976D01*
D15*
X290136Y373751D02*
G03*
X290377Y377453I-308J1879D01*
G01*
X309055Y377953D02*
G03*
X309071Y374234I156J-1859D01*
G01*
X409575Y464961D02*
X441575D01*
X409590Y453279D02*
X441590D01*
X409590Y471279D02*
X441590D01*
X409590Y453279D02*
Y471279D01*
X441590Y453279D02*
Y471279D01*
X309055Y377953D02*
Y379528D01*
X290158Y377559D02*
Y379059D01*
Y372122D02*
Y373622D01*
X309055Y372441D02*
Y373941D01*
X498976Y362205D02*
X530976D01*
X498961Y373886D02*
X530961D01*
X498961Y355886D02*
X530961D01*
Y373886D01*
X498961Y355886D02*
Y373886D01*
D16*
X454560Y453489D02*
X463976D01*
D17*
X470079Y461221D02*
X496850D01*
X470079Y471063D02*
X496850D01*
D18*
X270187Y364280D02*
D03*
D19*
X237687Y364030D02*
D03*
D20*
X254187Y356030D02*
D03*
D21*
X253937Y372029D02*
D03*
M02*
