M48
;Layer_Color=9474304
;FILE_FORMAT=2:5
INCH,LZ
;TYPE=PLATED
T2F00S00C0.02362
T4F00S00C0.02800
T5F00S00C0.03150
T7F00S00C0.03543
T8F00S00C0.03600
T9F00S00C0.03800
T10F00S00C0.03937
T12F00S00C0.04600
;TYPE=NON_PLATED
T13F00S00C0.03600
%
T02
X0290905Y036774
Y038374
X0309405
Y036774
X0306256Y0420496
X0287756
Y0442996
X0306256
X0267323Y0401575
X0314567
X040748Y0369685
Y0361811
X0506693Y0400787
X052874
T04
X0273622Y0455512
X0375197Y0457087
X0386221Y0462992
Y0419291
T05
X0273563Y0464173
X0288563
X0303563
X0318563
X0348819Y0465748
X0377165
X0412598Y0444177
Y0421177
X0449606Y0454331
X0468307
T07
X0422681Y0429634
X0427181Y0438134
X0436681Y0440634
X0441681Y0430634
X0432181Y0422634
T08
X0401181Y0390945
Y0459449
T09
X0223622Y0364567
X0271654Y0381102
X0222835Y0463779
X0514567Y0434252
X0529528Y0440945
T10
X0243937Y0363779
X0263937
X052126Y0458386
Y0468386
T12
X0488181Y0368634
X0492681Y0382634
T13
X0464764Y0466142
X0502165
M30
