M48
;Layer_Color=9474304
;FILE_FORMAT=2:5
INCH,LZ
;TYPE=PLATED
T1F00S00C0.02205
T3F00S00C0.02520
T6F00S00C0.03150
T11F00S00C0.03937
;TYPE=NON_PLATED
%
G90
G05
T01
G00X0505787Y036811
M15
G01X0504449
M16
G00X0515787Y036811
M15
G01X0514449
M16
G00X0525787Y036811
M15
G01X0524449
M16
T03
G00X0414429Y0461024
M15
G01X0416437
M16
G00X0424429Y0461024
M15
G01X0426437
M16
G00X0434429Y0461024
M15
G01X0436437
M16
T06
G00X0236221Y0462402
M15
G01Y0465158
M16
G00X0509055Y0447835
M15
G01Y0450591
M16
T11
G00X0397047Y046811
M15
G01X0398228
M16
G00X0454528Y046811
M15
G01X0455709
M16
G00X0479134Y0359449
M15
G01X0482283
M16
M30
