G04*
G04 #@! TF.GenerationSoftware,Altium Limited,Altium Designer,19.0.15 (446)*
G04*
G04 Layer_Color=16711935*
%FSLAX25Y25*%
%MOIN*%
G70*
G01*
G75*
%ADD21R,0.33000X0.00500*%
%ADD22C,0.06737*%
%ADD23R,0.06737X0.06737*%
%ADD24C,0.08300*%
G04:AMPARAMS|DCode=25|XSize=106.42mil|YSize=67.06mil|CornerRadius=18.76mil|HoleSize=0mil|Usage=FLASHONLY|Rotation=0.000|XOffset=0mil|YOffset=0mil|HoleType=Round|Shape=RoundedRectangle|*
%AMROUNDEDRECTD25*
21,1,0.10642,0.02953,0,0,0.0*
21,1,0.06890,0.06706,0,0,0.0*
1,1,0.03753,0.03445,-0.01476*
1,1,0.03753,-0.03445,-0.01476*
1,1,0.03753,-0.03445,0.01476*
1,1,0.03753,0.03445,0.01476*
%
%ADD25ROUNDEDRECTD25*%
G04:AMPARAMS|DCode=26|XSize=86.74mil|YSize=67.06mil|CornerRadius=18.76mil|HoleSize=0mil|Usage=FLASHONLY|Rotation=0.000|XOffset=0mil|YOffset=0mil|HoleType=Round|Shape=RoundedRectangle|*
%AMROUNDEDRECTD26*
21,1,0.08674,0.02953,0,0,0.0*
21,1,0.04921,0.06706,0,0,0.0*
1,1,0.03753,0.02461,-0.01476*
1,1,0.03753,-0.02461,-0.01476*
1,1,0.03753,-0.02461,0.01476*
1,1,0.03753,0.02461,0.01476*
%
%ADD26ROUNDEDRECTD26*%
G04:AMPARAMS|DCode=27|XSize=67.06mil|YSize=106.42mil|CornerRadius=18.76mil|HoleSize=0mil|Usage=FLASHONLY|Rotation=0.000|XOffset=0mil|YOffset=0mil|HoleType=Round|Shape=RoundedRectangle|*
%AMROUNDEDRECTD27*
21,1,0.06706,0.06890,0,0,0.0*
21,1,0.02953,0.10642,0,0,0.0*
1,1,0.03753,0.01476,-0.03445*
1,1,0.03753,-0.01476,-0.03445*
1,1,0.03753,-0.01476,0.03445*
1,1,0.03753,0.01476,0.03445*
%
%ADD27ROUNDEDRECTD27*%
G04:AMPARAMS|DCode=28|XSize=68mil|YSize=106.42mil|CornerRadius=19mil|HoleSize=0mil|Usage=FLASHONLY|Rotation=0.000|XOffset=0mil|YOffset=0mil|HoleType=Round|Shape=RoundedRectangle|*
%AMROUNDEDRECTD28*
21,1,0.06800,0.06843,0,0,0.0*
21,1,0.03000,0.10642,0,0,0.0*
1,1,0.03800,0.01500,-0.03421*
1,1,0.03800,-0.01500,-0.03421*
1,1,0.03800,-0.01500,0.03421*
1,1,0.03800,0.01500,0.03421*
%
%ADD28ROUNDEDRECTD28*%
%ADD29C,0.07493*%
G04:AMPARAMS|DCode=30|XSize=68mil|YSize=78mil|CornerRadius=11.5mil|HoleSize=0mil|Usage=FLASHONLY|Rotation=180.000|XOffset=0mil|YOffset=0mil|HoleType=Round|Shape=RoundedRectangle|*
%AMROUNDEDRECTD30*
21,1,0.06800,0.05500,0,0,180.0*
21,1,0.04500,0.07800,0,0,180.0*
1,1,0.02300,-0.02250,0.02750*
1,1,0.02300,0.02250,0.02750*
1,1,0.02300,0.02250,-0.02750*
1,1,0.02300,-0.02250,-0.02750*
%
%ADD30ROUNDEDRECTD30*%
%ADD31O,0.06800X0.07800*%
G04:AMPARAMS|DCode=32|XSize=67.06mil|YSize=67.06mil|CornerRadius=18.76mil|HoleSize=0mil|Usage=FLASHONLY|Rotation=0.000|XOffset=0mil|YOffset=0mil|HoleType=Round|Shape=RoundedRectangle|*
%AMROUNDEDRECTD32*
21,1,0.06706,0.02953,0,0,0.0*
21,1,0.02953,0.06706,0,0,0.0*
1,1,0.03753,0.01476,-0.01476*
1,1,0.03753,-0.01476,-0.01476*
1,1,0.03753,-0.01476,0.01476*
1,1,0.03753,0.01476,0.01476*
%
%ADD32ROUNDEDRECTD32*%
%ADD33C,0.08800*%
%ADD34C,0.07001*%
%ADD35R,0.07001X0.07001*%
%ADD36C,0.07700*%
%ADD38C,0.08320*%
%ADD39R,0.08320X0.08320*%
%ADD40C,0.04737*%
%ADD41R,0.04737X0.04737*%
%ADD42C,0.05556*%
%ADD43R,0.05556X0.05556*%
%ADD44C,0.09068*%
%ADD45C,0.05800*%
%ADD83R,0.05906X0.02362*%
G04:AMPARAMS|DCode=97|XSize=47.37mil|YSize=43.43mil|CornerRadius=8.43mil|HoleSize=0mil|Usage=FLASHONLY|Rotation=0.000|XOffset=0mil|YOffset=0mil|HoleType=Round|Shape=RoundedRectangle|*
%AMROUNDEDRECTD97*
21,1,0.04737,0.02657,0,0,0.0*
21,1,0.03051,0.04343,0,0,0.0*
1,1,0.01686,0.01526,-0.01329*
1,1,0.01686,-0.01526,-0.01329*
1,1,0.01686,-0.01526,0.01329*
1,1,0.01686,0.01526,0.01329*
%
%ADD97ROUNDEDRECTD97*%
%ADD98R,0.06312X0.05131*%
%ADD99R,0.03162X0.04147*%
%ADD100C,0.11811*%
G04:AMPARAMS|DCode=101|XSize=78.87mil|YSize=59.18mil|CornerRadius=10.4mil|HoleSize=0mil|Usage=FLASHONLY|Rotation=0.000|XOffset=0mil|YOffset=0mil|HoleType=Round|Shape=RoundedRectangle|*
%AMROUNDEDRECTD101*
21,1,0.07887,0.03839,0,0,0.0*
21,1,0.05807,0.05918,0,0,0.0*
1,1,0.02080,0.02904,-0.01919*
1,1,0.02080,-0.02904,-0.01919*
1,1,0.02080,-0.02904,0.01919*
1,1,0.02080,0.02904,0.01919*
%
%ADD101ROUNDEDRECTD101*%
G04:AMPARAMS|DCode=102|XSize=63.12mil|YSize=47.37mil|CornerRadius=8.92mil|HoleSize=0mil|Usage=FLASHONLY|Rotation=0.000|XOffset=0mil|YOffset=0mil|HoleType=Round|Shape=RoundedRectangle|*
%AMROUNDEDRECTD102*
21,1,0.06312,0.02953,0,0,0.0*
21,1,0.04528,0.04737,0,0,0.0*
1,1,0.01784,0.02264,-0.01476*
1,1,0.01784,-0.02264,-0.01476*
1,1,0.01784,-0.02264,0.01476*
1,1,0.01784,0.02264,0.01476*
%
%ADD102ROUNDEDRECTD102*%
G04:AMPARAMS|DCode=103|XSize=78.87mil|YSize=59.18mil|CornerRadius=10.4mil|HoleSize=0mil|Usage=FLASHONLY|Rotation=90.000|XOffset=0mil|YOffset=0mil|HoleType=Round|Shape=RoundedRectangle|*
%AMROUNDEDRECTD103*
21,1,0.07887,0.03839,0,0,90.0*
21,1,0.05807,0.05918,0,0,90.0*
1,1,0.02080,0.01919,0.02904*
1,1,0.02080,0.01919,-0.02904*
1,1,0.02080,-0.01919,-0.02904*
1,1,0.02080,-0.01919,0.02904*
%
%ADD103ROUNDEDRECTD103*%
G04:AMPARAMS|DCode=104|XSize=59.18mil|YSize=39.5mil|CornerRadius=7.94mil|HoleSize=0mil|Usage=FLASHONLY|Rotation=180.000|XOffset=0mil|YOffset=0mil|HoleType=Round|Shape=RoundedRectangle|*
%AMROUNDEDRECTD104*
21,1,0.05918,0.02362,0,0,180.0*
21,1,0.04331,0.03950,0,0,180.0*
1,1,0.01587,-0.02165,0.01181*
1,1,0.01587,0.02165,0.01181*
1,1,0.01587,0.02165,-0.01181*
1,1,0.01587,-0.02165,-0.01181*
%
%ADD104ROUNDEDRECTD104*%
G04:AMPARAMS|DCode=105|XSize=39.5mil|YSize=47.37mil|CornerRadius=7.94mil|HoleSize=0mil|Usage=FLASHONLY|Rotation=180.000|XOffset=0mil|YOffset=0mil|HoleType=Round|Shape=RoundedRectangle|*
%AMROUNDEDRECTD105*
21,1,0.03950,0.03150,0,0,180.0*
21,1,0.02362,0.04737,0,0,180.0*
1,1,0.01587,-0.01181,0.01575*
1,1,0.01587,0.01181,0.01575*
1,1,0.01587,0.01181,-0.01575*
1,1,0.01587,-0.01181,-0.01575*
%
%ADD105ROUNDEDRECTD105*%
G04:AMPARAMS|DCode=106|XSize=31.62mil|YSize=47.37mil|CornerRadius=6.95mil|HoleSize=0mil|Usage=FLASHONLY|Rotation=180.000|XOffset=0mil|YOffset=0mil|HoleType=Round|Shape=RoundedRectangle|*
%AMROUNDEDRECTD106*
21,1,0.03162,0.03347,0,0,180.0*
21,1,0.01772,0.04737,0,0,180.0*
1,1,0.01391,-0.00886,0.01673*
1,1,0.01391,0.00886,0.01673*
1,1,0.01391,0.00886,-0.01673*
1,1,0.01391,-0.00886,-0.01673*
%
%ADD106ROUNDEDRECTD106*%
%ADD107R,0.02769X0.05524*%
G04:AMPARAMS|DCode=108|XSize=94.61mil|YSize=67.06mil|CornerRadius=11.38mil|HoleSize=0mil|Usage=FLASHONLY|Rotation=270.000|XOffset=0mil|YOffset=0mil|HoleType=Round|Shape=RoundedRectangle|*
%AMROUNDEDRECTD108*
21,1,0.09461,0.04429,0,0,270.0*
21,1,0.07185,0.06706,0,0,270.0*
1,1,0.02276,-0.02215,-0.03593*
1,1,0.02276,-0.02215,0.03593*
1,1,0.02276,0.02215,0.03593*
1,1,0.02276,0.02215,-0.03593*
%
%ADD108ROUNDEDRECTD108*%
G04:AMPARAMS|DCode=109|XSize=78.87mil|YSize=53.28mil|CornerRadius=9.66mil|HoleSize=0mil|Usage=FLASHONLY|Rotation=0.000|XOffset=0mil|YOffset=0mil|HoleType=Round|Shape=RoundedRectangle|*
%AMROUNDEDRECTD109*
21,1,0.07887,0.03396,0,0,0.0*
21,1,0.05955,0.05328,0,0,0.0*
1,1,0.01932,0.02977,-0.01698*
1,1,0.01932,-0.02977,-0.01698*
1,1,0.01932,-0.02977,0.01698*
1,1,0.01932,0.02977,0.01698*
%
%ADD109ROUNDEDRECTD109*%
G04:AMPARAMS|DCode=110|XSize=61.15mil|YSize=39.5mil|CornerRadius=7.94mil|HoleSize=0mil|Usage=FLASHONLY|Rotation=0.000|XOffset=0mil|YOffset=0mil|HoleType=Round|Shape=RoundedRectangle|*
%AMROUNDEDRECTD110*
21,1,0.06115,0.02362,0,0,0.0*
21,1,0.04528,0.03950,0,0,0.0*
1,1,0.01587,0.02264,-0.01181*
1,1,0.01587,-0.02264,-0.01181*
1,1,0.01587,-0.02264,0.01181*
1,1,0.01587,0.02264,0.01181*
%
%ADD110ROUNDEDRECTD110*%
G04:AMPARAMS|DCode=111|XSize=31.62mil|YSize=35.56mil|CornerRadius=6.95mil|HoleSize=0mil|Usage=FLASHONLY|Rotation=270.000|XOffset=0mil|YOffset=0mil|HoleType=Round|Shape=RoundedRectangle|*
%AMROUNDEDRECTD111*
21,1,0.03162,0.02165,0,0,270.0*
21,1,0.01772,0.03556,0,0,270.0*
1,1,0.01391,-0.01083,-0.00886*
1,1,0.01391,-0.01083,0.00886*
1,1,0.01391,0.01083,0.00886*
1,1,0.01391,0.01083,-0.00886*
%
%ADD111ROUNDEDRECTD111*%
%ADD112C,0.13300*%
%ADD113O,0.10800X0.09300*%
D21*
X253937Y356030D02*
D03*
D22*
X521260Y468386D02*
D03*
D23*
Y458386D02*
D03*
D24*
X449606Y454331D02*
D03*
X468307D02*
D03*
D25*
X480709Y359449D02*
D03*
D26*
X455118Y468110D02*
D03*
X397638D02*
D03*
D27*
X509055Y449213D02*
D03*
D28*
X236221Y463779D02*
D03*
D29*
X267323Y401575D02*
D03*
X314567D02*
D03*
D30*
X377165Y465748D02*
D03*
D31*
X348819D02*
D03*
D32*
X435433Y461024D02*
D03*
X425433D02*
D03*
X415433D02*
D03*
X505118Y368110D02*
D03*
X515118D02*
D03*
X525118D02*
D03*
D33*
X401181Y390945D02*
D03*
Y459449D02*
D03*
D34*
X412598Y444177D02*
D03*
D35*
Y421177D02*
D03*
D36*
X488181Y368634D02*
D03*
X441681Y430634D02*
D03*
X492681Y382634D02*
D03*
X432181Y422634D02*
D03*
X422681Y429634D02*
D03*
X427181Y438134D02*
D03*
X436681Y440634D02*
D03*
D38*
X273563Y464173D02*
D03*
X288563D02*
D03*
X303563D02*
D03*
D39*
X318563D02*
D03*
D40*
X333858Y376378D02*
D03*
X325197Y424016D02*
D03*
X300394Y359842D02*
D03*
X501575Y388976D02*
D03*
X490945Y391142D02*
D03*
X436681Y390551D02*
D03*
X421654Y383858D02*
D03*
X394094Y390945D02*
D03*
X361024Y365748D02*
D03*
X407480Y452362D02*
D03*
X385827Y405512D02*
D03*
X457480Y378346D02*
D03*
X378740Y420866D02*
D03*
X531496Y375197D02*
D03*
X400000Y376772D02*
D03*
X373228Y378740D02*
D03*
X408661Y397638D02*
D03*
X357874Y418504D02*
D03*
X346850Y405905D02*
D03*
X281496Y370866D02*
D03*
X407480Y369685D02*
D03*
X528740Y400787D02*
D03*
X506693D02*
D03*
D41*
X407480Y361811D02*
D03*
D42*
X290905Y383740D02*
D03*
X309405D02*
D03*
X290905Y367740D02*
D03*
X287756Y420496D02*
D03*
X306256Y442996D02*
D03*
X287756D02*
D03*
D43*
X309405Y367740D02*
D03*
X306256Y420496D02*
D03*
D44*
X263937Y363779D02*
D03*
X243937D02*
D03*
D45*
X439764Y453543D02*
D03*
X329921Y359842D02*
D03*
X465354Y397441D02*
D03*
X530315Y421654D02*
D03*
X303937Y452756D02*
D03*
X340158Y464567D02*
D03*
X439370Y468898D02*
D03*
X288583Y452362D02*
D03*
X269291Y417717D02*
D03*
X425984Y448032D02*
D03*
X400394Y365354D02*
D03*
X376378Y399606D02*
D03*
X422047Y362598D02*
D03*
X512992Y466535D02*
D03*
X464567Y409449D02*
D03*
X390551Y435827D02*
D03*
X330315Y444095D02*
D03*
X344094Y365748D02*
D03*
X475197Y369291D02*
D03*
X234252Y364173D02*
D03*
X298425Y401575D02*
D03*
X375197Y457087D02*
D03*
X273622Y455512D02*
D03*
X386221Y462992D02*
D03*
Y419291D02*
D03*
D83*
X466535Y370354D02*
D03*
X429528D02*
D03*
X466535Y360354D02*
D03*
X429528D02*
D03*
D97*
X531496Y461811D02*
D03*
Y468504D02*
D03*
X475197Y377559D02*
D03*
Y384252D02*
D03*
X414961Y382874D02*
D03*
Y376181D02*
D03*
X352362Y365551D02*
D03*
Y358858D02*
D03*
X421654Y377165D02*
D03*
Y370472D02*
D03*
X408268Y468701D02*
D03*
Y462008D02*
D03*
X363386Y380709D02*
D03*
Y387402D02*
D03*
X379528Y406890D02*
D03*
Y413583D02*
D03*
X346850Y419488D02*
D03*
Y412795D02*
D03*
X353150Y405905D02*
D03*
Y412598D02*
D03*
X477559Y398228D02*
D03*
Y391535D02*
D03*
X499213Y404134D02*
D03*
Y397441D02*
D03*
X487402Y416339D02*
D03*
Y409646D02*
D03*
X493307Y404134D02*
D03*
Y397441D02*
D03*
X487402Y404134D02*
D03*
Y397441D02*
D03*
X428346Y376969D02*
D03*
Y383661D02*
D03*
X444095Y415945D02*
D03*
Y409252D02*
D03*
X369685Y390224D02*
D03*
Y396917D02*
D03*
X373622Y413583D02*
D03*
Y406890D02*
D03*
D98*
X523622Y407677D02*
D03*
Y413583D02*
D03*
D99*
X475787Y417815D02*
D03*
X472047Y409350D02*
D03*
X479528D02*
D03*
D100*
X269291Y445669D02*
D03*
X496457Y361024D02*
D03*
D101*
X465354Y389961D02*
D03*
Y378543D02*
D03*
X380315Y372047D02*
D03*
Y360630D02*
D03*
X429528Y406102D02*
D03*
Y394685D02*
D03*
X316929Y430905D02*
D03*
Y442323D02*
D03*
X374016Y447441D02*
D03*
Y436024D02*
D03*
X353150Y447441D02*
D03*
Y436024D02*
D03*
X497244Y422441D02*
D03*
Y411024D02*
D03*
X333858Y417126D02*
D03*
Y405709D02*
D03*
X330315Y453150D02*
D03*
Y464567D02*
D03*
D102*
X532677Y368898D02*
D03*
Y361811D02*
D03*
D103*
X518701Y390551D02*
D03*
X530118D02*
D03*
X514764Y381496D02*
D03*
X526181D02*
D03*
X298228Y410236D02*
D03*
X309646D02*
D03*
X273425D02*
D03*
X284842D02*
D03*
D104*
X368110Y371654D02*
D03*
Y363779D02*
D03*
X394094Y397441D02*
D03*
Y405315D02*
D03*
X483071Y385039D02*
D03*
Y377165D02*
D03*
X376378Y392520D02*
D03*
Y384646D02*
D03*
D105*
X407874Y391142D02*
D03*
Y376575D02*
D03*
D106*
X363386Y415354D02*
D03*
X359646Y406299D02*
D03*
X367126D02*
D03*
D107*
X357213Y393571D02*
D03*
Y372571D02*
D03*
X352213D02*
D03*
X342213D02*
D03*
X352213Y393571D02*
D03*
X347213D02*
D03*
X342213D02*
D03*
D108*
X390551Y376378D02*
D03*
Y359842D02*
D03*
D109*
X341732Y438976D02*
D03*
Y450787D02*
D03*
X364173Y452362D02*
D03*
Y464173D02*
D03*
X506693Y422441D02*
D03*
Y410630D02*
D03*
D110*
X437008Y396850D02*
D03*
Y405512D02*
D03*
D111*
X383465Y384449D02*
D03*
Y394291D02*
D03*
X419685Y390748D02*
D03*
Y400591D02*
D03*
D112*
X222835Y463779D02*
D03*
X529528Y440945D02*
D03*
X271654Y381102D02*
D03*
X223622Y364567D02*
D03*
X514567Y434252D02*
D03*
D113*
X464764Y466142D02*
D03*
X502165D02*
D03*
M02*
