G04*
G04 #@! TF.GenerationSoftware,Altium Limited,Altium Designer,19.0.15 (446)*
G04*
G04 Layer_Color=16711935*
%FSLAX25Y25*%
%MOIN*%
G70*
G01*
G75*
%ADD10C,0.00500*%
%ADD11C,0.00787*%
%ADD15C,0.00394*%
%ADD117C,0.00300*%
%ADD118C,0.00197*%
D10*
X526260Y451968D02*
G03*
X516260Y451968I-5000J10251D01*
G01*
X526260D01*
X324063Y458173D02*
Y468673D01*
X268563D02*
X324106Y468657D01*
X268520Y458173D02*
X268563Y468673D01*
Y458173D02*
X324106Y458189D01*
X324063Y458173D02*
Y468673D01*
X268563D02*
X324106Y468657D01*
X268520Y458173D02*
X268563Y468673D01*
Y458173D02*
X324106Y458189D01*
X269772Y417512D02*
X329256Y417496D01*
X269772Y417512D02*
X329256Y417496D01*
X264772Y445980D02*
X328756Y445996D01*
X264756Y417496D02*
Y445996D01*
Y417496D02*
Y445996D01*
X264772Y445980D02*
X328756Y445996D01*
X329240Y445980D02*
X329256Y417496D01*
X329240Y445996D02*
X329256Y417496D01*
D11*
X521260Y449606D02*
G03*
X521260Y449606I-394J0D01*
G01*
D15*
X344181Y386571D02*
G03*
X344181Y386571I-1969J0D01*
G01*
X526476Y406299D02*
Y414961D01*
X520768Y406299D02*
Y414961D01*
Y406299D02*
X526476D01*
X520768Y414961D02*
X526476D01*
X469882Y410827D02*
Y416339D01*
X481693Y410827D02*
Y416339D01*
X469882D02*
X481693D01*
X469882Y410827D02*
X481693D01*
X359055Y375197D02*
Y390945D01*
X339370Y375197D02*
Y390945D01*
Y375197D02*
X359055D01*
X339370Y390945D02*
X359055D01*
D117*
X442264Y453543D02*
G03*
X442264Y453543I-2500J0D01*
G01*
X332421Y359842D02*
G03*
X332421Y359842I-2500J0D01*
G01*
X336358Y376378D02*
G03*
X336358Y376378I-2500J0D01*
G01*
X327697Y424016D02*
G03*
X327697Y424016I-2500J0D01*
G01*
X467854Y397441D02*
G03*
X467854Y397441I-2500J0D01*
G01*
X532815Y421654D02*
G03*
X532815Y421654I-2500J0D01*
G01*
X306437Y452756D02*
G03*
X306437Y452756I-2500J0D01*
G01*
X342657Y464567D02*
G03*
X342657Y464567I-2500J0D01*
G01*
X302894Y359842D02*
G03*
X302894Y359842I-2500J0D01*
G01*
X504075Y388976D02*
G03*
X504075Y388976I-2500J0D01*
G01*
X441870Y468898D02*
G03*
X441870Y468898I-2500J0D01*
G01*
X291083Y452362D02*
G03*
X291083Y452362I-2500J0D01*
G01*
X271791Y417717D02*
G03*
X271791Y417717I-2500J0D01*
G01*
X428484Y448032D02*
G03*
X428484Y448032I-2500J0D01*
G01*
X493445Y391142D02*
G03*
X493445Y391142I-2500J0D01*
G01*
X439181Y390551D02*
G03*
X439181Y390551I-2500J0D01*
G01*
X424154Y383858D02*
G03*
X424154Y383858I-2500J0D01*
G01*
X396595Y390945D02*
G03*
X396595Y390945I-2500J0D01*
G01*
X363524Y365748D02*
G03*
X363524Y365748I-2500J0D01*
G01*
X409980Y452362D02*
G03*
X409980Y452362I-2500J0D01*
G01*
X402894Y365354D02*
G03*
X402894Y365354I-2500J0D01*
G01*
X388327Y405512D02*
G03*
X388327Y405512I-2500J0D01*
G01*
X378878Y399606D02*
G03*
X378878Y399606I-2500J0D01*
G01*
X459980Y378346D02*
G03*
X459980Y378346I-2500J0D01*
G01*
X424547Y362598D02*
G03*
X424547Y362598I-2500J0D01*
G01*
X381240Y420866D02*
G03*
X381240Y420866I-2500J0D01*
G01*
X515492Y466535D02*
G03*
X515492Y466535I-2500J0D01*
G01*
X467067Y409449D02*
G03*
X467067Y409449I-2500J0D01*
G01*
X533996Y375197D02*
G03*
X533996Y375197I-2500J0D01*
G01*
X393051Y435827D02*
G03*
X393051Y435827I-2500J0D01*
G01*
X332815Y444095D02*
G03*
X332815Y444095I-2500J0D01*
G01*
X402500Y376772D02*
G03*
X402500Y376772I-2500J0D01*
G01*
X346595Y365748D02*
G03*
X346595Y365748I-2500J0D01*
G01*
X375728Y378740D02*
G03*
X375728Y378740I-2500J0D01*
G01*
X411161Y397638D02*
G03*
X411161Y397638I-2500J0D01*
G01*
X360374Y418504D02*
G03*
X360374Y418504I-2500J0D01*
G01*
X349350Y405905D02*
G03*
X349350Y405905I-2500J0D01*
G01*
X477697Y369291D02*
G03*
X477697Y369291I-2500J0D01*
G01*
X283996Y370866D02*
G03*
X283996Y370866I-2500J0D01*
G01*
X236752Y364173D02*
G03*
X236752Y364173I-2500J0D01*
G01*
X300925Y401575D02*
G03*
X300925Y401575I-2500J0D01*
G01*
X434449Y397047D02*
X439567D01*
X434449Y405315D02*
X439567D01*
Y397047D02*
Y405315D01*
X434449Y397047D02*
Y405315D01*
D118*
X392323Y359638D02*
G03*
X394295Y361610I0J1972D01*
G01*
X394295Y452050D02*
G03*
X393944Y453174I-1972J0D01*
G01*
X394295Y460823D02*
G03*
X392323Y462795I-1972J0D01*
G01*
X393944Y456660D02*
G03*
X394295Y457784I-1621J1124D01*
G01*
X393944Y456660D02*
G03*
X393944Y453174I2513J-1743D01*
G01*
X331693Y361610D02*
G03*
X333661Y359642I1969J0D01*
G01*
X331693Y457784D02*
G03*
X332044Y456663I1969J0D01*
G01*
Y453172D02*
G03*
X331693Y452050I1617J-1122D01*
G01*
X333661Y462791D02*
G03*
X331693Y460823I0J-1969D01*
G01*
X332044Y453172D02*
G03*
X332044Y456663I-2516J1745D01*
G01*
X332513Y361610D02*
G03*
X334336Y359638I1901J-72D01*
G01*
X332838Y453174D02*
G03*
X332513Y452050I1761J-1118D01*
G01*
X334336Y462795D02*
G03*
X332513Y460823I78J-1900D01*
G01*
Y457784D02*
G03*
X332838Y456660I2086J-6D01*
G01*
X332838Y453174D02*
G03*
X332838Y456660I-2753J1743D01*
G01*
X349803Y465748D02*
G03*
X347835Y465748I-984J0D01*
G01*
X378150D02*
G03*
X376181Y465748I-984J0D01*
G01*
X368224Y409803D02*
G03*
X368224Y409803I-665J0D01*
G01*
X533366Y467028D02*
Y468602D01*
X529626D02*
X533366D01*
X529626Y467028D02*
X533366D01*
X529626D02*
Y468602D01*
X533366Y461713D02*
Y463287D01*
X529626D02*
X533366D01*
X529626Y461713D02*
Y463287D01*
Y461713D02*
X533366D01*
X529630Y463287D02*
Y467028D01*
Y463287D02*
X529632Y467028D01*
X533360Y463287D02*
X533362Y467028D01*
X533360Y463287D02*
X533362Y467028D01*
X468597Y380217D02*
X468598Y388287D01*
X468597Y380217D02*
X468598Y388287D01*
X462110Y380217D02*
X462112Y388287D01*
X462110Y380217D02*
Y388287D01*
X462106Y377854D02*
X468602D01*
X462106D02*
Y380217D01*
X468602D01*
Y377854D02*
Y380217D01*
X462106Y388287D02*
Y390650D01*
Y388287D02*
X468602D01*
X462106Y390650D02*
X468602D01*
Y388287D02*
Y390650D01*
X529823Y369685D02*
X535532D01*
X529823Y368504D02*
X535532D01*
X529823D02*
Y369685D01*
X535532Y368504D02*
Y369685D01*
X529823Y361024D02*
Y362205D01*
X535532Y361024D02*
Y362205D01*
X529823Y361024D02*
X535532D01*
X529823Y362205D02*
X535532D01*
X529902D02*
Y368504D01*
X535453Y362205D02*
Y368504D01*
X520374Y393795D02*
X528445Y393793D01*
X520374Y393795D02*
X528445Y393793D01*
X520374Y387309D02*
X528445Y387307D01*
X520374D02*
X528445D01*
X530807Y387303D02*
Y393799D01*
X528445Y387303D02*
X530807D01*
X528445D02*
Y393799D01*
X530807D01*
X518012Y387303D02*
X520374D01*
Y393799D01*
X518012Y387303D02*
Y393799D01*
X520374D01*
X516437Y384740D02*
X524508Y384738D01*
X516437Y384740D02*
X524508Y384738D01*
X516437Y378254D02*
X524508Y378252D01*
X516437D02*
X524508D01*
X526870Y378248D02*
Y384744D01*
X524508Y378248D02*
X526870D01*
X524508D02*
Y384744D01*
X526870D01*
X514075Y378248D02*
X516437D01*
Y384744D01*
X514075Y378248D02*
Y384744D01*
X516437D01*
X263779Y414173D02*
X318110D01*
Y388976D02*
Y414173D01*
X263779Y388976D02*
Y414173D01*
Y388976D02*
X318110D01*
X332677Y360630D02*
X333669Y359638D01*
X394295Y361417D02*
Y452050D01*
Y457784D02*
Y460823D01*
X331693Y417516D02*
Y452050D01*
Y457784D02*
Y460823D01*
X349803Y462795D02*
Y465748D01*
X347835Y462795D02*
Y465748D01*
X376181Y462795D02*
Y465748D01*
X378150Y462795D02*
Y465748D01*
X332513Y417516D02*
Y452050D01*
X333669Y359638D02*
X392709Y359638D01*
X332513Y457784D02*
Y460823D01*
X333661Y462795D02*
X392323D01*
X354134Y359642D02*
X354693D01*
X333661Y462791D02*
X334221D01*
X332595Y452050D02*
X394295D01*
X332484Y361610D02*
X394295D01*
X332484Y460823D02*
X394295D01*
X332373Y457784D02*
X394295D01*
X332652Y453174D02*
X393944D01*
X332710Y456660D02*
X393944D01*
X332044Y456663D02*
X332838Y456660D01*
X332044Y453172D02*
X332838Y453174D01*
X347835Y463779D02*
X349803D01*
X376181D02*
X378150D01*
X383557Y362303D02*
X383559Y370374D01*
X383557Y362303D02*
X383559Y370374D01*
X377071Y362303D02*
X377073Y370374D01*
X377071Y362303D02*
Y370374D01*
X377067Y359941D02*
X383563D01*
X377067D02*
Y362303D01*
X383563D01*
Y359941D02*
Y362303D01*
X377067Y370374D02*
Y372736D01*
Y370374D02*
X383563D01*
X377067Y372736D02*
X383563D01*
Y370374D02*
Y372736D01*
X432770Y396358D02*
X432772Y404429D01*
X432770Y396358D02*
X432772Y404429D01*
X426284Y396358D02*
X426285Y404429D01*
X426284Y396358D02*
Y404429D01*
X426279Y393996D02*
X432776D01*
X426279D02*
Y396358D01*
X432776D01*
Y393996D02*
Y396358D01*
X426279Y404429D02*
Y406791D01*
Y404429D02*
X432776D01*
X426279Y406791D02*
X432776D01*
Y404429D02*
Y406791D01*
X365457Y365354D02*
X365459Y370079D01*
X365457Y365354D02*
X365459Y370079D01*
X370762Y365354D02*
X370764Y370079D01*
Y365354D02*
Y370079D01*
X365453Y372047D02*
X370768D01*
Y370079D02*
Y372047D01*
X365453Y370079D02*
X370768D01*
X365453D02*
Y372047D01*
X370768Y363386D02*
Y365354D01*
X365453D02*
X370768D01*
X365453Y363386D02*
X370768D01*
X365453D02*
Y365354D01*
X404735Y389065D02*
X411013D01*
X404734Y379636D02*
X404735Y389065D01*
X404734Y379636D02*
X411014D01*
X411013Y389065D02*
X411014Y379636D01*
X411013Y389065D02*
X411417Y389469D01*
X404331D02*
X411417D01*
X404331D02*
X404735Y389065D01*
X404331Y378248D02*
Y389469D01*
Y378248D02*
X404734Y378651D01*
Y379636D01*
X411014Y378651D02*
Y379636D01*
Y378651D02*
X411417Y378248D01*
Y389469D01*
X404734Y378651D02*
X411014D01*
X404331Y378248D02*
X411417D01*
X406663Y377888D02*
X409085D01*
Y376181D02*
Y378248D01*
X406663Y376181D02*
Y378248D01*
Y389829D02*
X409085D01*
X406663Y389469D02*
Y391535D01*
X409085Y389469D02*
Y391535D01*
X406663Y377138D02*
X409085D01*
X406663Y390579D02*
X409085D01*
X406663Y376905D02*
X409085D01*
X406663Y390811D02*
X409085D01*
X406663Y391535D02*
X409085D01*
X406663Y376181D02*
X409085D01*
X357968Y408558D02*
X368804D01*
Y413095D01*
X357968D02*
X368804D01*
X357968Y408558D02*
Y413095D01*
X369094Y408268D02*
Y413386D01*
X368804Y413095D02*
X369094Y413386D01*
X368804Y408558D02*
X369094Y408268D01*
X357677Y413386D02*
X369094D01*
X357677D02*
X357968Y413095D01*
X357677Y408268D02*
X357968Y408558D01*
X357677Y408268D02*
X369094D01*
X357677D02*
Y413386D01*
X366181Y407578D02*
X368071D01*
X368071Y408268D02*
X368071Y405315D01*
X366181D02*
Y408268D01*
X358701Y407578D02*
X360591D01*
X358701Y405315D02*
X358701Y408268D01*
X358701Y406598D02*
X360591D01*
Y405315D02*
Y408268D01*
X362441Y415056D02*
X364331D01*
X362441Y413386D02*
Y416339D01*
Y414076D02*
X364331D01*
Y413386D02*
Y416339D01*
X366181Y406598D02*
X368071D01*
X366181Y406498D02*
X368071D01*
X362441Y415155D02*
X364331D01*
X358701Y406498D02*
X360591D01*
X366181Y406140D02*
X368071D01*
X358701D02*
X360591D01*
X362441Y415513D02*
X364331D01*
X362441Y416339D02*
X364331D01*
X358701Y405315D02*
X360591D01*
X366181D02*
X368071D01*
X313685Y432579D02*
X313687Y440650D01*
X313685Y432579D02*
X313687Y440650D01*
X320171Y432579D02*
X320173Y440650D01*
Y432579D02*
Y440650D01*
X313681Y443012D02*
X320177D01*
Y440650D02*
Y443012D01*
X313681Y440650D02*
X320177D01*
X313681D02*
Y443012D01*
X320177Y430217D02*
Y432579D01*
X313681D02*
X320177D01*
X313681Y430217D02*
X320177D01*
X313681D02*
Y432579D01*
X473331Y379035D02*
X473333Y382776D01*
X473331Y379035D02*
X473333Y382776D01*
X477061Y379035D02*
X477063Y382776D01*
Y379035D02*
Y382776D01*
X473327Y384350D02*
X477067D01*
Y382776D02*
Y384350D01*
X473327Y382776D02*
X477067D01*
X473327D02*
Y384350D01*
X477067Y377461D02*
Y379035D01*
X473327D02*
X477067D01*
X473327Y377461D02*
X477067D01*
X473327D02*
Y379035D01*
X391437Y397047D02*
Y399016D01*
Y397047D02*
X396752D01*
X391437Y399016D02*
X396752D01*
Y397047D02*
Y399016D01*
X391437Y403740D02*
Y405709D01*
Y403740D02*
X396752D01*
Y405709D01*
X391437D02*
X396752D01*
X396748Y399016D02*
Y403740D01*
X396746Y399016D02*
X396748Y403740D01*
X391441Y399016D02*
X391443Y403740D01*
X391441Y399016D02*
X391443Y403740D01*
X370768Y435335D02*
Y437697D01*
Y435335D02*
X377264D01*
X370768Y437697D02*
X377264D01*
Y435335D02*
Y437697D01*
X370768Y445768D02*
Y448130D01*
Y445768D02*
X377264D01*
Y448130D01*
X370768D02*
X377264D01*
X377260Y437697D02*
Y445768D01*
X377258Y437697D02*
X377260Y445768D01*
X370772Y437697D02*
X370774Y445768D01*
X370772Y437697D02*
X370774Y445768D01*
X349902Y435335D02*
Y437697D01*
Y435335D02*
X356398D01*
X349902Y437697D02*
X356398D01*
Y435335D02*
Y437697D01*
X349902Y445768D02*
Y448130D01*
Y445768D02*
X356398D01*
Y448130D01*
X349902D02*
X356398D01*
X356394Y437697D02*
Y445768D01*
X356392Y437697D02*
X356394Y445768D01*
X349905Y437697D02*
X349907Y445768D01*
X349905Y437697D02*
X349907Y445768D01*
X345197Y440158D02*
Y449606D01*
X338268Y440158D02*
Y449606D01*
X345276Y438189D02*
Y440158D01*
X338189Y438189D02*
Y440158D01*
X345276D01*
X338189Y438189D02*
X345276D01*
Y449606D02*
Y451575D01*
X338189Y449606D02*
Y451575D01*
Y449606D02*
X345276D01*
X338189Y451575D02*
X345276D01*
X493996Y410335D02*
Y412697D01*
Y410335D02*
X500492D01*
X493996Y412697D02*
X500492D01*
Y410335D02*
Y412697D01*
X493996Y420768D02*
Y423130D01*
Y420768D02*
X500492D01*
Y423130D01*
X493996D02*
X500492D01*
X500488Y412697D02*
Y420768D01*
X500486Y412697D02*
X500488Y420768D01*
X494000Y412697D02*
X494002Y420768D01*
X494000Y412697D02*
X494002Y420768D01*
X416825Y377658D02*
X416827Y381398D01*
X416825Y377658D02*
X416827Y381398D01*
X413095Y377658D02*
X413096Y381398D01*
X413095Y377658D02*
Y381398D01*
X413091Y376083D02*
X416831D01*
X413091D02*
Y377658D01*
X416831D01*
Y376083D02*
Y377658D01*
X413091Y381398D02*
Y382972D01*
Y381398D02*
X416831D01*
X413091Y382972D02*
X416831D01*
Y381398D02*
Y382972D01*
X350590Y365551D02*
X354134D01*
X350590Y364370D02*
Y365551D01*
Y364370D02*
X354134D01*
Y365551D01*
X350590Y360039D02*
X354134D01*
X350590Y358858D02*
X354134D01*
X350590D02*
Y360039D01*
X354134Y358858D02*
Y360039D01*
X354055D02*
Y364370D01*
X350669Y360039D02*
Y364370D01*
X485728Y383465D02*
Y385433D01*
X480413D02*
X485728D01*
X480413Y383465D02*
X485728D01*
X480413D02*
Y385433D01*
X485728Y376772D02*
Y378740D01*
X480413D02*
X485728D01*
X480413Y376772D02*
Y378740D01*
Y376772D02*
X485728D01*
X480417Y378740D02*
Y383465D01*
Y378740D02*
X480419Y383465D01*
X485722Y378740D02*
X485724Y383465D01*
X485722Y378740D02*
X485724Y383465D01*
X419882Y377165D02*
X423425D01*
X419882Y375984D02*
Y377165D01*
Y375984D02*
X423425D01*
Y377165D01*
X419882Y371654D02*
X423425D01*
X419882Y370472D02*
X423425D01*
X419882D02*
Y371654D01*
X423425Y370472D02*
Y371654D01*
X423347D02*
Y375984D01*
X419961Y371654D02*
Y375984D01*
X410132Y463484D02*
X410134Y467224D01*
X410132Y463484D02*
X410134Y467224D01*
X406402Y463484D02*
X406403Y467224D01*
X406402Y463484D02*
Y467224D01*
X406398Y461909D02*
X410138D01*
X406398D02*
Y463484D01*
X410138D01*
Y461909D02*
Y463484D01*
X406398Y467224D02*
Y468799D01*
Y467224D02*
X410138D01*
X406398Y468799D02*
X410138D01*
Y467224D02*
Y468799D01*
X361614Y380709D02*
X365158D01*
Y381890D01*
X361614D02*
X365158D01*
X361614Y380709D02*
Y381890D01*
Y386221D02*
X365158D01*
X361614Y387402D02*
X365158D01*
Y386221D02*
Y387402D01*
X361614Y386221D02*
Y387402D01*
X361693Y381890D02*
Y386221D01*
X365079Y381890D02*
Y386221D01*
X377756Y406890D02*
X381299D01*
Y408071D01*
X377756D02*
X381299D01*
X377756Y406890D02*
Y408071D01*
Y412402D02*
X381299D01*
X377756Y413583D02*
X381299D01*
Y412402D02*
Y413583D01*
X377756Y412402D02*
Y413583D01*
X377835Y408071D02*
Y412402D01*
X381221Y408071D02*
Y412402D01*
X345079Y419488D02*
X348622D01*
X345079Y418307D02*
Y419488D01*
Y418307D02*
X348622D01*
Y419488D01*
X345079Y413976D02*
X348622D01*
X345079Y412795D02*
X348622D01*
X345079D02*
Y413976D01*
X348622Y412795D02*
Y413976D01*
X348543D02*
Y418307D01*
X345158Y413976D02*
Y418307D01*
X351284Y407382D02*
X351285Y411122D01*
X351284Y407382D02*
X351285Y411122D01*
X355014Y407382D02*
X355016Y411122D01*
Y407382D02*
Y411122D01*
X351279Y412697D02*
X355020D01*
Y411122D02*
Y412697D01*
X351279Y411122D02*
X355020D01*
X351279D02*
Y412697D01*
X355020Y405807D02*
Y407382D01*
X351279D02*
X355020D01*
X351279Y405807D02*
X355020D01*
X351279D02*
Y407382D01*
X479423Y393012D02*
X479425Y396752D01*
X479423Y393012D02*
X479425Y396752D01*
X475693Y393012D02*
X475695Y396752D01*
X475693Y393012D02*
Y396752D01*
X475689Y391437D02*
X479429D01*
X475689D02*
Y393012D01*
X479429D01*
Y391437D02*
Y393012D01*
X475689Y396752D02*
Y398327D01*
Y396752D02*
X479429D01*
X475689Y398327D02*
X479429D01*
Y396752D02*
Y398327D01*
X367638Y453543D02*
Y462992D01*
X360709Y453543D02*
Y462992D01*
X367717Y451575D02*
Y453543D01*
X360630Y451575D02*
Y453543D01*
X367717D01*
X360630Y451575D02*
X367717D01*
Y462992D02*
Y464961D01*
X360630Y462992D02*
Y464961D01*
Y462992D02*
X367717D01*
X360630Y464961D02*
X367717D01*
X330610Y405020D02*
Y407382D01*
Y405020D02*
X337106D01*
X330610Y407382D02*
X337106D01*
Y405020D02*
Y407382D01*
X330610Y415453D02*
Y417815D01*
Y415453D02*
X337106D01*
Y417815D01*
X330610D02*
X337106D01*
X337102Y407382D02*
Y415453D01*
X337100Y407382D02*
X337102Y415453D01*
X330614Y407382D02*
X330616Y415453D01*
X330614Y407382D02*
X330616Y415453D01*
X503228Y411811D02*
Y421260D01*
X510157Y411811D02*
Y421260D01*
X503150D02*
Y423228D01*
X510236Y421260D02*
Y423228D01*
X503150Y421260D02*
X510236D01*
X503150Y423228D02*
X510236D01*
X503150Y409842D02*
Y411811D01*
X510236Y409842D02*
Y411811D01*
X503150D02*
X510236D01*
X503150Y409842D02*
X510236D01*
X501077Y398917D02*
X501079Y402658D01*
X501077Y398917D02*
X501079Y402658D01*
X497346Y398917D02*
X497348Y402658D01*
X497346Y398917D02*
Y402658D01*
X497342Y397342D02*
X501083D01*
X497342D02*
Y398917D01*
X501083D01*
Y397342D02*
Y398917D01*
X497342Y402658D02*
Y404232D01*
Y402658D02*
X501083D01*
X497342Y404232D02*
X501083D01*
Y402658D02*
Y404232D01*
X485630Y416339D02*
X489173D01*
X485630Y415158D02*
Y416339D01*
Y415158D02*
X489173D01*
Y416339D01*
X485630Y410827D02*
X489173D01*
X485630Y409646D02*
X489173D01*
X485630D02*
Y410827D01*
X489173Y409646D02*
Y410827D01*
X489094D02*
Y415158D01*
X485709Y410827D02*
Y415158D01*
X491535Y404134D02*
X495079D01*
X491535Y402953D02*
Y404134D01*
Y402953D02*
X495079D01*
Y404134D01*
X491535Y398622D02*
X495079D01*
X491535Y397441D02*
X495079D01*
X491535D02*
Y398622D01*
X495079Y397441D02*
Y398622D01*
X495000D02*
Y402953D01*
X491614Y398622D02*
Y402953D01*
X489266Y398917D02*
X489268Y402658D01*
X489266Y398917D02*
X489268Y402658D01*
X485535Y398917D02*
X485537Y402658D01*
X485535Y398917D02*
Y402658D01*
X485532Y397342D02*
X489272D01*
X485532D02*
Y398917D01*
X489272D01*
Y397342D02*
Y398917D01*
X485532Y402658D02*
Y404232D01*
Y402658D02*
X489272D01*
X485532Y404232D02*
X489272D01*
Y402658D02*
Y404232D01*
X426480Y378445D02*
X426482Y382185D01*
X426480Y378445D02*
X426482Y382185D01*
X430211Y378445D02*
X430213Y382185D01*
Y378445D02*
Y382185D01*
X426476Y383760D02*
X430217D01*
Y382185D02*
Y383760D01*
X426476Y382185D02*
X430217D01*
X426476D02*
Y383760D01*
X430217Y376870D02*
Y378445D01*
X426476D02*
X430217D01*
X426476Y376870D02*
X430217D01*
X426476D02*
Y378445D01*
X382677Y384252D02*
X384252D01*
X382677Y394488D02*
X384252D01*
X382677Y384817D02*
X384252D01*
X382677Y393923D02*
X384252D01*
Y392830D02*
Y394488D01*
X382677Y392830D02*
Y394488D01*
Y393740D02*
X384252D01*
X382677Y392953D02*
X384252D01*
X382677Y385000D02*
X384252D01*
Y384252D02*
Y385910D01*
X382677Y384252D02*
Y385910D01*
Y385787D02*
X384252D01*
X381050Y386070D02*
X385879D01*
X384252Y385827D02*
X386122D01*
X382677Y385910D02*
X384252D01*
X380807Y385827D02*
X382677D01*
X381050Y386070D02*
Y388189D01*
X380807Y385827D02*
X381050Y386070D01*
X380807Y385827D02*
Y392913D01*
X386122Y385827D02*
Y392913D01*
X385879Y386070D02*
X386122Y385827D01*
X385879Y386070D02*
Y388189D01*
X381050D02*
X385879D01*
X385879Y392670D02*
X385879Y388189D01*
X381050D02*
X381050Y392670D01*
X384252Y392913D02*
X386122D01*
X385879Y392670D02*
X386122Y392913D01*
X381050Y392670D02*
X385879D01*
X380807Y392913D02*
X381050Y392670D01*
X380807Y392913D02*
X382677D01*
Y392830D02*
X384252D01*
X418898Y390551D02*
X420472D01*
X418898Y400787D02*
X420472D01*
X418898Y391116D02*
X420472D01*
X418898Y400222D02*
X420472D01*
Y399130D02*
Y400787D01*
X418898Y399130D02*
Y400787D01*
Y400039D02*
X420472D01*
X418898Y399252D02*
X420472D01*
X418898Y391299D02*
X420472D01*
Y390551D02*
Y392209D01*
X418898Y390551D02*
Y392209D01*
Y392087D02*
X420472D01*
X417271Y392369D02*
X422100D01*
X420472Y392126D02*
X422342D01*
X418898Y392209D02*
X420472D01*
X417028Y392126D02*
X418898D01*
X417271Y392369D02*
Y394488D01*
X417028Y392126D02*
X417271Y392369D01*
X417028Y392126D02*
Y399213D01*
X422342Y392126D02*
Y399213D01*
X422100Y392369D02*
X422342Y392126D01*
X422100Y392369D02*
Y394488D01*
X417271D02*
X422100D01*
X422099Y398969D02*
X422100Y394488D01*
X417271D02*
X417271Y398969D01*
X420472Y399213D02*
X422342D01*
X422099Y398969D02*
X422342Y399213D01*
X417271Y398969D02*
X422099D01*
X417028Y399213D02*
X417271Y398969D01*
X417028Y399213D02*
X418898D01*
Y399130D02*
X420472D01*
X379035Y390945D02*
Y392913D01*
X373721D02*
X379035D01*
X373721Y390945D02*
X379035D01*
X373721D02*
Y392913D01*
X379035Y384252D02*
Y386221D01*
X373721D02*
X379035D01*
X373721Y384252D02*
Y386221D01*
Y384252D02*
X379035D01*
X373724Y386221D02*
Y390945D01*
Y386221D02*
X373726Y390945D01*
X379030Y386221D02*
X379031Y390945D01*
X379030Y386221D02*
X379031Y390945D01*
X445959Y410728D02*
X445961Y414468D01*
X445959Y410728D02*
X445961Y414468D01*
X442228Y410728D02*
X442230Y414468D01*
X442228Y410728D02*
Y414468D01*
X442224Y409154D02*
X445965D01*
X442224D02*
Y410728D01*
X445965D01*
Y409154D02*
Y410728D01*
X442224Y414468D02*
Y416043D01*
Y414468D02*
X445965D01*
X442224Y416043D02*
X445965D01*
Y414468D02*
Y416043D01*
X367913Y390224D02*
X371457D01*
Y391406D01*
X367913D02*
X371457D01*
X367913Y390224D02*
Y391406D01*
Y395736D02*
X371457D01*
X367913Y396917D02*
X371457D01*
Y395736D02*
Y396917D01*
X367913Y395736D02*
Y396917D01*
X367992Y391406D02*
Y395736D01*
X371378Y391406D02*
Y395736D01*
X375486Y408366D02*
X375488Y412106D01*
X375486Y408366D02*
X375488Y412106D01*
X371756Y408366D02*
X371758Y412106D01*
X371756Y408366D02*
Y412106D01*
X371752Y406791D02*
X375492D01*
X371752D02*
Y408366D01*
X375492D01*
Y406791D02*
Y408366D01*
X371752Y412106D02*
Y413681D01*
Y412106D02*
X375492D01*
X371752Y413681D02*
X375492D01*
Y412106D02*
Y413681D01*
X333563Y462894D02*
Y465256D01*
X327067D02*
X333563D01*
X327067Y462894D02*
X333563D01*
X327067D02*
Y465256D01*
X333563Y452461D02*
Y454823D01*
X327067D02*
X333563D01*
X327067Y452461D02*
Y454823D01*
Y452461D02*
X333563D01*
X327071Y454823D02*
Y462894D01*
Y454823D02*
X327073Y462894D01*
X333557Y454823D02*
X333559Y462894D01*
X333557Y454823D02*
X333559Y462894D01*
X299902Y413480D02*
X307972Y413478D01*
X299902Y413480D02*
X307972Y413478D01*
X299902Y406994D02*
X307972Y406992D01*
X299902D02*
X307972D01*
X310335Y406988D02*
Y413484D01*
X307972Y406988D02*
X310335D01*
X307972D02*
Y413484D01*
X310335D01*
X297539Y406988D02*
X299902D01*
Y413484D01*
X297539Y406988D02*
Y413484D01*
X299902D01*
X275098Y413480D02*
X283169Y413478D01*
X275098Y413480D02*
X283169Y413478D01*
X275098Y406994D02*
X283169Y406992D01*
X275098D02*
X283169D01*
X285531Y406988D02*
Y413484D01*
X283169Y406988D02*
X285531D01*
X283169D02*
Y413484D01*
X285531D01*
X272736Y406988D02*
X275098D01*
Y413484D01*
X272736Y406988D02*
Y413484D01*
X275098D01*
M02*
