%FSTAX23Y23*%
%MOIN*%
%SFA1B1*%

%IPPOS*%
%AMD69*
4,1,8,0.015300,0.017700,-0.015300,0.017700,-0.019700,0.013300,-0.019700,-0.013300,-0.015300,-0.017700,0.015300,-0.017700,0.019700,-0.013300,0.019700,0.013300,0.015300,0.017700,0.0*
1,1,0.008860,0.015300,0.013300*
1,1,0.008860,-0.015300,0.013300*
1,1,0.008860,-0.015300,-0.013300*
1,1,0.008860,0.015300,-0.013300*
%
%AMD72*
4,1,8,0.029000,0.025600,-0.029000,0.025600,-0.035400,0.019200,-0.035400,-0.019200,-0.029000,-0.025600,0.029000,-0.025600,0.035400,-0.019200,0.035400,0.019200,0.029000,0.025600,0.0*
1,1,0.012800,0.029000,0.019200*
1,1,0.012800,-0.029000,0.019200*
1,1,0.012800,-0.029000,-0.019200*
1,1,0.012800,0.029000,-0.019200*
%
%AMD73*
4,1,8,0.022600,0.019700,-0.022600,0.019700,-0.027600,0.014800,-0.027600,-0.014800,-0.022600,-0.019700,0.022600,-0.019700,0.027600,-0.014800,0.027600,0.014800,0.022600,0.019700,0.0*
1,1,0.009840,0.022600,0.014800*
1,1,0.009840,-0.022600,0.014800*
1,1,0.009840,-0.022600,-0.014800*
1,1,0.009840,0.022600,-0.014800*
%
%AMD74*
4,1,8,-0.025600,0.029000,-0.025600,-0.029000,-0.019200,-0.035400,0.019200,-0.035400,0.025600,-0.029000,0.025600,0.029000,0.019200,0.035400,-0.019200,0.035400,-0.025600,0.029000,0.0*
1,1,0.012800,-0.019200,0.029000*
1,1,0.012800,-0.019200,-0.029000*
1,1,0.012800,0.019200,-0.029000*
1,1,0.012800,0.019200,0.029000*
%
%AMD75*
4,1,8,-0.021600,-0.015700,0.021600,-0.015700,0.025600,-0.011800,0.025600,0.011800,0.021600,0.015700,-0.021600,0.015700,-0.025600,0.011800,-0.025600,-0.011800,-0.021600,-0.015700,0.0*
1,1,0.007880,-0.021600,-0.011800*
1,1,0.007880,0.021600,-0.011800*
1,1,0.007880,0.021600,0.011800*
1,1,0.007880,-0.021600,0.011800*
%
%AMD76*
4,1,8,-0.011800,-0.019700,0.011800,-0.019700,0.015700,-0.015700,0.015700,0.015700,0.011800,0.019700,-0.011800,0.019700,-0.015700,0.015700,-0.015700,-0.015700,-0.011800,-0.019700,0.0*
1,1,0.007880,-0.011800,-0.015700*
1,1,0.007880,0.011800,-0.015700*
1,1,0.007880,0.011800,0.015700*
1,1,0.007880,-0.011800,0.015700*
%
%AMD77*
4,1,8,-0.008900,-0.019700,0.008900,-0.019700,0.011800,-0.016700,0.011800,0.016700,0.008900,0.019700,-0.008900,0.019700,-0.011800,0.016700,-0.011800,-0.016700,-0.008900,-0.019700,0.0*
1,1,0.005900,-0.008900,-0.016700*
1,1,0.005900,0.008900,-0.016700*
1,1,0.005900,0.008900,0.016700*
1,1,0.005900,-0.008900,0.016700*
%
%AMD79*
4,1,8,0.029500,-0.035900,0.029500,0.035900,0.022100,0.043300,-0.022100,0.043300,-0.029500,0.035900,-0.029500,-0.035900,-0.022100,-0.043300,0.022100,-0.043300,0.029500,-0.035900,0.0*
1,1,0.014760,0.022100,-0.035900*
1,1,0.014760,0.022100,0.035900*
1,1,0.014760,-0.022100,0.035900*
1,1,0.014760,-0.022100,-0.035900*
%
%AMD80*
4,1,8,0.029800,0.022600,-0.029800,0.022600,-0.035400,0.017000,-0.035400,-0.017000,-0.029800,-0.022600,0.029800,-0.022600,0.035400,-0.017000,0.035400,0.017000,0.029800,0.022600,0.0*
1,1,0.011320,0.029800,0.017000*
1,1,0.011320,-0.029800,0.017000*
1,1,0.011320,-0.029800,-0.017000*
1,1,0.011320,0.029800,-0.017000*
%
%AMD81*
4,1,8,0.022600,0.015700,-0.022600,0.015700,-0.026600,0.011800,-0.026600,-0.011800,-0.022600,-0.015700,0.022600,-0.015700,0.026600,-0.011800,0.026600,0.011800,0.022600,0.015700,0.0*
1,1,0.007880,0.022600,0.011800*
1,1,0.007880,-0.022600,0.011800*
1,1,0.007880,-0.022600,-0.011800*
1,1,0.007880,0.022600,-0.011800*
%
%AMD82*
4,1,8,0.013800,-0.008900,0.013800,0.008900,0.010800,0.011800,-0.010800,0.011800,-0.013800,0.008900,-0.013800,-0.008900,-0.010800,-0.011800,0.010800,-0.011800,0.013800,-0.008900,0.0*
1,1,0.005900,0.010800,-0.008900*
1,1,0.005900,0.010800,0.008900*
1,1,0.005900,-0.010800,0.008900*
1,1,0.005900,-0.010800,-0.008900*
%
%ADD63C,0.039370*%
G04~CAMADD=69~8~0.0~0.0~393.7~354.3~44.3~0.0~15~0.0~0.0~0.0~0.0~0~0.0~0.0~0.0~0.0~0~0.0~0.0~0.0~0.0~393.7~354.3*
%ADD69D69*%
%ADD70R,0.055120X0.043310*%
%ADD71R,0.023620X0.033470*%
G04~CAMADD=72~8~0.0~0.0~708.7~511.8~64.0~0.0~15~0.0~0.0~0.0~0.0~0~0.0~0.0~0.0~0.0~0~0.0~0.0~0.0~0.0~708.7~511.8*
%ADD72D72*%
G04~CAMADD=73~8~0.0~0.0~551.2~393.7~49.2~0.0~15~0.0~0.0~0.0~0.0~0~0.0~0.0~0.0~0.0~0~0.0~0.0~0.0~0.0~551.2~393.7*
%ADD73D73*%
G04~CAMADD=74~8~0.0~0.0~708.7~511.8~64.0~0.0~15~0.0~0.0~0.0~0.0~0~0.0~0.0~0.0~0.0~0~0.0~0.0~0.0~90.0~512.0~708.0*
%ADD74D74*%
G04~CAMADD=75~8~0.0~0.0~511.8~315.0~39.4~0.0~15~0.0~0.0~0.0~0.0~0~0.0~0.0~0.0~0.0~0~0.0~0.0~0.0~180.0~512.0~315.0*
%ADD75D75*%
G04~CAMADD=76~8~0.0~0.0~315.0~393.7~39.4~0.0~15~0.0~0.0~0.0~0.0~0~0.0~0.0~0.0~0.0~0~0.0~0.0~0.0~180.0~316.0~394.0*
%ADD76D76*%
G04~CAMADD=77~8~0.0~0.0~236.2~393.7~29.5~0.0~15~0.0~0.0~0.0~0.0~0~0.0~0.0~0.0~0.0~0~0.0~0.0~0.0~180.0~236.0~394.0*
%ADD77D77*%
%ADD78R,0.019680X0.047240*%
G04~CAMADD=79~8~0.0~0.0~866.1~590.6~73.8~0.0~15~0.0~0.0~0.0~0.0~0~0.0~0.0~0.0~0.0~0~0.0~0.0~0.0~270.0~591.0~866.0*
%ADD79D79*%
G04~CAMADD=80~8~0.0~0.0~708.7~452.8~56.6~0.0~15~0.0~0.0~0.0~0.0~0~0.0~0.0~0.0~0.0~0~0.0~0.0~0.0~0.0~708.7~452.8*
%ADD80D80*%
G04~CAMADD=81~8~0.0~0.0~531.5~315.0~39.4~0.0~15~0.0~0.0~0.0~0.0~0~0.0~0.0~0.0~0.0~0~0.0~0.0~0.0~0.0~531.5~315.0*
%ADD81D81*%
G04~CAMADD=82~8~0.0~0.0~236.2~275.6~29.5~0.0~15~0.0~0.0~0.0~0.0~0~0.0~0.0~0.0~0.0~0~0.0~0.0~0.0~270.0~276.0~236.0*
%ADD82D82*%
%ADD83R,0.059060X0.023620*%
%LNadapter_pcb-1*%
%LPD*%
G54D63*
X02692Y04456D03*
X04964Y0361D03*
G54D69*
X05314Y04618D03*
Y04685D03*
X04751Y03775D03*
Y03842D03*
X04149Y03828D03*
Y03761D03*
X03523Y03655D03*
Y03588D03*
X04216Y03771D03*
Y03704D03*
X04082Y04687D03*
Y0462D03*
X03633Y03807D03*
Y03874D03*
X03795Y04068D03*
Y04135D03*
X03468Y04194D03*
Y04127D03*
X03531Y04059D03*
Y04125D03*
X04775Y03982D03*
Y03915D03*
X04992Y04041D03*
Y03974D03*
X04874Y04163D03*
Y04096D03*
X04933Y04041D03*
Y03974D03*
X04874Y04041D03*
Y03974D03*
X04283Y03769D03*
Y03836D03*
X0444Y04159D03*
Y04092D03*
X03696Y03902D03*
Y03969D03*
X03736Y04135D03*
Y04068D03*
G54D70*
X05236Y04076D03*
Y04135D03*
G54D71*
X04757Y04178D03*
X0472Y04093D03*
X04795D03*
G54D72*
X04653Y03899D03*
Y03785D03*
X03803Y0372D03*
Y03606D03*
X04295Y04061D03*
Y03946D03*
X03169Y04309D03*
Y04423D03*
X0374Y04474D03*
Y0436D03*
X03531Y04474D03*
Y0436D03*
X04972Y04224D03*
Y0411D03*
X03338Y04171D03*
Y04057D03*
X03303Y04531D03*
Y04645D03*
G54D73*
X05326Y03688D03*
Y03618D03*
G54D74*
X05187Y03905D03*
X05301D03*
X05147Y03814D03*
X05261D03*
X02982Y04102D03*
X03096D03*
X02734D03*
X02848D03*
G54D75*
X03681Y03716D03*
Y03637D03*
X0394Y03974D03*
Y04053D03*
X0483Y0385D03*
Y03771D03*
X03763Y03925D03*
Y03846D03*
G54D76*
X04078Y03911D03*
Y03765D03*
G54D77*
X03633Y04153D03*
X03596Y04062D03*
X03671D03*
G54D78*
X03572Y03935D03*
Y03725D03*
X03522D03*
X03422D03*
X03522Y03935D03*
X03472D03*
X03422D03*
G54D79*
X03905Y03763D03*
Y03598D03*
G54D80*
X03417Y04389D03*
Y04507D03*
X03641Y04523D03*
Y04641D03*
X05066Y04224D03*
Y04106D03*
G54D81*
X0437Y03968D03*
Y04055D03*
G54D82*
X03834Y03844D03*
Y03942D03*
X04196Y03907D03*
Y04005D03*
G54D83*
X04665Y03703D03*
X04295D03*
X04665Y03603D03*
X04295D03*
M02*