%FSTAX23Y23*%
%MOIN*%
%SFA1B1*%

%IPPOS*%
%ADD122C,0.002000*%
%LNadapter_pcb-1*%
%LPD*%
G54D122*
X05192Y04683D02*
X05232D01*
X05212Y04664D02*
Y04703D01*
X05192Y04583D02*
X05232D01*
X05212Y04564D02*
Y04603D01*
X02209Y04637D02*
X02247D01*
X02228Y04618D02*
Y04656D01*
X05276Y04409D02*
X05314D01*
X05295Y0439D02*
Y04428D01*
X04787Y03594D02*
X04826D01*
X04807Y03574D02*
Y03614D01*
X04531Y04681D02*
X0457D01*
X04551Y04661D02*
Y047D01*
X03956Y04681D02*
X03996D01*
X03976Y04661D02*
Y047D01*
X05061Y04492D02*
X0512D01*
X0509Y04462D02*
Y04521D01*
X02332Y04637D02*
X02391D01*
X02362Y04608D02*
Y04667D01*
X02661Y04015D02*
X02685D01*
X02673Y04003D02*
Y04027D01*
X03133Y04015D02*
X03157D01*
X03145Y04003D02*
Y04027D01*
X03755Y04657D02*
X03787D01*
X03771Y04641D02*
Y04673D01*
X03472Y04657D02*
X03503D01*
X03488Y04641D02*
Y04673D01*
X04341Y0461D02*
X04366D01*
X04354Y04597D02*
Y04622D01*
X04241Y0461D02*
X04266D01*
X04254Y04597D02*
Y04622D01*
X04141Y0461D02*
X04166D01*
X04154Y04597D02*
Y04622D01*
X03993Y03909D02*
X04029D01*
X04011Y03891D02*
Y03927D01*
X03993Y04594D02*
X04029D01*
X04011Y04576D02*
Y04612D01*
X0411Y04441D02*
X04141D01*
X04125Y04426D02*
Y04457D01*
X0411Y04211D02*
X04141D01*
X04125Y04196D02*
Y04227D01*
X04858Y03686D02*
X04904D01*
X04881Y03663D02*
Y03709D01*
X04399Y04306D02*
X04434D01*
X04416Y04288D02*
Y04324D01*
X04903Y03826D02*
X04949D01*
X04926Y03803D02*
Y03849D01*
X04304Y04226D02*
X04339D01*
X04321Y04208D02*
Y04244D01*
X04209Y04296D02*
X04244D01*
X04226Y04278D02*
Y04314D01*
X04254Y04381D02*
X04289D01*
X04271Y04363D02*
Y04399D01*
X04349Y04406D02*
X04384D01*
X04366Y04388D02*
Y04424D01*
X0448Y04543D02*
X04511D01*
X04496Y04527D02*
Y04559D01*
X04667Y04543D02*
X04698D01*
X04683Y04527D02*
Y04559D01*
X04629Y04661D02*
X04665D01*
X04647Y04643D02*
Y04679D01*
X05003Y04661D02*
X05039D01*
X05021Y04643D02*
Y04679D01*
X02719Y04641D02*
X02751D01*
X02735Y04625D02*
Y04657D01*
X02869Y04641D02*
X02901D01*
X02885Y04625D02*
Y04657D01*
X03019Y04641D02*
X03051D01*
X03035Y04625D02*
Y04657D01*
X03169Y04641D02*
X03201D01*
X03185Y04625D02*
Y04657D01*
X02697Y03811D02*
X02735D01*
X02716Y03792D02*
Y0383D01*
X04062Y03696D02*
X04086D01*
X04074Y03685D02*
Y03708D01*
X04062Y03618D02*
X04086D01*
X04074Y03606D02*
Y03629D01*
X02897Y03837D02*
X0292D01*
X02909Y03825D02*
Y03849D01*
X03082Y03837D02*
X03105D01*
X03094Y03825D02*
Y03849D01*
X03082Y03677D02*
X03105D01*
X03094Y03665D02*
Y03689D01*
X02897Y03677D02*
X0292D01*
X02909Y03665D02*
Y03689D01*
X02619Y03637D02*
X02659D01*
X02639Y03618D02*
Y03657D01*
X02419Y03637D02*
X02459D01*
X02439Y03618D02*
Y03657D01*
X02217Y03645D02*
X02255D01*
X02236Y03626D02*
Y03664D01*
X05275Y04007D02*
X05299D01*
X05287Y03996D02*
Y04019D01*
X05055Y04007D02*
X05078D01*
X05066Y03996D02*
Y04019D01*
X0504Y03681D02*
X05062D01*
X05051Y0367D02*
Y03692D01*
X0514Y03681D02*
X05162D01*
X05151Y0367D02*
Y03692D01*
X0524Y03681D02*
X05262D01*
X05251Y0367D02*
Y03692D01*
X02865Y04204D02*
X02889D01*
X02877Y04193D02*
Y04216D01*
X0305Y04204D02*
X03074D01*
X03062Y04193D02*
Y04216D01*
X0305Y04429D02*
X03074D01*
X03062Y04418D02*
Y04441D01*
X02865Y04429D02*
X02889D01*
X02877Y04418D02*
Y04441D01*
X05126Y04342D02*
X05164D01*
X05145Y04323D02*
Y04361D01*
X03737Y0457D02*
X03765D01*
X03751Y04556D02*
Y04584D01*
X02722Y04555D02*
X0275D01*
X02736Y04541D02*
Y04569D01*
X03848Y04629D02*
X03876D01*
X03862Y04615D02*
Y04643D01*
X03848Y04192D02*
X03876D01*
X03862Y04178D02*
Y04206D01*
M02*