%FSTAX23Y23*%
%MOIN*%
%SFA1B1*%

%IPPOS*%
%ADD10C,0.005000*%
%ADD11C,0.007870*%
%ADD15C,0.003940*%
%ADD117C,0.003000*%
%ADD118C,0.001970*%
%LNadapter_pcb-1*%
%LPD*%
G54D10*
X05262Y04519D02*
D01*
X05269Y04523*
X05276Y04527*
X05282Y04532*
X05288Y04537*
X05294Y04542*
X05299Y04548*
X05304Y04555*
X05309Y04561*
X05313Y04568*
X05316Y04575*
X05319Y04583*
X05322Y0459*
X05324Y04598*
X05325Y04606*
X05326Y04614*
X05326Y04622*
X05326Y0463*
X05325Y04638*
X05324Y04645*
X05322Y04653*
X05319Y04661*
X05316Y04668*
X05313Y04675*
X05309Y04682*
X05304Y04689*
X05299Y04695*
X05294Y04701*
X05288Y04706*
X05282Y04712*
X05276Y04716*
X05269Y0472*
X05262Y04724*
X05255Y04727*
X05247Y0473*
X0524Y04732*
X05232Y04734*
X05224Y04735*
X05216Y04736*
X05208*
X052Y04735*
X05192Y04734*
X05185Y04732*
X05177Y0473*
X05169Y04727*
X05162Y04724*
X05155Y0472*
X05148Y04716*
X05142Y04712*
X05136Y04706*
X0513Y04701*
X05125Y04695*
X0512Y04689*
X05115Y04682*
X05111Y04675*
X05108Y04668*
X05105Y04661*
X05102Y04653*
X05101Y04645*
X05099Y04638*
X05098Y0463*
X05098Y04622*
X05098Y04614*
X05099Y04606*
X05101Y04598*
X05102Y0459*
X05105Y04583*
X05108Y04575*
X05111Y04568*
X05115Y04561*
X0512Y04555*
X05125Y04548*
X0513Y04542*
X05136Y04537*
X05142Y04532*
X05148Y04527*
X05155Y04523*
X05162Y04519*
X05262*
X0324Y04581D02*
Y04686D01*
X02685D02*
X03241Y04686D01*
X02685Y04581D02*
X02685Y04686D01*
Y04581D02*
X03241Y04581D01*
X0324Y04581D02*
Y04686D01*
X02685D02*
X03241Y04686D01*
X02685Y04581D02*
X02685Y04686D01*
Y04581D02*
X03241Y04581D01*
X02697Y04175D02*
X03292Y04174D01*
X02697Y04175D02*
X03292Y04174D01*
X02647Y04459D02*
X03287Y04459D01*
X02647Y04174D02*
Y04459D01*
Y04174D02*
Y04459D01*
X02647Y04459D02*
X03287Y04459D01*
X03292Y04459D02*
X03292Y04174D01*
X03292Y04459D02*
X03292Y04174D01*
G54D11*
X05212Y04496D02*
D01*
X05212Y04496*
X05212Y04496*
X05212Y04496*
X05212Y04497*
X05212Y04497*
X05212Y04497*
X05212Y04497*
X05212Y04498*
X05211Y04498*
X05211Y04498*
X05211Y04498*
X05211Y04498*
X05211Y04499*
X0521Y04499*
X0521Y04499*
X0521Y04499*
X0521Y04499*
X05209Y04499*
X05209Y04499*
X05209Y04499*
X05209Y04499*
X05208Y04499*
X05208*
X05208Y04499*
X05207Y04499*
X05207Y04499*
X05207Y04499*
X05207Y04499*
X05206Y04499*
X05206Y04499*
X05206Y04499*
X05206Y04499*
X05206Y04498*
X05205Y04498*
X05205Y04498*
X05205Y04498*
X05205Y04498*
X05205Y04497*
X05205Y04497*
X05204Y04497*
X05204Y04497*
X05204Y04496*
X05204Y04496*
X05204Y04496*
X05204Y04496*
X05204Y04495*
X05204Y04495*
X05204Y04495*
X05204Y04494*
X05204Y04494*
X05205Y04494*
X05205Y04494*
X05205Y04493*
X05205Y04493*
X05205Y04493*
X05205Y04493*
X05206Y04493*
X05206Y04492*
X05206Y04492*
X05206Y04492*
X05206Y04492*
X05207Y04492*
X05207Y04492*
X05207Y04492*
X05207Y04492*
X05208Y04492*
X05208Y04492*
X05208*
X05209Y04492*
X05209Y04492*
X05209Y04492*
X05209Y04492*
X0521Y04492*
X0521Y04492*
X0521Y04492*
X0521Y04492*
X05211Y04492*
X05211Y04493*
X05211Y04493*
X05211Y04493*
X05211Y04493*
X05212Y04493*
X05212Y04494*
X05212Y04494*
X05212Y04494*
X05212Y04494*
X05212Y04495*
X05212Y04495*
X05212Y04495*
X05212Y04496*
G54D15*
X03441Y03865D02*
D01*
X03441Y03867*
X03441Y03868*
X03441Y03869*
X03441Y03871*
X0344Y03872*
X0344Y03873*
X03439Y03874*
X03438Y03876*
X03438Y03877*
X03437Y03878*
X03436Y03879*
X03435Y0388*
X03434Y03881*
X03433Y03882*
X03431Y03882*
X0343Y03883*
X03429Y03883*
X03428Y03884*
X03426Y03884*
X03425Y03885*
X03424Y03885*
X03422Y03885*
X03421*
X0342Y03885*
X03418Y03885*
X03417Y03884*
X03416Y03884*
X03414Y03883*
X03413Y03883*
X03412Y03882*
X03411Y03882*
X03409Y03881*
X03408Y0388*
X03407Y03879*
X03407Y03878*
X03406Y03877*
X03405Y03876*
X03404Y03874*
X03404Y03873*
X03403Y03872*
X03403Y03871*
X03402Y03869*
X03402Y03868*
X03402Y03867*
X03402Y03865*
X03402Y03864*
X03402Y03862*
X03402Y03861*
X03403Y0386*
X03403Y03858*
X03404Y03857*
X03404Y03856*
X03405Y03855*
X03406Y03854*
X03407Y03853*
X03407Y03852*
X03408Y03851*
X03409Y0385*
X03411Y03849*
X03412Y03848*
X03413Y03848*
X03414Y03847*
X03416Y03846*
X03417Y03846*
X03418Y03846*
X0342Y03846*
X03421Y03846*
X03422*
X03424Y03846*
X03425Y03846*
X03426Y03846*
X03428Y03846*
X03429Y03847*
X0343Y03848*
X03431Y03848*
X03433Y03849*
X03434Y0385*
X03435Y03851*
X03436Y03852*
X03437Y03853*
X03438Y03854*
X03438Y03855*
X03439Y03856*
X0344Y03857*
X0344Y03858*
X03441Y0386*
X03441Y03861*
X03441Y03862*
X03441Y03864*
X03441Y03865*
X05264Y04062D02*
Y04149D01*
X05207Y04062D02*
Y04149D01*
Y04062D02*
X05264D01*
X05207Y04149D02*
X05264D01*
X04698Y04108D02*
Y04163D01*
X04816Y04108D02*
Y04163D01*
X04698D02*
X04816D01*
X04698Y04108D02*
X04816D01*
X0359Y03751D02*
Y03909D01*
X03393Y03751D02*
Y03909D01*
Y03751D02*
X0359D01*
X03393Y03909D02*
X0359D01*
G54D117*
X04422Y04535D02*
D01*
X04422Y04537*
X04422Y04538*
X04422Y0454*
X04421Y04542*
X04421Y04543*
X0442Y04545*
X04419Y04547*
X04418Y04548*
X04417Y0455*
X04416Y04551*
X04415Y04552*
X04414Y04554*
X04413Y04555*
X04411Y04556*
X0441Y04557*
X04408Y04557*
X04407Y04558*
X04405Y04559*
X04403Y04559*
X04401Y0456*
X044Y0456*
X04398Y0456*
X04396*
X04395Y0456*
X04393Y0456*
X04391Y04559*
X04389Y04559*
X04388Y04558*
X04386Y04557*
X04385Y04557*
X04383Y04556*
X04382Y04555*
X0438Y04554*
X04379Y04552*
X04378Y04551*
X04377Y0455*
X04376Y04548*
X04375Y04547*
X04374Y04545*
X04374Y04543*
X04373Y04542*
X04373Y0454*
X04372Y04538*
X04372Y04537*
X04372Y04535*
X04372Y04533*
X04372Y04531*
X04373Y0453*
X04373Y04528*
X04374Y04526*
X04374Y04525*
X04375Y04523*
X04376Y04522*
X04377Y0452*
X04378Y04519*
X04379Y04518*
X0438Y04516*
X04382Y04515*
X04383Y04514*
X04385Y04513*
X04386Y04512*
X04388Y04512*
X04389Y04511*
X04391Y04511*
X04393Y0451*
X04395Y0451*
X04396Y0451*
X04398*
X044Y0451*
X04401Y0451*
X04403Y04511*
X04405Y04511*
X04407Y04512*
X04408Y04512*
X0441Y04513*
X04411Y04514*
X04413Y04515*
X04414Y04516*
X04415Y04518*
X04416Y04519*
X04417Y0452*
X04418Y04522*
X04419Y04523*
X0442Y04525*
X04421Y04526*
X04421Y04528*
X04422Y0453*
X04422Y04531*
X04422Y04533*
X04422Y04535*
X03324Y03598D02*
D01*
X03324Y036*
X03323Y03601*
X03323Y03603*
X03323Y03605*
X03322Y03606*
X03322Y03608*
X03321Y0361*
X0332Y03611*
X03319Y03613*
X03318Y03614*
X03317Y03615*
X03315Y03616*
X03314Y03618*
X03313Y03619*
X03311Y0362*
X0331Y0362*
X03308Y03621*
X03306Y03622*
X03305Y03622*
X03303Y03623*
X03301Y03623*
X033Y03623*
X03298*
X03296Y03623*
X03294Y03623*
X03293Y03622*
X03291Y03622*
X03289Y03621*
X03288Y0362*
X03286Y0362*
X03285Y03619*
X03283Y03618*
X03282Y03616*
X03281Y03615*
X0328Y03614*
X03278Y03613*
X03278Y03611*
X03277Y0361*
X03276Y03608*
X03275Y03606*
X03275Y03605*
X03274Y03603*
X03274Y03601*
X03274Y036*
X03274Y03598*
X03274Y03596*
X03274Y03594*
X03274Y03593*
X03275Y03591*
X03275Y03589*
X03276Y03588*
X03277Y03586*
X03278Y03585*
X03278Y03583*
X0328Y03582*
X03281Y03581*
X03282Y03579*
X03283Y03578*
X03285Y03577*
X03286Y03576*
X03288Y03575*
X03289Y03575*
X03291Y03574*
X03293Y03574*
X03294Y03573*
X03296Y03573*
X03298Y03573*
X033*
X03301Y03573*
X03303Y03573*
X03305Y03574*
X03306Y03574*
X03308Y03575*
X0331Y03575*
X03311Y03576*
X03313Y03577*
X03314Y03578*
X03315Y03579*
X03317Y03581*
X03318Y03582*
X03319Y03583*
X0332Y03585*
X03321Y03586*
X03322Y03588*
X03322Y03589*
X03323Y03591*
X03323Y03593*
X03323Y03594*
X03324Y03596*
X03324Y03598*
X03363Y03763D02*
D01*
X03363Y03765*
X03363Y03767*
X03363Y03768*
X03362Y0377*
X03362Y03772*
X03361Y03773*
X0336Y03775*
X03359Y03777*
X03358Y03778*
X03357Y03779*
X03356Y03781*
X03355Y03782*
X03353Y03783*
X03352Y03784*
X03351Y03785*
X03349Y03786*
X03347Y03786*
X03346Y03787*
X03344Y03788*
X03342Y03788*
X03341Y03788*
X03339Y03788*
X03337*
X03335Y03788*
X03334Y03788*
X03332Y03788*
X0333Y03787*
X03329Y03786*
X03327Y03786*
X03326Y03785*
X03324Y03784*
X03323Y03783*
X03321Y03782*
X0332Y03781*
X03319Y03779*
X03318Y03778*
X03317Y03777*
X03316Y03775*
X03315Y03773*
X03315Y03772*
X03314Y0377*
X03314Y03768*
X03313Y03767*
X03313Y03765*
X03313Y03763*
X03313Y03762*
X03313Y0376*
X03314Y03758*
X03314Y03756*
X03315Y03755*
X03315Y03753*
X03316Y03752*
X03317Y0375*
X03318Y03749*
X03319Y03747*
X0332Y03746*
X03321Y03745*
X03323Y03744*
X03324Y03743*
X03326Y03742*
X03327Y03741*
X03329Y0374*
X0333Y0374*
X03332Y03739*
X03334Y03739*
X03335Y03738*
X03337Y03738*
X03339*
X03341Y03738*
X03342Y03739*
X03344Y03739*
X03346Y0374*
X03347Y0374*
X03349Y03741*
X03351Y03742*
X03352Y03743*
X03353Y03744*
X03355Y03745*
X03356Y03746*
X03357Y03747*
X03358Y03749*
X03359Y0375*
X0336Y03752*
X03361Y03753*
X03362Y03755*
X03362Y03756*
X03363Y03758*
X03363Y0376*
X03363Y03762*
X03363Y03763*
X03276Y0424D02*
D01*
X03276Y04241*
X03276Y04243*
X03276Y04245*
X03276Y04247*
X03275Y04248*
X03274Y0425*
X03274Y04251*
X03273Y04253*
X03272Y04254*
X03271Y04256*
X03269Y04257*
X03268Y04258*
X03267Y04259*
X03265Y0426*
X03264Y04261*
X03262Y04262*
X03261Y04263*
X03259Y04263*
X03258Y04264*
X03256Y04264*
X03254Y04265*
X03252Y04265*
X03251*
X03249Y04265*
X03247Y04264*
X03245Y04264*
X03244Y04263*
X03242Y04263*
X03241Y04262*
X03239Y04261*
X03237Y0426*
X03236Y04259*
X03235Y04258*
X03233Y04257*
X03232Y04256*
X03231Y04254*
X0323Y04253*
X03229Y04251*
X03229Y0425*
X03228Y04248*
X03227Y04247*
X03227Y04245*
X03227Y04243*
X03227Y04241*
X03226Y0424*
X03227Y04238*
X03227Y04236*
X03227Y04234*
X03227Y04233*
X03228Y04231*
X03229Y04229*
X03229Y04228*
X0323Y04226*
X03231Y04225*
X03232Y04224*
X03233Y04222*
X03235Y04221*
X03236Y0422*
X03237Y04219*
X03239Y04218*
X03241Y04217*
X03242Y04216*
X03244Y04216*
X03245Y04215*
X03247Y04215*
X03249Y04215*
X03251Y04215*
X03252*
X03254Y04215*
X03256Y04215*
X03258Y04215*
X03259Y04216*
X03261Y04216*
X03262Y04217*
X03264Y04218*
X03265Y04219*
X03267Y0422*
X03268Y04221*
X03269Y04222*
X03271Y04224*
X03272Y04225*
X03273Y04226*
X03274Y04228*
X03274Y04229*
X03275Y04231*
X03276Y04233*
X03276Y04234*
X03276Y04236*
X03276Y04238*
X03276Y0424*
X04678Y03974D02*
D01*
X04678Y03976*
X04678Y03977*
X04677Y03979*
X04677Y03981*
X04677Y03982*
X04676Y03984*
X04675Y03986*
X04674Y03987*
X04673Y03989*
X04672Y0399*
X04671Y03991*
X0467Y03992*
X04668Y03994*
X04667Y03995*
X04666Y03996*
X04664Y03996*
X04662Y03997*
X04661Y03998*
X04659Y03998*
X04657Y03999*
X04656Y03999*
X04654Y03999*
X04652*
X0465Y03999*
X04649Y03999*
X04647Y03998*
X04645Y03998*
X04644Y03997*
X04642Y03996*
X04641Y03996*
X04639Y03995*
X04638Y03994*
X04636Y03992*
X04635Y03991*
X04634Y0399*
X04633Y03989*
X04632Y03987*
X04631Y03986*
X0463Y03984*
X0463Y03982*
X04629Y03981*
X04629Y03979*
X04628Y03977*
X04628Y03976*
X04628Y03974*
X04628Y03972*
X04628Y0397*
X04629Y03969*
X04629Y03967*
X0463Y03965*
X0463Y03964*
X04631Y03962*
X04632Y03961*
X04633Y03959*
X04634Y03958*
X04635Y03957*
X04636Y03955*
X04638Y03954*
X04639Y03953*
X04641Y03952*
X04642Y03951*
X04644Y03951*
X04645Y0395*
X04647Y0395*
X04649Y03949*
X0465Y03949*
X04652Y03949*
X04654*
X04656Y03949*
X04657Y03949*
X04659Y0395*
X04661Y0395*
X04662Y03951*
X04664Y03951*
X04666Y03952*
X04667Y03953*
X04668Y03954*
X0467Y03955*
X04671Y03957*
X04672Y03958*
X04673Y03959*
X04674Y03961*
X04675Y03962*
X04676Y03964*
X04677Y03965*
X04677Y03967*
X04677Y03969*
X04678Y0397*
X04678Y03972*
X04678Y03974*
X05328Y04216D02*
D01*
X05328Y04218*
X05327Y0422*
X05327Y04221*
X05327Y04223*
X05326Y04225*
X05325Y04226*
X05325Y04228*
X05324Y04229*
X05323Y04231*
X05322Y04232*
X05321Y04233*
X05319Y04235*
X05318Y04236*
X05317Y04237*
X05315Y04238*
X05314Y04239*
X05312Y04239*
X0531Y0424*
X05309Y0424*
X05307Y04241*
X05305Y04241*
X05304Y04241*
X05302*
X053Y04241*
X05298Y04241*
X05297Y0424*
X05295Y0424*
X05293Y04239*
X05292Y04239*
X0529Y04238*
X05289Y04237*
X05287Y04236*
X05286Y04235*
X05285Y04233*
X05283Y04232*
X05282Y04231*
X05281Y04229*
X05281Y04228*
X0528Y04226*
X05279Y04225*
X05279Y04223*
X05278Y04221*
X05278Y0422*
X05278Y04218*
X05278Y04216*
X05278Y04214*
X05278Y04213*
X05278Y04211*
X05279Y04209*
X05279Y04207*
X0528Y04206*
X05281Y04204*
X05281Y04203*
X05282Y04201*
X05283Y042*
X05285Y04199*
X05286Y04197*
X05287Y04196*
X05289Y04195*
X0529Y04194*
X05292Y04194*
X05293Y04193*
X05295Y04192*
X05297Y04192*
X05298Y04191*
X053Y04191*
X05302Y04191*
X05304*
X05305Y04191*
X05307Y04191*
X05309Y04192*
X0531Y04192*
X05312Y04193*
X05314Y04194*
X05315Y04194*
X05317Y04195*
X05318Y04196*
X05319Y04197*
X05321Y04199*
X05322Y042*
X05323Y04201*
X05324Y04203*
X05325Y04204*
X05325Y04206*
X05326Y04207*
X05327Y04209*
X05327Y04211*
X05327Y04213*
X05328Y04214*
X05328Y04216*
X03064Y04527D02*
D01*
X03064Y04529*
X03064Y04531*
X03063Y04532*
X03063Y04534*
X03062Y04536*
X03062Y04537*
X03061Y04539*
X0306Y0454*
X03059Y04542*
X03058Y04543*
X03057Y04544*
X03056Y04546*
X03054Y04547*
X03053Y04548*
X03051Y04549*
X0305Y0455*
X03048Y0455*
X03047Y04551*
X03045Y04551*
X03043Y04552*
X03041Y04552*
X0304Y04552*
X03038*
X03036Y04552*
X03035Y04552*
X03033Y04551*
X03031Y04551*
X0303Y0455*
X03028Y0455*
X03026Y04549*
X03025Y04548*
X03023Y04547*
X03022Y04546*
X03021Y04544*
X0302Y04543*
X03019Y04542*
X03018Y0454*
X03017Y04539*
X03016Y04537*
X03015Y04536*
X03015Y04534*
X03014Y04532*
X03014Y04531*
X03014Y04529*
X03014Y04527*
X03014Y04525*
X03014Y04524*
X03014Y04522*
X03015Y0452*
X03015Y04519*
X03016Y04517*
X03017Y04515*
X03018Y04514*
X03019Y04512*
X0302Y04511*
X03021Y0451*
X03022Y04508*
X03023Y04507*
X03025Y04506*
X03026Y04505*
X03028Y04505*
X0303Y04504*
X03031Y04503*
X03033Y04503*
X03035Y04502*
X03036Y04502*
X03038Y04502*
X0304*
X03041Y04502*
X03043Y04502*
X03045Y04503*
X03047Y04503*
X03048Y04504*
X0305Y04505*
X03051Y04505*
X03053Y04506*
X03054Y04507*
X03056Y04508*
X03057Y0451*
X03058Y04511*
X03059Y04512*
X0306Y04514*
X03061Y04515*
X03062Y04517*
X03062Y04519*
X03063Y0452*
X03063Y04522*
X03064Y04524*
X03064Y04525*
X03064Y04527*
X03426Y04645D02*
D01*
X03426Y04647*
X03426Y04649*
X03426Y0465*
X03425Y04652*
X03425Y04654*
X03424Y04655*
X03423Y04657*
X03422Y04658*
X03421Y0466*
X0342Y04661*
X03419Y04663*
X03418Y04664*
X03416Y04665*
X03415Y04666*
X03414Y04667*
X03412Y04668*
X0341Y04668*
X03409Y04669*
X03407Y04669*
X03405Y0467*
X03404Y0467*
X03402Y0467*
X034*
X03398Y0467*
X03397Y0467*
X03395Y04669*
X03393Y04669*
X03392Y04668*
X0339Y04668*
X03389Y04667*
X03387Y04666*
X03386Y04665*
X03384Y04664*
X03383Y04663*
X03382Y04661*
X03381Y0466*
X0338Y04658*
X03379Y04657*
X03378Y04655*
X03378Y04654*
X03377Y04652*
X03377Y0465*
X03376Y04649*
X03376Y04647*
X03376Y04645*
X03376Y04643*
X03376Y04642*
X03377Y0464*
X03377Y04638*
X03378Y04637*
X03378Y04635*
X03379Y04633*
X0338Y04632*
X03381Y0463*
X03382Y04629*
X03383Y04628*
X03384Y04627*
X03386Y04625*
X03387Y04624*
X03389Y04624*
X0339Y04623*
X03392Y04622*
X03393Y04621*
X03395Y04621*
X03397Y04621*
X03398Y0462*
X034Y0462*
X03402*
X03404Y0462*
X03405Y04621*
X03407Y04621*
X03409Y04621*
X0341Y04622*
X03412Y04623*
X03414Y04624*
X03415Y04624*
X03416Y04625*
X03418Y04627*
X03419Y04628*
X0342Y04629*
X03421Y0463*
X03422Y04632*
X03423Y04633*
X03424Y04635*
X03425Y04637*
X03425Y04638*
X03426Y0464*
X03426Y04642*
X03426Y04643*
X03426Y04645*
X03028Y03598D02*
D01*
X03028Y036*
X03028Y03601*
X03028Y03603*
X03027Y03605*
X03027Y03606*
X03026Y03608*
X03026Y0361*
X03025Y03611*
X03024Y03613*
X03023Y03614*
X03021Y03615*
X0302Y03616*
X03019Y03618*
X03017Y03619*
X03016Y0362*
X03014Y0362*
X03013Y03621*
X03011Y03622*
X03009Y03622*
X03008Y03623*
X03006Y03623*
X03004Y03623*
X03003*
X03001Y03623*
X02999Y03623*
X02997Y03622*
X02996Y03622*
X02994Y03621*
X02992Y0362*
X02991Y0362*
X02989Y03619*
X02988Y03618*
X02987Y03616*
X02985Y03615*
X02984Y03614*
X02983Y03613*
X02982Y03611*
X02981Y0361*
X02981Y03608*
X0298Y03606*
X02979Y03605*
X02979Y03603*
X02979Y03601*
X02979Y036*
X02978Y03598*
X02979Y03596*
X02979Y03594*
X02979Y03593*
X02979Y03591*
X0298Y03589*
X02981Y03588*
X02981Y03586*
X02982Y03585*
X02983Y03583*
X02984Y03582*
X02985Y03581*
X02987Y03579*
X02988Y03578*
X02989Y03577*
X02991Y03576*
X02992Y03575*
X02994Y03575*
X02996Y03574*
X02997Y03574*
X02999Y03573*
X03001Y03573*
X03003Y03573*
X03004*
X03006Y03573*
X03008Y03573*
X03009Y03574*
X03011Y03574*
X03013Y03575*
X03014Y03575*
X03016Y03576*
X03017Y03577*
X03019Y03578*
X0302Y03579*
X03021Y03581*
X03023Y03582*
X03024Y03583*
X03025Y03585*
X03026Y03586*
X03026Y03588*
X03027Y03589*
X03027Y03591*
X03028Y03593*
X03028Y03594*
X03028Y03596*
X03028Y03598*
X0504Y03889D02*
D01*
X0504Y03891*
X0504Y03893*
X0504Y03894*
X05039Y03896*
X05039Y03898*
X05038Y03899*
X05037Y03901*
X05036Y03903*
X05035Y03904*
X05034Y03905*
X05033Y03907*
X05032Y03908*
X05031Y03909*
X05029Y0391*
X05028Y03911*
X05026Y03912*
X05025Y03912*
X05023Y03913*
X05021Y03914*
X0502Y03914*
X05018Y03914*
X05016Y03914*
X05014*
X05013Y03914*
X05011Y03914*
X05009Y03914*
X05008Y03913*
X05006Y03912*
X05004Y03912*
X05003Y03911*
X05001Y0391*
X05Y03909*
X04999Y03908*
X04997Y03907*
X04996Y03905*
X04995Y03904*
X04994Y03903*
X04993Y03901*
X04992Y03899*
X04992Y03898*
X04991Y03896*
X04991Y03894*
X0499Y03893*
X0499Y03891*
X0499Y03889*
X0499Y03888*
X0499Y03886*
X04991Y03884*
X04991Y03882*
X04992Y03881*
X04992Y03879*
X04993Y03878*
X04994Y03876*
X04995Y03875*
X04996Y03873*
X04997Y03872*
X04999Y03871*
X05Y0387*
X05001Y03869*
X05003Y03868*
X05004Y03867*
X05006Y03866*
X05008Y03865*
X05009Y03865*
X05011Y03865*
X05013Y03864*
X05014Y03864*
X05016*
X05018Y03864*
X0502Y03865*
X05021Y03865*
X05023Y03865*
X05025Y03866*
X05026Y03867*
X05028Y03868*
X05029Y03869*
X05031Y0387*
X05032Y03871*
X05033Y03872*
X05034Y03873*
X05035Y03875*
X05036Y03876*
X05037Y03878*
X05038Y03879*
X05039Y03881*
X05039Y03882*
X0504Y03884*
X0504Y03886*
X0504Y03888*
X0504Y03889*
X04418Y04688D02*
D01*
X04418Y0469*
X04418Y04692*
X04418Y04694*
X04417Y04695*
X04417Y04697*
X04416Y04699*
X04415Y047*
X04414Y04702*
X04413Y04703*
X04412Y04705*
X04411Y04706*
X0441Y04707*
X04409Y04708*
X04407Y04709*
X04406Y0471*
X04404Y04711*
X04403Y04712*
X04401Y04712*
X04399Y04713*
X04398Y04713*
X04396Y04713*
X04394Y04713*
X04392*
X04391Y04713*
X04389Y04713*
X04387Y04713*
X04385Y04712*
X04384Y04712*
X04382Y04711*
X04381Y0471*
X04379Y04709*
X04378Y04708*
X04376Y04707*
X04375Y04706*
X04374Y04705*
X04373Y04703*
X04372Y04702*
X04371Y047*
X0437Y04699*
X0437Y04697*
X04369Y04695*
X04369Y04694*
X04368Y04692*
X04368Y0469*
X04368Y04688*
X04368Y04687*
X04368Y04685*
X04369Y04683*
X04369Y04682*
X0437Y0468*
X0437Y04678*
X04371Y04677*
X04372Y04675*
X04373Y04674*
X04374Y04672*
X04375Y04671*
X04376Y0467*
X04378Y04669*
X04379Y04668*
X04381Y04667*
X04382Y04666*
X04384Y04665*
X04385Y04665*
X04387Y04664*
X04389Y04664*
X04391Y04664*
X04392Y04663*
X04394*
X04396Y04664*
X04398Y04664*
X04399Y04664*
X04401Y04665*
X04403Y04665*
X04404Y04666*
X04406Y04667*
X04407Y04668*
X04409Y04669*
X0441Y0467*
X04411Y04671*
X04412Y04672*
X04413Y04674*
X04414Y04675*
X04415Y04677*
X04416Y04678*
X04417Y0468*
X04417Y04682*
X04418Y04683*
X04418Y04685*
X04418Y04687*
X04418Y04688*
X0291Y04523D02*
D01*
X0291Y04525*
X0291Y04527*
X0291Y04528*
X02909Y0453*
X02909Y04532*
X02908Y04533*
X02907Y04535*
X02907Y04536*
X02906Y04538*
X02904Y04539*
X02903Y0454*
X02902Y04542*
X02901Y04543*
X02899Y04544*
X02898Y04545*
X02896Y04546*
X02895Y04546*
X02893Y04547*
X02891Y04547*
X0289Y04548*
X02888Y04548*
X02886Y04548*
X02884*
X02883Y04548*
X02881Y04548*
X02879Y04547*
X02878Y04547*
X02876Y04546*
X02874Y04546*
X02873Y04545*
X02871Y04544*
X0287Y04543*
X02869Y04542*
X02867Y0454*
X02866Y04539*
X02865Y04538*
X02864Y04536*
X02863Y04535*
X02862Y04533*
X02862Y04532*
X02861Y0453*
X02861Y04528*
X02861Y04527*
X0286Y04525*
X0286Y04523*
X0286Y04521*
X02861Y0452*
X02861Y04518*
X02861Y04516*
X02862Y04515*
X02862Y04513*
X02863Y04511*
X02864Y0451*
X02865Y04508*
X02866Y04507*
X02867Y04506*
X02869Y04505*
X0287Y04503*
X02871Y04502*
X02873Y04501*
X02874Y04501*
X02876Y045*
X02878Y04499*
X02879Y04499*
X02881Y04498*
X02883Y04498*
X02884Y04498*
X02886*
X02888Y04498*
X0289Y04498*
X02891Y04499*
X02893Y04499*
X02895Y045*
X02896Y04501*
X02898Y04501*
X02899Y04502*
X02901Y04503*
X02902Y04505*
X02903Y04506*
X02904Y04507*
X02906Y04508*
X02907Y0451*
X02907Y04511*
X02908Y04513*
X02909Y04515*
X02909Y04516*
X0291Y04518*
X0291Y0452*
X0291Y04521*
X0291Y04523*
X02717Y04177D02*
D01*
X02717Y04178*
X02717Y0418*
X02717Y04182*
X02716Y04184*
X02716Y04185*
X02715Y04187*
X02714Y04188*
X02714Y0419*
X02713Y04191*
X02712Y04193*
X0271Y04194*
X02709Y04195*
X02708Y04196*
X02706Y04197*
X02705Y04198*
X02703Y04199*
X02702Y042*
X027Y042*
X02698Y04201*
X02697Y04201*
X02695Y04202*
X02693Y04202*
X02692*
X0269Y04202*
X02688Y04201*
X02686Y04201*
X02685Y042*
X02683Y042*
X02681Y04199*
X0268Y04198*
X02678Y04197*
X02677Y04196*
X02676Y04195*
X02674Y04194*
X02673Y04193*
X02672Y04191*
X02671Y0419*
X0267Y04188*
X0267Y04187*
X02669Y04185*
X02668Y04184*
X02668Y04182*
X02668Y0418*
X02667Y04178*
X02667Y04177*
X02667Y04175*
X02668Y04173*
X02668Y04171*
X02668Y0417*
X02669Y04168*
X0267Y04167*
X0267Y04165*
X02671Y04163*
X02672Y04162*
X02673Y04161*
X02674Y04159*
X02676Y04158*
X02677Y04157*
X02678Y04156*
X0268Y04155*
X02681Y04154*
X02683Y04153*
X02685Y04153*
X02686Y04152*
X02688Y04152*
X0269Y04152*
X02692Y04152*
X02693*
X02695Y04152*
X02697Y04152*
X02698Y04152*
X027Y04153*
X02702Y04153*
X02703Y04154*
X02705Y04155*
X02706Y04156*
X02708Y04157*
X02709Y04158*
X0271Y04159*
X02712Y04161*
X02713Y04162*
X02714Y04163*
X02714Y04165*
X02715Y04167*
X02716Y04168*
X02716Y0417*
X02717Y04171*
X02717Y04173*
X02717Y04175*
X02717Y04177*
X04284Y0448D02*
D01*
X04284Y04482*
X04284Y04483*
X04284Y04485*
X04283Y04487*
X04283Y04488*
X04282Y0449*
X04281Y04492*
X04281Y04493*
X0428Y04495*
X04278Y04496*
X04277Y04497*
X04276Y04498*
X04275Y045*
X04273Y04501*
X04272Y04501*
X0427Y04502*
X04269Y04503*
X04267Y04504*
X04265Y04504*
X04264Y04504*
X04262Y04505*
X0426Y04505*
X04258*
X04257Y04505*
X04255Y04504*
X04253Y04504*
X04252Y04504*
X0425Y04503*
X04248Y04502*
X04247Y04501*
X04245Y04501*
X04244Y045*
X04243Y04498*
X04241Y04497*
X0424Y04496*
X04239Y04495*
X04238Y04493*
X04237Y04492*
X04237Y0449*
X04236Y04488*
X04235Y04487*
X04235Y04485*
X04235Y04483*
X04234Y04482*
X04234Y0448*
X04234Y04478*
X04235Y04476*
X04235Y04475*
X04235Y04473*
X04236Y04471*
X04237Y0447*
X04237Y04468*
X04238Y04467*
X04239Y04465*
X0424Y04464*
X04241Y04462*
X04243Y04461*
X04244Y0446*
X04245Y04459*
X04247Y04458*
X04248Y04457*
X0425Y04457*
X04252Y04456*
X04253Y04456*
X04255Y04455*
X04257Y04455*
X04258Y04455*
X0426*
X04262Y04455*
X04264Y04455*
X04265Y04456*
X04267Y04456*
X04269Y04457*
X0427Y04457*
X04272Y04458*
X04273Y04459*
X04275Y0446*
X04276Y04461*
X04277Y04462*
X04278Y04464*
X0428Y04465*
X04281Y04467*
X04281Y04468*
X04282Y0447*
X04283Y04471*
X04283Y04473*
X04284Y04475*
X04284Y04476*
X04284Y04478*
X04284Y0448*
X04934Y03911D02*
D01*
X04934Y03913*
X04934Y03914*
X04933Y03916*
X04933Y03918*
X04932Y03919*
X04932Y03921*
X04931Y03923*
X0493Y03924*
X04929Y03926*
X04928Y03927*
X04927Y03928*
X04926Y03929*
X04924Y03931*
X04923Y03932*
X04921Y03933*
X0492Y03933*
X04918Y03934*
X04917Y03935*
X04915Y03935*
X04913Y03936*
X04912Y03936*
X0491Y03936*
X04908*
X04906Y03936*
X04905Y03936*
X04903Y03935*
X04901Y03935*
X049Y03934*
X04898Y03933*
X04896Y03933*
X04895Y03932*
X04894Y03931*
X04892Y03929*
X04891Y03928*
X0489Y03927*
X04889Y03926*
X04888Y03924*
X04887Y03923*
X04886Y03921*
X04885Y03919*
X04885Y03918*
X04884Y03916*
X04884Y03914*
X04884Y03913*
X04884Y03911*
X04884Y03909*
X04884Y03907*
X04884Y03906*
X04885Y03904*
X04885Y03902*
X04886Y03901*
X04887Y03899*
X04888Y03898*
X04889Y03896*
X0489Y03895*
X04891Y03894*
X04892Y03892*
X04894Y03891*
X04895Y0389*
X04896Y03889*
X04898Y03888*
X049Y03888*
X04901Y03887*
X04903Y03887*
X04905Y03886*
X04906Y03886*
X04908Y03886*
X0491*
X04912Y03886*
X04913Y03886*
X04915Y03887*
X04917Y03887*
X04918Y03888*
X0492Y03888*
X04921Y03889*
X04923Y0389*
X04924Y03891*
X04926Y03892*
X04927Y03894*
X04928Y03895*
X04929Y03896*
X0493Y03898*
X04931Y03899*
X04932Y03901*
X04932Y03902*
X04933Y03904*
X04933Y03906*
X04934Y03907*
X04934Y03909*
X04934Y03911*
X04391Y03905D02*
D01*
X04391Y03907*
X04391Y03908*
X04391Y0391*
X0439Y03912*
X0439Y03914*
X04389Y03915*
X04388Y03917*
X04388Y03918*
X04387Y0392*
X04385Y03921*
X04384Y03922*
X04383Y03924*
X04382Y03925*
X0438Y03926*
X04379Y03927*
X04377Y03927*
X04376Y03928*
X04374Y03929*
X04372Y03929*
X04371Y0393*
X04369Y0393*
X04367Y0393*
X04365*
X04364Y0393*
X04362Y0393*
X0436Y03929*
X04359Y03929*
X04357Y03928*
X04355Y03927*
X04354Y03927*
X04352Y03926*
X04351Y03925*
X0435Y03924*
X04348Y03922*
X04347Y03921*
X04346Y0392*
X04345Y03918*
X04344Y03917*
X04343Y03915*
X04343Y03914*
X04342Y03912*
X04342Y0391*
X04342Y03908*
X04341Y03907*
X04341Y03905*
X04341Y03903*
X04342Y03902*
X04342Y039*
X04342Y03898*
X04343Y03896*
X04343Y03895*
X04344Y03893*
X04345Y03892*
X04346Y0389*
X04347Y03889*
X04348Y03888*
X0435Y03886*
X04351Y03885*
X04352Y03884*
X04354Y03883*
X04355Y03883*
X04357Y03882*
X04359Y03881*
X0436Y03881*
X04362Y0388*
X04364Y0388*
X04365Y0388*
X04367*
X04369Y0388*
X04371Y0388*
X04372Y03881*
X04374Y03881*
X04376Y03882*
X04377Y03883*
X04379Y03883*
X0438Y03884*
X04382Y03885*
X04383Y03886*
X04384Y03888*
X04385Y03889*
X04387Y0389*
X04388Y03892*
X04388Y03893*
X04389Y03895*
X0439Y03896*
X0439Y03898*
X04391Y039*
X04391Y03902*
X04391Y03903*
X04391Y03905*
X04241Y03838D02*
D01*
X04241Y0384*
X04241Y03842*
X0424Y03843*
X0424Y03845*
X0424Y03847*
X04239Y03848*
X04238Y0385*
X04237Y03851*
X04236Y03853*
X04235Y03854*
X04234Y03855*
X04233Y03857*
X04231Y03858*
X0423Y03859*
X04229Y0386*
X04227Y03861*
X04225Y03861*
X04224Y03862*
X04222Y03862*
X0422Y03863*
X04219Y03863*
X04217Y03863*
X04215*
X04213Y03863*
X04212Y03863*
X0421Y03862*
X04208Y03862*
X04207Y03861*
X04205Y03861*
X04204Y0386*
X04202Y03859*
X04201Y03858*
X04199Y03857*
X04198Y03855*
X04197Y03854*
X04196Y03853*
X04195Y03851*
X04194Y0385*
X04193Y03848*
X04193Y03847*
X04192Y03845*
X04192Y03843*
X04191Y03842*
X04191Y0384*
X04191Y03838*
X04191Y03836*
X04191Y03835*
X04192Y03833*
X04192Y03831*
X04193Y0383*
X04193Y03828*
X04194Y03826*
X04195Y03825*
X04196Y03823*
X04197Y03822*
X04198Y03821*
X04199Y0382*
X04201Y03818*
X04202Y03817*
X04204Y03816*
X04205Y03816*
X04207Y03815*
X04208Y03814*
X0421Y03814*
X04212Y03813*
X04213Y03813*
X04215Y03813*
X04217*
X04219Y03813*
X0422Y03813*
X04222Y03814*
X04224Y03814*
X04225Y03815*
X04227Y03816*
X04229Y03816*
X0423Y03817*
X04231Y03818*
X04233Y0382*
X04234Y03821*
X04235Y03822*
X04236Y03823*
X04237Y03825*
X04238Y03826*
X04239Y03828*
X0424Y0383*
X0424Y03831*
X0424Y03833*
X04241Y03835*
X04241Y03836*
X04241Y03838*
X03965Y03909D02*
D01*
X03965Y03911*
X03965Y03912*
X03965Y03914*
X03964Y03916*
X03964Y03918*
X03963Y03919*
X03963Y03921*
X03962Y03922*
X03961Y03924*
X0396Y03925*
X03958Y03926*
X03957Y03928*
X03956Y03929*
X03954Y0393*
X03953Y03931*
X03951Y03931*
X0395Y03932*
X03948Y03933*
X03946Y03933*
X03945Y03934*
X03943Y03934*
X03941Y03934*
X0394*
X03938Y03934*
X03936Y03934*
X03934Y03933*
X03933Y03933*
X03931Y03932*
X03929Y03931*
X03928Y03931*
X03926Y0393*
X03925Y03929*
X03924Y03928*
X03922Y03926*
X03921Y03925*
X0392Y03924*
X03919Y03922*
X03918Y03921*
X03918Y03919*
X03917Y03918*
X03916Y03916*
X03916Y03914*
X03916Y03912*
X03916Y03911*
X03915Y03909*
X03916Y03907*
X03916Y03905*
X03916Y03904*
X03916Y03902*
X03917Y039*
X03918Y03899*
X03918Y03897*
X03919Y03896*
X0392Y03894*
X03921Y03893*
X03922Y03892*
X03924Y0389*
X03925Y03889*
X03926Y03888*
X03928Y03887*
X03929Y03886*
X03931Y03886*
X03933Y03885*
X03934Y03885*
X03936Y03884*
X03938Y03884*
X0394Y03884*
X03941*
X03943Y03884*
X03945Y03884*
X03946Y03885*
X03948Y03885*
X0395Y03886*
X03951Y03886*
X03953Y03887*
X03954Y03888*
X03956Y03889*
X03957Y0389*
X03958Y03892*
X0396Y03893*
X03961Y03894*
X03962Y03896*
X03963Y03897*
X03963Y03899*
X03964Y039*
X03964Y03902*
X03965Y03904*
X03965Y03905*
X03965Y03907*
X03965Y03909*
X03635Y03657D02*
D01*
X03635Y03659*
X03634Y0366*
X03634Y03662*
X03634Y03664*
X03633Y03666*
X03633Y03667*
X03632Y03669*
X03631Y0367*
X0363Y03672*
X03629Y03673*
X03628Y03674*
X03626Y03676*
X03625Y03677*
X03624Y03678*
X03622Y03679*
X03621Y03679*
X03619Y0368*
X03617Y03681*
X03616Y03681*
X03614Y03682*
X03612Y03682*
X03611Y03682*
X03609*
X03607Y03682*
X03605Y03682*
X03604Y03681*
X03602Y03681*
X036Y0368*
X03599Y03679*
X03597Y03679*
X03596Y03678*
X03594Y03677*
X03593Y03676*
X03592Y03674*
X03591Y03673*
X0359Y03672*
X03589Y0367*
X03588Y03669*
X03587Y03667*
X03586Y03666*
X03586Y03664*
X03585Y03662*
X03585Y0366*
X03585Y03659*
X03585Y03657*
X03585Y03655*
X03585Y03654*
X03585Y03652*
X03586Y0365*
X03586Y03648*
X03587Y03647*
X03588Y03645*
X03589Y03644*
X0359Y03642*
X03591Y03641*
X03592Y0364*
X03593Y03638*
X03594Y03637*
X03596Y03636*
X03597Y03635*
X03599Y03635*
X036Y03634*
X03602Y03633*
X03604Y03633*
X03605Y03632*
X03607Y03632*
X03609Y03632*
X03611*
X03612Y03632*
X03614Y03632*
X03616Y03633*
X03617Y03633*
X03619Y03634*
X03621Y03635*
X03622Y03635*
X03624Y03636*
X03625Y03637*
X03626Y03638*
X03628Y0364*
X03629Y03641*
X0363Y03642*
X03631Y03644*
X03632Y03645*
X03633Y03647*
X03633Y03648*
X03634Y0365*
X03634Y03652*
X03634Y03654*
X03635Y03655*
X03635Y03657*
X04099Y04523D02*
D01*
X04099Y04525*
X04099Y04527*
X04099Y04528*
X04098Y0453*
X04098Y04532*
X04097Y04533*
X04096Y04535*
X04096Y04536*
X04095Y04538*
X04093Y04539*
X04092Y0454*
X04091Y04542*
X0409Y04543*
X04088Y04544*
X04087Y04545*
X04085Y04546*
X04084Y04546*
X04082Y04547*
X0408Y04547*
X04079Y04548*
X04077Y04548*
X04075Y04548*
X04073*
X04072Y04548*
X0407Y04548*
X04068Y04547*
X04067Y04547*
X04065Y04546*
X04063Y04546*
X04062Y04545*
X0406Y04544*
X04059Y04543*
X04058Y04542*
X04056Y0454*
X04055Y04539*
X04054Y04538*
X04053Y04536*
X04052Y04535*
X04051Y04533*
X04051Y04532*
X0405Y0453*
X0405Y04528*
X0405Y04527*
X04049Y04525*
X04049Y04523*
X04049Y04521*
X0405Y0452*
X0405Y04518*
X0405Y04516*
X04051Y04515*
X04051Y04513*
X04052Y04511*
X04053Y0451*
X04054Y04508*
X04055Y04507*
X04056Y04506*
X04058Y04505*
X04059Y04503*
X0406Y04502*
X04062Y04501*
X04063Y04501*
X04065Y045*
X04067Y04499*
X04068Y04499*
X0407Y04498*
X04072Y04498*
X04073Y04498*
X04075*
X04077Y04498*
X04079Y04498*
X0408Y04499*
X04082Y04499*
X04084Y045*
X04085Y04501*
X04087Y04501*
X04088Y04502*
X0409Y04503*
X04091Y04505*
X04092Y04506*
X04093Y04507*
X04095Y04508*
X04096Y0451*
X04096Y04511*
X04097Y04513*
X04098Y04515*
X04098Y04516*
X04099Y04518*
X04099Y0452*
X04099Y04521*
X04099Y04523*
X04028Y03653D02*
D01*
X04028Y03655*
X04028Y03657*
X04028Y03658*
X04027Y0366*
X04027Y03662*
X04026Y03663*
X04026Y03665*
X04025Y03666*
X04024Y03668*
X04023Y03669*
X04021Y0367*
X0402Y03672*
X04019Y03673*
X04017Y03674*
X04016Y03675*
X04014Y03676*
X04013Y03676*
X04011Y03677*
X04009Y03677*
X04008Y03678*
X04006Y03678*
X04004Y03678*
X04003*
X04001Y03678*
X03999Y03678*
X03997Y03677*
X03996Y03677*
X03994Y03676*
X03992Y03676*
X03991Y03675*
X03989Y03674*
X03988Y03673*
X03987Y03672*
X03985Y0367*
X03984Y03669*
X03983Y03668*
X03982Y03666*
X03981Y03665*
X03981Y03663*
X0398Y03662*
X03979Y0366*
X03979Y03658*
X03979Y03657*
X03979Y03655*
X03978Y03653*
X03979Y03651*
X03979Y0365*
X03979Y03648*
X03979Y03646*
X0398Y03644*
X03981Y03643*
X03981Y03641*
X03982Y0364*
X03983Y03638*
X03984Y03637*
X03985Y03636*
X03987Y03634*
X03988Y03633*
X03989Y03632*
X03991Y03631*
X03992Y03631*
X03994Y0363*
X03996Y03629*
X03997Y03629*
X03999Y03628*
X04001Y03628*
X04003Y03628*
X04004*
X04006Y03628*
X04008Y03628*
X04009Y03629*
X04011Y03629*
X04013Y0363*
X04014Y03631*
X04016Y03631*
X04017Y03632*
X04019Y03633*
X0402Y03634*
X04021Y03636*
X04023Y03637*
X04024Y03638*
X04025Y0364*
X04026Y03641*
X04026Y03643*
X04027Y03644*
X04027Y03646*
X04028Y03648*
X04028Y0365*
X04028Y03651*
X04028Y03653*
X03883Y04055D02*
D01*
X03883Y04056*
X03883Y04058*
X03882Y0406*
X03882Y04062*
X03881Y04063*
X03881Y04065*
X0388Y04066*
X03879Y04068*
X03878Y04069*
X03877Y04071*
X03876Y04072*
X03874Y04073*
X03873Y04074*
X03872Y04075*
X0387Y04076*
X03869Y04077*
X03867Y04078*
X03865Y04078*
X03864Y04079*
X03862Y04079*
X0386Y04079*
X03859Y0408*
X03857*
X03855Y04079*
X03853Y04079*
X03852Y04079*
X0385Y04078*
X03848Y04078*
X03847Y04077*
X03845Y04076*
X03844Y04075*
X03842Y04074*
X03841Y04073*
X0384Y04072*
X03839Y04071*
X03838Y04069*
X03837Y04068*
X03836Y04066*
X03835Y04065*
X03834Y04063*
X03834Y04062*
X03833Y0406*
X03833Y04058*
X03833Y04056*
X03833Y04055*
X03833Y04053*
X03833Y04051*
X03833Y04049*
X03834Y04048*
X03834Y04046*
X03835Y04044*
X03836Y04043*
X03837Y04041*
X03838Y0404*
X03839Y04039*
X0384Y04037*
X03841Y04036*
X03842Y04035*
X03844Y04034*
X03845Y04033*
X03847Y04032*
X03848Y04031*
X0385Y04031*
X03852Y0403*
X03853Y0403*
X03855Y0403*
X03857Y0403*
X03859*
X0386Y0403*
X03862Y0403*
X03864Y0403*
X03865Y04031*
X03867Y04031*
X03869Y04032*
X0387Y04033*
X03872Y04034*
X03873Y04035*
X03874Y04036*
X03876Y04037*
X03877Y04039*
X03878Y0404*
X03879Y04041*
X0388Y04043*
X03881Y04044*
X03881Y04046*
X03882Y04048*
X03882Y04049*
X03883Y04051*
X03883Y04053*
X03883Y04055*
X03788Y03996D02*
D01*
X03788Y03997*
X03788Y03999*
X03788Y04001*
X03787Y04002*
X03787Y04004*
X03786Y04006*
X03785Y04007*
X03784Y04009*
X03784Y0401*
X03782Y04012*
X03781Y04013*
X0378Y04014*
X03779Y04015*
X03777Y04016*
X03776Y04017*
X03774Y04018*
X03773Y04019*
X03771Y04019*
X03769Y0402*
X03768Y0402*
X03766Y0402*
X03764Y04021*
X03762*
X03761Y0402*
X03759Y0402*
X03757Y0402*
X03756Y04019*
X03754Y04019*
X03752Y04018*
X03751Y04017*
X03749Y04016*
X03748Y04015*
X03747Y04014*
X03745Y04013*
X03744Y04012*
X03743Y0401*
X03742Y04009*
X03741Y04007*
X0374Y04006*
X0374Y04004*
X03739Y04002*
X03739Y04001*
X03739Y03999*
X03738Y03997*
X03738Y03996*
X03738Y03994*
X03739Y03992*
X03739Y0399*
X03739Y03989*
X0374Y03987*
X0374Y03985*
X03741Y03984*
X03742Y03982*
X03743Y03981*
X03744Y03979*
X03745Y03978*
X03747Y03977*
X03748Y03976*
X03749Y03975*
X03751Y03974*
X03752Y03973*
X03754Y03972*
X03756Y03972*
X03757Y03971*
X03759Y03971*
X03761Y03971*
X03762Y03971*
X03764*
X03766Y03971*
X03768Y03971*
X03769Y03971*
X03771Y03972*
X03773Y03972*
X03774Y03973*
X03776Y03974*
X03777Y03975*
X03779Y03976*
X0378Y03977*
X03781Y03978*
X03782Y03979*
X03784Y03981*
X03784Y03982*
X03785Y03984*
X03786Y03985*
X03787Y03987*
X03787Y03989*
X03788Y0399*
X03788Y03992*
X03788Y03994*
X03788Y03996*
X04599Y03783D02*
D01*
X04599Y03785*
X04599Y03786*
X04599Y03788*
X04598Y0379*
X04598Y03792*
X04597Y03793*
X04596Y03795*
X04596Y03796*
X04595Y03798*
X04593Y03799*
X04592Y038*
X04591Y03802*
X0459Y03803*
X04588Y03804*
X04587Y03805*
X04585Y03805*
X04584Y03806*
X04582Y03807*
X0458Y03807*
X04579Y03808*
X04577Y03808*
X04575Y03808*
X04573*
X04572Y03808*
X0457Y03808*
X04568Y03807*
X04567Y03807*
X04565Y03806*
X04563Y03805*
X04562Y03805*
X0456Y03804*
X04559Y03803*
X04558Y03802*
X04556Y038*
X04555Y03799*
X04554Y03798*
X04553Y03796*
X04552Y03795*
X04551Y03793*
X04551Y03792*
X0455Y0379*
X0455Y03788*
X0455Y03786*
X04549Y03785*
X04549Y03783*
X04549Y03781*
X0455Y03779*
X0455Y03778*
X0455Y03776*
X04551Y03774*
X04551Y03773*
X04552Y03771*
X04553Y0377*
X04554Y03768*
X04555Y03767*
X04556Y03766*
X04558Y03764*
X04559Y03763*
X0456Y03762*
X04562Y03761*
X04563Y0376*
X04565Y0376*
X04567Y03759*
X04568Y03759*
X0457Y03758*
X04572Y03758*
X04573Y03758*
X04575*
X04577Y03758*
X04579Y03758*
X0458Y03759*
X04582Y03759*
X04584Y0376*
X04585Y0376*
X04587Y03761*
X04588Y03762*
X0459Y03763*
X04591Y03764*
X04592Y03766*
X04593Y03767*
X04595Y03768*
X04596Y0377*
X04596Y03771*
X04597Y03773*
X04598Y03774*
X04598Y03776*
X04599Y03778*
X04599Y03779*
X04599Y03781*
X04599Y03783*
X04245Y03625D02*
D01*
X04245Y03627*
X04245Y03629*
X04244Y03631*
X04244Y03632*
X04243Y03634*
X04243Y03636*
X04242Y03637*
X04241Y03639*
X0424Y0364*
X04239Y03642*
X04238Y03643*
X04237Y03644*
X04235Y03645*
X04234Y03646*
X04232Y03647*
X04231Y03648*
X04229Y03649*
X04228Y03649*
X04226Y0365*
X04224Y0365*
X04223Y0365*
X04221Y0365*
X04219*
X04217Y0365*
X04216Y0365*
X04214Y0365*
X04212Y03649*
X04211Y03649*
X04209Y03648*
X04207Y03647*
X04206Y03646*
X04205Y03645*
X04203Y03644*
X04202Y03643*
X04201Y03642*
X042Y0364*
X04199Y03639*
X04198Y03637*
X04197Y03636*
X04196Y03634*
X04196Y03632*
X04196Y03631*
X04195Y03629*
X04195Y03627*
X04195Y03625*
X04195Y03624*
X04195Y03622*
X04196Y0362*
X04196Y03619*
X04196Y03617*
X04197Y03615*
X04198Y03614*
X04199Y03612*
X042Y03611*
X04201Y03609*
X04202Y03608*
X04203Y03607*
X04205Y03606*
X04206Y03605*
X04207Y03604*
X04209Y03603*
X04211Y03602*
X04212Y03602*
X04214Y03601*
X04216Y03601*
X04217Y03601*
X04219Y036*
X04221*
X04223Y03601*
X04224Y03601*
X04226Y03601*
X04228Y03602*
X04229Y03602*
X04231Y03603*
X04232Y03604*
X04234Y03605*
X04235Y03606*
X04237Y03607*
X04238Y03608*
X04239Y03609*
X0424Y03611*
X04241Y03612*
X04242Y03614*
X04243Y03615*
X04243Y03617*
X04244Y03619*
X04244Y0362*
X04245Y03622*
X04245Y03624*
X04245Y03625*
X03812Y04208D02*
D01*
X03812Y0421*
X03812Y04212*
X03811Y04213*
X03811Y04215*
X0381Y04217*
X0381Y04218*
X03809Y0422*
X03808Y04221*
X03807Y04223*
X03806Y04224*
X03805Y04226*
X03804Y04227*
X03802Y04228*
X03801Y04229*
X03799Y0423*
X03798Y04231*
X03796Y04231*
X03795Y04232*
X03793Y04232*
X03791Y04233*
X0379Y04233*
X03788Y04233*
X03786*
X03784Y04233*
X03783Y04233*
X03781Y04232*
X03779Y04232*
X03778Y04231*
X03776Y04231*
X03774Y0423*
X03773Y04229*
X03772Y04228*
X0377Y04227*
X03769Y04226*
X03768Y04224*
X03767Y04223*
X03766Y04221*
X03765Y0422*
X03764Y04218*
X03763Y04217*
X03763Y04215*
X03762Y04213*
X03762Y04212*
X03762Y0421*
X03762Y04208*
X03762Y04206*
X03762Y04205*
X03762Y04203*
X03763Y04201*
X03763Y042*
X03764Y04198*
X03765Y04196*
X03766Y04195*
X03767Y04193*
X03768Y04192*
X03769Y04191*
X0377Y0419*
X03772Y04188*
X03773Y04187*
X03774Y04187*
X03776Y04186*
X03778Y04185*
X03779Y04184*
X03781Y04184*
X03783Y04184*
X03784Y04183*
X03786Y04183*
X03788*
X0379Y04183*
X03791Y04184*
X03793Y04184*
X03795Y04184*
X03796Y04185*
X03798Y04186*
X03799Y04187*
X03801Y04187*
X03802Y04188*
X03804Y0419*
X03805Y04191*
X03806Y04192*
X03807Y04193*
X03808Y04195*
X03809Y04196*
X0381Y04198*
X0381Y042*
X03811Y04201*
X03811Y04203*
X03812Y04205*
X03812Y04206*
X03812Y04208*
X05154Y04665D02*
D01*
X05154Y04667*
X05154Y04668*
X05154Y0467*
X05153Y04672*
X05153Y04673*
X05152Y04675*
X05151Y04677*
X05151Y04678*
X0515Y0468*
X05149Y04681*
X05147Y04682*
X05146Y04683*
X05145Y04685*
X05143Y04686*
X05142Y04687*
X0514Y04687*
X05139Y04688*
X05137Y04689*
X05135Y04689*
X05134Y04689*
X05132Y0469*
X0513Y0469*
X05129*
X05127Y0469*
X05125Y04689*
X05123Y04689*
X05122Y04689*
X0512Y04688*
X05118Y04687*
X05117Y04687*
X05115Y04686*
X05114Y04685*
X05113Y04683*
X05111Y04682*
X0511Y04681*
X05109Y0468*
X05108Y04678*
X05107Y04677*
X05107Y04675*
X05106Y04673*
X05105Y04672*
X05105Y0467*
X05105Y04668*
X05104Y04667*
X05104Y04665*
X05104Y04663*
X05105Y04661*
X05105Y0466*
X05105Y04658*
X05106Y04656*
X05107Y04655*
X05107Y04653*
X05108Y04652*
X05109Y0465*
X0511Y04649*
X05111Y04647*
X05113Y04646*
X05114Y04645*
X05115Y04644*
X05117Y04643*
X05118Y04642*
X0512Y04642*
X05122Y04641*
X05123Y04641*
X05125Y0464*
X05127Y0464*
X05129Y0464*
X0513*
X05132Y0464*
X05134Y0464*
X05135Y04641*
X05137Y04641*
X05139Y04642*
X0514Y04642*
X05142Y04643*
X05143Y04644*
X05145Y04645*
X05146Y04646*
X05147Y04647*
X05149Y04649*
X0515Y0465*
X05151Y04652*
X05151Y04653*
X05152Y04655*
X05153Y04656*
X05153Y04658*
X05154Y0466*
X05154Y04661*
X05154Y04663*
X05154Y04665*
X0467Y04094D02*
D01*
X0467Y04096*
X0467Y04097*
X0467Y04099*
X04669Y04101*
X04669Y04103*
X04668Y04104*
X04667Y04106*
X04666Y04107*
X04665Y04109*
X04664Y0411*
X04663Y04111*
X04662Y04113*
X04661Y04114*
X04659Y04115*
X04658Y04116*
X04656Y04116*
X04655Y04117*
X04653Y04118*
X04651Y04118*
X0465Y04119*
X04648Y04119*
X04646Y04119*
X04644*
X04643Y04119*
X04641Y04119*
X04639Y04118*
X04637Y04118*
X04636Y04117*
X04634Y04116*
X04633Y04116*
X04631Y04115*
X0463Y04114*
X04628Y04113*
X04627Y04111*
X04626Y0411*
X04625Y04109*
X04624Y04107*
X04623Y04106*
X04622Y04104*
X04622Y04103*
X04621Y04101*
X04621Y04099*
X0462Y04097*
X0462Y04096*
X0462Y04094*
X0462Y04092*
X0462Y04091*
X04621Y04089*
X04621Y04087*
X04622Y04085*
X04622Y04084*
X04623Y04082*
X04624Y04081*
X04625Y04079*
X04626Y04078*
X04627Y04077*
X04628Y04075*
X0463Y04074*
X04631Y04073*
X04633Y04072*
X04634Y04072*
X04636Y04071*
X04637Y0407*
X04639Y0407*
X04641Y04069*
X04643Y04069*
X04644Y04069*
X04646*
X04648Y04069*
X0465Y04069*
X04651Y0407*
X04653Y0407*
X04655Y04071*
X04656Y04072*
X04658Y04072*
X04659Y04073*
X04661Y04074*
X04662Y04075*
X04663Y04077*
X04664Y04078*
X04665Y04079*
X04666Y04081*
X04667Y04082*
X04668Y04084*
X04669Y04085*
X04669Y04087*
X0467Y04089*
X0467Y04091*
X0467Y04092*
X0467Y04094*
X05339Y03751D02*
D01*
X05339Y03753*
X05339Y03755*
X05339Y03757*
X05338Y03758*
X05338Y0376*
X05337Y03762*
X05337Y03763*
X05336Y03765*
X05335Y03766*
X05334Y03768*
X05332Y03769*
X05331Y0377*
X0533Y03771*
X05328Y03772*
X05327Y03773*
X05325Y03774*
X05324Y03775*
X05322Y03775*
X05321Y03776*
X05319Y03776*
X05317Y03776*
X05315Y03776*
X05314*
X05312Y03776*
X0531Y03776*
X05308Y03776*
X05307Y03775*
X05305Y03775*
X05304Y03774*
X05302Y03773*
X053Y03772*
X05299Y03771*
X05298Y0377*
X05296Y03769*
X05295Y03768*
X05294Y03766*
X05293Y03765*
X05292Y03763*
X05292Y03762*
X05291Y0376*
X0529Y03758*
X0529Y03757*
X0529Y03755*
X0529Y03753*
X05289Y03751*
X0529Y0375*
X0529Y03748*
X0529Y03746*
X0529Y03745*
X05291Y03743*
X05292Y03741*
X05292Y0374*
X05293Y03738*
X05294Y03737*
X05295Y03735*
X05296Y03734*
X05298Y03733*
X05299Y03732*
X053Y03731*
X05302Y0373*
X05304Y03729*
X05305Y03728*
X05307Y03728*
X05308Y03727*
X0531Y03727*
X05312Y03727*
X05314Y03726*
X05315*
X05317Y03727*
X05319Y03727*
X05321Y03727*
X05322Y03728*
X05324Y03728*
X05325Y03729*
X05327Y0373*
X05328Y03731*
X0533Y03732*
X05331Y03733*
X05332Y03734*
X05334Y03735*
X05335Y03737*
X05336Y03738*
X05337Y0374*
X05337Y03741*
X05338Y03743*
X05338Y03745*
X05339Y03746*
X05339Y03748*
X05339Y0375*
X05339Y03751*
X0393Y04358D02*
D01*
X0393Y0436*
X0393Y04361*
X03929Y04363*
X03929Y04365*
X03929Y04366*
X03928Y04368*
X03927Y0437*
X03926Y04371*
X03925Y04372*
X03924Y04374*
X03923Y04375*
X03922Y04376*
X0392Y04377*
X03919Y04378*
X03918Y04379*
X03916Y0438*
X03914Y04381*
X03913Y04382*
X03911Y04382*
X03909Y04382*
X03908Y04383*
X03906Y04383*
X03904*
X03902Y04383*
X03901Y04382*
X03899Y04382*
X03897Y04382*
X03896Y04381*
X03894Y0438*
X03893Y04379*
X03891Y04378*
X0389Y04377*
X03888Y04376*
X03887Y04375*
X03886Y04374*
X03885Y04372*
X03884Y04371*
X03883Y0437*
X03882Y04368*
X03882Y04366*
X03881Y04365*
X03881Y04363*
X0388Y04361*
X0388Y0436*
X0388Y04358*
X0388Y04356*
X0388Y04354*
X03881Y04353*
X03881Y04351*
X03882Y04349*
X03882Y04348*
X03883Y04346*
X03884Y04345*
X03885Y04343*
X03886Y04342*
X03887Y0434*
X03888Y04339*
X0389Y04338*
X03891Y04337*
X03893Y04336*
X03894Y04335*
X03896Y04335*
X03897Y04334*
X03899Y04334*
X03901Y04333*
X03902Y04333*
X03904Y04333*
X03906*
X03908Y04333*
X03909Y04333*
X03911Y04334*
X03913Y04334*
X03914Y04335*
X03916Y04335*
X03918Y04336*
X03919Y04337*
X0392Y04338*
X03922Y04339*
X03923Y0434*
X03924Y04342*
X03925Y04343*
X03926Y04345*
X03927Y04346*
X03928Y04348*
X03929Y04349*
X03929Y04351*
X03929Y04353*
X0393Y04354*
X0393Y04356*
X0393Y04358*
X03328Y0444D02*
D01*
X03328Y04442*
X03327Y04444*
X03327Y04446*
X03327Y04447*
X03326Y04449*
X03325Y04451*
X03325Y04452*
X03324Y04454*
X03323Y04455*
X03322Y04457*
X03321Y04458*
X03319Y04459*
X03318Y0446*
X03317Y04461*
X03315Y04462*
X03314Y04463*
X03312Y04464*
X0331Y04464*
X03309Y04465*
X03307Y04465*
X03305Y04465*
X03304Y04465*
X03302*
X033Y04465*
X03298Y04465*
X03297Y04465*
X03295Y04464*
X03293Y04464*
X03292Y04463*
X0329Y04462*
X03289Y04461*
X03287Y0446*
X03286Y04459*
X03285Y04458*
X03283Y04457*
X03282Y04455*
X03281Y04454*
X03281Y04452*
X0328Y04451*
X03279Y04449*
X03279Y04447*
X03278Y04446*
X03278Y04444*
X03278Y04442*
X03278Y0444*
X03278Y04439*
X03278Y04437*
X03278Y04435*
X03279Y04434*
X03279Y04432*
X0328Y0443*
X03281Y04429*
X03281Y04427*
X03282Y04426*
X03283Y04424*
X03285Y04423*
X03286Y04422*
X03287Y04421*
X03289Y0442*
X0329Y04419*
X03292Y04418*
X03293Y04417*
X03295Y04417*
X03297Y04416*
X03298Y04416*
X033Y04416*
X03302Y04415*
X03304*
X03305Y04416*
X03307Y04416*
X03309Y04416*
X0331Y04417*
X03312Y04417*
X03314Y04418*
X03315Y04419*
X03317Y0442*
X03318Y04421*
X03319Y04422*
X03321Y04423*
X03322Y04424*
X03323Y04426*
X03324Y04427*
X03325Y04429*
X03325Y0443*
X03326Y04432*
X03327Y04434*
X03327Y04435*
X03327Y04437*
X03328Y04439*
X03328Y0444*
X04025Y03767D02*
D01*
X04024Y03769*
X04024Y03771*
X04024Y03772*
X04024Y03774*
X04023Y03776*
X04022Y03777*
X04022Y03779*
X04021Y0378*
X0402Y03782*
X04019Y03783*
X04017Y03785*
X04016Y03786*
X04015Y03787*
X04013Y03788*
X04012Y03789*
X0401Y0379*
X04009Y0379*
X04007Y03791*
X04006Y03791*
X04004Y03792*
X04002Y03792*
X04Y03792*
X03999*
X03997Y03792*
X03995Y03792*
X03993Y03791*
X03992Y03791*
X0399Y0379*
X03989Y0379*
X03987Y03789*
X03986Y03788*
X03984Y03787*
X03983Y03786*
X03982Y03785*
X0398Y03783*
X03979Y03782*
X03978Y0378*
X03977Y03779*
X03977Y03777*
X03976Y03776*
X03975Y03774*
X03975Y03772*
X03975Y03771*
X03975Y03769*
X03975Y03767*
X03975Y03765*
X03975Y03764*
X03975Y03762*
X03975Y0376*
X03976Y03759*
X03977Y03757*
X03977Y03755*
X03978Y03754*
X03979Y03753*
X0398Y03751*
X03982Y0375*
X03983Y03749*
X03984Y03748*
X03986Y03746*
X03987Y03746*
X03989Y03745*
X0399Y03744*
X03992Y03743*
X03993Y03743*
X03995Y03743*
X03997Y03742*
X03999Y03742*
X04*
X04002Y03742*
X04004Y03743*
X04006Y03743*
X04007Y03743*
X04009Y03744*
X0401Y03745*
X04012Y03746*
X04013Y03746*
X04015Y03748*
X04016Y03749*
X04017Y0375*
X04019Y03751*
X0402Y03753*
X04021Y03754*
X04022Y03755*
X04022Y03757*
X04023Y03759*
X04024Y0376*
X04024Y03762*
X04024Y03764*
X04024Y03765*
X04025Y03767*
X03465Y03657D02*
D01*
X03465Y03659*
X03465Y0366*
X03465Y03662*
X03464Y03664*
X03464Y03666*
X03463Y03667*
X03463Y03669*
X03462Y0367*
X03461Y03672*
X0346Y03673*
X03458Y03674*
X03457Y03676*
X03456Y03677*
X03454Y03678*
X03453Y03679*
X03451Y03679*
X0345Y0368*
X03448Y03681*
X03446Y03681*
X03445Y03682*
X03443Y03682*
X03441Y03682*
X0344*
X03438Y03682*
X03436Y03682*
X03434Y03681*
X03433Y03681*
X03431Y0368*
X03429Y03679*
X03428Y03679*
X03426Y03678*
X03425Y03677*
X03424Y03676*
X03422Y03674*
X03421Y03673*
X0342Y03672*
X03419Y0367*
X03418Y03669*
X03418Y03667*
X03417Y03666*
X03416Y03664*
X03416Y03662*
X03416Y0366*
X03416Y03659*
X03415Y03657*
X03416Y03655*
X03416Y03654*
X03416Y03652*
X03416Y0365*
X03417Y03648*
X03418Y03647*
X03418Y03645*
X03419Y03644*
X0342Y03642*
X03421Y03641*
X03422Y0364*
X03424Y03638*
X03425Y03637*
X03426Y03636*
X03428Y03635*
X03429Y03635*
X03431Y03634*
X03433Y03633*
X03434Y03633*
X03436Y03632*
X03438Y03632*
X0344Y03632*
X03441*
X03443Y03632*
X03445Y03632*
X03446Y03633*
X03448Y03633*
X0345Y03634*
X03451Y03635*
X03453Y03635*
X03454Y03636*
X03456Y03637*
X03457Y03638*
X03458Y0364*
X0346Y03641*
X03461Y03642*
X03462Y03644*
X03463Y03645*
X03463Y03647*
X03464Y03648*
X03464Y0365*
X03465Y03652*
X03465Y03654*
X03465Y03655*
X03465Y03657*
X03757Y03787D02*
D01*
X03757Y03789*
X03757Y0379*
X03756Y03792*
X03756Y03794*
X03755Y03795*
X03755Y03797*
X03754Y03799*
X03753Y038*
X03752Y03802*
X03751Y03803*
X0375Y03804*
X03749Y03805*
X03747Y03807*
X03746Y03808*
X03744Y03809*
X03743Y03809*
X03741Y0381*
X0374Y03811*
X03738Y03811*
X03736Y03812*
X03734Y03812*
X03733Y03812*
X03731*
X03729Y03812*
X03727Y03812*
X03726Y03811*
X03724Y03811*
X03722Y0381*
X03721Y03809*
X03719Y03809*
X03718Y03808*
X03716Y03807*
X03715Y03805*
X03714Y03804*
X03713Y03803*
X03712Y03802*
X03711Y038*
X0371Y03799*
X03709Y03797*
X03708Y03795*
X03708Y03794*
X03707Y03792*
X03707Y0379*
X03707Y03789*
X03707Y03787*
X03707Y03785*
X03707Y03783*
X03707Y03782*
X03708Y0378*
X03708Y03778*
X03709Y03777*
X0371Y03775*
X03711Y03774*
X03712Y03772*
X03713Y03771*
X03714Y0377*
X03715Y03768*
X03716Y03767*
X03718Y03766*
X03719Y03765*
X03721Y03764*
X03722Y03764*
X03724Y03763*
X03726Y03763*
X03727Y03762*
X03729Y03762*
X03731Y03762*
X03733*
X03734Y03762*
X03736Y03762*
X03738Y03763*
X0374Y03763*
X03741Y03764*
X03743Y03764*
X03744Y03765*
X03746Y03766*
X03747Y03767*
X03749Y03768*
X0375Y0377*
X03751Y03771*
X03752Y03772*
X03753Y03774*
X03754Y03775*
X03755Y03777*
X03755Y03778*
X03756Y0378*
X03756Y03782*
X03757Y03783*
X03757Y03785*
X03757Y03787*
X04111Y03976D02*
D01*
X04111Y03978*
X04111Y03979*
X04111Y03981*
X0411Y03983*
X0411Y03984*
X04109Y03986*
X04108Y03988*
X04107Y03989*
X04106Y03991*
X04105Y03992*
X04104Y03993*
X04103Y03994*
X04102Y03996*
X041Y03997*
X04099Y03998*
X04097Y03998*
X04095Y03999*
X04094Y04*
X04092Y04*
X0409Y04001*
X04089Y04001*
X04087Y04001*
X04085*
X04083Y04001*
X04082Y04001*
X0408Y04*
X04078Y04*
X04077Y03999*
X04075Y03998*
X04074Y03998*
X04072Y03997*
X04071Y03996*
X04069Y03994*
X04068Y03993*
X04067Y03992*
X04066Y03991*
X04065Y03989*
X04064Y03988*
X04063Y03986*
X04063Y03984*
X04062Y03983*
X04062Y03981*
X04061Y03979*
X04061Y03978*
X04061Y03976*
X04061Y03974*
X04061Y03972*
X04062Y03971*
X04062Y03969*
X04063Y03967*
X04063Y03966*
X04064Y03964*
X04065Y03963*
X04066Y03961*
X04067Y0396*
X04068Y03959*
X04069Y03957*
X04071Y03956*
X04072Y03955*
X04074Y03954*
X04075Y03953*
X04077Y03953*
X04078Y03952*
X0408Y03952*
X04082Y03951*
X04083Y03951*
X04085Y03951*
X04087*
X04089Y03951*
X0409Y03951*
X04092Y03952*
X04094Y03952*
X04095Y03953*
X04097Y03953*
X04099Y03954*
X041Y03955*
X04102Y03956*
X04103Y03957*
X04104Y03959*
X04105Y0396*
X04106Y03961*
X04107Y03963*
X04108Y03964*
X04109Y03966*
X0411Y03967*
X0411Y03969*
X04111Y03971*
X04111Y03972*
X04111Y03974*
X04111Y03976*
X03603Y04185D02*
D01*
X03603Y04186*
X03603Y04188*
X03603Y0419*
X03602Y04191*
X03602Y04193*
X03601Y04195*
X036Y04196*
X03599Y04198*
X03598Y04199*
X03597Y04201*
X03596Y04202*
X03595Y04203*
X03594Y04204*
X03592Y04205*
X03591Y04206*
X03589Y04207*
X03588Y04208*
X03586Y04208*
X03584Y04209*
X03583Y04209*
X03581Y04209*
X03579Y0421*
X03577*
X03576Y04209*
X03574Y04209*
X03572Y04209*
X03571Y04208*
X03569Y04208*
X03567Y04207*
X03566Y04206*
X03564Y04205*
X03563Y04204*
X03562Y04203*
X0356Y04202*
X03559Y04201*
X03558Y04199*
X03557Y04198*
X03556Y04196*
X03555Y04195*
X03555Y04193*
X03554Y04191*
X03554Y0419*
X03553Y04188*
X03553Y04186*
X03553Y04185*
X03553Y04183*
X03553Y04181*
X03554Y04179*
X03554Y04178*
X03555Y04176*
X03555Y04174*
X03556Y04173*
X03557Y04171*
X03558Y0417*
X03559Y04168*
X0356Y04167*
X03562Y04166*
X03563Y04165*
X03564Y04164*
X03566Y04163*
X03567Y04162*
X03569Y04161*
X03571Y04161*
X03572Y0416*
X03574Y0416*
X03576Y0416*
X03577Y0416*
X03579*
X03581Y0416*
X03583Y0416*
X03584Y0416*
X03586Y04161*
X03588Y04161*
X03589Y04162*
X03591Y04163*
X03592Y04164*
X03594Y04165*
X03595Y04166*
X03596Y04167*
X03597Y04168*
X03598Y0417*
X03599Y04171*
X036Y04173*
X03601Y04174*
X03602Y04176*
X03602Y04178*
X03603Y04179*
X03603Y04181*
X03603Y04183*
X03603Y04185*
X03493Y04059D02*
D01*
X03493Y0406*
X03493Y04062*
X03492Y04064*
X03492Y04065*
X03491Y04067*
X03491Y04069*
X0349Y0407*
X03489Y04072*
X03488Y04073*
X03487Y04075*
X03486Y04076*
X03485Y04077*
X03483Y04078*
X03482Y04079*
X03481Y0408*
X03479Y04081*
X03477Y04082*
X03476Y04082*
X03474Y04083*
X03472Y04083*
X03471Y04083*
X03469Y04084*
X03467*
X03465Y04083*
X03464Y04083*
X03462Y04083*
X0346Y04082*
X03459Y04082*
X03457Y04081*
X03456Y0408*
X03454Y04079*
X03453Y04078*
X03451Y04077*
X0345Y04076*
X03449Y04075*
X03448Y04073*
X03447Y04072*
X03446Y0407*
X03445Y04069*
X03445Y04067*
X03444Y04065*
X03444Y04064*
X03443Y04062*
X03443Y0406*
X03443Y04059*
X03443Y04057*
X03443Y04055*
X03444Y04053*
X03444Y04052*
X03445Y0405*
X03445Y04048*
X03446Y04047*
X03447Y04045*
X03448Y04044*
X03449Y04042*
X0345Y04041*
X03451Y0404*
X03453Y04039*
X03454Y04038*
X03456Y04037*
X03457Y04036*
X03459Y04035*
X0346Y04035*
X03462Y04034*
X03464Y04034*
X03465Y04034*
X03467Y04034*
X03469*
X03471Y04034*
X03472Y04034*
X03474Y04034*
X03476Y04035*
X03477Y04035*
X03479Y04036*
X03481Y04037*
X03482Y04038*
X03483Y04039*
X03485Y0404*
X03486Y04041*
X03487Y04042*
X03488Y04044*
X03489Y04045*
X0349Y04047*
X03491Y04048*
X03491Y0405*
X03492Y04052*
X03492Y04053*
X03493Y04055*
X03493Y04057*
X03493Y04059*
X04776Y03692D02*
D01*
X04776Y03694*
X04776Y03696*
X04776Y03698*
X04776Y03699*
X04775Y03701*
X04774Y03703*
X04774Y03704*
X04773Y03706*
X04772Y03707*
X04771Y03708*
X04769Y0371*
X04768Y03711*
X04767Y03712*
X04765Y03713*
X04764Y03714*
X04762Y03715*
X04761Y03716*
X04759Y03716*
X04758Y03717*
X04756Y03717*
X04754Y03717*
X04752Y03717*
X04751*
X04749Y03717*
X04747Y03717*
X04745Y03717*
X04744Y03716*
X04742Y03716*
X04741Y03715*
X04739Y03714*
X04737Y03713*
X04736Y03712*
X04735Y03711*
X04733Y0371*
X04732Y03708*
X04731Y03707*
X0473Y03706*
X04729Y03704*
X04729Y03703*
X04728Y03701*
X04727Y03699*
X04727Y03698*
X04727Y03696*
X04727Y03694*
X04726Y03692*
X04727Y03691*
X04727Y03689*
X04727Y03687*
X04727Y03686*
X04728Y03684*
X04729Y03682*
X04729Y03681*
X0473Y03679*
X04731Y03678*
X04732Y03676*
X04733Y03675*
X04735Y03674*
X04736Y03673*
X04737Y03672*
X04739Y03671*
X04741Y0367*
X04742Y03669*
X04744Y03669*
X04745Y03668*
X04747Y03668*
X04749Y03668*
X04751Y03667*
X04752*
X04754Y03668*
X04756Y03668*
X04758Y03668*
X04759Y03669*
X04761Y03669*
X04762Y0367*
X04764Y03671*
X04765Y03672*
X04767Y03673*
X04768Y03674*
X04769Y03675*
X04771Y03676*
X04772Y03678*
X04773Y03679*
X04774Y03681*
X04774Y03682*
X04775Y03684*
X04776Y03686*
X04776Y03687*
X04776Y03689*
X04776Y03691*
X04776Y03692*
X02839Y03708D02*
D01*
X02839Y0371*
X02839Y03712*
X02839Y03713*
X02838Y03715*
X02838Y03717*
X02837Y03718*
X02837Y0372*
X02836Y03721*
X02835Y03723*
X02834Y03724*
X02832Y03726*
X02831Y03727*
X0283Y03728*
X02828Y03729*
X02827Y0373*
X02825Y03731*
X02824Y03731*
X02822Y03732*
X02821Y03732*
X02819Y03733*
X02817Y03733*
X02815Y03733*
X02814*
X02812Y03733*
X0281Y03733*
X02808Y03732*
X02807Y03732*
X02805Y03731*
X02804Y03731*
X02802Y0373*
X028Y03729*
X02799Y03728*
X02798Y03727*
X02796Y03726*
X02795Y03724*
X02794Y03723*
X02793Y03721*
X02792Y0372*
X02792Y03718*
X02791Y03717*
X0279Y03715*
X0279Y03713*
X0279Y03712*
X0279Y0371*
X02789Y03708*
X0279Y03706*
X0279Y03705*
X0279Y03703*
X0279Y03701*
X02791Y037*
X02792Y03698*
X02792Y03696*
X02793Y03695*
X02794Y03693*
X02795Y03692*
X02796Y03691*
X02798Y0369*
X02799Y03688*
X028Y03687*
X02802Y03687*
X02804Y03686*
X02805Y03685*
X02807Y03684*
X02808Y03684*
X0281Y03684*
X02812Y03683*
X02814Y03683*
X02815*
X02817Y03683*
X02819Y03684*
X02821Y03684*
X02822Y03684*
X02824Y03685*
X02825Y03686*
X02827Y03687*
X02828Y03687*
X0283Y03688*
X02831Y0369*
X02832Y03691*
X02834Y03692*
X02835Y03693*
X02836Y03695*
X02837Y03696*
X02837Y03698*
X02838Y037*
X02838Y03701*
X02839Y03703*
X02839Y03705*
X02839Y03706*
X02839Y03708*
X02367Y03641D02*
D01*
X02367Y03643*
X02367Y03645*
X02366Y03646*
X02366Y03648*
X02366Y0365*
X02365Y03651*
X02364Y03653*
X02363Y03654*
X02362Y03656*
X02361Y03657*
X0236Y03659*
X02359Y0366*
X02357Y03661*
X02356Y03662*
X02355Y03663*
X02353Y03664*
X02351Y03664*
X0235Y03665*
X02348Y03665*
X02346Y03666*
X02345Y03666*
X02343Y03666*
X02341*
X02339Y03666*
X02338Y03666*
X02336Y03665*
X02334Y03665*
X02333Y03664*
X02331Y03664*
X0233Y03663*
X02328Y03662*
X02327Y03661*
X02325Y0366*
X02324Y03659*
X02323Y03657*
X02322Y03656*
X02321Y03654*
X0232Y03653*
X02319Y03651*
X02319Y0365*
X02318Y03648*
X02318Y03646*
X02317Y03645*
X02317Y03643*
X02317Y03641*
X02317Y03639*
X02317Y03638*
X02318Y03636*
X02318Y03634*
X02319Y03633*
X02319Y03631*
X0232Y03629*
X02321Y03628*
X02322Y03627*
X02323Y03625*
X02324Y03624*
X02325Y03623*
X02327Y03622*
X02328Y03621*
X0233Y0362*
X02331Y03619*
X02333Y03618*
X02334Y03617*
X02336Y03617*
X02338Y03617*
X02339Y03616*
X02341Y03616*
X02343*
X02345Y03616*
X02346Y03617*
X02348Y03617*
X0235Y03617*
X02351Y03618*
X02353Y03619*
X02355Y0362*
X02356Y03621*
X02357Y03622*
X02359Y03623*
X0236Y03624*
X02361Y03625*
X02362Y03627*
X02363Y03628*
X02364Y03629*
X02365Y03631*
X02366Y03633*
X02366Y03634*
X02366Y03636*
X02367Y03638*
X02367Y03639*
X02367Y03641*
X03009Y04015D02*
D01*
X03009Y04017*
X03009Y04019*
X03008Y0402*
X03008Y04022*
X03007Y04024*
X03007Y04025*
X03006Y04027*
X03005Y04028*
X03004Y0403*
X03003Y04031*
X03002Y04033*
X03Y04034*
X02999Y04035*
X02998Y04036*
X02996Y04037*
X02995Y04038*
X02993Y04038*
X02991Y04039*
X0299Y0404*
X02988Y0404*
X02986Y0404*
X02985Y0404*
X02983*
X02981Y0404*
X02979Y0404*
X02978Y0404*
X02976Y04039*
X02974Y04038*
X02973Y04038*
X02971Y04037*
X0297Y04036*
X02968Y04035*
X02967Y04034*
X02966Y04033*
X02965Y04031*
X02964Y0403*
X02963Y04028*
X02962Y04027*
X02961Y04025*
X0296Y04024*
X0296Y04022*
X02959Y0402*
X02959Y04019*
X02959Y04017*
X02959Y04015*
X02959Y04014*
X02959Y04012*
X02959Y0401*
X0296Y04008*
X0296Y04007*
X02961Y04005*
X02962Y04004*
X02963Y04002*
X02964Y04001*
X02965Y03999*
X02966Y03998*
X02967Y03997*
X02968Y03996*
X0297Y03995*
X02971Y03994*
X02973Y03993*
X02974Y03992*
X02976Y03991*
X02978Y03991*
X02979Y03991*
X02981Y0399*
X02983Y0399*
X02985*
X02986Y0399*
X02988Y03991*
X0299Y03991*
X02991Y03991*
X02993Y03992*
X02995Y03993*
X02996Y03994*
X02998Y03995*
X02999Y03996*
X03Y03997*
X03002Y03998*
X03003Y03999*
X03004Y04001*
X03005Y04002*
X03006Y04004*
X03007Y04005*
X03007Y04007*
X03008Y04008*
X03008Y0401*
X03009Y04012*
X03009Y04014*
X03009Y04015*
X04344Y0397D02*
X04395D01*
X04344Y04053D02*
X04395D01*
Y0397D02*
Y04053D01*
X04344Y0397D02*
Y04053D01*
G54D118*
X03923Y03596D02*
D01*
X03924Y03596*
X03925Y03596*
X03927Y03596*
X03928Y03597*
X03929Y03597*
X03931Y03598*
X03932Y03598*
X03933Y03599*
X03934Y036*
X03935Y036*
X03936Y03601*
X03937Y03602*
X03938Y03603*
X03939Y03605*
X0394Y03606*
X0394Y03607*
X03941Y03608*
X03941Y0361*
X03942Y03611*
X03942Y03612*
X03942Y03614*
X03942Y03615*
X03942Y03616*
Y0452D02*
D01*
X03942Y04521*
X03942Y04523*
X03942Y04524*
X03942Y04525*
X03941Y04527*
X03941Y04528*
X0394Y04529*
X03939Y0453*
X03939Y04531*
X03942Y04608D02*
D01*
X03942Y04609*
X03942Y0461*
X03942Y04612*
X03942Y04613*
X03941Y04614*
X03941Y04616*
X0394Y04617*
X03939Y04618*
X03939Y04619*
X03938Y0462*
X03937Y04621*
X03936Y04622*
X03935Y04623*
X03934Y04624*
X03933Y04625*
X03931Y04625*
X0393Y04626*
X03929Y04626*
X03928Y04627*
X03926Y04627*
X03925Y04627*
X03923Y04627*
X03923Y04627*
X03939Y04566D02*
D01*
X0394Y04567*
X0394Y04568*
X03941Y0457*
X03941Y04571*
X03942Y04572*
X03942Y04574*
X03942Y04575*
X03942Y04576*
X03942Y04577*
X03939Y04566D02*
D01*
X03938Y04564*
X03937Y04562*
X03936Y0456*
X03935Y04558*
X03934Y04556*
X03934Y04554*
X03934Y04552*
X03934Y0455*
X03933Y04548*
X03934Y04546*
X03934Y04544*
X03934Y04542*
X03935Y0454*
X03936Y04538*
X03936Y04536*
X03937Y04534*
X03938Y04532*
X03939Y04531*
X03316Y03616D02*
D01*
X03316Y03614*
X03317Y03613*
X03317Y03612*
X03317Y0361*
X03318Y03609*
X03318Y03608*
X03319Y03606*
X03319Y03605*
X0332Y03604*
X03321Y03603*
X03322Y03602*
X03323Y03601*
X03324Y036*
X03325Y03599*
X03326Y03599*
X03327Y03598*
X03329Y03597*
X0333Y03597*
X03331Y03596*
X03333Y03596*
X03334Y03596*
X03335Y03596*
X03336Y03596*
X03316Y04577D02*
D01*
X03316Y04576*
X03317Y04575*
X03317Y04573*
X03317Y04572*
X03318Y04571*
X03318Y04569*
X03319Y04568*
X03319Y04567*
X0332Y04566*
Y04531D02*
D01*
X03319Y0453*
X03319Y04529*
X03318Y04528*
X03317Y04526*
X03317Y04525*
X03317Y04524*
X03317Y04522*
X03316Y04521*
X03316Y0452*
X03336Y04627D02*
D01*
X03335Y04627*
X03333Y04627*
X03332Y04627*
X03331Y04627*
X03329Y04626*
X03328Y04626*
X03327Y04625*
X03326Y04624*
X03325Y04624*
X03323Y04623*
X03322Y04622*
X03321Y04621*
X03321Y0462*
X0332Y04619*
X03319Y04618*
X03318Y04616*
X03318Y04615*
X03317Y04614*
X03317Y04612*
X03317Y04611*
X03317Y0461*
X03316Y04608*
X03316Y04608*
X0332Y04531D02*
D01*
X03321Y04533*
X03322Y04535*
X03323Y04537*
X03324Y04539*
X03324Y04541*
X03325Y04543*
X03325Y04545*
X03325Y04547*
X03325Y04549*
X03325Y04551*
X03325Y04554*
X03325Y04556*
X03324Y04558*
X03323Y0456*
X03322Y04562*
X03321Y04564*
X0332Y04565*
X0332Y04566*
X03325Y03616D02*
D01*
X03325Y03614*
X03325Y03613*
X03325Y03612*
X03325Y0361*
X03326Y03609*
X03326Y03608*
X03327Y03607*
X03327Y03605*
X03328Y03604*
X03329Y03603*
X03329Y03602*
X0333Y03601*
X03331Y036*
X03332Y036*
X03334Y03599*
X03335Y03598*
X03336Y03598*
X03337Y03597*
X03338Y03597*
X0334Y03596*
X03341Y03596*
X03342Y03596*
X03343Y03596*
X03328Y04531D02*
D01*
X03327Y0453*
X03326Y04529*
X03326Y04527*
X03325Y04526*
X03325Y04525*
X03325Y04523*
X03325Y04522*
X03325Y0452*
X03325Y0452*
X03343Y04627D02*
D01*
X03342Y04627*
X0334Y04627*
X03339Y04627*
X03338Y04626*
X03336Y04626*
X03335Y04625*
X03334Y04625*
X03333Y04624*
X03332Y04623*
X03331Y04623*
X0333Y04622*
X03329Y04621*
X03328Y0462*
X03327Y04618*
X03327Y04617*
X03326Y04616*
X03326Y04615*
X03325Y04614*
X03325Y04612*
X03325Y04611*
X03325Y0461*
X03325Y04608*
X03325Y04608*
Y04577D02*
D01*
X03325Y04576*
X03325Y04574*
X03325Y04573*
X03325Y04572*
X03326Y0457*
X03326Y04569*
X03327Y04568*
X03328Y04566*
X03328Y04566*
Y04531D02*
D01*
X03329Y04533*
X0333Y04535*
X03331Y04537*
X03332Y0454*
X03332Y04542*
X03333Y04544*
X03333Y04546*
X03333Y04548*
X03333Y04551*
X03333Y04553*
X03332Y04555*
X03332Y04557*
X03331Y0456*
X0333Y04562*
X03329Y04564*
X03328Y04566*
X03328Y04566*
X03498Y04657D02*
D01*
X03498Y04658*
X03497Y04658*
X03497Y04659*
X03497Y0466*
X03497Y0466*
X03497Y04661*
X03496Y04662*
X03496Y04662*
X03496Y04663*
X03495Y04663*
X03495Y04664*
X03494Y04664*
X03494Y04665*
X03493Y04665*
X03493Y04666*
X03492Y04666*
X03491Y04666*
X03491Y04666*
X0349Y04667*
X03489Y04667*
X03489Y04667*
X03488Y04667*
X03487*
X03487Y04667*
X03486Y04667*
X03485Y04667*
X03485Y04666*
X03484Y04666*
X03483Y04666*
X03483Y04666*
X03482Y04665*
X03482Y04665*
X03481Y04664*
X03481Y04664*
X0348Y04663*
X0348Y04663*
X03479Y04662*
X03479Y04662*
X03479Y04661*
X03478Y0466*
X03478Y0466*
X03478Y04659*
X03478Y04658*
X03478Y04658*
X03478Y04657*
X03781D02*
D01*
X03781Y04658*
X03781Y04658*
X03781Y04659*
X03781Y0466*
X0378Y0466*
X0378Y04661*
X0378Y04662*
X0378Y04662*
X03779Y04663*
X03779Y04663*
X03778Y04664*
X03778Y04664*
X03777Y04665*
X03777Y04665*
X03776Y04666*
X03775Y04666*
X03775Y04666*
X03774Y04666*
X03774Y04667*
X03773Y04667*
X03772Y04667*
X03772Y04667*
X03771*
X0377Y04667*
X03769Y04667*
X03769Y04667*
X03768Y04666*
X03767Y04666*
X03767Y04666*
X03766Y04666*
X03766Y04665*
X03765Y04665*
X03765Y04664*
X03764Y04664*
X03764Y04663*
X03763Y04663*
X03763Y04662*
X03762Y04662*
X03762Y04661*
X03762Y0466*
X03762Y0466*
X03762Y04659*
X03761Y04658*
X03761Y04658*
X03761Y04657*
X03682Y04098D02*
D01*
X03682Y04098*
X03682Y04098*
X03682Y04099*
X03681Y04099*
X03681Y041*
X03681Y041*
X03681Y04101*
X03681Y04101*
X0368Y04101*
X0368Y04102*
X0368Y04102*
X0368Y04102*
X03679Y04103*
X03679Y04103*
X03678Y04103*
X03678Y04104*
X03678Y04104*
X03677Y04104*
X03677Y04104*
X03676Y04104*
X03676Y04104*
X03675Y04104*
X03675*
X03674Y04104*
X03674Y04104*
X03673Y04104*
X03673Y04104*
X03673Y04104*
X03672Y04104*
X03672Y04103*
X03671Y04103*
X03671Y04103*
X03671Y04102*
X0367Y04102*
X0367Y04102*
X0367Y04101*
X03669Y04101*
X03669Y04101*
X03669Y041*
X03669Y041*
X03669Y04099*
X03669Y04099*
X03669Y04098*
X03668Y04098*
X03668Y04098*
X03668Y04097*
X03669Y04097*
X03669Y04096*
X03669Y04096*
X03669Y04095*
X03669Y04095*
X03669Y04094*
X03669Y04094*
X0367Y04094*
X0367Y04093*
X0367Y04093*
X03671Y04093*
X03671Y04092*
X03671Y04092*
X03672Y04092*
X03672Y04092*
X03673Y04091*
X03673Y04091*
X03673Y04091*
X03674Y04091*
X03674Y04091*
X03675Y04091*
X03675*
X03676Y04091*
X03676Y04091*
X03677Y04091*
X03677Y04091*
X03678Y04091*
X03678Y04092*
X03678Y04092*
X03679Y04092*
X03679Y04092*
X0368Y04093*
X0368Y04093*
X0368Y04093*
X0368Y04094*
X03681Y04094*
X03681Y04094*
X03681Y04095*
X03681Y04095*
X03681Y04096*
X03682Y04096*
X03682Y04097*
X03682Y04097*
X03682Y04098*
X05333Y0467D02*
Y04686D01*
X05296D02*
X05333D01*
X05296Y0467D02*
X05333D01*
X05296D02*
Y04686D01*
X05333Y04617D02*
Y04632D01*
X05296D02*
X05333D01*
X05296Y04617D02*
Y04632D01*
Y04617D02*
X05333D01*
X05296Y04632D02*
Y0467D01*
Y04632D02*
X05296Y0467D01*
X05333Y04632D02*
X05333Y0467D01*
X05333Y04632D02*
X05333Y0467D01*
X04685Y03802D02*
X04685Y03882D01*
X04685Y03802D02*
X04685Y03882D01*
X04621Y03802D02*
X04621Y03882D01*
X04621Y03802D02*
Y03882D01*
X04621Y03778D02*
X04686D01*
X04621D02*
Y03802D01*
X04686*
Y03778D02*
Y03802D01*
X04621Y03882D02*
Y03906D01*
Y03882D02*
X04686D01*
X04621Y03906D02*
X04686D01*
Y03882D02*
Y03906D01*
X05298Y03696D02*
X05355D01*
X05298Y03685D02*
X05355D01*
X05298D02*
Y03696D01*
X05355Y03685D02*
Y03696D01*
X05298Y0361D02*
Y03622D01*
X05355Y0361D02*
Y03622D01*
X05298Y0361D02*
X05355D01*
X05298Y03622D02*
X05355D01*
X05299D02*
Y03685D01*
X05354Y03622D02*
Y03685D01*
X05203Y03937D02*
X05284Y03937D01*
X05203Y03937D02*
X05284Y03937D01*
X05203Y03873D02*
X05284Y03873D01*
X05203D02*
X05284D01*
X05308Y03873D02*
Y03937D01*
X05284Y03873D02*
X05308D01*
X05284D02*
Y03937D01*
X05308*
X0518Y03873D02*
X05203D01*
Y03937*
X0518Y03873D02*
Y03937D01*
X05203*
X05164Y03847D02*
X05245Y03847D01*
X05164Y03847D02*
X05245Y03847D01*
X05164Y03782D02*
X05245Y03782D01*
X05164D02*
X05245D01*
X05268Y03782D02*
Y03847D01*
X05245Y03782D02*
X05268D01*
X05245D02*
Y03847D01*
X05268*
X0514Y03782D02*
X05164D01*
Y03847*
X0514Y03782D02*
Y03847D01*
X05164*
X02637Y04141D02*
X03181D01*
Y03889D02*
Y04141D01*
X02637Y03889D02*
Y04141D01*
Y03889D02*
X03181D01*
X03326Y03606D02*
X03336Y03596D01*
X03942Y03614D02*
Y0452D01*
Y04577D02*
Y04608D01*
X03316Y04175D02*
Y0452D01*
Y04577D02*
Y04608D01*
X03498Y04627D02*
Y04657D01*
X03478Y04627D02*
Y04657D01*
X03761Y04627D02*
Y04657D01*
X03781Y04627D02*
Y04657D01*
X03325Y04175D02*
Y0452D01*
X03336Y03596D02*
X03927D01*
X03325Y04577D02*
Y04608D01*
X03336Y04627D02*
X03923D01*
X03541Y03596D02*
X03546D01*
X03336Y04627D02*
X03342D01*
X03325Y0452D02*
X03942D01*
X03324Y03616D02*
X03942D01*
X03324Y04608D02*
X03942D01*
X03323Y04577D02*
X03942D01*
X03326Y04531D02*
X03939D01*
X03327Y04566D02*
X03939D01*
X0332Y04566D02*
X03328Y04566D01*
X0332Y04531D02*
X03328Y04531D01*
X03478Y04637D02*
X03498D01*
X03761D02*
X03781D01*
X03835Y03623D02*
X03835Y03703D01*
X03835Y03623D02*
X03835Y03703D01*
X0377Y03623D02*
X0377Y03703D01*
X0377Y03623D02*
Y03703D01*
X0377Y03599D02*
X03835D01*
X0377D02*
Y03623D01*
X03835*
Y03599D02*
Y03623D01*
X0377Y03703D02*
Y03727D01*
Y03703D02*
X03835D01*
X0377Y03727D02*
X03835D01*
Y03703D02*
Y03727D01*
X04327Y03963D02*
X04327Y04044D01*
X04327Y03963D02*
X04327Y04044D01*
X04262Y03963D02*
X04262Y04044D01*
X04262Y03963D02*
Y04044D01*
X04262Y03939D02*
X04327D01*
X04262D02*
Y03963D01*
X04327*
Y03939D02*
Y03963D01*
X04262Y04044D02*
Y04067D01*
Y04044D02*
X04327D01*
X04262Y04067D02*
X04327D01*
Y04044D02*
Y04067D01*
X03654Y03653D02*
X03654Y037D01*
X03654Y03653D02*
X03654Y037D01*
X03707Y03653D02*
X03707Y037D01*
Y03653D02*
Y037D01*
X03654Y0372D02*
X03707D01*
Y037D02*
Y0372D01*
X03654Y037D02*
X03707D01*
X03654D02*
Y0372D01*
X03707Y03633D02*
Y03653D01*
X03654D02*
X03707D01*
X03654Y03633D02*
X03707D01*
X03654D02*
Y03653D01*
X04047Y0389D02*
X0411D01*
X04047Y03796D02*
X04047Y0389D01*
X04047Y03796D02*
X0411D01*
X0411Y0389D02*
X0411Y03796D01*
X0411Y0389D02*
X04114Y03894D01*
X04043D02*
X04114D01*
X04043D02*
X04047Y0389D01*
X04043Y03782D02*
Y03894D01*
Y03782D02*
X04047Y03786D01*
Y03796*
X0411Y03786D02*
Y03796D01*
Y03786D02*
X04114Y03782D01*
Y03894*
X04047Y03786D02*
X0411D01*
X04043Y03782D02*
X04114D01*
X04066Y03778D02*
X0409D01*
Y03761D02*
Y03782D01*
X04066Y03761D02*
Y03782D01*
Y03898D02*
X0409D01*
X04066Y03894D02*
Y03915D01*
X0409Y03894D02*
Y03915D01*
X04066Y03771D02*
X0409D01*
X04066Y03905D02*
X0409D01*
X04066Y03769D02*
X0409D01*
X04066Y03908D02*
X0409D01*
X04066Y03915D02*
X0409D01*
X04066Y03761D02*
X0409D01*
X03579Y04085D02*
X03688D01*
Y0413*
X03579D02*
X03688D01*
X03579Y04085D02*
Y0413D01*
X0369Y04082D02*
Y04133D01*
X03688Y0413D02*
X0369Y04133D01*
X03688Y04085D02*
X0369Y04082D01*
X03576Y04133D02*
X0369D01*
X03576D02*
X03579Y0413D01*
X03576Y04082D02*
X03579Y04085D01*
X03576Y04082D02*
X0369D01*
X03576D02*
Y04133D01*
X03661Y04075D02*
X0368D01*
Y04082D02*
Y04053D01*
X03661D02*
Y04082D01*
X03587Y04075D02*
X03605D01*
X03587Y04053D02*
Y04082D01*
Y04065D02*
X03605D01*
Y04053D02*
Y04082D01*
X03624Y0415D02*
X03643D01*
X03624Y04133D02*
Y04163D01*
Y0414D02*
X03643D01*
Y04133D02*
Y04163D01*
X03661Y04065D02*
X0368D01*
X03661Y04064D02*
X0368D01*
X03624Y04151D02*
X03643D01*
X03587Y04064D02*
X03605D01*
X03661Y04061D02*
X0368D01*
X03587D02*
X03605D01*
X03624Y04155D02*
X03643D01*
X03624Y04163D02*
X03643D01*
X03587Y04053D02*
X03605D01*
X03661D02*
X0368D01*
X03136Y04325D02*
X03136Y04406D01*
X03136Y04325D02*
X03136Y04406D01*
X03201Y04325D02*
X03201Y04406D01*
Y04325D02*
Y04406D01*
X03136Y0443D02*
X03201D01*
Y04406D02*
Y0443D01*
X03136Y04406D02*
X03201D01*
X03136D02*
Y0443D01*
X03201Y04302D02*
Y04325D01*
X03136D02*
X03201D01*
X03136Y04302D02*
X03201D01*
X03136D02*
Y04325D01*
X04733Y0379D02*
X04733Y03827D01*
X04733Y0379D02*
X04733Y03827D01*
X0477Y0379D02*
X0477Y03827D01*
Y0379D02*
Y03827D01*
X04733Y03843D02*
X0477D01*
Y03827D02*
Y03843D01*
X04733Y03827D02*
X0477D01*
X04733D02*
Y03843D01*
X0477Y03774D02*
Y0379D01*
X04733D02*
X0477D01*
X04733Y03774D02*
X0477D01*
X04733D02*
Y0379D01*
X03914Y0397D02*
Y0399D01*
Y0397D02*
X03967D01*
X03914Y0399D02*
X03967D01*
Y0397D02*
Y0399D01*
X03914Y04037D02*
Y04057D01*
Y04037D02*
X03967D01*
Y04057*
X03914D02*
X03967D01*
X03967Y0399D02*
Y04037D01*
X03967Y0399D02*
X03967Y04037D01*
X03914Y0399D02*
X03914Y04037D01*
X03914Y0399D02*
X03914Y04037D01*
X03707Y04353D02*
Y04376D01*
Y04353D02*
X03772D01*
X03707Y04376D02*
X03772D01*
Y04353D02*
Y04376D01*
X03707Y04457D02*
Y04481D01*
Y04457D02*
X03772D01*
Y04481*
X03707D02*
X03772D01*
X03772Y04376D02*
Y04457D01*
X03772Y04376D02*
X03772Y04457D01*
X03707Y04376D02*
X03707Y04457D01*
X03707Y04376D02*
X03707Y04457D01*
X03499Y04353D02*
Y04376D01*
Y04353D02*
X03563D01*
X03499Y04376D02*
X03563D01*
Y04353D02*
Y04376D01*
X03499Y04457D02*
Y04481D01*
Y04457D02*
X03563D01*
Y04481*
X03499D02*
X03563D01*
X03563Y04376D02*
Y04457D01*
X03563Y04376D02*
X03563Y04457D01*
X03499Y04376D02*
X03499Y04457D01*
X03499Y04376D02*
X03499Y04457D01*
X03451Y04401D02*
Y04496D01*
X03382Y04401D02*
Y04496D01*
X03452Y04381D02*
Y04401D01*
X03381Y04381D02*
Y04401D01*
X03452*
X03381Y04381D02*
X03452D01*
Y04496D02*
Y04515D01*
X03381Y04496D02*
Y04515D01*
Y04496D02*
X03452D01*
X03381Y04515D02*
X03452D01*
X04939Y04103D02*
Y04126D01*
Y04103D02*
X05004D01*
X04939Y04126D02*
X05004D01*
Y04103D02*
Y04126D01*
X04939Y04207D02*
Y04231D01*
Y04207D02*
X05004D01*
Y04231*
X04939D02*
X05004D01*
X05004Y04126D02*
Y04207D01*
X05004Y04126D02*
X05004Y04207D01*
X0494Y04126D02*
X0494Y04207D01*
X0494Y04126D02*
X0494Y04207D01*
X04168Y03776D02*
X04168Y03813D01*
X04168Y03776D02*
X04168Y03813D01*
X0413Y03776D02*
X0413Y03813D01*
X0413Y03776D02*
Y03813D01*
X0413Y0376D02*
X04168D01*
X0413D02*
Y03776D01*
X04168*
Y0376D02*
Y03776D01*
X0413Y03813D02*
Y03829D01*
Y03813D02*
X04168D01*
X0413Y03829D02*
X04168D01*
Y03813D02*
Y03829D01*
X03505Y03655D02*
X03541D01*
X03505Y03643D02*
Y03655D01*
Y03643D02*
X03541D01*
Y03655*
X03505Y036D02*
X03541D01*
X03505Y03588D02*
X03541D01*
X03505D02*
Y036D01*
X03541Y03588D02*
Y036D01*
X0354D02*
Y03643D01*
X03506Y036D02*
Y03643D01*
X04857Y03834D02*
Y03854D01*
X04804D02*
X04857D01*
X04804Y03834D02*
X04857D01*
X04804D02*
Y03854D01*
X04857Y03767D02*
Y03787D01*
X04804D02*
X04857D01*
X04804Y03767D02*
Y03787D01*
Y03767D02*
X04857D01*
X04804Y03787D02*
Y03834D01*
Y03787D02*
X04804Y03834D01*
X04857Y03787D02*
X04857Y03834D01*
X04857Y03787D02*
X04857Y03834D01*
X04198Y03771D02*
X04234D01*
X04198Y03759D02*
Y03771D01*
Y03759D02*
X04234D01*
Y03771*
X04198Y03716D02*
X04234D01*
X04198Y03704D02*
X04234D01*
X04198D02*
Y03716D01*
X04234Y03704D02*
Y03716D01*
X04233D02*
Y03759D01*
X04199Y03716D02*
Y03759D01*
X04101Y04634D02*
X04101Y04672D01*
X04101Y04634D02*
X04101Y04672D01*
X04064Y04634D02*
X04064Y04672D01*
X04064Y04634D02*
Y04672D01*
X04063Y04619D02*
X04101D01*
X04063D02*
Y04634D01*
X04101*
Y04619D02*
Y04634D01*
X04063Y04672D02*
Y04687D01*
Y04672D02*
X04101D01*
X04063Y04687D02*
X04101D01*
Y04672D02*
Y04687D01*
X03616Y03807D02*
X03651D01*
Y03818*
X03616D02*
X03651D01*
X03616Y03807D02*
Y03818D01*
Y03862D02*
X03651D01*
X03616Y03874D02*
X03651D01*
Y03862D02*
Y03874D01*
X03616Y03862D02*
Y03874D01*
X03616Y03818D02*
Y03862D01*
X0365Y03818D02*
Y03862D01*
X03777Y04068D02*
X03812D01*
Y0408*
X03777D02*
X03812D01*
X03777Y04068D02*
Y0408D01*
Y04124D02*
X03812D01*
X03777Y04135D02*
X03812D01*
Y04124D02*
Y04135D01*
X03777Y04124D02*
Y04135D01*
X03778Y0408D02*
Y04124D01*
X03812Y0408D02*
Y04124D01*
X0345Y04194D02*
X03486D01*
X0345Y04183D02*
Y04194D01*
Y04183D02*
X03486D01*
Y04194*
X0345Y04139D02*
X03486D01*
X0345Y04127D02*
X03486D01*
X0345D02*
Y04139D01*
X03486Y04127D02*
Y04139D01*
X03485D02*
Y04183D01*
X03451Y04139D02*
Y04183D01*
X03512Y04073D02*
X03512Y04111D01*
X03512Y04073D02*
X03512Y04111D01*
X0355Y04073D02*
X0355Y04111D01*
Y04073D02*
Y04111D01*
X03512Y04126D02*
X0355D01*
Y04111D02*
Y04126D01*
X03512Y04111D02*
X0355D01*
X03512D02*
Y04126D01*
X0355Y04058D02*
Y04073D01*
X03512D02*
X0355D01*
X03512Y04058D02*
X0355D01*
X03512D02*
Y04073D01*
X04794Y0393D02*
X04794Y03967D01*
X04794Y0393D02*
X04794Y03967D01*
X04756Y0393D02*
X04756Y03967D01*
X04756Y0393D02*
Y03967D01*
X04756Y03914D02*
X04794D01*
X04756D02*
Y0393D01*
X04794*
Y03914D02*
Y0393D01*
X04756Y03967D02*
Y03983D01*
Y03967D02*
X04794D01*
X04756Y03983D02*
X04794D01*
Y03967D02*
Y03983D01*
X03676Y04535D02*
Y04629D01*
X03607Y04535D02*
Y04629D01*
X03677Y04515D02*
Y04535D01*
X03606Y04515D02*
Y04535D01*
X03677*
X03606Y04515D02*
X03677D01*
Y04629D02*
Y04649D01*
X03606Y04629D02*
Y04649D01*
Y04629D02*
X03677D01*
X03606Y04649D02*
X03677D01*
X03306Y0405D02*
Y04073D01*
Y0405D02*
X03371D01*
X03306Y04073D02*
X03371D01*
Y0405D02*
Y04073D01*
X03306Y04154D02*
Y04178D01*
Y04154D02*
X03371D01*
Y04178*
X03306D02*
X03371D01*
X03371Y04073D02*
Y04154D01*
X03371Y04073D02*
X03371Y04154D01*
X03306Y04073D02*
X03306Y04154D01*
X03306Y04073D02*
X03306Y04154D01*
X05032Y04118D02*
Y04212D01*
X05101Y04118D02*
Y04212D01*
X05031D02*
Y04232D01*
X05102Y04212D02*
Y04232D01*
X05031Y04212D02*
X05102D01*
X05031Y04232D02*
X05102D01*
X05031Y04098D02*
Y04118D01*
X05102Y04098D02*
Y04118D01*
X05031D02*
X05102D01*
X05031Y04098D02*
X05102D01*
X0501Y03989D02*
X0501Y04026D01*
X0501Y03989D02*
X0501Y04026D01*
X04973Y03989D02*
X04973Y04026D01*
X04973Y03989D02*
Y04026D01*
X04973Y03973D02*
X0501D01*
X04973D02*
Y03989D01*
X0501*
Y03973D02*
Y03989D01*
X04973Y04026D02*
Y04042D01*
Y04026D02*
X0501D01*
X04973Y04042D02*
X0501D01*
Y04026D02*
Y04042D01*
X04856Y04163D02*
X04891D01*
X04856Y04151D02*
Y04163D01*
Y04151D02*
X04891D01*
Y04163*
X04856Y04108D02*
X04891D01*
X04856Y04096D02*
X04891D01*
X04856D02*
Y04108D01*
X04891Y04096D02*
Y04108D01*
X0489D02*
Y04151D01*
X04857Y04108D02*
Y04151D01*
X04915Y04041D02*
X0495D01*
X04915Y04029D02*
Y04041D01*
Y04029D02*
X0495D01*
Y04041*
X04915Y03986D02*
X0495D01*
X04915Y03974D02*
X0495D01*
X04915D02*
Y03986D01*
X0495Y03974D02*
Y03986D01*
X0495D02*
Y04029D01*
X04916Y03986D02*
Y04029D01*
X04892Y03989D02*
X04892Y04026D01*
X04892Y03989D02*
X04892Y04026D01*
X04855Y03989D02*
X04855Y04026D01*
X04855Y03989D02*
Y04026D01*
X04855Y03973D02*
X04892D01*
X04855D02*
Y03989D01*
X04892*
Y03973D02*
Y03989D01*
X04855Y04026D02*
Y04042D01*
Y04026D02*
X04892D01*
X04855Y04042D02*
X04892D01*
Y04026D02*
Y04042D01*
X04264Y03784D02*
X04264Y03821D01*
X04264Y03784D02*
X04264Y03821D01*
X04302Y03784D02*
X04302Y03821D01*
Y03784D02*
Y03821D01*
X04264Y03837D02*
X04302D01*
Y03821D02*
Y03837D01*
X04264Y03821D02*
X04302D01*
X04264D02*
Y03837D01*
X04302Y03768D02*
Y03784D01*
X04264D02*
X04302D01*
X04264Y03768D02*
X04302D01*
X04264D02*
Y03784D01*
X03826Y03842D02*
X03842D01*
X03826Y03944D02*
X03842D01*
X03826Y03848D02*
X03842D01*
X03826Y03939D02*
X03842D01*
Y03928D02*
Y03944D01*
X03826Y03928D02*
Y03944D01*
Y03937D02*
X03842D01*
X03826Y03929D02*
X03842D01*
X03826Y0385D02*
X03842D01*
Y03842D02*
Y03859D01*
X03826Y03842D02*
Y03859D01*
Y03857D02*
X03842D01*
X0381Y0386D02*
X03858D01*
X03842Y03858D02*
X03861D01*
X03826Y03859D02*
X03842D01*
X03808Y03858D02*
X03826D01*
X0381Y0386D02*
Y03881D01*
X03808Y03858D02*
X0381Y0386D01*
X03808Y03858D02*
Y03929D01*
X03861Y03858D02*
Y03929D01*
X03858Y0386D02*
X03861Y03858D01*
X03858Y0386D02*
Y03881D01*
X0381D02*
X03858D01*
Y03926D02*
Y03881D01*
X0381D02*
Y03926D01*
X03842Y03929D02*
X03861D01*
X03858Y03926D02*
X03861Y03929D01*
X0381Y03926D02*
X03858D01*
X03808Y03929D02*
X0381Y03926D01*
X03808Y03929D02*
X03826D01*
Y03928D02*
X03842D01*
X04188Y03905D02*
X04204D01*
X04188Y04007D02*
X04204D01*
X04188Y03911D02*
X04204D01*
X04188Y04002D02*
X04204D01*
Y03991D02*
Y04007D01*
X04188Y03991D02*
Y04007D01*
Y04D02*
X04204D01*
X04188Y03992D02*
X04204D01*
X04188Y03912D02*
X04204D01*
Y03905D02*
Y03922D01*
X04188Y03905D02*
Y03922D01*
Y0392D02*
X04204D01*
X04172Y03923D02*
X04221D01*
X04204Y03921D02*
X04223D01*
X04188Y03922D02*
X04204D01*
X0417Y03921D02*
X04188D01*
X04172Y03923D02*
Y03944D01*
X0417Y03921D02*
X04172Y03923D01*
X0417Y03921D02*
Y03992D01*
X04223Y03921D02*
Y03992D01*
X04221Y03923D02*
X04223Y03921D01*
X04221Y03923D02*
Y03944D01*
X04172D02*
X04221D01*
X0422Y03989D02*
X04221Y03944D01*
X04172D02*
Y03989D01*
X04204Y03992D02*
X04223D01*
X0422Y03989D02*
X04223Y03992D01*
X04172Y03989D02*
X0422D01*
X0417Y03992D02*
X04172Y03989D01*
X0417Y03992D02*
X04188D01*
Y03991D02*
X04204D01*
X0379Y03909D02*
Y03929D01*
X03737D02*
X0379D01*
X03737Y03909D02*
X0379D01*
X03737D02*
Y03929D01*
X0379Y03842D02*
Y03862D01*
X03737D02*
X0379D01*
X03737Y03842D02*
Y03862D01*
Y03842D02*
X0379D01*
X03737Y03862D02*
Y03909D01*
Y03862D02*
X03737Y03909D01*
X0379Y03862D02*
X0379Y03909D01*
X0379Y03862D02*
X0379Y03909D01*
X04459Y04107D02*
X04459Y04144D01*
X04459Y04107D02*
X04459Y04144D01*
X04422Y04107D02*
X04422Y04144D01*
X04422Y04107D02*
Y04144D01*
X04422Y04091D02*
X04459D01*
X04422D02*
Y04107D01*
X04459*
Y04091D02*
Y04107D01*
X04422Y04144D02*
Y0416D01*
Y04144D02*
X04459D01*
X04422Y0416D02*
X04459D01*
Y04144D02*
Y0416D01*
X03679Y03902D02*
X03714D01*
Y03914*
X03679D02*
X03714D01*
X03679Y03902D02*
Y03914D01*
Y03957D02*
X03714D01*
X03679Y03969D02*
X03714D01*
Y03957D02*
Y03969D01*
X03679Y03957D02*
Y03969D01*
X03679Y03914D02*
Y03957D01*
X03713Y03914D02*
Y03957D01*
X03754Y04083D02*
X03754Y04121D01*
X03754Y04083D02*
X03754Y04121D01*
X03717Y04083D02*
X03717Y04121D01*
X03717Y04083D02*
Y04121D01*
X03717Y04067D02*
X03754D01*
X03717D02*
Y04083D01*
X03754*
Y04067D02*
Y04083D01*
X03717Y04121D02*
Y04136D01*
Y04121D02*
X03754D01*
X03717Y04136D02*
X03754D01*
Y04121D02*
Y04136D01*
X03335Y04628D02*
Y04652D01*
X0327D02*
X03335D01*
X0327Y04628D02*
X03335D01*
X0327D02*
Y04652D01*
X03335Y04524D02*
Y04548D01*
X0327D02*
X03335D01*
X0327Y04524D02*
Y04548D01*
Y04524D02*
X03335D01*
X0327Y04548D02*
Y04628D01*
Y04548D02*
X0327Y04628D01*
X03335Y04548D02*
X03335Y04628D01*
X03335Y04548D02*
X03335Y04628D01*
X02999Y04134D02*
X03079Y04134D01*
X02999Y04134D02*
X03079Y04134D01*
X02999Y04069D02*
X03079Y04069D01*
X02999D02*
X03079D01*
X03103Y04069D02*
Y04134D01*
X03079Y04069D02*
X03103D01*
X03079D02*
Y04134D01*
X03103*
X02975Y04069D02*
X02999D01*
Y04134*
X02975Y04069D02*
Y04134D01*
X02999*
X0275Y04134D02*
X02831Y04134D01*
X0275Y04134D02*
X02831Y04134D01*
X0275Y04069D02*
X02831Y04069D01*
X0275D02*
X02831D01*
X02855Y04069D02*
Y04134D01*
X02831Y04069D02*
X02855D01*
X02831D02*
Y04134D01*
X02855*
X02727Y04069D02*
X0275D01*
Y04134*
X02727Y04069D02*
Y04134D01*
X0275*
M02*