%FSTAX23Y23*%
%MOIN*%
%SFA1B1*%

%IPPOS*%
%ADD10C,0.005000*%
%ADD11C,0.007870*%
%ADD12C,0.000000*%
%ADD13C,0.010000*%
%ADD14C,0.007000*%
%ADD15C,0.003940*%
%ADD16C,0.007010*%
%ADD17C,0.006000*%
%ADD18R,0.005000X0.160000*%
%ADD19R,0.005000X0.165000*%
%ADD20R,0.325000X0.005000*%
%ADD21R,0.330000X0.005000*%
%LNadapter_pcb-1*%
%LPD*%
G36*
X0343Y04672D02*
X0344D01*
Y04667*
X0343*
Y04657*
X03426*
Y04667*
X03415*
Y04672*
X03426*
Y04682*
X0343*
Y04672*
G37*
G36*
X04156Y04578D02*
X04156D01*
X04157Y04578*
X04159Y04578*
X0416Y04577*
X04161Y04577*
X04162Y04577*
X04162*
X04163Y04576*
X04163Y04576*
X04163Y04576*
X04164Y04576*
X04164Y04576*
X04165Y04575*
X04166Y04574*
X04167Y04574*
X04168Y04573*
X04168Y04573*
X04168Y04572*
X04168Y04572*
X04169Y04571*
X04169Y0457*
X0417Y04569*
X0417Y04568*
X04171Y04567*
X04166Y04565*
Y04565*
X04166Y04565*
X04166Y04566*
X04166Y04566*
X04165Y04567*
X04165Y04568*
X04165Y04568*
X04164Y04569*
X04164Y0457*
X04164Y0457*
X04164Y0457*
X04163Y0457*
X04163Y04571*
X04162Y04571*
X04162Y04572*
X04161Y04572*
X0416Y04573*
X0416Y04573*
X0416Y04573*
X04159Y04573*
X04159Y04573*
X04158Y04573*
X04157Y04573*
X04156Y04574*
X04155Y04574*
X04154*
X04154Y04574*
X04153Y04574*
X04152Y04573*
X04151Y04573*
X0415Y04573*
X04149Y04573*
X04149Y04572*
X04149Y04572*
X04148Y04572*
X04147Y04572*
X04147Y04571*
X04146Y04571*
X04145Y0457*
X04145Y0457*
X04145Y0457*
X04145Y04569*
X04144Y04569*
X04144Y04569*
X04144Y04568*
X04143Y04567*
X04143Y04567*
X04142Y04566*
Y04566*
X04142Y04566*
X04142Y04566*
X04142Y04565*
X04142Y04565*
X04142Y04565*
X04142Y04564*
X04141Y04562*
X04141Y04561*
X04141Y0456*
X04141Y04558*
Y04558*
Y04558*
Y04558*
X04141Y04557*
Y04557*
X04141Y04556*
X04141Y04556*
X04141Y04555*
X04141Y04554*
X04142Y04552*
X04142Y04551*
X04143Y0455*
Y04549*
X04143Y04549*
X04143Y04549*
X04143Y04549*
X04144Y04548*
X04144Y04548*
X04145Y04547*
X04146Y04546*
X04147Y04545*
X04148Y04544*
X04148*
X04148Y04544*
X04148Y04544*
X04148Y04544*
X04149Y04544*
X04149Y04544*
X0415Y04544*
X04151Y04543*
X04152Y04543*
X04154Y04543*
X04155Y04543*
X04156*
X04156Y04543*
X04157Y04543*
X04158Y04543*
X04159Y04543*
X0416Y04544*
X04161Y04544*
X04162*
X04162Y04544*
X04162Y04544*
X04162Y04544*
X04163Y04544*
X04163Y04545*
X04164Y04545*
X04165Y04546*
X04166Y04546*
X04166Y04547*
Y04554*
X04155*
Y04558*
X04171*
Y04544*
X04171Y04544*
X04171Y04544*
X04171Y04544*
X04171Y04544*
X0417Y04543*
X0417Y04543*
X04169Y04543*
X04168Y04542*
X04166Y04541*
X04165Y0454*
X04163Y0454*
X04163*
X04163Y0454*
X04163Y0454*
X04163Y04539*
X04162Y04539*
X04162Y04539*
X04161Y04539*
X04161Y04539*
X0416Y04539*
X04158Y04538*
X04157Y04538*
X04155Y04538*
X04155*
X04154Y04538*
X04154*
X04153Y04538*
X04153Y04538*
X04152Y04539*
X0415Y04539*
X04149Y04539*
X04147Y0454*
X04145Y04541*
X04145Y04541*
X04145Y04541*
X04145Y04541*
X04144Y04541*
X04144Y04541*
X04143Y04542*
X04142Y04542*
X04141Y04543*
X0414Y04545*
X04139Y04546*
X04138Y04548*
Y04548*
X04138Y04548*
X04138Y04548*
X04138Y04548*
X04138Y04549*
X04137Y04549*
X04137Y0455*
X04137Y04551*
X04137Y04551*
X04136Y04552*
X04136Y04554*
X04136Y04556*
X04136Y04558*
Y04558*
Y04558*
Y04558*
X04136Y04559*
Y04559*
X04136Y0456*
X04136Y04561*
X04136Y04561*
X04136Y04563*
X04137Y04565*
X04137Y04567*
X04138Y04568*
Y04568*
X04138Y04569*
X04138Y04569*
X04138Y04569*
X04139Y0457*
X04139Y0457*
X0414Y04571*
X04141Y04572*
X04142Y04573*
X04143Y04575*
X04144Y04575*
X04145Y04576*
X04145*
X04145Y04576*
X04145Y04576*
X04146Y04576*
X04146Y04576*
X04146Y04576*
X04147Y04577*
X04148Y04577*
X04148Y04577*
X04149Y04577*
X04151Y04578*
X04153Y04578*
X04155Y04578*
X04156*
X04156Y04578*
G37*
G36*
X04262Y04577D02*
X04263Y04577D01*
X04264Y04577*
X04265Y04577*
X04266Y04577*
X04266*
X04266Y04577*
X04266*
X04266Y04577*
X04267Y04576*
X04268Y04576*
X04269Y04576*
X0427Y04575*
X04271Y04575*
X04272Y04574*
X04272*
X04272Y04574*
X04272Y04574*
X04273Y04573*
X04273Y04572*
X04274Y04571*
X04275Y0457*
X04276Y04569*
X04276Y04567*
Y04567*
X04276Y04567*
X04276Y04567*
X04276Y04567*
X04276Y04566*
X04277Y04566*
X04277Y04565*
X04277Y04565*
X04277Y04564*
X04277Y04563*
X04277Y04562*
X04278Y0456*
X04278Y04558*
Y04558*
Y04558*
Y04558*
Y04558*
X04278Y04557*
Y04557*
X04278Y04556*
X04277Y04554*
X04277Y04553*
X04277Y04552*
X04277Y04551*
Y0455*
X04277Y0455*
X04276Y0455*
X04276Y0455*
X04276Y04549*
X04276Y04549*
X04276Y04548*
X04275Y04547*
X04275Y04546*
X04274Y04545*
X04274Y04545*
X04274Y04545*
X04273Y04544*
X04273Y04544*
X04272Y04543*
X04272Y04543*
X04271Y04542*
X0427Y04541*
X0427Y04541*
X0427Y04541*
X0427Y04541*
X04269Y04541*
X04269Y0454*
X04268Y0454*
X04267Y0454*
X04266Y0454*
X04266*
X04265Y04539*
X04265Y04539*
X04264Y04539*
X04263Y04539*
X04262Y04539*
X04261Y04539*
X0426Y04539*
X04246*
Y04577*
X04261*
X04262Y04577*
G37*
G36*
X04356Y04578D02*
X04357D01*
X04358Y04578*
X04359Y04578*
X0436Y04577*
X04362Y04577*
X04363Y04577*
X04363*
X04363Y04576*
X04363Y04576*
X04363Y04576*
X04364Y04576*
X04365Y04576*
X04366Y04575*
X04366Y04574*
X04367Y04573*
X04368Y04573*
X04368Y04572*
X04368Y04572*
X04368Y04571*
X04369Y04571*
X04369Y0457*
X04369Y04569*
X0437Y04568*
X0437Y04566*
X04365Y04566*
Y04566*
Y04566*
X04365Y04566*
X04365Y04567*
X04365Y04567*
X04364Y04568*
X04364Y04569*
X04364Y0457*
X04363Y04571*
X04362Y04572*
X04362Y04572*
X04362Y04572*
X04361Y04572*
X04361Y04573*
X0436Y04573*
X04359Y04573*
X04357Y04573*
X04356Y04573*
X04355*
X04354Y04573*
X04354*
X04353Y04573*
X04352Y04573*
X04351Y04573*
X0435Y04572*
X04349Y04572*
X04349Y04572*
X04349Y04572*
X04349Y04571*
X04348Y04571*
X04348Y04571*
X04347Y0457*
X04347Y04569*
X04347Y04569*
X04347Y04568*
Y04568*
Y04567*
X04347Y04567*
X04347Y04566*
X04347Y04566*
X04347Y04565*
X04348Y04565*
X04348Y04564*
X04348Y04564*
X04349Y04564*
X04349Y04564*
X04349Y04564*
X04349Y04564*
X0435Y04563*
X0435Y04563*
X04351Y04563*
X04351Y04563*
X04352Y04563*
X04353Y04562*
X04354Y04562*
X04355Y04562*
X04356Y04562*
X04356*
X04356Y04561*
X04356Y04561*
X04357Y04561*
X04357Y04561*
X04358Y04561*
X04359Y04561*
X04361Y0456*
X04362Y0456*
X04363Y0456*
X04363Y04559*
X04364Y04559*
X04364Y04559*
X04364*
X04365Y04559*
X04365Y04559*
X04365Y04559*
X04366Y04558*
X04366Y04558*
X04367Y04557*
X04368Y04557*
X04369Y04556*
X04369Y04555*
X04369Y04555*
X0437Y04555*
X0437Y04554*
X0437Y04554*
X0437Y04553*
X04371Y04552*
X04371Y04551*
X04371Y0455*
Y0455*
Y0455*
Y04549*
Y04549*
X04371Y04549*
X04371Y04548*
X04371Y04547*
X0437Y04546*
X0437Y04545*
X04369Y04544*
X04369Y04544*
X04369Y04543*
X04369Y04543*
X04368Y04542*
X04367Y04542*
X04366Y04541*
X04365Y0454*
X04364Y0454*
X04364*
X04364Y0454*
X04364Y0454*
X04364Y04539*
X04363Y04539*
X04363Y04539*
X04362Y04539*
X04361Y04539*
X0436Y04538*
X04358Y04538*
X04357Y04538*
X04356*
X04355Y04538*
X04355*
X04354Y04538*
X04354Y04538*
X04352Y04539*
X04351Y04539*
X04349Y04539*
X04348Y0454*
X04348*
X04348Y0454*
X04348Y0454*
X04347Y0454*
X04347Y0454*
X04346Y04541*
X04345Y04542*
X04344Y04542*
X04343Y04543*
X04342Y04544*
Y04544*
X04342Y04544*
X04342Y04545*
X04342Y04545*
X04342Y04545*
X04342Y04545*
X04342Y04546*
X04341Y04547*
X04341Y04549*
X04341Y0455*
X0434Y04551*
X04345Y04552*
Y04552*
Y04552*
X04345Y04551*
X04345Y04551*
X04346Y0455*
X04346Y04549*
X04346Y04548*
X04346Y04548*
X04347Y04547*
X04347Y04547*
X04347Y04547*
X04347Y04546*
X04348Y04546*
X04348Y04545*
X04349Y04545*
X0435Y04544*
X04351Y04544*
X04351*
X04351Y04544*
X04351Y04544*
X04352Y04543*
X04352Y04543*
X04353Y04543*
X04354Y04543*
X04355Y04543*
X04357Y04543*
X04357*
X04358Y04543*
X04358Y04543*
X04359Y04543*
X0436Y04543*
X04361Y04543*
X04362Y04544*
X04362Y04544*
X04362Y04544*
X04362Y04544*
X04363Y04544*
X04363Y04545*
X04364Y04545*
X04364Y04545*
X04365Y04546*
X04365Y04546*
X04365Y04546*
X04365Y04547*
X04366Y04547*
X04366Y04547*
X04366Y04548*
X04366Y04549*
X04366Y04549*
Y04549*
Y0455*
X04366Y0455*
X04366Y0455*
X04366Y04551*
X04366Y04551*
X04365Y04552*
X04365Y04552*
X04365Y04552*
X04365Y04553*
X04365Y04553*
X04364Y04553*
X04364Y04554*
X04363Y04554*
X04362Y04554*
X04362Y04555*
X04362Y04555*
X04361Y04555*
X04361Y04555*
X04361Y04555*
X0436Y04555*
X0436Y04555*
X04359Y04555*
X04359Y04556*
X04358Y04556*
X04357Y04556*
X04357Y04556*
X04356Y04556*
X04355Y04557*
X04355*
X04354Y04557*
X04354Y04557*
X04354Y04557*
X04353Y04557*
X04353Y04557*
X04352Y04557*
X04351Y04558*
X04349Y04558*
X04348Y04559*
X04348Y04559*
X04347Y04559*
X04347*
X04347Y04559*
X04347Y04559*
X04346Y0456*
X04346Y0456*
X04345Y0456*
X04344Y04561*
X04344Y04562*
X04343Y04563*
X04343Y04563*
X04343Y04563*
X04343Y04563*
X04343Y04564*
X04342Y04565*
X04342Y04565*
X04342Y04566*
X04342Y04567*
Y04567*
Y04567*
Y04568*
Y04568*
X04342Y04568*
X04342Y04569*
X04342Y0457*
X04343Y04571*
X04343Y04572*
X04344Y04573*
Y04573*
X04344Y04573*
X04344Y04573*
X04344Y04574*
X04345Y04574*
X04345Y04575*
X04346Y04575*
X04347Y04576*
X04348Y04577*
X04348*
X04348Y04577*
X04349Y04577*
X04349Y04577*
X04349Y04577*
X0435Y04577*
X0435Y04577*
X04351Y04578*
X04353Y04578*
X04354Y04578*
X04355Y04578*
X04356*
X04356Y04578*
G37*
G36*
X02735Y0456D02*
X02721D01*
Y04565*
X02735*
Y0456*
G37*
G36*
X0319Y04565D02*
X032D01*
Y0456*
X0319*
Y0455*
X03185*
Y0456*
X03175*
Y04565*
X03185*
Y04575*
X0319*
Y04565*
G37*
G36*
X02915Y04538D02*
X0291D01*
X02894Y04576*
X029*
X02904Y04565*
X02921*
X02925Y04576*
X0293*
X02915Y04538*
G37*
G36*
X02875Y04577D02*
X02875D01*
X02876Y04577*
X02876Y04577*
X02877Y04577*
X02879Y04576*
X0288Y04576*
X02882Y04575*
X02883Y04575*
X02884Y04574*
X02884Y04574*
X02884Y04574*
X02884Y04574*
X02884Y04574*
X02885Y04573*
X02886Y04572*
X02887Y04571*
X02888Y0457*
X02889Y04569*
X0289Y04567*
Y04567*
X0289Y04567*
X0289Y04567*
X0289Y04566*
X0289Y04566*
X0289Y04565*
X0289Y04565*
X02891Y04564*
X02891Y04563*
X02891Y04562*
X02891Y04561*
X02892Y04559*
X02892Y04557*
Y04557*
Y04556*
Y04556*
X02892Y04556*
Y04555*
X02891Y04555*
X02891Y04554*
X02891Y04553*
X02891Y04552*
X02891Y0455*
X0289Y04548*
X02889Y04546*
Y04546*
X02889Y04546*
X02889Y04546*
X02889Y04546*
X02889Y04545*
X02888Y04545*
X02888Y04544*
X02887Y04543*
X02886Y04542*
X02884Y0454*
X02883Y04539*
X02883*
X02883Y04539*
X02882Y04539*
X02882Y04539*
X02882Y04539*
X02881Y04539*
X02881Y04539*
X0288Y04538*
X02879Y04538*
X02879Y04538*
X02877Y04538*
X02875Y04537*
X02874Y04537*
X02873*
X02873Y04537*
X02872Y04537*
X02871Y04537*
X02871Y04537*
X0287Y04538*
X02869Y04538*
X02867Y04538*
X02866Y04539*
X02865Y04539*
X02865Y0454*
X02864Y0454*
X02864Y0454*
X02864Y0454*
X02863Y0454*
X02863Y04541*
X02863Y04541*
X02862Y04541*
X02862Y04542*
X02862Y04542*
X02861Y04543*
X02861Y04543*
X0286Y04544*
X0286Y04545*
X02859Y04546*
X02859Y04547*
X02858Y04548*
X02863Y0455*
Y0455*
X02863Y04549*
X02863Y04549*
X02864Y04549*
X02864Y04549*
X02864Y04548*
X02864Y04547*
X02865Y04546*
X02866Y04545*
X02866Y04544*
X02867Y04543*
X02867Y04543*
X02868Y04543*
X02868Y04543*
X02869Y04542*
X0287Y04542*
X02871Y04542*
X02872Y04542*
X02874Y04541*
X02874*
X02874Y04542*
X02875*
X02875Y04542*
X02876Y04542*
X02877Y04542*
X02879Y04542*
X0288Y04543*
X02881Y04544*
X02881*
X02881Y04544*
X02881Y04544*
X02882Y04545*
X02883Y04545*
X02883Y04546*
X02884Y04547*
X02885Y04548*
X02885Y04549*
Y04549*
X02885Y0455*
X02885Y0455*
X02885Y0455*
X02885Y0455*
X02885Y04551*
X02886Y04552*
X02886Y04553*
X02886Y04554*
X02886Y04555*
X02886Y04557*
Y04557*
Y04557*
Y04557*
Y04558*
X02886Y04558*
Y04559*
X02886Y04559*
X02886Y0456*
X02886Y04561*
X02886Y04562*
X02885Y04564*
X02885Y04565*
Y04565*
X02885Y04565*
X02885Y04566*
X02885Y04566*
X02884Y04567*
X02884Y04567*
X02883Y04568*
X02882Y04569*
X02882Y0457*
X02881Y04571*
X0288*
X0288Y04571*
X0288Y04571*
X0288Y04571*
X02879Y04571*
X02879Y04572*
X02878Y04572*
X02876Y04572*
X02875Y04572*
X02874Y04573*
X02874*
X02873Y04572*
X02873*
X02872Y04572*
X02871Y04572*
X0287Y04572*
X02869Y04571*
X02868Y04571*
X02867Y0457*
X02867Y0457*
X02867Y0457*
X02866Y0457*
X02866Y04569*
X02865Y04568*
X02864Y04567*
X02864Y04566*
X02863Y04564*
X02863Y04563*
X02858Y04564*
Y04564*
X02858Y04564*
X02858Y04565*
X02858Y04565*
X02858Y04566*
X02858Y04566*
X02859Y04567*
X02859Y04568*
X0286Y04569*
X02861Y04571*
X02862Y04572*
X02863Y04573*
X02863Y04574*
X02864Y04574*
X02864Y04574*
X02864Y04574*
X02864Y04574*
X02865Y04574*
X02865Y04575*
X02866Y04575*
X02866Y04575*
X02867Y04576*
X02868Y04576*
X02869Y04576*
X02869Y04576*
X02871Y04577*
X02872Y04577*
X02874Y04577*
X02874*
X02875Y04577*
G37*
G36*
X0306Y04538D02*
X03055D01*
X03039Y04576*
X03045*
X03049Y04565*
X03066*
X0307Y04576*
X03075*
X0306Y04538*
G37*
G36*
X0302Y04577D02*
X0302D01*
X03021Y04577*
X03021Y04577*
X03022Y04577*
X03024Y04576*
X03025Y04576*
X03027Y04575*
X03028Y04575*
X03029Y04574*
X03029Y04574*
X03029Y04574*
X03029Y04574*
X03029Y04574*
X0303Y04573*
X03031Y04572*
X03032Y04571*
X03033Y0457*
X03034Y04569*
X03035Y04567*
Y04567*
X03035Y04567*
X03035Y04567*
X03035Y04566*
X03035Y04566*
X03035Y04565*
X03035Y04565*
X03036Y04564*
X03036Y04563*
X03036Y04562*
X03036Y04561*
X03037Y04559*
X03037Y04557*
Y04557*
Y04556*
Y04556*
X03037Y04556*
Y04555*
X03036Y04555*
X03036Y04554*
X03036Y04553*
X03036Y04552*
X03036Y0455*
X03035Y04548*
X03034Y04546*
Y04546*
X03034Y04546*
X03034Y04546*
X03034Y04546*
X03034Y04545*
X03033Y04545*
X03033Y04544*
X03032Y04543*
X03031Y04542*
X03029Y0454*
X03028Y04539*
X03028*
X03028Y04539*
X03027Y04539*
X03027Y04539*
X03027Y04539*
X03026Y04539*
X03026Y04539*
X03025Y04538*
X03024Y04538*
X03024Y04538*
X03022Y04538*
X0302Y04537*
X03019Y04537*
X03018*
X03018Y04537*
X03017Y04537*
X03016Y04537*
X03016Y04537*
X03015Y04538*
X03014Y04538*
X03012Y04538*
X03011Y04539*
X0301Y04539*
X0301Y0454*
X03009Y0454*
X03009Y0454*
X03009Y0454*
X03008Y0454*
X03008Y04541*
X03008Y04541*
X03007Y04541*
X03007Y04542*
X03007Y04542*
X03006Y04543*
X03006Y04543*
X03005Y04544*
X03005Y04545*
X03004Y04546*
X03004Y04547*
X03003Y04548*
X03008Y0455*
Y0455*
X03008Y04549*
X03008Y04549*
X03009Y04549*
X03009Y04549*
X03009Y04548*
X03009Y04547*
X0301Y04546*
X03011Y04545*
X03011Y04544*
X03012Y04543*
X03012Y04543*
X03013Y04543*
X03013Y04543*
X03014Y04542*
X03015Y04542*
X03016Y04542*
X03017Y04542*
X03019Y04541*
X03019*
X03019Y04542*
X0302*
X0302Y04542*
X03021Y04542*
X03022Y04542*
X03024Y04542*
X03025Y04543*
X03026Y04544*
X03026*
X03026Y04544*
X03026Y04544*
X03027Y04545*
X03028Y04545*
X03028Y04546*
X03029Y04547*
X0303Y04548*
X0303Y04549*
Y04549*
X0303Y0455*
X0303Y0455*
X0303Y0455*
X0303Y0455*
X0303Y04551*
X03031Y04552*
X03031Y04553*
X03031Y04554*
X03031Y04555*
X03031Y04557*
Y04557*
Y04557*
Y04557*
Y04558*
X03031Y04558*
Y04559*
X03031Y04559*
X03031Y0456*
X03031Y04561*
X03031Y04562*
X0303Y04564*
X0303Y04565*
Y04565*
X0303Y04565*
X0303Y04566*
X0303Y04566*
X03029Y04567*
X03029Y04567*
X03028Y04568*
X03027Y04569*
X03027Y0457*
X03026Y04571*
X03025*
X03025Y04571*
X03025Y04571*
X03025Y04571*
X03024Y04571*
X03024Y04572*
X03023Y04572*
X03021Y04572*
X0302Y04572*
X03019Y04573*
X03019*
X03018Y04572*
X03018*
X03017Y04572*
X03016Y04572*
X03015Y04572*
X03014Y04571*
X03013Y04571*
X03012Y0457*
X03012Y0457*
X03012Y0457*
X03011Y0457*
X03011Y04569*
X0301Y04568*
X03009Y04567*
X03009Y04566*
X03008Y04564*
X03008Y04563*
X03003Y04564*
Y04564*
X03003Y04564*
X03003Y04565*
X03003Y04565*
X03003Y04566*
X03003Y04566*
X03004Y04567*
X03004Y04568*
X03005Y04569*
X03006Y04571*
X03007Y04572*
X03008Y04573*
X03008Y04574*
X03009Y04574*
X03009Y04574*
X03009Y04574*
X03009Y04574*
X0301Y04574*
X0301Y04575*
X03011Y04575*
X03011Y04575*
X03012Y04576*
X03013Y04576*
X03014Y04576*
X03014Y04576*
X03016Y04577*
X03017Y04577*
X03019Y04577*
X03019*
X0302Y04577*
G37*
G36*
X02122Y0468D02*
X02122D01*
X02123Y0468*
X02124Y0468*
X02126Y0468*
X02127Y04679*
X02128Y04679*
X02128*
X02128Y04679*
X02129Y04679*
X02129Y04679*
X02129Y04678*
X0213Y04678*
X02131Y04677*
X02132Y04677*
X02133Y04676*
X02134Y04675*
X02134Y04675*
X02134Y04675*
X02134Y04674*
X02135Y04673*
X02135Y04673*
X02136Y04672*
X02136Y0467*
X02137Y04669*
X02132Y04668*
Y04668*
X02132Y04668*
X02132Y04668*
X02132Y04669*
X02131Y04669*
X02131Y0467*
X02131Y04671*
X0213Y04672*
X0213Y04672*
X0213Y04672*
X0213Y04673*
X02129Y04673*
X02129Y04673*
X02128Y04674*
X02128Y04674*
X02127Y04675*
X02126Y04675*
X02126Y04675*
X02126Y04675*
X02125Y04675*
X02125Y04675*
X02124Y04676*
X02123Y04676*
X02122Y04676*
X02121Y04676*
X0212*
X0212Y04676*
X02119Y04676*
X02118Y04676*
X02117Y04676*
X02116Y04675*
X02115Y04675*
X02115Y04675*
X02114Y04675*
X02114Y04674*
X02113Y04674*
X02113Y04674*
X02112Y04673*
X02111Y04673*
X02111Y04672*
X02111Y04672*
X02111Y04672*
X0211Y04671*
X0211Y04671*
X02109Y0467*
X02109Y0467*
X02109Y04669*
X02108Y04668*
Y04668*
X02108Y04668*
X02108Y04668*
X02108Y04668*
X02108Y04667*
X02108Y04667*
X02108Y04666*
X02107Y04665*
X02107Y04664*
X02107Y04662*
X02107Y04661*
Y0466*
Y0466*
Y0466*
X02107Y0466*
Y04659*
X02107Y04659*
X02107Y04658*
X02107Y04658*
X02107Y04656*
X02108Y04655*
X02108Y04653*
X02109Y04652*
Y04652*
X02109Y04652*
X02109Y04652*
X02109Y04651*
X02109Y04651*
X0211Y0465*
X02111Y04649*
X02111Y04648*
X02113Y04647*
X02114Y04647*
X02114*
X02114Y04647*
X02114Y04647*
X02114Y04647*
X02115Y04646*
X02115Y04646*
X02116Y04646*
X02117Y04646*
X02118Y04645*
X0212Y04645*
X02121Y04645*
X02121*
X02122Y04645*
X02123Y04645*
X02124Y04645*
X02125Y04646*
X02126Y04646*
X02127Y04646*
X02127*
X02127Y04646*
X02128Y04646*
X02128Y04647*
X02128Y04647*
X02129Y04647*
X0213Y04648*
X02131Y04648*
X02131Y04649*
X02132Y04649*
Y04656*
X02121*
Y04661*
X02137*
Y04647*
X02137Y04647*
X02137Y04646*
X02137Y04646*
X02136Y04646*
X02136Y04646*
X02136Y04646*
X02135Y04645*
X02134Y04644*
X02132Y04643*
X02131Y04643*
X02129Y04642*
X02129*
X02129Y04642*
X02129Y04642*
X02129Y04642*
X02128Y04642*
X02128Y04642*
X02127Y04641*
X02127Y04641*
X02126Y04641*
X02124Y04641*
X02123Y04641*
X02121Y04641*
X02121*
X0212Y04641*
X0212*
X02119Y04641*
X02119Y04641*
X02118Y04641*
X02116Y04641*
X02114Y04642*
X02113Y04642*
X02111Y04643*
X02111Y04643*
X02111Y04643*
X0211Y04643*
X0211Y04643*
X0211Y04644*
X02109Y04644*
X02108Y04645*
X02107Y04646*
X02106Y04647*
X02105Y04648*
X02104Y0465*
Y0465*
X02104Y0465*
X02104Y0465*
X02104Y04651*
X02103Y04651*
X02103Y04652*
X02103Y04652*
X02103Y04653*
X02103Y04654*
X02102Y04655*
X02102Y04656*
X02102Y04658*
X02102Y0466*
Y0466*
Y0466*
Y04661*
X02102Y04661*
Y04662*
X02102Y04662*
X02102Y04663*
X02102Y04664*
X02102Y04665*
X02103Y04667*
X02103Y04669*
X02104Y04671*
Y04671*
X02104Y04671*
X02104Y04671*
X02104Y04672*
X02105Y04672*
X02105Y04672*
X02106Y04673*
X02107Y04675*
X02108Y04676*
X02109Y04677*
X0211Y04677*
X02111Y04678*
X02111*
X02111Y04678*
X02111Y04678*
X02111Y04678*
X02112Y04679*
X02112Y04679*
X02113Y04679*
X02114Y04679*
X02114Y04679*
X02115Y0468*
X02117Y0468*
X02119Y0468*
X02121Y0468*
X02121*
X02122Y0468*
G37*
G36*
X02096Y04675D02*
X02075D01*
Y04663*
X02093*
Y04659*
X02075*
Y04641*
X0207*
Y0468*
X02096*
Y04675*
G37*
G36*
X04689Y04263D02*
X04684D01*
Y04293*
X04684Y04293*
X04684Y04293*
X04683Y04293*
X04683Y04292*
X04682Y04292*
X04681Y04291*
X04681Y04291*
X0468Y0429*
X04679*
X04679Y0429*
X04679Y0429*
X04679Y04289*
X04678Y04289*
X04677Y04289*
X04676Y04288*
X04675Y04288*
X04675Y04288*
Y04292*
X04675*
X04675Y04292*
X04675Y04292*
X04675Y04293*
X04676Y04293*
X04676Y04293*
X04677Y04293*
X04678Y04294*
X04679Y04295*
X0468Y04296*
X04681Y04297*
X04682Y04297*
X04682Y04297*
X04682Y04297*
X04682Y04298*
X04683Y04298*
X04684Y04299*
X04685Y043*
X04685Y04301*
X04686Y04302*
X04689*
Y04263*
G37*
G36*
X04668Y04297D02*
X04655D01*
Y04263*
X0465*
Y04297*
X04637*
Y04302*
X04668*
Y04297*
G37*
G36*
X046Y04448D02*
X04595D01*
Y04478*
X04595Y04478*
X04595Y04478*
X04594Y04478*
X04594Y04477*
X04593Y04477*
X04592Y04476*
X04591Y04476*
X0459Y04475*
X0459*
X0459Y04475*
X0459Y04475*
X04589Y04475*
X04589Y04474*
X04588Y04474*
X04587Y04473*
X04586Y04473*
X04585Y04473*
Y04477*
X04586*
X04586Y04477*
X04586Y04477*
X04586Y04478*
X04586Y04478*
X04587Y04478*
X04588Y04479*
X04589Y04479*
X0459Y0448*
X04591Y04481*
X04592Y04482*
X04592Y04482*
X04592Y04482*
X04593Y04482*
X04593Y04483*
X04594Y04483*
X04595Y04484*
X04595Y04485*
X04596Y04486*
X04597Y04487*
X046*
Y04448*
G37*
G36*
X04566Y04487D02*
X04566Y04487D01*
X04567Y04487*
X04567Y04487*
X04568Y04487*
X04569Y04486*
X04571Y04486*
X04571Y04485*
X04572Y04485*
X04573Y04484*
X04573Y04484*
X04574Y04484*
X04574Y04484*
X04574Y04484*
X04574Y04483*
X04574Y04483*
X04575Y04483*
X04575Y04482*
X04576Y04481*
X04576Y04479*
X04577Y04478*
X04577Y04477*
X04577Y04476*
Y04476*
Y04476*
X04577Y04475*
X04577Y04475*
X04577Y04474*
X04576Y04473*
X04576Y04472*
X04576Y04472*
X04576Y04472*
X04576Y04471*
X04575Y04471*
X04575Y0447*
X04575Y0447*
X04574Y04469*
X04573Y04468*
X04573Y04467*
X04572Y04467*
X04572Y04467*
X04572Y04466*
X04571Y04466*
X04571Y04465*
X0457Y04465*
X0457Y04464*
X04569Y04464*
X04569Y04463*
X04568Y04462*
X04567Y04462*
X04566Y04461*
X04565Y0446*
X04565Y0446*
X04565Y0446*
X04565Y0446*
X04565Y0446*
X04564Y04459*
X04563Y04458*
X04562Y04457*
X04561Y04457*
X0456Y04456*
X0456Y04456*
X0456Y04455*
X0456Y04455*
X0456Y04455*
X04559Y04455*
X04559Y04455*
X04559Y04454*
X04558Y04453*
X04577*
Y04448*
X04551*
Y04448*
Y04449*
Y04449*
X04551Y04449*
X04551Y0445*
X04552Y0445*
X04552Y04451*
X04552Y04452*
Y04452*
X04552Y04452*
X04552Y04452*
X04552Y04452*
X04553Y04453*
X04553Y04454*
X04554Y04455*
X04554Y04456*
X04555Y04457*
Y04457*
X04555Y04457*
X04555Y04457*
X04556Y04458*
X04557Y04458*
X04557Y04459*
X04558Y0446*
X0456Y04461*
X04561Y04462*
X04561Y04463*
X04561Y04463*
X04562Y04463*
X04562Y04463*
X04563Y04464*
X04563Y04464*
X04565Y04465*
X04566Y04467*
X04567Y04468*
X04568Y04469*
X04569Y04469*
X04569Y0447*
X0457Y04471*
Y04471*
X0457Y04471*
X0457Y04471*
X0457Y04471*
X0457Y04472*
X04571Y04472*
X04571Y04473*
X04572Y04474*
X04572Y04475*
X04572Y04476*
Y04476*
Y04476*
X04572Y04477*
X04572Y04477*
X04572Y04478*
X04571Y04479*
X04571Y0448*
X04571Y0448*
X0457Y04481*
X0457Y04481*
X04569Y04481*
X04569Y04482*
X04568Y04482*
X04568Y04482*
X04567Y04483*
X04566Y04483*
X04565Y04483*
X04564*
X04564Y04483*
X04563Y04483*
X04563Y04483*
X04562Y04482*
X04561Y04482*
X0456Y04482*
X04559Y04481*
X04559Y04481*
X04559Y04481*
X04558Y0448*
X04558Y04479*
X04558Y04479*
X04557Y04478*
X04557Y04477*
X04557Y04475*
X04552Y04476*
Y04476*
Y04476*
X04552Y04476*
X04552Y04477*
X04552Y04477*
X04553Y04478*
X04553Y04479*
X04553Y0448*
X04554Y04482*
X04555Y04483*
X04555Y04483*
X04556Y04484*
X04556Y04484*
X04556Y04484*
X04556Y04484*
X04556Y04485*
X04557Y04485*
X04557Y04485*
X04558Y04485*
X04558Y04486*
X04559Y04486*
X04559Y04486*
X0456Y04486*
X04561Y04486*
X04563Y04487*
X04564Y04487*
X04565Y04487*
X04565*
X04566Y04487*
G37*
G36*
X04534Y04487D02*
X04534D01*
X04535Y04487*
X04536Y04487*
X04538Y04486*
X04539Y04486*
X0454Y04486*
X0454Y04486*
X0454*
X0454Y04486*
X04541Y04486*
X04541Y04485*
X04542Y04485*
X04542Y04484*
X04543Y04484*
X04544Y04483*
X04544Y04482*
X04544Y04482*
X04545Y04482*
X04545Y04481*
X04545Y0448*
X04545Y04479*
X04546Y04478*
X04546Y04477*
X04546Y04476*
Y04476*
Y04476*
Y04476*
X04546Y04476*
Y04475*
X04546Y04475*
X04546Y04474*
X04545Y04473*
X04545Y04472*
X04544Y0447*
X04544Y0447*
X04543Y04469*
X04543Y04469*
X04543Y04469*
X04543Y04469*
X04543Y04469*
X04542Y04468*
X04542Y04468*
X04541Y04468*
X04541Y04468*
X0454Y04467*
X04539Y04467*
X04539Y04467*
X04538Y04466*
X04537Y04466*
X04536Y04466*
X04535Y04466*
X04535Y04466*
X04535Y04466*
X04536Y04465*
X04536Y04465*
X04537Y04465*
X04538Y04464*
X04538Y04464*
X04538Y04464*
X04539Y04464*
X04539Y04463*
X0454Y04462*
X0454Y04462*
X04541Y04461*
X04542Y0446*
X04542Y04459*
X04549Y04448*
X04543*
X04538Y04456*
Y04456*
X04537Y04456*
X04537Y04457*
X04537Y04457*
X04537Y04457*
X04536Y04458*
X04536Y04459*
X04535Y0446*
X04534Y04461*
X04534Y04462*
X04534Y04462*
X04534Y04462*
X04533Y04462*
X04533Y04463*
X04532Y04463*
X04532Y04464*
X04531Y04464*
X04531Y04464*
X04531Y04464*
X04531Y04464*
X04531Y04465*
X0453Y04465*
X04529Y04465*
X04529*
X04529Y04465*
X04529*
X04528Y04465*
X04528Y04465*
X04527*
X04527Y04465*
X0452*
Y04448*
X04515*
Y04487*
X04533*
X04534Y04487*
G37*
G36*
X04212Y0423D02*
X04182D01*
X04182Y0423*
X04182Y0423*
X04183Y0423*
X04183Y04229*
X04184Y04229*
X04184Y04228*
X04185Y04227*
X04185Y04226*
Y04226*
X04185Y04226*
X04186Y04225*
X04186Y04225*
X04186Y04224*
X04187Y04224*
X04187Y04223*
X04187Y04222*
X04188Y04221*
X04183*
Y04221*
X04183Y04221*
X04183Y04221*
X04183Y04222*
X04183Y04222*
X04182Y04222*
X04182Y04223*
X04181Y04224*
X04181Y04226*
X0418Y04227*
X04179Y04228*
X04179Y04228*
X04179Y04228*
X04178Y04228*
X04178Y04229*
X04177Y0423*
X04176Y0423*
X04175Y04231*
X04174Y04232*
X04173Y04232*
Y04235*
X04212*
Y0423*
G37*
G36*
X04194Y04212D02*
X04194D01*
X04195Y04212*
X04196Y04212*
X04198Y04212*
X04199Y04212*
X042Y04211*
X04201*
X04201Y04211*
X04201Y04211*
X04201Y04211*
X04202Y04211*
X04202Y04211*
X04203Y0421*
X04204Y0421*
X04205Y04209*
X04206Y04209*
X04206Y04209*
X04206Y04208*
X04207Y04208*
X04207Y04208*
X04208Y04207*
X04208Y04206*
X04209Y04206*
X0421Y04205*
X0421Y04205*
X0421Y04205*
X0421Y04204*
X0421Y04204*
X04211Y04203*
X04211Y04202*
X04211Y04202*
X04211Y04201*
Y042*
X04212Y042*
X04212Y042*
X04212Y04199*
X04212Y04198*
X04212Y04197*
X04212Y04196*
X04212Y04194*
Y04181*
X04174*
Y04195*
X04174Y04196*
X04174Y04197*
X04174Y04199*
X04174Y042*
X04174Y04201*
Y04201*
X04174Y04201*
Y04201*
X04174Y04201*
X04175Y04202*
X04175Y04203*
X04175Y04203*
X04176Y04204*
X04176Y04205*
X04177Y04206*
Y04206*
X04177Y04206*
X04177Y04207*
X04178Y04207*
X04179Y04208*
X0418Y04209*
X04181Y04209*
X04182Y0421*
X04184Y04211*
X04184*
X04184Y04211*
X04184Y04211*
X04184Y04211*
X04185Y04211*
X04185Y04211*
X04186Y04211*
X04186Y04212*
X04187Y04212*
X04188Y04212*
X04189Y04212*
X04191Y04212*
X04193Y04212*
X04193*
X04193*
X04193*
X04193*
X04194Y04212*
G37*
G36*
X03609Y04665D02*
X0361Y04664D01*
X0361Y04664*
X03611Y04664*
X03612Y04664*
X03613Y04664*
X03615Y04663*
X03616Y04663*
X03616Y04663*
X03617Y04662*
X03618Y04662*
X03618Y04662*
X03618Y04661*
X03618Y04661*
X03618Y04661*
X03619Y04661*
X03619Y0466*
X0362Y0466*
X0362Y04659*
X0362Y04659*
X03621Y04658*
X03621Y04658*
X03622Y04657*
X03622Y04656*
X03623Y04655*
X03623Y04653*
X03618Y04652*
Y04652*
X03618Y04652*
X03618Y04653*
X03618Y04653*
X03618Y04653*
X03618Y04654*
X03617Y04655*
X03617Y04655*
X03616Y04657*
X03615Y04657*
X03614Y04658*
X03614Y04658*
X03614Y04659*
X03613Y04659*
X03613Y04659*
X03612Y0466*
X03611Y0466*
X03609Y0466*
X03608Y0466*
X03608*
X03607Y0466*
X03607*
X03606Y0466*
X03605Y0466*
X03604Y0466*
X03603Y04659*
X03602Y04659*
X03601Y04658*
X03601*
X03601Y04658*
X036Y04658*
X036Y04657*
X03599Y04657*
X03598Y04656*
X03598Y04655*
X03597Y04654*
X03596Y04652*
Y04652*
X03596Y04652*
X03596Y04652*
X03596Y04652*
X03596Y04651*
X03596Y04651*
X03596Y0465*
X03596Y04649*
X03595Y04648*
X03595Y04646*
X03595Y04645*
Y04645*
Y04645*
Y04645*
Y04644*
X03595Y04644*
Y04643*
X03595Y04643*
X03595Y04642*
X03596Y04641*
X03596Y04639*
X03596Y04638*
X03597Y04636*
Y04636*
X03597Y04636*
X03597Y04636*
X03597Y04636*
X03597Y04635*
X03598Y04634*
X03598Y04633*
X03599Y04633*
X036Y04632*
X03601Y04631*
X03601*
X03601Y04631*
X03601Y04631*
X03602Y04631*
X03602Y0463*
X03603Y0463*
X03604Y0463*
X03605Y04629*
X03606Y04629*
X03608Y04629*
X03608*
X03608Y04629*
X03609*
X03609Y04629*
X0361Y04629*
X03611Y0463*
X03613Y0463*
X03614Y04631*
X03615Y04632*
X03615Y04632*
X03615Y04632*
X03615Y04632*
X03616Y04633*
X03616Y04633*
X03617Y04634*
X03618Y04636*
X03618Y04637*
X03619Y04639*
X03624Y04638*
Y04638*
X03624Y04637*
X03624Y04637*
X03624Y04637*
X03623Y04636*
X03623Y04635*
X03623Y04635*
X03623Y04634*
X03622Y04633*
X03621Y04631*
X0362Y04629*
X03619Y04629*
X03618Y04628*
X03618Y04628*
X03618Y04628*
X03618Y04628*
X03617Y04628*
X03617Y04627*
X03617Y04627*
X03616Y04627*
X03615Y04626*
X03615Y04626*
X03614Y04626*
X03613Y04626*
X03612Y04625*
X0361Y04625*
X03609Y04625*
X03608Y04625*
X03607*
X03607Y04625*
X03606*
X03606Y04625*
X03605Y04625*
X03605Y04625*
X03603Y04625*
X03601Y04626*
X036Y04627*
X03599Y04627*
X03598Y04627*
X03598Y04627*
X03598Y04627*
X03598Y04628*
X03597Y04628*
X03597Y04628*
X03596Y04629*
X03595Y0463*
X03594Y04632*
X03593Y04633*
X03592Y04635*
Y04635*
X03592Y04635*
X03592Y04635*
X03592Y04635*
X03592Y04636*
X03591Y04636*
X03591Y04637*
X03591Y04638*
X03591Y04638*
X03591Y04639*
X0359Y04641*
X0359Y04643*
X0359Y04645*
Y04645*
Y04645*
Y04646*
X0359Y04646*
Y04646*
X0359Y04647*
X0359Y04648*
X0359Y04649*
X03591Y0465*
X03591Y04652*
X03592Y04654*
X03592Y04655*
Y04655*
X03592Y04656*
X03593Y04656*
X03593Y04656*
X03593Y04657*
X03593Y04657*
X03594Y04658*
X03595Y04659*
X03596Y0466*
X03597Y04661*
X03599Y04662*
X03599*
X03599Y04662*
X03599Y04662*
X036Y04663*
X036Y04663*
X036Y04663*
X03601Y04663*
X03602Y04663*
X03602Y04664*
X03603Y04664*
X03605Y04664*
X03606Y04664*
X03608Y04665*
X03609*
X03609Y04665*
G37*
G36*
X03641Y04664D02*
X03642Y04664D01*
X03643Y04664*
X03644Y04664*
X03645Y04663*
X03646Y04663*
X03646*
X03646Y04663*
X03647Y04662*
X03647Y04662*
X03648Y04662*
X03648Y04661*
X03649Y04661*
X0365Y0466*
X0365Y04659*
X0365Y04659*
X0365Y04659*
X03651Y04658*
X03651Y04658*
X03651Y04657*
X03651Y04656*
X03652Y04655*
X03652Y04654*
Y04654*
Y04654*
X03652Y04653*
X03651Y04653*
X03651Y04652*
X03651Y04651*
X03651Y0465*
X0365Y0465*
X0365Y04649*
X0365Y04649*
X0365Y04649*
X03649Y04648*
X03649Y04648*
X03648Y04647*
X03647Y04647*
X03646Y04646*
X03646*
X03646Y04646*
X03647*
X03647Y04646*
X03647Y04646*
X03648Y04646*
X03649Y04645*
X0365Y04645*
X03651Y04644*
X03652Y04643*
X03652Y04643*
X03652Y04643*
X03652Y04642*
X03653Y04641*
X03653Y0464*
X03653Y04639*
X03653Y04638*
X03653Y04637*
Y04637*
Y04637*
Y04636*
X03653Y04636*
X03653Y04636*
X03653Y04635*
X03653Y04634*
X03653Y04634*
X03653Y04633*
X03652Y04632*
X03652Y04631*
X03651Y0463*
X03651Y0463*
X0365Y04629*
X0365Y04628*
X0365Y04628*
X0365Y04628*
X03649Y04628*
X03649Y04628*
X03649Y04627*
X03648Y04627*
X03648Y04627*
X03647Y04627*
X03647Y04626*
X03646Y04626*
X03645Y04626*
X03644Y04625*
X03643Y04625*
X03643Y04625*
X03642Y04625*
X03641Y04625*
X0364*
X0364Y04625*
X03639Y04625*
X03639Y04625*
X03638Y04625*
X03638Y04625*
X03636Y04626*
X03635Y04626*
X03634Y04626*
X03634Y04627*
X03633Y04627*
X03632Y04628*
X03632Y04628*
X03632Y04628*
X03632Y04628*
X03632Y04628*
X03631Y04629*
X03631Y04629*
X03631Y04629*
X0363Y0463*
X0363Y04631*
X03629Y04632*
X03629Y04634*
X03628Y04635*
X03628Y04636*
X03633Y04636*
Y04636*
X03633Y04636*
Y04636*
X03633Y04636*
X03633Y04635*
X03634Y04634*
X03634Y04633*
X03635Y04632*
X03635Y04631*
X03636Y04631*
X03636Y0463*
X03636Y0463*
X03637Y0463*
X03637Y0463*
X03638Y04629*
X03639Y04629*
X0364Y04629*
X03641Y04629*
X03641*
X03641Y04629*
X03642Y04629*
X03642Y04629*
X03643Y04629*
X03644Y0463*
X03645Y0463*
X03646Y04631*
X03646Y04631*
X03647Y04631*
X03647Y04632*
X03647Y04633*
X03648Y04633*
X03648Y04634*
X03648Y04636*
X03648Y04637*
Y04637*
Y04637*
Y04637*
X03648Y04637*
X03648Y04638*
X03648Y04639*
X03648Y04639*
X03648Y0464*
X03647Y04641*
X03646Y04642*
X03646Y04642*
X03646Y04642*
X03645Y04643*
X03645Y04643*
X03644Y04644*
X03643Y04644*
X03642Y04644*
X03641Y04644*
X0364*
X0364Y04644*
X0364Y04644*
X03639Y04644*
X03638Y04644*
X03638Y04644*
X03638Y04648*
X03638*
X03639Y04648*
X03639*
X0364Y04648*
X03641Y04648*
X03642Y04648*
X03642Y04648*
X03643Y04649*
X03644Y04649*
X03644Y04649*
X03645Y0465*
X03645Y0465*
X03646Y04651*
X03646Y04651*
X03646Y04652*
X03647Y04653*
X03647Y04654*
Y04654*
Y04654*
Y04655*
X03647Y04655*
X03647Y04656*
X03646Y04656*
X03646Y04657*
X03646Y04658*
X03645Y04658*
X03645Y04659*
X03645Y04659*
X03644Y04659*
X03644Y04659*
X03643Y0466*
X03642Y0466*
X03641Y0466*
X0364Y0466*
X0364*
X03639Y0466*
X03639Y0466*
X03638Y0466*
X03637Y04659*
X03637Y04659*
X03636Y04658*
X03636Y04658*
X03636Y04658*
X03635Y04658*
X03635Y04657*
X03635Y04656*
X03634Y04656*
X03634Y04655*
X03634Y04653*
X03629Y04654*
Y04654*
X03629Y04654*
X03629Y04655*
X03629Y04655*
X03629Y04655*
X03629Y04656*
X0363Y04657*
X0363Y04658*
X03631Y04659*
X03632Y0466*
X03633Y04661*
X03633Y04662*
X03633Y04662*
X03633Y04662*
X03633Y04662*
X03634Y04662*
X03634Y04662*
X03635Y04663*
X03636Y04663*
X03637Y04664*
X03639Y04664*
X0364Y04664*
X03641*
X03641Y04664*
G37*
G36*
X02656Y03834D02*
X02651D01*
X0263Y03864*
Y03834*
X02625*
Y03873*
X02631*
X02651Y03842*
Y03873*
X02656*
Y03834*
G37*
G36*
X05236Y04291D02*
X05231D01*
X05216Y04329*
X05222*
X05231Y04301*
Y04301*
X05232Y04301*
X05232Y04301*
X05232Y04301*
X05232Y043*
X05232Y04299*
X05233Y04298*
X05233Y04297*
X05234Y04295*
Y04295*
X05234Y04295*
X05234Y04295*
X05234Y04296*
X05234Y04296*
X05234Y04297*
X05234Y04298*
X05235Y04299*
X05235Y043*
X05236Y04301*
X05246Y04329*
X05251*
X05236Y04291*
G37*
G36*
X05328Y04307D02*
Y04307D01*
Y04307*
Y04307*
Y04306*
X05328Y04306*
Y04305*
X05328Y04304*
X05328Y04304*
X05327Y04302*
X05327Y04301*
X05327Y04299*
X05326Y04298*
Y04298*
X05326Y04298*
X05326Y04298*
X05326Y04297*
X05326Y04297*
X05325Y04296*
X05325Y04295*
X05324Y04294*
X05323Y04293*
X05322Y04292*
X05322*
X05321Y04292*
X05321Y04292*
X05321Y04292*
X05321Y04292*
X0532Y04292*
X0532Y04291*
X05319Y04291*
X05319Y04291*
X05318Y04291*
X05317Y04291*
X05316Y04291*
X05315Y0429*
X05313Y0429*
X05312*
X05312Y0429*
X05311*
X05311Y0429*
X0531Y0429*
X0531Y0429*
X05308Y04291*
X05307Y04291*
X05305Y04291*
X05304Y04292*
X05304*
X05304Y04292*
X05304Y04292*
X05303Y04292*
X05303Y04293*
X05302Y04293*
X05301Y04294*
X053Y04295*
X053Y04296*
X05299Y04297*
Y04297*
X05299Y04298*
X05299Y04298*
X05299Y04298*
X05299Y04298*
X05299Y04299*
X05298Y04299*
X05298Y043*
X05298Y04301*
X05298Y04301*
X05298Y04302*
X05298Y04303*
X05298Y04304*
X05298Y04305*
X05298Y04306*
Y04307*
Y04329*
X05303*
Y04307*
Y04307*
Y04307*
Y04307*
Y04306*
Y04306*
X05303Y04305*
X05303Y04304*
X05303Y04303*
X05303Y04302*
X05303Y04301*
X05303Y043*
X05303Y043*
X05304Y043*
X05304Y04299*
X05304Y04299*
X05304Y04298*
X05305Y04298*
X05305Y04297*
X05306Y04297*
X05307Y04296*
X05307Y04296*
X05307Y04296*
X05308Y04296*
X05308Y04295*
X05309Y04295*
X0531Y04295*
X05311Y04295*
X05312Y04295*
X05313*
X05313Y04295*
X05314*
X05314Y04295*
X05315Y04295*
X05317Y04295*
X05318Y04296*
X05319Y04296*
X0532Y04297*
X0532Y04297*
Y04297*
X0532Y04297*
X0532Y04298*
X05321Y04298*
X05321Y04298*
X05321Y04298*
X05321Y04299*
X05321Y04299*
X05322Y043*
X05322Y04301*
X05322Y04302*
X05322Y04302*
X05322Y04303*
X05323Y04305*
X05323Y04306*
Y04307*
Y04329*
X05328*
Y04307*
G37*
G36*
X05364Y04325D02*
X05351D01*
Y04291*
X05346*
Y04325*
X05333*
Y04329*
X05364*
Y04325*
G37*
G36*
X05273Y0433D02*
X05274D01*
X05274Y0433*
X05275Y0433*
X05276Y0433*
X05277Y04329*
X05279Y04329*
X05281Y04328*
X05281Y04328*
X05282Y04327*
X05282*
X05282Y04327*
X05283Y04327*
X05283Y04327*
X05283Y04327*
X05284Y04326*
X05285Y04326*
X05286Y04325*
X05287Y04323*
X05288Y04322*
X05289Y0432*
Y0432*
X05289Y0432*
X05289Y0432*
X05289Y04319*
X05289Y04319*
X05289Y04319*
X0529Y04318*
X0529Y04317*
X0529Y04317*
X0529Y04316*
X05291Y04314*
X05291Y04312*
X05291Y0431*
Y0431*
Y0431*
Y04309*
X05291Y04309*
Y04308*
X05291Y04308*
X05291Y04307*
X05291Y04306*
X0529Y04305*
X0529Y04303*
X05289Y04301*
X05289Y043*
Y04299*
X05288Y04299*
X05288Y04299*
X05288Y04299*
X05288Y04298*
X05288Y04298*
X05287Y04297*
X05286Y04296*
X05285Y04295*
X05283Y04294*
X05282Y04293*
X05282*
X05282Y04292*
X05281Y04292*
X05281Y04292*
X05281Y04292*
X0528Y04292*
X0528Y04292*
X05279Y04291*
X05278Y04291*
X05276Y04291*
X05274Y0429*
X05273Y0429*
X05272*
X05272Y0429*
X05271*
X05271Y0429*
X0527Y0429*
X05269Y04291*
X05268Y04291*
X05266Y04291*
X05264Y04292*
X05264Y04292*
X05263Y04293*
X05263Y04293*
X05263Y04293*
X05262Y04293*
X05262Y04293*
X05262Y04294*
X05261Y04294*
X0526Y04295*
X05259Y04296*
X05258Y04297*
X05257Y04298*
X05256Y043*
Y043*
X05256Y043*
X05256Y043*
X05256Y04301*
X05256Y04301*
X05256Y04302*
X05255Y04302*
X05255Y04303*
X05255Y04304*
X05255Y04304*
X05255Y04306*
X05254Y04308*
X05254Y0431*
Y0431*
Y0431*
X05254Y0431*
Y04311*
X05254Y04312*
X05254Y04313*
X05255Y04314*
X05255Y04315*
X05255Y04316*
X05255Y04317*
X05256Y04319*
X05256Y0432*
X05257Y04321*
X05258Y04322*
X05258Y04323*
X05259Y04324*
X05259Y04325*
X0526Y04325*
X0526Y04325*
X0526Y04325*
X05261Y04326*
X05261Y04326*
X05262Y04327*
X05263Y04327*
X05264Y04328*
X05265Y04328*
X05266Y04329*
X05267Y04329*
X05268Y04329*
X0527Y0433*
X05271Y0433*
X05273Y0433*
X05273*
X05273Y0433*
G37*
G36*
X04102Y04154D02*
X04103D01*
X04103Y04154*
X04104Y04154*
X04106Y04154*
X04107Y04153*
X04108Y04153*
X04108*
X04108Y04153*
X04108Y04152*
X04108Y04152*
X04109Y04152*
X0411Y04152*
X0411Y04151*
X04111Y0415*
X04112Y04149*
X04113Y04148*
X04113Y04148*
X04113Y04148*
X04113Y04147*
X04114Y04147*
X04114Y04146*
X04114Y04145*
X04114Y04143*
X04114Y04142*
Y04142*
X04114Y04142*
Y04141*
X04114Y04141*
X04114Y0414*
X04114Y04139*
X04114Y04139*
X04114Y04138*
X04113Y04137*
X04113Y04136*
X04113Y04136*
X04112Y04135*
X04111Y04134*
X04111Y04133*
X0411Y04133*
X0411Y04132*
X0411Y04132*
X0411Y04132*
X04109Y04132*
X04109Y04132*
X04108Y04131*
X04107Y04131*
X04107Y04131*
X04106Y0413*
X04105Y0413*
X04103Y0413*
X04102Y04129*
X04101Y04129*
X04099Y04129*
X04098Y04129*
X04096Y04129*
X04096*
X04096*
X04095*
X04095*
X04095*
X04094Y04129*
X04093Y04129*
X04092Y04129*
X04091Y04129*
X0409Y04129*
X04088Y0413*
X04087Y0413*
X04085Y0413*
X04084Y04131*
X04083Y04131*
X04082Y04132*
X04081Y04132*
X0408Y04133*
X04079Y04133*
X04079Y04133*
X04079Y04133*
X04079Y04134*
X04078Y04134*
X04078Y04134*
X04078Y04135*
X04077Y04136*
X04077Y04136*
X04076Y04137*
X04076Y04138*
X04076Y04139*
X04075Y04139*
X04075Y0414*
X04075Y04142*
X04075Y04143*
Y04143*
X04075Y04143*
Y04144*
X04075Y04144*
X04075Y04145*
X04076Y04146*
X04076Y04148*
X04077Y04149*
X04077Y04149*
X04078Y0415*
Y0415*
X04078Y0415*
X04078Y04151*
X04079Y04151*
X04079Y04152*
X0408Y04152*
X04082Y04153*
X04083Y04153*
X04085Y04154*
X04085Y04149*
X04085*
X04085*
X04084Y04149*
X04084Y04149*
X04083Y04148*
X04082Y04148*
X04082Y04147*
X04081Y04147*
X04081Y04147*
X04081Y04147*
X0408Y04146*
X0408Y04146*
X0408Y04145*
X04079Y04144*
X04079Y04143*
X04079Y04142*
Y04142*
X04079Y04142*
X04079Y04141*
X04079Y0414*
X04079Y0414*
X0408Y04139*
X0408Y04138*
X0408Y04138*
X04081Y04138*
X04081Y04138*
X04081Y04137*
X04082Y04136*
X04083Y04136*
X04084Y04135*
X04085Y04135*
X04085*
X04085Y04135*
X04085Y04135*
X04086Y04135*
X04086Y04135*
X04086Y04134*
X04087Y04134*
X04087Y04134*
X04088Y04134*
X04089Y04134*
X04089Y04134*
X0409Y04134*
X04091Y04134*
X04092Y04134*
X04093Y04134*
X04094*
X04094Y04134*
X04093Y04134*
X04093Y04134*
X04092Y04135*
X04092Y04135*
X04091Y04136*
X04091Y04137*
X0409Y04138*
X0409Y04138*
X0409Y04138*
X0409Y04139*
X04089Y04139*
X04089Y0414*
X04089Y04141*
X04089Y04142*
X04089Y04143*
Y04143*
X04089Y04144*
X04089Y04144*
X04089Y04145*
X04089Y04146*
X0409Y04147*
X0409Y04148*
X0409Y04148*
X04091Y04149*
X04091Y0415*
X04092Y0415*
X04092Y04151*
X04092Y04151*
X04092Y04151*
X04093Y04151*
X04093Y04151*
X04093Y04152*
X04094Y04152*
X04094Y04152*
X04095Y04153*
X04095Y04153*
X04096Y04153*
X04097Y04153*
X04097Y04154*
X04098Y04154*
X04099Y04154*
X041Y04154*
X04101Y04154*
X04101*
X04101*
X04102*
X04102*
X04102Y04154*
G37*
G36*
X04114Y04112D02*
X04084D01*
X04084Y04112*
X04084Y04112*
X04084Y04112*
X04085Y04111*
X04085Y0411*
X04086Y0411*
X04086Y04109*
X04087Y04108*
Y04108*
X04087Y04108*
X04087Y04107*
X04087Y04107*
X04088Y04106*
X04088Y04105*
X04089Y04105*
X04089Y04104*
X04089Y04103*
X04085*
Y04103*
X04085Y04103*
X04085Y04103*
X04084Y04104*
X04084Y04104*
X04084Y04104*
X04083Y04105*
X04083Y04106*
X04082Y04107*
X04081Y04109*
X0408Y0411*
X0408Y0411*
X0408Y0411*
X0408Y0411*
X04079Y04111*
X04079Y04111*
X04078Y04112*
X04077Y04113*
X04076Y04113*
X04075Y04114*
Y04117*
X04114*
Y04112*
G37*
G36*
Y0409D02*
X04106Y04085D01*
X04106*
X04106Y04085*
X04105Y04085*
X04105Y04084*
X04105Y04084*
X04104Y04084*
X04103Y04083*
X04102Y04082*
X04101Y04082*
X041Y04081*
X041Y04081*
X041Y04081*
X041Y04081*
X04099Y0408*
X04099Y04079*
X04098Y04079*
X04098Y04079*
X04098Y04079*
X04098Y04078*
X04098Y04078*
X04097Y04078*
X04097Y04077*
X04097Y04076*
Y04076*
X04097Y04076*
Y04076*
X04097Y04076*
X04097Y04075*
Y04075*
X04097Y04074*
Y04068*
X04114*
Y04062*
X04075*
Y0408*
X04075Y04081*
Y04081*
X04075Y04082*
X04075Y04084*
X04076Y04085*
X04076Y04086*
X04076Y04087*
X04076Y04087*
Y04087*
X04076Y04087*
X04076Y04088*
X04077Y04088*
X04077Y04089*
X04078Y0409*
X04078Y0409*
X04079Y04091*
X0408Y04092*
X0408Y04092*
X0408Y04092*
X04081Y04092*
X04082Y04092*
X04083Y04093*
X04084Y04093*
X04085Y04093*
X04086Y04093*
X04086*
X04086*
X04086*
X04086Y04093*
X04087*
X04087Y04093*
X04088Y04093*
X04089Y04093*
X0409Y04092*
X04092Y04091*
X04092Y04091*
X04093Y04091*
X04093Y0409*
X04093Y0409*
X04093Y0409*
X04093Y0409*
X04094Y04089*
X04094Y04089*
X04094Y04089*
X04094Y04088*
X04095Y04087*
X04095Y04087*
X04095Y04086*
X04096Y04085*
X04096Y04084*
X04096Y04083*
X04096Y04082*
X04096Y04083*
X04096Y04083*
X04097Y04083*
X04097Y04083*
X04097Y04084*
X04098Y04085*
X04098Y04085*
X04098Y04086*
X04098Y04086*
X04099Y04086*
X041Y04087*
X041Y04087*
X04101Y04088*
X04102Y04089*
X04103Y0409*
X04114Y04096*
Y0409*
G37*
G36*
X04291Y04472D02*
X04286D01*
Y04502*
X04286Y04502*
X04286Y04502*
X04286Y04501*
X04285Y04501*
X04285Y045*
X04284Y045*
X04283Y04499*
X04282Y04499*
X04282*
X04282Y04499*
X04282Y04498*
X04281Y04498*
X0428Y04498*
X0428Y04497*
X04279Y04497*
X04278Y04497*
X04277Y04496*
Y04501*
X04277*
X04277Y04501*
X04277Y04501*
X04278Y04501*
X04278Y04501*
X04278Y04502*
X04279Y04502*
X0428Y04503*
X04282Y04504*
X04283Y04504*
X04284Y04505*
X04284Y04505*
X04284Y04505*
X04284Y04506*
X04285Y04506*
X04286Y04507*
X04286Y04508*
X04287Y04509*
X04288Y0451*
X04288Y04511*
X04291*
Y04472*
G37*
G36*
X04251Y04511D02*
X04251D01*
X04252Y04511*
X04253Y04511*
X04253Y04511*
X04255Y0451*
X04256Y0451*
X04258Y04509*
X04259Y04509*
X0426Y04508*
X0426*
X0426Y04508*
X0426Y04508*
X0426Y04508*
X04261Y04508*
X04261Y04507*
X04262Y04507*
X04263Y04506*
X04264Y04504*
X04265Y04503*
X04266Y04501*
Y04501*
X04266Y04501*
X04266Y04501*
X04267Y04501*
X04267Y045*
X04267Y045*
X04267Y04499*
X04267Y04498*
X04268Y04498*
X04268Y04497*
X04268Y04495*
X04268Y04493*
X04268Y04491*
Y04491*
Y04491*
Y04491*
Y0449*
X04268Y0449*
Y04489*
X04268Y04489*
X04268Y04488*
X04268Y04487*
X04268Y04486*
X04267Y04484*
X04267Y04483*
Y04483*
X04267Y04482*
X04267Y04482*
X04267Y04482*
X04267Y04482*
X04266Y04481*
X04266Y0448*
X04265Y04479*
X04265Y04478*
X04264Y04477*
X04263Y04476*
X04263*
X04263Y04476*
X04263Y04476*
X04263Y04476*
X04264Y04475*
X04264Y04475*
X04265Y04475*
X04266Y04474*
X04267Y04474*
X04268Y04473*
X04269Y04472*
X04268Y04469*
X04268*
X04267Y04469*
X04267Y04469*
X04267Y04469*
X04267Y04469*
X04266Y0447*
X04266Y0447*
X04265Y0447*
X04264Y04471*
X04262Y04472*
X04261Y04473*
X04259Y04474*
X04259*
X04259Y04474*
X04259Y04473*
X04259Y04473*
X04258Y04473*
X04258Y04473*
X04257Y04473*
X04257Y04472*
X04256Y04472*
X04255Y04472*
X04254Y04472*
X04252Y04471*
X0425Y04471*
X04249*
X04249Y04471*
X04249*
X04248Y04471*
X04248Y04472*
X04247Y04472*
X04245Y04472*
X04244Y04472*
X04242Y04473*
X04241Y04474*
X04241Y04474*
X0424Y04474*
X0424Y04474*
X0424Y04474*
X0424Y04474*
X04239Y04475*
X04238Y04476*
X04237Y04477*
X04236Y04478*
X04235Y04479*
X04234Y04481*
Y04481*
X04234Y04481*
X04234Y04481*
X04234Y04482*
X04234Y04482*
X04233Y04483*
X04233Y04483*
X04233Y04484*
X04233Y04485*
X04232Y04485*
X04232Y04487*
X04232Y04489*
X04232Y04491*
Y04491*
Y04491*
Y04492*
X04232Y04492*
Y04493*
X04232Y04493*
X04232Y04494*
X04232Y04495*
X04232Y04496*
X04233Y04498*
X04233Y045*
X04234Y04501*
Y04501*
X04234Y04502*
X04234Y04502*
X04234Y04502*
X04235Y04503*
X04235Y04503*
X04236Y04504*
X04237Y04505*
X04238Y04506*
X04239Y04508*
X04241Y04509*
X04241Y04509*
X04241Y04509*
X04241Y04509*
X04241Y04509*
X04242Y04509*
X04242Y04509*
X04243Y0451*
X04243Y0451*
X04244Y0451*
X04245Y0451*
X04246Y04511*
X04248Y04511*
X0425Y04511*
X04251*
X04251Y04511*
G37*
G36*
X02711Y04529D02*
X02712Y04529D01*
X02712Y04529*
X02713Y04529*
X02713Y04529*
X02715Y04528*
X02716Y04528*
X02717Y04527*
X02718Y04527*
X02718Y04527*
X02719Y04526*
X02719Y04526*
X02719Y04526*
X02719Y04526*
X02719Y04525*
X0272Y04525*
X0272Y04525*
X02721Y04524*
X02721Y04523*
X02722Y04522*
X02722Y0452*
X02722Y04519*
X02722Y04518*
Y04518*
Y04518*
X02722Y04518*
X02722Y04517*
X02722Y04516*
X02722Y04515*
X02722Y04515*
X02721Y04514*
X02721Y04514*
X02721Y04513*
X02721Y04513*
X0272Y04512*
X0272Y04512*
X02719Y04511*
X02719Y0451*
X02718Y04509*
X02718Y04509*
X02718Y04509*
X02717Y04508*
X02717Y04508*
X02716Y04507*
X02716Y04507*
X02715Y04506*
X02715Y04506*
X02714Y04505*
X02713Y04505*
X02712Y04504*
X02712Y04503*
X02711Y04502*
X02711Y04502*
X02711Y04502*
X0271Y04502*
X0271Y04502*
X02709Y04501*
X02708Y045*
X02708Y045*
X02707Y04499*
X02706Y04498*
X02706Y04498*
X02705Y04498*
X02705Y04497*
X02705Y04497*
X02705Y04497*
X02705Y04497*
X02704Y04496*
X02703Y04495*
X02722*
Y04491*
X02697*
Y04491*
Y04491*
Y04491*
X02697Y04492*
X02697Y04492*
X02697Y04493*
X02697Y04493*
X02697Y04494*
Y04494*
X02697Y04494*
X02697Y04494*
X02698Y04495*
X02698Y04495*
X02698Y04496*
X02699Y04497*
X027Y04498*
X027Y04499*
Y04499*
X02701Y04499*
X02701Y04499*
X02701Y045*
X02702Y04501*
X02703Y04501*
X02704Y04502*
X02705Y04503*
X02707Y04505*
X02707Y04505*
X02707Y04505*
X02707Y04505*
X02708Y04506*
X02708Y04506*
X02709Y04506*
X0271Y04508*
X02711Y04509*
X02713Y0451*
X02713Y04511*
X02714Y04512*
X02715Y04512*
X02715Y04513*
Y04513*
X02715Y04513*
X02715Y04513*
X02715Y04513*
X02716Y04514*
X02716Y04515*
X02717Y04516*
X02717Y04516*
X02717Y04518*
X02717Y04519*
Y04519*
Y04519*
X02717Y04519*
X02717Y0452*
X02717Y0452*
X02717Y04521*
X02716Y04522*
X02716Y04523*
X02715Y04523*
X02715Y04523*
X02715Y04524*
X02714Y04524*
X02714Y04524*
X02713Y04525*
X02712Y04525*
X02711Y04525*
X0271Y04525*
X0271*
X02709Y04525*
X02709Y04525*
X02708Y04525*
X02707Y04525*
X02706Y04524*
X02705Y04524*
X02705Y04523*
X02704Y04523*
X02704Y04523*
X02704Y04522*
X02704Y04522*
X02703Y04521*
X02703Y0452*
X02703Y04519*
X02702Y04517*
X02698Y04518*
Y04518*
Y04518*
X02698Y04519*
X02698Y04519*
X02698Y04519*
X02698Y0452*
X02698Y04521*
X02699Y04522*
X02699Y04524*
X027Y04525*
X02701Y04526*
X02701Y04526*
X02701Y04526*
X02701Y04526*
X02702Y04527*
X02702Y04527*
X02702Y04527*
X02703Y04527*
X02703Y04527*
X02704Y04528*
X02704Y04528*
X02705Y04528*
X02706Y04528*
X02706Y04529*
X02708Y04529*
X02709Y04529*
X0271Y04529*
X02711*
X02711Y04529*
G37*
G36*
X02693Y04524D02*
X02672D01*
Y04512*
X0269*
Y04508*
X02672*
Y04491*
X02667*
Y04529*
X02693*
Y04524*
G37*
G36*
X02642Y04495D02*
X0266D01*
Y04491*
X02637*
Y04529*
X02642*
Y04495*
G37*
G36*
X03196Y03585D02*
X03191D01*
Y03615*
X03191Y03615*
X03191Y03615*
X0319Y03614*
X0319Y03614*
X03189Y03613*
X03188Y03613*
X03188Y03612*
X03187Y03612*
X03187*
X03187Y03612*
X03186Y03611*
X03186Y03611*
X03185Y03611*
X03184Y0361*
X03183Y0361*
X03183Y0361*
X03182Y03609*
Y03614*
X03182*
X03182Y03614*
X03182Y03614*
X03182Y03614*
X03183Y03614*
X03183Y03615*
X03184Y03615*
X03185Y03616*
X03186Y03617*
X03187Y03617*
X03189Y03618*
X03189Y03618*
X03189Y03618*
X03189Y03619*
X0319Y03619*
X0319Y0362*
X03191Y03621*
X03192Y03622*
X03192Y03623*
X03193Y03624*
X03196*
Y03585*
G37*
G36*
X03173Y03619D02*
X03153D01*
Y03607*
X03171*
Y03602*
X03153*
Y03585*
X03147*
Y03623*
X03173*
Y03619*
G37*
G36*
X03122Y03589D02*
X03141D01*
Y03585*
X03117*
Y03623*
X03122*
Y03589*
G37*
G36*
X02651Y0463D02*
Y0463D01*
Y0463*
Y04629*
Y04629*
X02651Y04629*
Y04628*
X02651Y04627*
X0265Y04626*
X0265Y04625*
X0265Y04623*
X0265Y04622*
X02649Y04622*
X02649Y04622*
X02649Y04621*
X02649Y04621*
X02648Y0462*
X02648Y0462*
X02647Y04619*
X02646Y04618*
X02646Y04618*
X02645Y04618*
X02645Y04618*
X02644Y04618*
X02643Y04617*
X02642Y04617*
X02641Y04617*
X0264Y04617*
X02639*
X02639Y04617*
X02639Y04617*
X02638Y04617*
X02637Y04617*
X02636Y04618*
X02634Y04618*
X02634Y04618*
X02633Y04619*
X02633Y04619*
X02632Y0462*
Y0462*
X02632Y0462*
X02632Y0462*
X02632Y0462*
X02631Y04621*
X02631Y04621*
X02631Y04622*
X02631Y04622*
X02631Y04623*
X0263Y04623*
X0263Y04624*
X0263Y04625*
X0263Y04626*
X0263Y04627*
X0263Y04627*
Y04628*
X02634Y04629*
Y04629*
Y04629*
Y04629*
X02634Y04628*
Y04628*
X02634Y04628*
X02634Y04627*
X02635Y04626*
X02635Y04625*
X02635Y04624*
X02636Y04623*
X02636Y04623*
X02636Y04623*
X02636Y04623*
X02636Y04623*
X02637Y04622*
X02637Y04622*
X02638Y04622*
X02639Y04622*
X0264Y04621*
X0264*
X02641Y04622*
X02641Y04622*
X02641Y04622*
X02642Y04622*
X02643Y04622*
X02643Y04622*
X02643Y04622*
X02643Y04623*
X02644Y04623*
X02644Y04623*
X02644Y04623*
X02645Y04624*
X02645Y04624*
X02645Y04625*
Y04625*
X02645Y04625*
X02645Y04625*
X02645Y04626*
X02645Y04627*
X02646Y04627*
X02646Y04628*
Y0463*
Y04656*
X02651*
Y0463*
G37*
G36*
X02675Y04618D02*
X0267D01*
Y04648*
X0267Y04648*
X0267Y04647*
X02669Y04647*
X02669Y04647*
X02668Y04646*
X02668Y04646*
X02667Y04645*
X02666Y04644*
X02666*
X02666Y04644*
X02665Y04644*
X02665Y04644*
X02664Y04643*
X02663Y04643*
X02662Y04643*
X02662Y04642*
X02661Y04642*
Y04647*
X02661*
X02661Y04647*
X02661Y04647*
X02661Y04647*
X02662Y04647*
X02662Y04647*
X02663Y04648*
X02664Y04648*
X02665Y04649*
X02666Y0465*
X02668Y04651*
X02668Y04651*
X02668Y04651*
X02668Y04651*
X02669Y04652*
X02669Y04653*
X0267Y04653*
X02671Y04654*
X02671Y04655*
X02672Y04656*
X02675*
Y04618*
G37*
G36*
X02355Y03574D02*
X0235D01*
Y03604*
X0235Y03604*
X0235Y03604*
X0235Y03604*
X02349Y03603*
X02348Y03603*
X02348Y03602*
X02347Y03602*
X02346Y03601*
X02346*
X02346Y03601*
X02345Y03601*
X02345Y03601*
X02344Y036*
X02343Y036*
X02343Y03599*
X02342Y03599*
X02341Y03599*
Y03603*
X02341*
X02341Y03603*
X02341Y03603*
X02341Y03604*
X02342Y03604*
X02342Y03604*
X02343Y03604*
X02344Y03605*
X02345Y03606*
X02347Y03607*
X02348Y03608*
X02348Y03608*
X02348Y03608*
X02348Y03608*
X02349Y03609*
X02349Y03609*
X0235Y0361*
X02351Y03611*
X02351Y03612*
X02352Y03613*
X02355*
Y03574*
G37*
G36*
X02333Y03608D02*
X02312D01*
Y03596*
X0233*
Y03592*
X02312*
Y03574*
X02307*
Y03613*
X02333*
Y03608*
G37*
G36*
X05027Y0381D02*
X05027Y0381D01*
X05028Y0381*
X05028Y03809*
X05029Y03809*
X0503Y03809*
X05032Y03808*
X05033Y03808*
X05033Y03808*
X05034Y03807*
X05035Y03807*
X05035Y03807*
X05035Y03806*
X05035Y03806*
X05035Y03806*
X05035Y03806*
X05036Y03805*
X05036Y03804*
X05037Y03803*
X05037Y03802*
X05038Y03801*
X05038Y038*
X05038Y03799*
Y03799*
Y03799*
X05038Y03798*
X05038Y03798*
X05038Y03797*
X05037Y03796*
X05037Y03795*
X05037Y03794*
X05037Y03794*
X05037Y03794*
X05036Y03794*
X05036Y03793*
X05036Y03792*
X05035Y03791*
X05034Y03791*
X05034Y0379*
X05034Y0379*
X05033Y03789*
X05033Y03789*
X05032Y03788*
X05032Y03788*
X05032Y03788*
X05031Y03787*
X0503Y03786*
X0503Y03786*
X05029Y03785*
X05028Y03784*
X05027Y03784*
X05026Y03783*
X05026Y03783*
X05026Y03783*
X05026Y03783*
X05026Y03782*
X05025Y03782*
X05024Y03781*
X05023Y0378*
X05022Y03779*
X05022Y03779*
X05021Y03778*
X05021Y03778*
X05021Y03778*
X05021Y03778*
X05021Y03778*
X0502Y03777*
X0502Y03777*
X05019Y03776*
X05038*
Y03771*
X05012*
Y03771*
Y03771*
Y03772*
X05013Y03772*
X05013Y03773*
X05013Y03773*
X05013Y03774*
X05013Y03774*
Y03774*
X05013Y03774*
X05013Y03775*
X05013Y03775*
X05014Y03776*
X05014Y03777*
X05015Y03778*
X05015Y03778*
X05016Y03779*
Y03779*
X05016Y03779*
X05017Y0378*
X05017Y0378*
X05018Y03781*
X05019Y03782*
X0502Y03783*
X05021Y03784*
X05022Y03785*
X05022Y03785*
X05023Y03785*
X05023Y03786*
X05023Y03786*
X05024Y03787*
X05024Y03787*
X05026Y03788*
X05027Y03789*
X05029Y03791*
X05029Y03791*
X0503Y03792*
X0503Y03793*
X05031Y03793*
Y03793*
X05031Y03793*
X05031Y03794*
X05031Y03794*
X05031Y03794*
X05032Y03795*
X05032Y03796*
X05033Y03797*
X05033Y03798*
X05033Y03799*
Y03799*
Y03799*
X05033Y038*
X05033Y038*
X05033Y03801*
X05032Y03801*
X05032Y03802*
X05032Y03803*
X05031Y03804*
X05031Y03804*
X05031Y03804*
X0503Y03804*
X0503Y03805*
X05029Y03805*
X05028Y03805*
X05027Y03806*
X05026Y03806*
X05025*
X05025Y03806*
X05025Y03806*
X05024Y03806*
X05023Y03805*
X05022Y03805*
X05021Y03804*
X0502Y03804*
X0502Y03804*
X0502Y03803*
X0502Y03803*
X05019Y03802*
X05019Y03801*
X05019Y038*
X05018Y03799*
X05018Y03798*
X05013Y03799*
Y03799*
Y03799*
X05013Y03799*
X05013Y03799*
X05014Y038*
X05014Y038*
X05014Y03802*
X05014Y03803*
X05015Y03804*
X05016Y03806*
X05016Y03806*
X05017Y03807*
X05017Y03807*
X05017Y03807*
X05017Y03807*
X05018Y03807*
X05018Y03807*
X05018Y03808*
X05019Y03808*
X05019Y03808*
X0502Y03809*
X05021Y03809*
X05021Y03809*
X05022Y03809*
X05024Y0381*
X05025Y0381*
X05026Y0381*
X05026*
X05027Y0381*
G37*
G36*
X04992Y03809D02*
X04993Y03809D01*
X04994Y03809*
X04995Y03809*
X04996Y03809*
X04996*
X04997Y03809*
X04997*
X04997Y03809*
X04998Y03809*
X04998Y03808*
X04999Y03808*
X05Y03807*
X05001Y03807*
X05002Y03806*
X05002*
X05002Y03806*
X05002Y03806*
X05003Y03805*
X05004Y03804*
X05004Y03803*
X05005Y03802*
X05006Y03801*
X05007Y038*
Y038*
X05007Y03799*
X05007Y03799*
X05007Y03799*
X05007Y03799*
X05007Y03798*
X05007Y03798*
X05007Y03797*
X05007Y03796*
X05008Y03796*
X05008Y03794*
X05008Y03792*
X05008Y0379*
Y0379*
Y0379*
Y0379*
Y0379*
X05008Y03789*
Y03789*
X05008Y03788*
X05008Y03787*
X05008Y03785*
X05007Y03784*
X05007Y03783*
Y03783*
X05007Y03783*
X05007Y03782*
X05007Y03782*
X05007Y03782*
X05006Y03781*
X05006Y0378*
X05005Y03779*
X05005Y03778*
X05004Y03777*
X05004Y03777*
X05004Y03777*
X05004Y03776*
X05003Y03776*
X05003Y03775*
X05002Y03775*
X05002Y03774*
X05001Y03774*
X05001Y03774*
X05Y03773*
X05Y03773*
X05Y03773*
X04999Y03773*
X04998Y03772*
X04997Y03772*
X04996Y03772*
X04996*
X04996Y03772*
X04995Y03772*
X04995Y03771*
X04994Y03771*
X04993Y03771*
X04991Y03771*
X0499Y03771*
X04976*
Y0381*
X04991*
X04992Y03809*
G37*
G36*
X02684Y04231D02*
X02684Y04231D01*
X02685Y04231*
X02686Y04231*
X02686Y04231*
X02688Y04231*
X02689Y0423*
X0269Y0423*
X02691Y0423*
X02692Y04229*
X02693Y04229*
X02693Y04228*
X02693Y04228*
X02693Y04228*
X02693Y04228*
X02694Y04228*
X02694Y04227*
X02694Y04227*
X02695Y04226*
X02695Y04226*
X02696Y04225*
X02696Y04225*
X02697Y04224*
X02697Y04223*
X02697Y04222*
X02698Y0422*
X02693Y04219*
Y04219*
X02693Y04219*
X02693Y0422*
X02693Y0422*
X02693Y0422*
X02693Y04221*
X02692Y04221*
X02692Y04222*
X02691Y04223*
X0269Y04224*
X02689Y04225*
X02689Y04225*
X02689Y04226*
X02688Y04226*
X02687Y04226*
X02687Y04227*
X02685Y04227*
X02684Y04227*
X02683Y04227*
X02682*
X02682Y04227*
X02682*
X02681Y04227*
X0268Y04227*
X02679Y04227*
X02678Y04226*
X02677Y04226*
X02675Y04225*
X02675*
X02675Y04225*
X02675Y04225*
X02674Y04224*
X02674Y04223*
X02673Y04223*
X02672Y04222*
X02672Y04221*
X02671Y04219*
Y04219*
X02671Y04219*
X02671Y04219*
X02671Y04219*
X02671Y04218*
X02671Y04218*
X02671Y04217*
X0267Y04216*
X0267Y04215*
X0267Y04213*
X0267Y04212*
Y04212*
Y04212*
Y04211*
Y04211*
X0267Y04211*
Y0421*
X0267Y0421*
X0267Y04209*
X0267Y04208*
X02671Y04206*
X02671Y04205*
X02672Y04203*
Y04203*
X02672Y04203*
X02672Y04203*
X02672Y04203*
X02672Y04202*
X02673Y04201*
X02673Y042*
X02674Y04199*
X02675Y04199*
X02676Y04198*
X02676*
X02676Y04198*
X02676Y04198*
X02676Y04198*
X02677Y04197*
X02678Y04197*
X02679Y04197*
X0268Y04196*
X02681Y04196*
X02682Y04196*
X02683*
X02683Y04196*
X02684*
X02684Y04196*
X02685Y04196*
X02686Y04197*
X02687Y04197*
X02688Y04198*
X0269Y04199*
X0269Y04199*
X0269Y04199*
X0269Y04199*
X02691Y042*
X02691Y042*
X02692Y04201*
X02693Y04203*
X02693Y04204*
X02694Y04206*
X02699Y04205*
Y04205*
X02699Y04204*
X02699Y04204*
X02698Y04204*
X02698Y04203*
X02698Y04202*
X02698Y04202*
X02697Y04201*
X02697Y04199*
X02696Y04198*
X02694Y04196*
X02694Y04196*
X02693Y04195*
X02693Y04195*
X02693Y04195*
X02693Y04195*
X02692Y04195*
X02692Y04194*
X02691Y04194*
X02691Y04194*
X0269Y04193*
X02689Y04193*
X02689Y04193*
X02688Y04193*
X02687Y04192*
X02685Y04192*
X02684Y04192*
X02683Y04192*
X02682*
X02682Y04192*
X02681*
X02681Y04192*
X0268Y04192*
X02679Y04192*
X02678Y04192*
X02676Y04193*
X02674Y04193*
X02674Y04194*
X02673Y04194*
X02673Y04194*
X02673Y04194*
X02672Y04195*
X02672Y04195*
X02671Y04195*
X02671Y04196*
X0267Y04197*
X02669Y04198*
X02668Y042*
X02667Y04202*
Y04202*
X02667Y04202*
X02667Y04202*
X02667Y04202*
X02666Y04203*
X02666Y04203*
X02666Y04204*
X02666Y04205*
X02666Y04205*
X02666Y04206*
X02665Y04208*
X02665Y0421*
X02665Y04212*
Y04212*
Y04212*
Y04212*
X02665Y04213*
Y04213*
X02665Y04214*
X02665Y04215*
X02665Y04215*
X02665Y04217*
X02666Y04219*
X02666Y04221*
X02667Y04222*
Y04222*
X02667Y04223*
X02667Y04223*
X02668Y04223*
X02668Y04223*
X02668Y04224*
X02669Y04225*
X0267Y04226*
X02671Y04227*
X02672Y04228*
X02674Y04229*
X02674*
X02674Y04229*
X02674Y04229*
X02674Y0423*
X02675Y0423*
X02675Y0423*
X02676Y0423*
X02676Y0423*
X02677Y04231*
X02678Y04231*
X02679Y04231*
X02681Y04231*
X02683Y04231*
X02684*
X02684Y04231*
G37*
G36*
X02722Y04213D02*
X02736Y04192D01*
X0273*
X0272Y04206*
X0272Y04206*
X0272Y04206*
X0272Y04207*
X0272Y04207*
X02719Y04208*
X02719Y04208*
X02719Y04208*
X02719Y04208*
X02718Y04208*
X02718Y04207*
X02717Y04206*
X02717Y04206*
X02717Y04206*
X02707Y04192*
X02701*
X02716Y04212*
X02703Y04231*
X02709*
X02716Y04221*
Y04221*
X02716Y04221*
X02716Y0422*
X02717Y0422*
X02717Y04219*
X02718Y04219*
X02718Y04218*
X02719Y04217*
X02719Y04216*
X02719Y04216*
X02719Y04217*
X02719Y04217*
X0272Y04218*
X0272Y04218*
X02721Y04219*
X02721Y0422*
X02722Y04221*
X0273Y04231*
X02735*
X02722Y04213*
G37*
G36*
X02757Y04192D02*
X02752D01*
Y04222*
X02752Y04222*
X02752Y04222*
X02751Y04222*
X02751Y04221*
X0275Y04221*
X02749Y0422*
X02748Y0422*
X02747Y04219*
X02747*
X02747Y04219*
X02747Y04219*
X02746Y04219*
X02746Y04218*
X02745Y04218*
X02744Y04218*
X02743Y04217*
X02743Y04217*
Y04221*
X02743*
X02743Y04221*
X02743Y04222*
X02743Y04222*
X02744Y04222*
X02744Y04222*
X02745Y04223*
X02746Y04223*
X02747Y04224*
X02748Y04225*
X02749Y04226*
X02749Y04226*
X0275Y04226*
X0275Y04226*
X0275Y04227*
X02751Y04227*
X02752Y04228*
X02752Y04229*
X02753Y0423*
X02754Y04231*
X02757*
Y04192*
G37*
G36*
X04887Y04589D02*
X04887D01*
X04888Y04589*
X04889Y04589*
X0489Y04589*
X04891Y04588*
X04893Y04588*
X04893Y04587*
X04894Y04587*
X04894*
X04894Y04587*
X04894Y04586*
X04895Y04586*
X04895Y04585*
X04896Y04584*
X04896Y04583*
X04897Y04581*
X04897Y0458*
X04893Y04579*
Y04579*
Y0458*
X04892Y0458*
X04892Y0458*
X04892Y04581*
X04891Y04582*
X04891Y04583*
X04891Y04583*
X04891Y04584*
X0489Y04584*
X0489Y04584*
X04889Y04584*
X04889Y04585*
X04888Y04585*
X04887Y04585*
X04886Y04585*
X04886*
X04885Y04585*
X04885Y04585*
X04884Y04585*
X04883Y04585*
X04883Y04585*
X04882Y04584*
X04882Y04584*
X04882Y04584*
X04881Y04583*
X04881Y04583*
X0488Y04582*
X0488Y04581*
X04879Y0458*
X04878Y04579*
Y04579*
X04878Y04579*
X04878Y04579*
X04878Y04579*
X04878Y04578*
X04878Y04578*
X04878Y04578*
X04878Y04577*
X04878Y04576*
X04878Y04576*
X04877Y04575*
X04877Y04574*
X04877Y04573*
X04877Y04573*
X04877Y04572*
Y04571*
X04877Y04571*
X04877Y04571*
X04878Y04571*
X04878Y04572*
X04879Y04573*
X0488Y04573*
X0488Y04574*
X04881Y04574*
X04881Y04574*
X04882Y04574*
X04882Y04575*
X04883Y04575*
X04884Y04575*
X04885Y04575*
X04885Y04576*
X04886Y04576*
X04887*
X04887Y04576*
X04888Y04575*
X04888Y04575*
X04889Y04575*
X04891Y04575*
X04891Y04574*
X04892Y04574*
X04893Y04574*
X04893Y04573*
X04894Y04573*
X04895Y04572*
X04895Y04572*
X04895Y04572*
X04895Y04572*
X04895Y04571*
X04895Y04571*
X04896Y04571*
X04896Y0457*
X04896Y0457*
X04897Y04569*
X04897Y04568*
X04897Y04568*
X04897Y04567*
X04898Y04566*
X04898Y04565*
X04898Y04564*
X04898Y04563*
Y04563*
Y04563*
Y04563*
Y04563*
X04898Y04562*
Y04562*
X04898Y04561*
X04897Y0456*
X04897Y04559*
X04897Y04558*
X04896Y04556*
Y04556*
X04896Y04556*
X04896Y04556*
X04896Y04556*
X04896Y04555*
X04895Y04555*
X04895Y04554*
X04894Y04553*
X04893Y04552*
X04892Y04552*
X04892Y04552*
X04891Y04551*
X04891Y04551*
X0489Y04551*
X04889Y04551*
X04888Y0455*
X04887Y0455*
X04886Y0455*
X04886*
X04885Y0455*
X04885*
X04884Y0455*
X04884Y0455*
X04883Y0455*
X04882Y04551*
X04882Y04551*
X04881Y04551*
X0488Y04551*
X04879Y04552*
X04878Y04552*
X04878Y04553*
X04877Y04554*
X04876Y04554*
X04876Y04554*
X04876Y04555*
X04876Y04555*
X04876Y04555*
X04875Y04556*
X04875Y04556*
X04875Y04557*
X04874Y04558*
X04874Y04559*
X04874Y0456*
X04873Y04561*
X04873Y04562*
X04873Y04564*
X04873Y04565*
X04873Y04567*
X04872Y04569*
Y04569*
Y04569*
Y04569*
Y04569*
Y0457*
X04873Y0457*
X04873Y04571*
X04873Y04572*
X04873Y04574*
X04873Y04575*
X04873Y04576*
X04873Y04578*
X04874Y04579*
X04874Y0458*
X04875Y04582*
X04875Y04583*
X04876Y04584*
X04877Y04585*
X04877Y04585*
X04877Y04585*
X04877Y04585*
X04877Y04586*
X04878Y04586*
X04878Y04586*
X04879Y04587*
X04879Y04587*
X0488Y04587*
X04881Y04588*
X04881Y04588*
X04882Y04589*
X04883Y04589*
X04884Y04589*
X04885Y04589*
X04886Y04589*
X04887*
X04887Y04589*
G37*
G36*
X04824Y0459D02*
X04824Y0459D01*
X04825Y0459*
X04825Y0459*
X04826Y04589*
X04828Y04589*
X04829Y04589*
X0483Y04588*
X04831Y04588*
X04832Y04587*
X04832Y04587*
X04832Y04587*
X04833Y04587*
X04833Y04586*
X04833Y04586*
X04833Y04586*
X04834Y04586*
X04834Y04585*
X04835Y04585*
X04835Y04584*
X04835Y04584*
X04836Y04583*
X04836Y04582*
X04837Y04581*
X04837Y0458*
X04838Y04579*
X04833Y04577*
Y04577*
X04833Y04578*
X04833Y04578*
X04833Y04578*
X04832Y04578*
X04832Y04579*
X04832Y0458*
X04831Y04581*
X04831Y04582*
X0483Y04583*
X04829Y04584*
X04829Y04584*
X04828Y04584*
X04828Y04584*
X04827Y04584*
X04826Y04585*
X04825Y04585*
X04824Y04585*
X04823Y04585*
X04822*
X04822Y04585*
X04821*
X04821Y04585*
X0482Y04585*
X04819Y04585*
X04818Y04584*
X04816Y04584*
X04815Y04583*
X04815*
X04815Y04583*
X04815Y04583*
X04814Y04582*
X04814Y04582*
X04813Y04581*
X04812Y0458*
X04812Y04579*
X04811Y04578*
Y04577*
X04811Y04577*
X04811Y04577*
X04811Y04577*
X04811Y04577*
X04811Y04576*
X0481Y04575*
X0481Y04574*
X0481Y04573*
X0481Y04572*
X0481Y0457*
Y0457*
Y0457*
Y0457*
Y04569*
X0481Y04569*
Y04568*
X0481Y04568*
X0481Y04567*
X0481Y04566*
X0481Y04564*
X04811Y04563*
X04811Y04562*
Y04562*
X04811Y04561*
X04811Y04561*
X04812Y04561*
X04812Y0456*
X04812Y0456*
X04813Y04559*
X04814Y04558*
X04815Y04557*
X04816Y04556*
X04816*
X04816Y04556*
X04816Y04556*
X04816Y04556*
X04817Y04556*
X04818Y04555*
X04819Y04555*
X0482Y04555*
X04821Y04554*
X04822Y04554*
X04823*
X04823Y04554*
X04823*
X04824Y04554*
X04825Y04555*
X04826Y04555*
X04827Y04555*
X04828Y04556*
X04829Y04557*
X04829Y04557*
X0483Y04557*
X0483Y04557*
X0483Y04558*
X04831Y04559*
X04832Y0456*
X04832Y04561*
X04833Y04562*
X04833Y04564*
X04839Y04563*
Y04563*
X04838Y04563*
X04838Y04562*
X04838Y04562*
X04838Y04561*
X04838Y04561*
X04838Y0456*
X04837Y04559*
X04836Y04558*
X04835Y04556*
X04834Y04555*
X04834Y04554*
X04833Y04553*
X04833Y04553*
X04833Y04553*
X04832Y04553*
X04832Y04553*
X04832Y04553*
X04831Y04552*
X04831Y04552*
X0483Y04552*
X04829Y04551*
X04828Y04551*
X04828Y04551*
X04827Y04551*
X04825Y0455*
X04824Y0455*
X04823Y0455*
X04822*
X04822Y0455*
X04821*
X0482Y0455*
X0482Y0455*
X04819Y0455*
X04817Y04551*
X04816Y04551*
X04814Y04552*
X04813Y04552*
X04813Y04553*
X04812Y04553*
X04812Y04553*
X04812Y04553*
X04812Y04553*
X04811Y04554*
X0481Y04554*
X04809Y04555*
X04808Y04557*
X04807Y04558*
X04807Y0456*
Y0456*
X04807Y0456*
X04806Y0456*
X04806Y04561*
X04806Y04561*
X04806Y04562*
X04806Y04562*
X04806Y04563*
X04805Y04564*
X04805Y04564*
X04805Y04566*
X04805Y04568*
X04805Y0457*
Y0457*
Y0457*
Y04571*
X04805Y04571*
Y04572*
X04805Y04572*
X04805Y04573*
X04805Y04574*
X04805Y04575*
X04806Y04577*
X04806Y04579*
X04807Y04581*
Y04581*
X04807Y04581*
X04807Y04581*
X04807Y04581*
X04808Y04582*
X04808Y04582*
X04809Y04583*
X04809Y04584*
X04811Y04585*
X04812Y04586*
X04813Y04587*
X04813*
X04814Y04588*
X04814Y04588*
X04814Y04588*
X04815Y04588*
X04815Y04588*
X04816Y04588*
X04816Y04589*
X04817Y04589*
X04817Y04589*
X04819Y04589*
X04821Y0459*
X04823Y0459*
X04823*
X04824Y0459*
G37*
G36*
X04861Y04551D02*
X04856D01*
Y04581*
X04856Y04581*
X04856Y0458*
X04855Y0458*
X04855Y0458*
X04854Y04579*
X04853Y04579*
X04852Y04578*
X04851Y04577*
X04851*
X04851Y04577*
X04851Y04577*
X0485Y04577*
X0485Y04577*
X04849Y04576*
X04848Y04576*
X04847Y04575*
X04847Y04575*
Y0458*
X04847*
X04847Y0458*
X04847Y0458*
X04847Y0458*
X04848Y0458*
X04848Y0458*
X04849Y04581*
X0485Y04582*
X04851Y04582*
X04852Y04583*
X04853Y04584*
X04853Y04584*
X04853Y04584*
X04854Y04585*
X04854Y04585*
X04855Y04586*
X04856Y04587*
X04856Y04587*
X04857Y04588*
X04858Y04589*
X04861*
Y04551*
G37*
G36*
X04206Y0363D02*
X04206Y0363D01*
X04207Y0363*
X04208Y0363*
X04209Y03629*
X0421Y03629*
X04211Y03629*
X04211Y03628*
X04212Y03628*
X04213Y03627*
X04213Y03626*
X04213Y03626*
X04213Y03626*
X04214Y03626*
X04214Y03626*
X04214Y03625*
X04214Y03625*
X04215Y03625*
X04215Y03624*
X04215Y03623*
X04216Y03623*
X04216Y03622*
X04216Y03621*
X04216Y0362*
X04217Y03619*
X04217Y03618*
X04217Y03617*
Y03617*
X04217Y03616*
X04217Y03616*
X04217Y03615*
X04216Y03615*
X04216Y03614*
X04216Y03613*
X04216Y03612*
X04215Y03611*
X04215Y0361*
X04214Y03609*
X04214Y03609*
X04213Y03608*
X04213Y03608*
X04213Y03608*
X04213Y03608*
X04213Y03608*
X04212Y03607*
X04212Y03607*
X04212Y03607*
X04211Y03606*
X0421Y03606*
X0421Y03606*
X04208Y03605*
X04208Y03605*
X04207Y03605*
X04206Y03605*
X04205Y03605*
X04205*
X04205*
X04205*
X04204Y03605*
X04204*
X04204Y03605*
X04203Y03605*
X04202Y03605*
X04201Y03605*
X042Y03606*
X04199Y03607*
X04199*
X04199Y03607*
X04198Y03607*
X04198Y03607*
X04197Y03608*
X04197Y03609*
X04196Y0361*
X04196Y03611*
X04195Y03612*
Y03612*
X04195Y03612*
X04195Y03611*
X04195Y03611*
X04194Y0361*
X04194Y0361*
X04193Y03609*
X04193Y03608*
X04192Y03608*
X04192Y03608*
X04192Y03607*
X04191Y03607*
X04191Y03607*
X0419Y03607*
X04189Y03606*
X04188Y03606*
X04187Y03606*
X04187*
X04187*
X04187*
X04187Y03606*
X04186Y03606*
X04186Y03606*
X04185Y03607*
X04184Y03607*
X04183Y03607*
X04182Y03608*
X04181Y03608*
X04181Y03609*
X0418Y03609*
X0418Y03609*
X0418Y03609*
X0418Y03609*
X0418Y0361*
X0418Y0361*
X04179Y0361*
X04179Y03611*
X04179Y03611*
X04178Y03612*
X04178Y03614*
X04178Y03615*
X04177Y03616*
X04177Y03617*
Y03618*
X04177Y03618*
Y03618*
X04178Y03619*
X04178Y0362*
X04178Y03621*
X04179Y03623*
X04179Y03623*
X04179Y03624*
X0418Y03625*
X0418Y03625*
X0418Y03625*
X0418Y03625*
X04181Y03626*
X04181Y03626*
X04181Y03626*
X04182Y03626*
X04182Y03627*
X04183Y03627*
X04185Y03628*
X04186Y03628*
X04187Y03628*
X04187Y03628*
X04188*
X04188*
X04188Y03628*
X04189Y03628*
X0419Y03628*
X04191Y03628*
X04191Y03627*
X04192Y03627*
X04192Y03627*
X04192Y03627*
X04193Y03626*
X04193Y03626*
X04194Y03625*
X04194Y03625*
X04195Y03624*
X04195Y03623*
Y03623*
X04195Y03623*
X04195Y03623*
X04195Y03623*
X04196Y03624*
X04196Y03625*
X04197Y03626*
X04197Y03626*
X04198Y03627*
X04199Y03628*
X04199Y03628*
X04199Y03628*
X042Y03629*
X04201Y03629*
X04202Y03629*
X04203Y0363*
X04204Y0363*
X04205Y0363*
X04205*
X04205*
X04206*
X04206Y0363*
G37*
G36*
X04204Y036D02*
X04204Y036D01*
X04205Y036*
X04205Y036*
X04206Y036*
X04207Y03599*
X04207Y03599*
X04209Y03598*
X04211Y03597*
X04212Y03596*
X04213Y03595*
X04213Y03595*
X04213Y03595*
X04214Y03594*
X04214Y03594*
X04214Y03594*
X04214Y03593*
X04214Y03593*
X04215Y03592*
X04215Y03592*
X04215Y03591*
X04216Y0359*
X04216Y03589*
X04216Y03589*
X04217Y03587*
X04217Y03586*
X04217Y03584*
Y03584*
X04217Y03583*
Y03583*
X04217Y03582*
X04216Y03582*
X04216Y03581*
X04216Y03579*
X04216Y03578*
X04215Y03576*
X04215Y03575*
X04214Y03574*
X04214Y03574*
X04214Y03574*
X04214Y03574*
X04214Y03574*
X04213Y03573*
X04212Y03572*
X04211Y03571*
X0421Y0357*
X04209Y03569*
X04207Y03568*
X04207*
X04207Y03568*
X04206Y03568*
X04206Y03568*
X04206Y03568*
X04205Y03568*
X04204Y03568*
X04204Y03567*
X04203Y03567*
X04202Y03567*
X042Y03567*
X04199Y03566*
X04197Y03566*
X04197*
X04196*
X04196*
X04196Y03566*
X04195*
X04194Y03567*
X04194Y03567*
X04193Y03567*
X04191Y03567*
X0419Y03567*
X04188Y03568*
X04186Y03569*
X04186*
X04186Y03569*
X04186Y03569*
X04185Y03569*
X04185Y03569*
X04185Y0357*
X04184Y0357*
X04182Y03571*
X04181Y03572*
X0418Y03574*
X04179Y03575*
Y03575*
X04179Y03575*
X04179Y03576*
X04179Y03576*
X04179Y03576*
X04179Y03577*
X04178Y03577*
X04178Y03578*
X04178Y03579*
X04178Y03579*
X04177Y03581*
X04177Y03583*
X04177Y03585*
Y03585*
X04177Y03586*
X04177Y03586*
X04177Y03587*
X04177Y03587*
X04177Y03588*
X04178Y03589*
X04178Y03591*
X04179Y03592*
X04179Y03593*
X04179Y03593*
X0418Y03594*
X0418Y03594*
X0418Y03594*
X0418Y03595*
X0418Y03595*
X04181Y03595*
X04181Y03596*
X04182Y03596*
X04182Y03596*
X04183Y03597*
X04183Y03597*
X04184Y03598*
X04185Y03598*
X04185Y03599*
X04186Y03599*
X04188Y036*
X04189Y03595*
X04189*
X04189Y03595*
X04189Y03595*
X04189Y03594*
X04188Y03594*
X04188Y03594*
X04187Y03594*
X04186Y03593*
X04185Y03592*
X04184Y03592*
X04183Y03591*
X04183Y03591*
X04183Y0359*
X04183Y0359*
X04182Y03589*
X04182Y03588*
X04182Y03587*
X04181Y03586*
X04181Y03584*
Y03584*
X04181Y03584*
Y03583*
X04181Y03583*
X04182Y03582*
X04182Y03581*
X04182Y03579*
X04183Y03578*
X04183Y03577*
Y03577*
X04184Y03577*
X04184Y03577*
X04184Y03576*
X04185Y03575*
X04186Y03575*
X04187Y03574*
X04188Y03573*
X04189Y03573*
X04189*
X04189Y03573*
X0419Y03573*
X0419Y03573*
X0419Y03573*
X04191Y03573*
X04191Y03572*
X04193Y03572*
X04194Y03572*
X04195Y03572*
X04197Y03572*
X04197*
X04197*
X04197*
X04197*
X04198Y03572*
X04198*
X04199Y03572*
X04199Y03572*
X04201Y03572*
X04202Y03572*
X04204Y03573*
X04205Y03573*
X04205*
X04205Y03573*
X04205Y03573*
X04206Y03573*
X04206Y03574*
X04207Y03574*
X04208Y03575*
X04209Y03576*
X0421Y03576*
X04211Y03577*
Y03578*
X04211Y03578*
X04211Y03578*
X04211Y03578*
X04211Y03579*
X04211Y03579*
X04212Y0358*
X04212Y03582*
X04212Y03583*
X04212Y03584*
Y03584*
X04212Y03585*
Y03585*
X04212Y03586*
X04212Y03587*
X04212Y03588*
X04211Y03589*
X04211Y0359*
X0421Y03591*
X0421Y03591*
X0421Y03591*
X04209Y03592*
X04209Y03592*
X04208Y03593*
X04207Y03594*
X04206Y03594*
X04204Y03595*
X04203Y03595*
X04204Y036*
X04204*
X04204Y036*
G37*
G36*
X04994Y04269D02*
X04994Y04269D01*
X04995Y04269*
X04996Y04269*
X04996Y04268*
X04998Y04268*
X04999Y04268*
X05Y04267*
X05001Y04267*
X05002Y04266*
X05003Y04266*
X05003Y04266*
X05003Y04266*
X05003Y04266*
X05003Y04265*
X05004Y04265*
X05004Y04265*
X05004Y04264*
X05005Y04264*
X05005Y04263*
X05006Y04263*
X05006Y04262*
X05007Y04261*
X05007Y0426*
X05007Y04259*
X05008Y04258*
X05003Y04256*
Y04256*
X05003Y04257*
X05003Y04257*
X05003Y04257*
X05003Y04257*
X05002Y04258*
X05002Y04259*
X05002Y0426*
X05001Y04261*
X05Y04262*
X04999Y04263*
X04999Y04263*
X04999Y04263*
X04998Y04263*
X04997Y04264*
X04997Y04264*
X04995Y04264*
X04994Y04264*
X04993Y04264*
X04992*
X04992Y04264*
X04992*
X04991Y04264*
X0499Y04264*
X04989Y04264*
X04988Y04264*
X04987Y04263*
X04985Y04262*
X04985*
X04985Y04262*
X04985Y04262*
X04984Y04261*
X04984Y04261*
X04983Y0426*
X04982Y04259*
X04982Y04258*
X04981Y04257*
Y04257*
X04981Y04256*
X04981Y04256*
X04981Y04256*
X04981Y04256*
X04981Y04255*
X04981Y04254*
X0498Y04253*
X0498Y04252*
X0498Y04251*
X0498Y04249*
Y04249*
Y04249*
Y04249*
Y04248*
X0498Y04248*
Y04247*
X0498Y04247*
X0498Y04246*
X0498Y04245*
X04981Y04244*
X04981Y04242*
X04981Y04241*
Y04241*
X04982Y04241*
X04982Y0424*
X04982Y0424*
X04982Y04239*
X04983Y04239*
X04983Y04238*
X04984Y04237*
X04985Y04236*
X04986Y04235*
X04986*
X04986Y04235*
X04986Y04235*
X04986Y04235*
X04987Y04235*
X04988Y04234*
X04989Y04234*
X0499Y04234*
X04991Y04233*
X04992Y04233*
X04993*
X04993Y04233*
X04993*
X04994Y04234*
X04995Y04234*
X04996Y04234*
X04997Y04234*
X04998Y04235*
X05Y04236*
X05Y04236*
X05Y04236*
X05Y04236*
X05001Y04237*
X05001Y04238*
X05002Y04239*
X05003Y0424*
X05003Y04242*
X05004Y04243*
X05009Y04242*
Y04242*
X05009Y04242*
X05009Y04241*
X05008Y04241*
X05008Y0424*
X05008Y0424*
X05008Y04239*
X05007Y04238*
X05007Y04237*
X05006Y04235*
X05004Y04234*
X05004Y04233*
X05003Y04232*
X05003Y04232*
X05003Y04232*
X05003Y04232*
X05002Y04232*
X05002Y04232*
X05001Y04231*
X05001Y04231*
X05Y04231*
X04999Y0423*
X04999Y0423*
X04998Y0423*
X04997Y0423*
X04995Y04229*
X04994Y04229*
X04993Y04229*
X04992*
X04992Y04229*
X04991*
X04991Y04229*
X0499Y04229*
X04989Y04229*
X04988Y0423*
X04986Y0423*
X04984Y04231*
X04983Y04231*
X04983Y04232*
X04983Y04232*
X04983Y04232*
X04982Y04232*
X04982Y04232*
X04981Y04233*
X04981Y04233*
X0498Y04234*
X04979Y04236*
X04978Y04237*
X04977Y04239*
Y04239*
X04977Y04239*
X04977Y04239*
X04977Y0424*
X04976Y0424*
X04976Y04241*
X04976Y04241*
X04976Y04242*
X04976Y04243*
X04975Y04244*
X04975Y04245*
X04975Y04247*
X04975Y04249*
Y04249*
Y0425*
Y0425*
X04975Y0425*
Y04251*
X04975Y04251*
X04975Y04252*
X04975Y04253*
X04975Y04254*
X04976Y04256*
X04976Y04258*
X04977Y0426*
Y0426*
X04977Y0426*
X04977Y0426*
X04978Y0426*
X04978Y04261*
X04978Y04261*
X04979Y04262*
X0498Y04263*
X04981Y04264*
X04982Y04266*
X04984Y04266*
X04984*
X04984Y04267*
X04984Y04267*
X04984Y04267*
X04985Y04267*
X04985Y04267*
X04986Y04267*
X04986Y04268*
X04987Y04268*
X04988Y04268*
X04989Y04268*
X04991Y04269*
X04993Y04269*
X04993*
X04994Y04269*
G37*
G36*
X05027Y04268D02*
X05027Y04268D01*
X05028Y04268*
X05028Y04268*
X05029Y04268*
X0503Y04268*
X05032Y04267*
X05033Y04267*
X05033Y04266*
X05034Y04266*
X05035Y04265*
X05035Y04265*
X05035Y04265*
X05035Y04265*
X05035Y04265*
X05035Y04264*
X05036Y04264*
X05036Y04263*
X05037Y04262*
X05037Y04261*
X05038Y04259*
X05038Y04258*
X05038Y04258*
Y04258*
Y04257*
X05038Y04257*
X05038Y04256*
X05038Y04255*
X05037Y04255*
X05037Y04254*
X05037Y04253*
X05037Y04253*
X05037Y04253*
X05036Y04252*
X05036Y04252*
X05036Y04251*
X05035Y0425*
X05034Y04249*
X05034Y04248*
X05034Y04248*
X05033Y04248*
X05033Y04247*
X05032Y04247*
X05032Y04247*
X05032Y04246*
X05031Y04246*
X0503Y04245*
X0503Y04244*
X05029Y04244*
X05028Y04243*
X05027Y04242*
X05026Y04242*
X05026Y04242*
X05026Y04241*
X05026Y04241*
X05026Y04241*
X05025Y0424*
X05024Y0424*
X05023Y04239*
X05022Y04238*
X05022Y04237*
X05021Y04237*
X05021Y04237*
X05021Y04237*
X05021Y04237*
X05021Y04236*
X0502Y04236*
X0502Y04235*
X05019Y04234*
X05038*
Y0423*
X05012*
Y0423*
Y0423*
Y0423*
X05012Y04231*
X05013Y04231*
X05013Y04232*
X05013Y04232*
X05013Y04233*
Y04233*
X05013Y04233*
X05013Y04233*
X05013Y04234*
X05014Y04235*
X05014Y04235*
X05015Y04236*
X05015Y04237*
X05016Y04238*
Y04238*
X05016Y04238*
X05016Y04239*
X05017Y04239*
X05018Y0424*
X05019Y04241*
X0502Y04242*
X05021Y04243*
X05022Y04244*
X05022Y04244*
X05023Y04244*
X05023Y04244*
X05023Y04245*
X05024Y04245*
X05024Y04246*
X05026Y04247*
X05027Y04248*
X05028Y0425*
X05029Y0425*
X0503Y04251*
X0503Y04251*
X05031Y04252*
Y04252*
X05031Y04252*
X05031Y04252*
X05031Y04253*
X05031Y04253*
X05032Y04254*
X05032Y04255*
X05033Y04256*
X05033Y04257*
X05033Y04258*
Y04258*
Y04258*
X05033Y04258*
X05033Y04259*
X05033Y04259*
X05032Y0426*
X05032Y04261*
X05032Y04262*
X05031Y04263*
X05031Y04263*
X05031Y04263*
X0503Y04263*
X0503Y04264*
X05029Y04264*
X05028Y04264*
X05027Y04264*
X05026Y04264*
X05025*
X05025Y04264*
X05024Y04264*
X05024Y04264*
X05023Y04264*
X05022Y04264*
X05021Y04263*
X0502Y04262*
X0502Y04262*
X0502Y04262*
X0502Y04262*
X05019Y04261*
X05019Y0426*
X05019Y04259*
X05018Y04258*
X05018Y04257*
X05013Y04257*
Y04257*
Y04257*
X05013Y04258*
X05013Y04258*
X05014Y04259*
X05014Y04259*
X05014Y0426*
X05014Y04262*
X05015Y04263*
X05016Y04264*
X05016Y04265*
X05017Y04265*
X05017Y04266*
X05017Y04266*
X05017Y04266*
X05018Y04266*
X05018Y04266*
X05018Y04266*
X05019Y04267*
X05019Y04267*
X0502Y04267*
X05021Y04267*
X05021Y04268*
X05022Y04268*
X05024Y04268*
X05025Y04268*
X05026Y04268*
X05026*
X05027Y04268*
G37*
G36*
X02142Y0361D02*
X02161D01*
Y03606*
X02137*
Y03644*
X02142*
Y0361*
G37*
%LNadapter_pcb-2*%
%LPC*%
G36*
X04259Y04573D02*
X04251D01*
Y04543*
X0426*
X0426Y04543*
X04261Y04543*
X04262Y04544*
X04263Y04544*
X04264Y04544*
X04265Y04544*
X04265Y04544*
X04265Y04544*
X04266Y04544*
X04266Y04545*
X04267Y04545*
X04267Y04545*
X04268Y04546*
X04269Y04546*
X04269Y04546*
X04269Y04546*
X04269Y04547*
X0427Y04547*
X0427Y04548*
X0427Y04549*
X04271Y0455*
X04271Y04551*
Y04551*
X04271Y04551*
X04271Y04551*
X04272Y04551*
X04272Y04552*
X04272Y04552*
X04272Y04553*
X04272Y04554*
X04272Y04555*
X04272Y04557*
X04272Y04558*
Y04558*
Y04559*
Y04559*
Y04559*
X04272Y0456*
X04272Y0456*
X04272Y04561*
X04272Y04562*
X04272Y04563*
X04272Y04565*
X04271Y04566*
X04271Y04567*
X0427Y04568*
Y04568*
X0427Y04568*
X0427Y04568*
X0427Y04568*
X0427Y04569*
X04269Y04569*
X04268Y0457*
X04268Y04571*
X04267Y04571*
X04266Y04572*
X04266Y04572*
X04265Y04572*
X04265Y04572*
X04264Y04572*
X04263Y04573*
X04262Y04573*
X04261Y04573*
X04259Y04573*
G37*
G36*
X02919Y0456D02*
X02906D01*
X0291Y0455*
Y0455*
X0291Y0455*
X0291Y04549*
X0291Y04549*
X02911Y04549*
X02911Y04548*
X02911Y04547*
X02912Y04546*
X02912Y04544*
X02912Y04543*
X02913Y04542*
Y04542*
X02913Y04542*
Y04542*
X02913Y04542*
X02913Y04543*
X02913Y04543*
X02913Y04544*
X02914Y04545*
X02914Y04547*
X02914Y04548*
X02915Y04549*
X02919Y0456*
G37*
G36*
X03064D02*
X03051D01*
X03055Y0455*
Y0455*
X03055Y0455*
X03055Y04549*
X03055Y04549*
X03056Y04549*
X03056Y04548*
X03056Y04547*
X03057Y04546*
X03057Y04544*
X03057Y04543*
X03058Y04542*
Y04542*
X03058Y04542*
Y04542*
X03058Y04542*
X03058Y04543*
X03058Y04543*
X03058Y04544*
X03059Y04545*
X03059Y04547*
X03059Y04548*
X0306Y04549*
X03064Y0456*
G37*
G36*
X04532Y04482D02*
X0452D01*
Y0447*
X04532*
X04532Y0447*
X04533Y0447*
X04534Y0447*
X04535Y0447*
X04536Y0447*
X04537Y0447*
X04537Y04471*
X04537Y04471*
X04537Y04471*
X04538Y04471*
X04538Y04471*
X04539Y04472*
X04539Y04472*
X0454Y04473*
X0454Y04473*
X0454Y04473*
X0454Y04473*
X0454Y04474*
X0454Y04474*
X04541Y04475*
X04541Y04476*
X04541Y04476*
Y04476*
Y04476*
Y04477*
X04541Y04477*
X0454Y04478*
X0454Y04479*
X0454Y04479*
X04539Y0448*
X04539Y04481*
X04539Y04481*
X04538Y04481*
X04538Y04481*
X04537Y04482*
X04536Y04482*
X04535Y04482*
X04534Y04482*
X04532Y04482*
G37*
G36*
X04193Y04207D02*
X04193D01*
X04192*
X04192*
X04192*
X04191Y04207*
X04191Y04207*
X0419Y04207*
X04189Y04207*
X04188Y04207*
X04186Y04206*
X04185Y04206*
X04184Y04205*
X04183Y04205*
X04183*
X04183Y04205*
X04183Y04205*
X04183Y04205*
X04182Y04204*
X04182Y04204*
X04181Y04203*
X0418Y04202*
X0418Y04201*
X04179Y042*
X04179Y042*
X04179Y042*
X04179Y04199*
X04179Y04199*
X04178Y04198*
X04178Y04197*
X04178Y04195*
X04178Y04194*
Y04186*
X04208*
Y04194*
X04208Y04195*
X04207Y04196*
X04207Y04197*
X04207Y04198*
X04207Y04199*
X04207Y042*
X04207Y042*
X04207Y042*
X04207Y042*
X04206Y04201*
X04206Y04202*
X04206Y04202*
X04205Y04203*
X04205Y04203*
X04205Y04203*
X04205Y04203*
X04204Y04204*
X04204Y04204*
X04203Y04205*
X04202Y04205*
X04201Y04206*
X042Y04206*
X042*
X042Y04206*
X042Y04206*
X042Y04206*
X04199Y04206*
X04199Y04206*
X04198Y04207*
X04197Y04207*
X04196Y04207*
X04194Y04207*
X04193Y04207*
G37*
G36*
X05273Y04326D02*
X05272D01*
X05272Y04325*
X05271Y04325*
X05271Y04325*
X0527Y04325*
X05269Y04325*
X05268Y04325*
X05267Y04324*
X05266Y04324*
X05266Y04324*
X05265Y04323*
X05264Y04322*
X05263Y04322*
X05263Y04322*
X05263Y04322*
X05263Y04321*
X05263Y04321*
X05262Y04321*
X05262Y0432*
X05262Y0432*
X05261Y04319*
X05261Y04318*
X05261Y04317*
X0526Y04316*
X0526Y04315*
X0526Y04314*
X0526Y04312*
X0526Y04311*
X05259Y04309*
Y04309*
Y04309*
Y04309*
X0526Y04308*
X0526Y04308*
X0526Y04307*
X0526Y04306*
X0526Y04305*
X0526Y04304*
X05261Y04303*
X05261Y04302*
X05261Y04301*
X05262Y043*
X05262Y04299*
X05263Y04299*
X05263Y04298*
X05263Y04298*
X05264Y04298*
X05264Y04298*
X05264Y04298*
X05265Y04297*
X05265Y04297*
X05266Y04297*
X05266Y04296*
X05267Y04296*
X05268Y04295*
X05269Y04295*
X0527Y04295*
X05271Y04295*
X05271Y04295*
X05272Y04295*
X05273*
X05273Y04295*
X05274Y04295*
X05274Y04295*
X05275Y04295*
X05276Y04295*
X05277Y04296*
X05278Y04296*
X05279Y04296*
X0528Y04297*
X0528Y04297*
X05281Y04298*
X05282Y04299*
X05282Y04299*
X05282Y04299*
X05282Y04299*
X05282Y04299*
X05283Y043*
X05283Y043*
X05283Y04301*
X05284Y04301*
X05284Y04302*
X05284Y04303*
X05285Y04304*
X05285Y04305*
X05285Y04306*
X05285Y04307*
X05286Y04309*
X05286Y0431*
Y0431*
Y0431*
Y0431*
Y04311*
X05286Y04311*
Y04312*
X05285Y04313*
X05285Y04314*
X05285Y04315*
X05285Y04317*
X05284Y04318*
Y04318*
X05284Y04318*
X05284Y04319*
X05284Y04319*
X05283Y04319*
X05283Y0432*
X05282Y04321*
X05281Y04322*
X0528Y04323*
X05279Y04324*
X05279*
X05279Y04324*
X05279Y04324*
X05279Y04324*
X05278Y04324*
X05277Y04325*
X05276Y04325*
X05275Y04325*
X05274Y04325*
X05273Y04326*
G37*
G36*
X04102Y04149D02*
X04101D01*
X04101*
X04101*
X04101Y04149*
X04101*
X041Y04149*
X04099Y04149*
X04098Y04149*
X04097Y04148*
X04096Y04148*
X04095Y04147*
X04095Y04147*
X04095Y04147*
X04094Y04146*
X04094Y04146*
X04094Y04145*
X04093Y04144*
X04093Y04143*
X04093Y04142*
Y04142*
X04093Y04141*
X04093Y04141*
X04093Y0414*
X04093Y04139*
X04094Y04138*
X04094Y04137*
X04095Y04136*
X04095Y04136*
X04096Y04136*
X04096Y04136*
X04097Y04135*
X04098Y04135*
X04099Y04135*
X041Y04134*
X04101Y04134*
X04101*
X04102*
X04102Y04134*
X04103Y04134*
X04103Y04135*
X04104Y04135*
X04105Y04135*
X04106Y04135*
X04106Y04135*
X04106Y04135*
X04107Y04136*
X04107Y04136*
X04108Y04136*
X04108Y04137*
X04109Y04137*
X04109Y04138*
X04109Y04138*
X0411Y04138*
X0411Y04139*
X0411Y04139*
X0411Y0414*
X0411Y04141*
X0411Y04141*
X0411Y04142*
Y04142*
X0411Y04143*
X0411Y04143*
X0411Y04144*
X0411Y04145*
X04109Y04146*
X04109Y04146*
X04108Y04147*
X04108Y04147*
X04108Y04148*
X04107Y04148*
X04106Y04148*
X04105Y04149*
X04104Y04149*
X04103Y04149*
X04102Y04149*
G37*
G36*
X04086Y04088D02*
X04086D01*
X04086*
X04085*
X04085Y04088*
X04084Y04088*
X04083Y04087*
X04083Y04087*
X04082Y04087*
X04081Y04086*
X04081Y04086*
X04081Y04086*
X04081Y04085*
X0408Y04084*
X0408Y04084*
X0408Y04083*
X0408Y04081*
X0408Y0408*
Y04068*
X04092*
Y04079*
X04092Y0408*
X04092Y0408*
X04092Y04081*
X04092Y04082*
X04092Y04083*
X04092Y04084*
X04091Y04084*
X04091Y04084*
X04091Y04085*
X04091Y04085*
X04091Y04085*
X0409Y04086*
X0409Y04086*
X04089Y04087*
X04089Y04087*
X04089Y04087*
X04089Y04087*
X04088Y04087*
X04088Y04088*
X04087Y04088*
X04086Y04088*
X04086Y04088*
G37*
G36*
X0425Y04507D02*
X0425D01*
X04249Y04507*
X04249Y04507*
X04248Y04506*
X04248Y04506*
X04247Y04506*
X04245Y04506*
X04245Y04505*
X04244Y04505*
X04243Y04505*
X04242Y04504*
X04241Y04503*
X04241Y04503*
X04241Y04503*
X04241Y04503*
X0424Y04502*
X0424Y04502*
X0424Y04502*
X0424Y04501*
X04239Y045*
X04239Y045*
X04239Y04499*
X04238Y04498*
X04238Y04497*
X04238Y04496*
X04237Y04495*
X04237Y04494*
X04237Y04493*
X04237Y04491*
Y04491*
Y04491*
Y0449*
X04237Y0449*
X04237Y04489*
X04237Y04489*
X04237Y04488*
X04238Y04487*
X04238Y04485*
X04238Y04484*
X04239Y04483*
X04239Y04482*
X0424Y04481*
X0424Y0448*
X04241Y0448*
X04241Y0448*
X04241Y04479*
X04241Y04479*
X04241Y04479*
X04242Y04479*
X04242Y04478*
X04243Y04478*
X04243Y04478*
X04244Y04477*
X04245Y04477*
X04245Y04477*
X04246Y04476*
X04247Y04476*
X04248Y04476*
X04249Y04476*
X0425Y04476*
X04251*
X04251Y04476*
X04252Y04476*
X04253Y04476*
X04253Y04476*
X04254Y04476*
X04255Y04477*
X04255Y04477*
X04255Y04477*
X04254Y04477*
X04254Y04478*
X04253Y04478*
X04252Y04478*
X04251Y04479*
X0425Y04479*
X04252Y04483*
X04252*
X04252Y04482*
X04252Y04482*
X04252Y04482*
X04253Y04482*
X04253Y04482*
X04254Y04482*
X04255Y04481*
X04256Y0448*
X04258Y0448*
X04259Y04479*
X04259Y04479*
X04259Y04479*
X04259Y04479*
X04259Y0448*
X0426Y0448*
X0426Y04481*
X04261Y04481*
X04261Y04482*
X04261Y04483*
X04262Y04484*
X04262Y04485*
X04263Y04486*
X04263Y04487*
X04263Y04488*
X04263Y0449*
X04263Y04491*
Y04491*
Y04491*
Y04492*
Y04492*
X04263Y04492*
Y04493*
X04263Y04494*
X04263Y04495*
X04263Y04497*
X04262Y04498*
X04262Y04499*
Y04499*
X04262Y04499*
X04261Y045*
X04261Y045*
X04261Y045*
X0426Y04501*
X0426Y04502*
X04259Y04503*
X04258Y04504*
X04257Y04505*
X04257*
X04257Y04505*
X04257Y04505*
X04256Y04505*
X04256Y04505*
X04255Y04506*
X04254Y04506*
X04253Y04506*
X04252Y04507*
X0425Y04507*
G37*
G36*
X04989Y03805D02*
X04981D01*
Y03776*
X0499*
X04991Y03776*
X04992Y03776*
X04993Y03776*
X04994Y03776*
X04995Y03776*
X04995Y03776*
X04996Y03776*
X04996Y03776*
X04996Y03777*
X04997Y03777*
X04997Y03777*
X04998Y03777*
X04998Y03778*
X04999Y03778*
X04999Y03778*
X04999Y03779*
X05Y03779*
X05Y0378*
X05Y0378*
X05001Y03781*
X05001Y03782*
X05002Y03783*
Y03783*
X05002Y03783*
X05002Y03783*
X05002Y03784*
X05002Y03784*
X05002Y03784*
X05002Y03785*
X05002Y03786*
X05003Y03788*
X05003Y03789*
X05003Y03791*
Y03791*
Y03791*
Y03791*
Y03792*
X05003Y03792*
X05003Y03793*
X05003Y03793*
X05003Y03794*
X05002Y03795*
X05002Y03797*
X05001Y03798*
X05001Y03799*
X05001Y038*
Y038*
X05001Y038*
X05001Y038*
X05Y038*
X05Y03801*
X04999Y03802*
X04999Y03802*
X04998Y03803*
X04997Y03804*
X04996Y03804*
X04996Y03804*
X04996Y03804*
X04995Y03804*
X04994Y03805*
X04993Y03805*
X04992Y03805*
X04991Y03805*
X04989Y03805*
G37*
G36*
X04886Y04571D02*
X04885D01*
X04885Y04571*
X04884Y04571*
X04884Y04571*
X04883Y04571*
X04882Y0457*
X04881Y0457*
X0488Y04569*
X0488Y04569*
X0488Y04569*
X04879Y04568*
X04879Y04568*
X04879Y04567*
X04878Y04566*
X04878Y04564*
X04878Y04563*
Y04563*
Y04563*
X04878Y04562*
X04878Y04562*
X04878Y04561*
X04878Y0456*
X04879Y04559*
X04879Y04558*
X04879Y04558*
X04879Y04558*
X04879Y04558*
X0488Y04557*
X0488Y04557*
X04881Y04556*
X04881Y04555*
X04882Y04555*
X04882Y04555*
X04882Y04555*
X04882Y04555*
X04883Y04554*
X04884Y04554*
X04884Y04554*
X04885Y04554*
X04886Y04554*
X04886*
X04886Y04554*
X04887Y04554*
X04888Y04554*
X04888Y04554*
X04889Y04555*
X0489Y04555*
X04891Y04556*
X04891Y04556*
X04891Y04557*
X04892Y04557*
X04892Y04558*
X04892Y04559*
X04893Y0456*
X04893Y04561*
X04893Y04563*
Y04563*
Y04563*
Y04563*
X04893Y04563*
Y04564*
X04893Y04564*
X04893Y04565*
X04892Y04566*
X04892Y04567*
X04892Y04568*
X04891Y04569*
X04891Y04569*
X04891Y04569*
X0489Y0457*
X04889Y0457*
X04889Y04571*
X04888Y04571*
X04887Y04571*
X04886Y04571*
G37*
G36*
X04187Y03624D02*
X04187D01*
X04187*
X04187*
X04186Y03623*
X04186Y03623*
X04185Y03623*
X04185Y03623*
X04184Y03622*
X04183Y03622*
X04183Y03622*
X04183Y03621*
X04183Y03621*
X04182Y0362*
X04182Y0362*
X04182Y03619*
X04181Y03618*
X04181Y03617*
Y03617*
X04181Y03616*
X04182Y03616*
X04182Y03615*
X04182Y03614*
X04182Y03613*
X04183Y03613*
X04183Y03613*
X04183Y03612*
X04184Y03612*
X04184Y03612*
X04185Y03612*
X04186Y03611*
X04186Y03611*
X04187Y03611*
X04187*
X04188*
X04188Y03611*
X04189Y03611*
X04189Y03611*
X0419Y03612*
X04191Y03612*
X04192Y03613*
X04192Y03613*
X04192Y03613*
X04192Y03613*
X04192Y03614*
X04193Y03615*
X04193Y03615*
X04193Y03616*
X04193Y03617*
Y03618*
X04193Y03618*
X04193Y03619*
X04193Y0362*
X04193Y0362*
X04192Y03621*
X04192Y03622*
X04192Y03622*
X04191Y03622*
X04191Y03622*
X0419Y03623*
X0419Y03623*
X04189Y03623*
X04188Y03623*
X04187Y03624*
G37*
G36*
X04205Y03625D02*
X04205D01*
X04205*
X04205*
X04205Y03625*
X04204Y03625*
X04203Y03625*
X04202Y03625*
X04201Y03624*
X042Y03624*
X04199Y03623*
X04199Y03623*
X04199Y03622*
X04199Y03622*
X04198Y03621*
X04198Y0362*
X04198Y03619*
X04197Y03618*
X04197Y03617*
Y03617*
X04197Y03617*
X04197Y03616*
X04197Y03615*
X04198Y03614*
X04198Y03613*
X04199Y03613*
X04199Y03612*
X042Y03612*
X042Y03611*
X042Y03611*
X04201Y03611*
X04202Y0361*
X04203Y0361*
X04204Y0361*
X04205Y03609*
X04205*
X04205*
X04206Y0361*
X04206Y0361*
X04207Y0361*
X04207Y0361*
X04208Y0361*
X04209Y0361*
X04209Y0361*
X04209Y03611*
X0421Y03611*
X0421Y03611*
X0421Y03612*
X04211Y03612*
X04211Y03613*
X04212Y03613*
X04212Y03613*
X04212Y03614*
X04212Y03614*
X04212Y03614*
X04213Y03615*
X04213Y03616*
X04213Y03617*
X04213Y03617*
Y03618*
X04213Y03618*
X04213Y03618*
X04213Y03619*
X04212Y0362*
X04212Y03621*
X04211Y03622*
X04211Y03623*
X04211Y03623*
X0421Y03623*
X0421Y03624*
X04209Y03624*
X04208Y03624*
X04207Y03625*
X04206Y03625*
X04205Y03625*
G37*
%LNadapter_pcb-3*%
%LPD*%
G54D10*
X05262Y04519D02*
D01*
X05269Y04523*
X05276Y04527*
X05282Y04532*
X05288Y04537*
X05294Y04542*
X05299Y04548*
X05304Y04555*
X05309Y04561*
X05313Y04568*
X05316Y04575*
X05319Y04583*
X05322Y0459*
X05324Y04598*
X05325Y04606*
X05326Y04614*
X05326Y04622*
X05326Y0463*
X05325Y04638*
X05324Y04645*
X05322Y04653*
X05319Y04661*
X05316Y04668*
X05313Y04675*
X05309Y04682*
X05304Y04689*
X05299Y04695*
X05294Y04701*
X05288Y04706*
X05282Y04712*
X05276Y04716*
X05269Y0472*
X05262Y04724*
X05255Y04727*
X05247Y0473*
X0524Y04732*
X05232Y04734*
X05224Y04735*
X05216Y04736*
X05208*
X052Y04735*
X05192Y04734*
X05185Y04732*
X05177Y0473*
X05169Y04727*
X05162Y04724*
X05155Y0472*
X05148Y04716*
X05142Y04712*
X05136Y04706*
X0513Y04701*
X05125Y04695*
X0512Y04689*
X05115Y04682*
X05111Y04675*
X05108Y04668*
X05105Y04661*
X05102Y04653*
X05101Y04645*
X05099Y04638*
X05098Y0463*
X05098Y04622*
X05098Y04614*
X05099Y04606*
X05101Y04598*
X05102Y0459*
X05105Y04583*
X05108Y04575*
X05111Y04568*
X05115Y04561*
X0512Y04555*
X05125Y04548*
X0513Y04542*
X05136Y04537*
X05142Y04532*
X05148Y04527*
X05155Y04523*
X05162Y04519*
X03328Y04531D02*
D01*
X03329Y04533*
X0333Y04535*
X03331Y04537*
X03332Y0454*
X03332Y04542*
X03333Y04544*
X03333Y04546*
X03333Y04548*
X03333Y04551*
X03333Y04553*
X03332Y04555*
X03332Y04557*
X03331Y0456*
X0333Y04562*
X03329Y04564*
X03328Y04566*
X03328Y04566*
X03325Y04577D02*
D01*
X03325Y04576*
X03325Y04574*
X03325Y04573*
X03325Y04572*
X03326Y0457*
X03326Y04569*
X03327Y04568*
X03328Y04566*
X03328Y04566*
X03343Y04627D02*
D01*
X03342Y04627*
X0334Y04627*
X03339Y04627*
X03338Y04626*
X03336Y04626*
X03335Y04625*
X03334Y04625*
X03333Y04624*
X03332Y04623*
X03331Y04623*
X0333Y04622*
X03329Y04621*
X03328Y0462*
X03327Y04618*
X03327Y04617*
X03326Y04616*
X03326Y04615*
X03325Y04614*
X03325Y04612*
X03325Y04611*
X03325Y0461*
X03325Y04608*
X03325Y04608*
X03328Y04531D02*
D01*
X03327Y0453*
X03326Y04529*
X03326Y04527*
X03325Y04526*
X03325Y04525*
X03325Y04523*
X03325Y04522*
X03325Y0452*
X03325Y0452*
Y03616D02*
D01*
X03325Y03614*
X03325Y03613*
X03325Y03612*
X03325Y0361*
X03326Y03609*
X03326Y03608*
X03327Y03607*
X03327Y03605*
X03328Y03604*
X03329Y03603*
X03329Y03602*
X0333Y03601*
X03331Y036*
X03332Y036*
X03334Y03599*
X03335Y03598*
X03336Y03598*
X03337Y03597*
X03338Y03597*
X0334Y03596*
X03341Y03596*
X03342Y03596*
X03343Y03596*
X0332Y04531D02*
D01*
X03321Y04533*
X03322Y04535*
X03323Y04537*
X03324Y04539*
X03324Y04541*
X03325Y04543*
X03325Y04545*
X03325Y04547*
X03325Y04549*
X03325Y04551*
X03325Y04554*
X03325Y04556*
X03324Y04558*
X03323Y0456*
X03322Y04562*
X03321Y04564*
X0332Y04565*
X0332Y04566*
X03336Y04627D02*
D01*
X03335Y04627*
X03333Y04627*
X03332Y04627*
X03331Y04627*
X03329Y04626*
X03328Y04626*
X03327Y04625*
X03326Y04624*
X03325Y04624*
X03323Y04623*
X03322Y04622*
X03321Y04621*
X03321Y0462*
X0332Y04619*
X03319Y04618*
X03318Y04616*
X03318Y04615*
X03317Y04614*
X03317Y04612*
X03317Y04611*
X03317Y0461*
X03316Y04608*
X03316Y04608*
X0332Y04531D02*
D01*
X03319Y0453*
X03319Y04529*
X03318Y04528*
X03317Y04526*
X03317Y04525*
X03317Y04524*
X03317Y04522*
X03316Y04521*
X03316Y0452*
Y04577D02*
D01*
X03316Y04576*
X03317Y04575*
X03317Y04573*
X03317Y04572*
X03318Y04571*
X03318Y04569*
X03319Y04568*
X03319Y04567*
X0332Y04566*
X03316Y03616D02*
D01*
X03316Y03614*
X03317Y03613*
X03317Y03612*
X03317Y0361*
X03318Y03609*
X03318Y03608*
X03319Y03606*
X03319Y03605*
X0332Y03604*
X03321Y03603*
X03322Y03602*
X03323Y03601*
X03324Y036*
X03325Y03599*
X03326Y03599*
X03327Y03598*
X03329Y03597*
X0333Y03597*
X03331Y03596*
X03333Y03596*
X03334Y03596*
X03335Y03596*
X03336Y03596*
X03939Y04566D02*
D01*
X03938Y04564*
X03937Y04562*
X03936Y0456*
X03935Y04558*
X03934Y04556*
X03934Y04554*
X03934Y04552*
X03934Y0455*
X03933Y04548*
X03934Y04546*
X03934Y04544*
X03934Y04542*
X03935Y0454*
X03936Y04538*
X03936Y04536*
X03937Y04534*
X03938Y04532*
X03939Y04531*
Y04566D02*
D01*
X0394Y04567*
X0394Y04568*
X03941Y0457*
X03941Y04571*
X03942Y04572*
X03942Y04574*
X03942Y04575*
X03942Y04576*
X03942Y04577*
Y04608D02*
D01*
X03942Y04609*
X03942Y0461*
X03942Y04612*
X03942Y04613*
X03941Y04614*
X03941Y04616*
X0394Y04617*
X03939Y04618*
X03939Y04619*
X03938Y0462*
X03937Y04621*
X03936Y04622*
X03935Y04623*
X03934Y04624*
X03933Y04625*
X03931Y04625*
X0393Y04626*
X03929Y04626*
X03928Y04627*
X03926Y04627*
X03925Y04627*
X03923Y04627*
X03923Y04627*
X03942Y0452D02*
D01*
X03942Y04521*
X03942Y04523*
X03942Y04524*
X03942Y04525*
X03941Y04527*
X03941Y04528*
X0394Y04529*
X03939Y0453*
X03939Y04531*
X03924Y03596D02*
D01*
X03925Y03596*
X03927Y03596*
X03928Y03596*
X03929Y03597*
X0393Y03597*
X03932Y03597*
X03933Y03598*
X03934Y03599*
X03935Y03599*
X03936Y036*
X03937Y03601*
X03938Y03602*
X03939Y03603*
X03939Y03604*
X0394Y03605*
X03941Y03606*
X03941Y03607*
X03942Y03608*
X03942Y0361*
X03942Y03611*
X03942Y03612*
X03942Y03613*
X03942Y03614*
X02589Y03637D02*
D01*
X02589Y03639*
X02589Y03641*
X02588Y03642*
X02588Y03644*
X02587Y03646*
X02587Y03647*
X02586Y03649*
X02585Y03651*
X02584Y03652*
X02583Y03653*
X02582Y03655*
X02581Y03656*
X02579Y03657*
X02578Y03658*
X02576Y03659*
X02575Y0366*
X02573Y0366*
X02572Y03661*
X0257Y03662*
X02568Y03662*
X02566Y03662*
X02565Y03662*
X02563*
X02561Y03662*
X0256Y03662*
X02558Y03662*
X02556Y03661*
X02555Y0366*
X02553Y0366*
X02551Y03659*
X0255Y03658*
X02548Y03657*
X02547Y03656*
X02546Y03655*
X02545Y03653*
X02544Y03652*
X02543Y03651*
X02542Y03649*
X02541Y03647*
X0254Y03646*
X0254Y03644*
X02539Y03642*
X02539Y03641*
X02539Y03639*
X02539Y03637*
X02489D02*
D01*
X02489Y03636*
X02489Y03634*
X02489Y03632*
X0249Y0363*
X0249Y03629*
X02491Y03627*
X02492Y03626*
X02493Y03624*
X02494Y03623*
X02495Y03621*
X02496Y0362*
X02497Y03619*
X02498Y03618*
X025Y03617*
X02501Y03616*
X02503Y03615*
X02505Y03614*
X02506Y03614*
X02508Y03613*
X0251Y03613*
X02511Y03612*
X02513Y03612*
X02515*
X02516Y03612*
X02518Y03613*
X0252Y03613*
X02522Y03614*
X02523Y03614*
X02525Y03615*
X02526Y03616*
X02528Y03617*
X02529Y03618*
X02531Y03619*
X02532Y0362*
X02533Y03621*
X02534Y03623*
X02535Y03624*
X02536Y03626*
X02537Y03627*
X02537Y03629*
X02538Y0363*
X02538Y03632*
X02539Y03634*
X02539Y03636*
X02539Y03637*
X02842Y04319D02*
D01*
X02839Y04318*
X02835Y04316*
X02832Y04314*
X02829Y04312*
X02826Y0431*
X02823Y04307*
X02821Y04304*
X02819Y04301*
X02816Y04298*
X02815Y04295*
X02813Y04292*
X02812Y04288*
X0281Y04284*
X02809Y04281*
X02809Y04277*
X02808Y04273*
X02808Y0427*
X02808Y04266*
X02809Y04262*
X02809Y04258*
X0281Y04255*
X02811Y04251*
X02813Y04248*
X02814Y04244*
X02816Y04241*
X02818Y04238*
X02821Y04235*
X02823Y04232*
X02826Y0423*
X02829Y04227*
X02832Y04225*
X02835Y04223*
X02838Y04221*
X02842Y0422*
X02842Y04219*
Y04419D02*
D01*
X02839Y04418*
X02835Y04416*
X02832Y04415*
X02829Y04413*
X02826Y0441*
X02823Y04408*
X02821Y04405*
X02818Y04402*
X02816Y04399*
X02814Y04396*
X02812Y04393*
X02811Y0439*
X0281Y04386*
X02808Y04383*
X02808Y04379*
X02807Y04375*
X02807Y04372*
X02807Y04368*
X02807Y04364*
X02808Y04361*
X02808Y04357*
X02809Y04353*
X02811Y0435*
X02812Y04346*
X02814Y04343*
X02816Y0434*
X02818Y04337*
X0282Y04334*
X02823Y04331*
X02826Y04329*
X02828Y04327*
X02832Y04325*
X02835Y04323*
X02838Y04321*
X02841Y0432*
X02842Y04319*
X03097D02*
D01*
X031Y04321*
X03104Y04324*
X03107Y04326*
X0311Y04329*
X03113Y04332*
X03115Y04335*
X03117Y04338*
X0312Y04341*
X03121Y04345*
X03123Y04348*
X03124Y04352*
X03125Y04356*
X03126Y0436*
X03127Y04364*
X03127Y04368*
X03127Y04372*
X03127Y04375*
X03126Y04379*
X03125Y04383*
X03124Y04387*
X03123Y04391*
X03121Y04394*
X03119Y04398*
X03117Y04401*
X03115Y04404*
X03112Y04407*
X0311Y0441*
X03107Y04413*
X03104Y04415*
X031Y04418*
X03097Y04419*
Y04219D02*
D01*
X031Y04221*
X03104Y04224*
X03107Y04226*
X0311Y04229*
X03113Y04232*
X03115Y04235*
X03117Y04238*
X0312Y04241*
X03121Y04245*
X03123Y04248*
X03124Y04252*
X03125Y04256*
X03126Y0426*
X03127Y04264*
X03127Y04268*
X03127Y04272*
X03127Y04275*
X03126Y04279*
X03125Y04283*
X03124Y04287*
X03123Y04291*
X03121Y04294*
X03119Y04298*
X03117Y04301*
X03115Y04304*
X03112Y04307*
X0311Y0431*
X03107Y04313*
X03104Y04315*
X031Y04318*
X03097Y04319*
X05162Y04519D02*
X05262D01*
X02917Y04015D02*
X03027D01*
X02791D02*
X02901D01*
X02917Y03976D02*
Y04055D01*
X02901Y03976D02*
Y04055D01*
X02633Y03885D02*
Y04145D01*
Y03885D02*
X03185D01*
X02633Y04145D02*
X03185D01*
Y03885D02*
Y04145D01*
X03336Y04627D02*
X03342D01*
X03325Y04577D02*
Y04608D01*
X03336Y03596D02*
X03924D01*
X03325Y03616D02*
Y0452D01*
X03316Y04577D02*
Y04608D01*
Y03616D02*
Y0452D01*
X03942Y04577D02*
Y04608D01*
Y03614D02*
Y0452D01*
X02685Y04581D02*
X03241D01*
X02685Y04581D02*
Y04686D01*
X02685Y04686D02*
X03241D01*
Y04581D02*
Y04686D01*
X03198Y03647D02*
Y03865D01*
X02811Y03811D02*
Y03834D01*
Y03647D02*
Y03811D01*
Y03834D02*
Y03866D01*
X03198Y03865*
X02811Y03647D02*
X03196D01*
X02842Y04419D02*
Y04434D01*
Y04204D02*
Y04219D01*
X03097Y04204D02*
Y04219D01*
Y04419D02*
Y04434D01*
X02647Y04174D02*
Y04459D01*
Y04174D02*
X03292D01*
Y04459*
X02647D02*
X03292D01*
G54D11*
X05212Y04496D02*
D01*
X05212Y04496*
X05212Y04496*
X05212Y04496*
X05212Y04497*
X05212Y04497*
X05212Y04497*
X05212Y04497*
X05212Y04498*
X05211Y04498*
X05211Y04498*
X05211Y04498*
X05211Y04498*
X05211Y04499*
X0521Y04499*
X0521Y04499*
X0521Y04499*
X0521Y04499*
X05209Y04499*
X05209Y04499*
X05209Y04499*
X05209Y04499*
X05208Y04499*
X05208*
X05208Y04499*
X05207Y04499*
X05207Y04499*
X05207Y04499*
X05207Y04499*
X05206Y04499*
X05206Y04499*
X05206Y04499*
X05206Y04499*
X05206Y04498*
X05205Y04498*
X05205Y04498*
X05205Y04498*
X05205Y04498*
X05205Y04497*
X05205Y04497*
X05204Y04497*
X05204Y04497*
X05204Y04496*
X05204Y04496*
X05204Y04496*
X05204Y04496*
X05204Y04495*
X05204Y04495*
X05204Y04495*
X05204Y04494*
X05204Y04494*
X05205Y04494*
X05205Y04494*
X05205Y04493*
X05205Y04493*
X05205Y04493*
X05205Y04493*
X05206Y04493*
X05206Y04492*
X05206Y04492*
X05206Y04492*
X05206Y04492*
X05207Y04492*
X05207Y04492*
X05207Y04492*
X05207Y04492*
X05208Y04492*
X05208Y04492*
X05208*
X05209Y04492*
X05209Y04492*
X05209Y04492*
X05209Y04492*
X0521Y04492*
X0521Y04492*
X0521Y04492*
X0521Y04492*
X05211Y04492*
X05211Y04493*
X05211Y04493*
X05211Y04493*
X05211Y04493*
X05212Y04493*
X05212Y04494*
X05212Y04494*
X05212Y04494*
X05212Y04494*
X05212Y04495*
X05212Y04495*
X05212Y04495*
X05212Y04496*
X04011Y04451D02*
Y045D01*
Y04003D02*
Y04051D01*
X03961D02*
X04061D01*
Y04451*
X03961D02*
X04061D01*
X03961Y04051D02*
Y04451D01*
X04125Y04375D02*
Y04396D01*
Y04251D02*
Y04277D01*
X04079Y04324D02*
X04125Y04277D01*
X04079D02*
X04172D01*
X04079D02*
Y04375D01*
X0408Y04375*
X04172Y04277D02*
Y04375D01*
X04171Y04375D02*
X04172Y04375D01*
X0408Y04375D02*
X04171D01*
G54D12*
X04321Y04293D02*
D01*
X04321Y04294*
X04321Y04296*
X04321Y04298*
X0432Y04299*
X0432Y04301*
X04319Y04302*
X04319Y04304*
X04318Y04305*
X04317Y04306*
X04316Y04308*
X04315Y04309*
X04314Y0431*
X04312Y04311*
X04311Y04312*
X0431Y04313*
X04308Y04314*
X04307Y04314*
X04305Y04315*
X04304Y04315*
X04302Y04315*
X04301Y04316*
X04299Y04316*
X04298*
X04296Y04316*
X04294Y04315*
X04293Y04315*
X04291Y04315*
X0429Y04314*
X04288Y04314*
X04287Y04313*
X04285Y04312*
X04284Y04311*
X04283Y0431*
X04282Y04309*
X04281Y04308*
X0428Y04306*
X04279Y04305*
X04278Y04304*
X04277Y04302*
X04277Y04301*
X04276Y04299*
X04276Y04298*
X04276Y04296*
X04275Y04294*
X04275Y04293*
X04275Y04291*
X04276Y0429*
X04276Y04288*
X04276Y04287*
X04277Y04285*
X04277Y04283*
X04278Y04282*
X04279Y04281*
X0428Y04279*
X04281Y04278*
X04282Y04277*
X04283Y04276*
X04284Y04275*
X04285Y04274*
X04287Y04273*
X04288Y04272*
X0429Y04272*
X04291Y04271*
X04293Y04271*
X04294Y0427*
X04296Y0427*
X04298Y0427*
X04299*
X04301Y0427*
X04302Y0427*
X04304Y04271*
X04305Y04271*
X04307Y04272*
X04308Y04272*
X0431Y04273*
X04311Y04274*
X04312Y04275*
X04314Y04276*
X04315Y04277*
X04316Y04278*
X04317Y04279*
X04318Y04281*
X04319Y04282*
X04319Y04283*
X0432Y04285*
X0432Y04287*
X04321Y04288*
X04321Y0429*
X04321Y04291*
X04321Y04293*
G54D13*
X04885Y04046D02*
D01*
X04884Y04069*
X04881Y04092*
X04877Y04115*
X04871Y04138*
X04863Y0416*
X04854Y04181*
X04844Y04202*
X04832Y04222*
X04818Y04241*
X04804Y04259*
X04788Y04276*
X04771Y04292*
X04753Y04307*
X04734Y0432*
X04714Y04332*
X04693Y04343*
X04672Y04352*
X0465Y0436*
X04627Y04366*
X04604Y0437*
X04581Y04373*
X04558Y04375*
X04535Y04374*
X04511Y04372*
X04488Y04369*
X04466Y04363*
X04443Y04357*
X04422Y04348*
X044Y04339*
X0438Y04327*
X0436Y04315*
X04342Y04301*
X04324Y04285*
X04308Y04269*
X04292Y04252*
X04278Y04233*
X04266Y04213*
X04254Y04193*
X04244Y04172*
X04236Y0415*
X04229Y04128*
X04224Y04105*
X0422Y04082*
X04218Y04059*
X04218Y04036*
X04219Y04013*
X04221Y03989*
X04226Y03966*
X04232Y03944*
X04239Y03922*
X04248Y039*
X04259Y0388*
X04271Y0386*
X04284Y03841*
X04299Y03822*
X04315Y03805*
X04332Y03789*
X0435Y03775*
X04369Y03761*
X04389Y03749*
X0441Y03739*
X04431Y03729*
X04453Y03722*
X04475Y03716*
X04498Y03711*
X04521Y03708*
X04545Y03707*
X04568Y03707*
X04591Y03709*
X04614Y03713*
X04637Y03718*
X04659Y03725*
X04681Y03733*
X04702Y03743*
X04723Y03754*
X04742Y03767*
X04761Y03781*
X04778Y03796*
X04795Y03813*
X0481Y0383*
X04824Y03849*
X04837Y03868*
X04848Y03889*
X04858Y0391*
X04867Y03931*
X04874Y03954*
X04879Y03976*
X04883Y03999*
X04885Y04023*
X04885Y04046*
X04173Y03657D02*
D01*
X04173Y03664*
X04172Y03671*
X04171Y03677*
X04169Y03684*
X04167Y03691*
X04164Y03697*
X04161Y03703*
X04158Y03709*
X04154Y03715*
X0415Y0372*
X04145Y03725*
X0414Y0373*
X04135Y03735*
X04129Y03739*
X04124Y03742*
X04117Y03746*
X04111Y03748*
X04105Y03751*
X04098Y03753*
X04091Y03754*
X04085Y03755*
X04078Y03755*
X04071*
X04064Y03755*
X04057Y03754*
X0405Y03753*
X04044Y03751*
X04037Y03748*
X04031Y03746*
X04025Y03742*
X04019Y03739*
X04014Y03735*
X04008Y0373*
X04003Y03725*
X03999Y0372*
X03995Y03715*
X03991Y03709*
X03987Y03703*
X03984Y03697*
X03982Y03691*
X0398Y03684*
X03978Y03677*
X03977Y03671*
X03976Y03664*
X03976Y03657*
X03976Y0365*
X03977Y03643*
X03978Y03637*
X0398Y0363*
X03982Y03623*
X03984Y03617*
X03987Y03611*
X03991Y03605*
X03995Y03599*
X03999Y03594*
X04003Y03589*
X04008Y03584*
X04014Y03579*
X04019Y03575*
X04025Y03572*
X04031Y03568*
X04037Y03566*
X04044Y03563*
X0405Y03561*
X04057Y0356*
X04064Y03559*
X04071Y03559*
X04078*
X04085Y03559*
X04091Y0356*
X04098Y03561*
X04105Y03563*
X04111Y03566*
X04117Y03568*
X04124Y03572*
X04129Y03575*
X04135Y03579*
X0414Y03584*
X04145Y03589*
X0415Y03594*
X04154Y03599*
X04158Y03605*
X04161Y03611*
X04164Y03617*
X04167Y03623*
X04169Y0363*
X04171Y03637*
X04172Y03643*
X04173Y0365*
X04173Y03657*
X05374Y04007D02*
D01*
X05373Y04021*
X05372Y04035*
X05369Y04048*
X05366Y04062*
X05362Y04075*
X05357Y04087*
X0535Y041*
X05344Y04112*
X05336Y04123*
X05327Y04134*
X05318Y04144*
X05308Y04154*
X05298Y04162*
X05287Y04171*
X05275Y04178*
X05263Y04184*
X0525Y0419*
X05237Y04195*
X05224Y04198*
X05211Y04201*
X05197Y04203*
X05184Y04204*
X0517*
X05156Y04203*
X05142Y04201*
X05129Y04198*
X05116Y04195*
X05103Y0419*
X0509Y04184*
X05078Y04178*
X05067Y04171*
X05055Y04162*
X05045Y04154*
X05035Y04144*
X05026Y04134*
X05017Y04123*
X0501Y04112*
X05003Y041*
X04997Y04087*
X04992Y04075*
X04987Y04062*
X04984Y04048*
X04982Y04035*
X0498Y04021*
X0498Y04007*
X0498Y03994*
X04982Y0398*
X04984Y03966*
X04987Y03953*
X04992Y0394*
X04997Y03927*
X05003Y03915*
X0501Y03903*
X05017Y03892*
X05026Y03881*
X05035Y03871*
X05045Y03861*
X05055Y03852*
X05067Y03844*
X05078Y03837*
X0509Y0383*
X05103Y03825*
X05116Y0382*
X05129Y03816*
X05142Y03814*
X05156Y03812*
X0517Y03811*
X05184*
X05197Y03812*
X05211Y03814*
X05224Y03816*
X05237Y0382*
X0525Y03825*
X05263Y0383*
X05275Y03837*
X05287Y03844*
X05298Y03852*
X05308Y03861*
X05318Y03871*
X05327Y03881*
X05336Y03892*
X05344Y03903*
X0535Y03915*
X05357Y03927*
X05362Y0394*
X05366Y03953*
X05369Y03966*
X05372Y0398*
X05373Y03994*
X05374Y04007*
X02129Y0461D02*
D01*
X02129Y04605*
X0213Y04601*
X0213Y04597*
X02131Y04593*
X02132Y04589*
X02134Y04585*
X02136Y04581*
X02138Y04577*
X0214Y04573*
X02142Y0457*
X02145Y04567*
X02148Y04564*
X02151Y04561*
X02155Y04558*
X02158Y04556*
X02162Y04554*
X02166Y04552*
X0217Y0455*
X02174Y04549*
X02178Y04548*
X02182Y04547*
X02186Y04547*
X02188Y04547*
Y03732D02*
D01*
X02184Y03732*
X0218Y03731*
X02176Y0373*
X02172Y03729*
X02168Y03728*
X02164Y03726*
X0216Y03724*
X02157Y03722*
X02153Y03719*
X0215Y03717*
X02147Y03714*
X02144Y03711*
X02141Y03707*
X02139Y03704*
X02137Y037*
X02135Y03696*
X02133Y03692*
X02132Y03688*
X02131Y03684*
X0213Y0368*
X0213Y03676*
X02129Y03672*
X02129Y0367*
X04021Y03604D02*
Y03639D01*
X04Y03622D02*
X04043D01*
X05334Y03988D02*
Y04027D01*
X05316Y04005D02*
X05356D01*
X0205Y0461D02*
X02129D01*
X02188Y04547D02*
X02614D01*
Y03732D02*
Y04547D01*
X02188Y03732D02*
X02614D01*
X0205Y0367D02*
X02129D01*
X0205Y0355D02*
Y0367D01*
Y0473D02*
X05375D01*
Y0355*
X0205Y0461D02*
Y0473D01*
Y0355D02*
X05375D01*
X05118Y0465D02*
Y0459D01*
X05148*
X05158Y046*
Y0464*
X05148Y0465*
X05118*
G54D14*
X04545Y04553D02*
D01*
X04544Y04556*
X04543Y0456*
X04542Y04563*
X0454Y04566*
X04538Y04569*
X04536Y04572*
X04534Y04575*
X04532Y04577*
X04529Y0458*
X04527Y04582*
X04524Y04584*
X04521Y04586*
X04518Y04588*
X04515Y04589*
X04511Y0459*
X04508Y04591*
X04505Y04592*
X04501Y04593*
X04498Y04593*
X04494Y04593*
X04491Y04593*
X04487Y04592*
X04484Y04592*
X0448Y04591*
X04477Y0459*
X04474Y04588*
X04471Y04587*
X04468Y04585*
X04465Y04583*
X04462Y0458*
X0446Y04578*
X04457Y04575*
X04455Y04573*
X04453Y0457*
X04451Y04567*
X0445Y04564*
X04448Y0456*
X04447Y04557*
X04446Y04554*
X04446Y0455*
X04445Y04547*
X04445Y04543*
X04445Y0454*
X04446Y04536*
X04446Y04533*
X04447Y04529*
X04448Y04526*
X04449Y04523*
X04451Y0452*
X04453Y04516*
X04455Y04514*
X04457Y04511*
X04459Y04508*
X04462Y04506*
X04464Y04503*
X04467Y04501*
X0447Y04499*
X04473Y04498*
X04476Y04496*
X0448Y04495*
X04483Y04494*
X04486Y04493*
X0449Y04493*
X04493Y04493*
X04497Y04493*
X045Y04493*
X04504Y04493*
X04507Y04494*
X04511Y04495*
X04514Y04496*
X04517Y04497*
X0452Y04499*
X04523Y04501*
X04526Y04503*
X04529Y04505*
X04531Y04508*
X04534Y0451*
X04536Y04513*
X04538Y04516*
X0454Y04519*
X04541Y04522*
X04543Y04525*
X04544Y04529*
X04545Y04532*
X04545Y04534*
X04546Y04552D02*
X04639D01*
G54D15*
X02901Y03737D02*
D01*
X02902Y03737*
X02903Y03738*
X02905Y03738*
X02906Y03739*
X02907Y03739*
X02908Y0374*
X02909Y03741*
X0291Y03741*
X02911Y03742*
X02912Y03743*
X02913Y03744*
X02914Y03746*
X02914Y03747*
X02915Y03748*
X02916Y03749*
X02916Y0375*
X02916Y03752*
X02917Y03753*
X02917Y03754*
X02917Y03756*
X02917Y03757*
X02917Y03758*
X02916Y0376*
X02916Y03761*
X02916Y03762*
X02915Y03763*
X02915Y03765*
X02914Y03766*
X02913Y03767*
X02913Y03768*
X02912Y03769*
X02911Y0377*
X0291Y03771*
X02909Y03771*
X02907Y03772*
X02906Y03773*
X02905Y03773*
X02904Y03774*
X02903Y03774*
X0309Y03779D02*
D01*
X03089Y03779*
X03087Y03779*
X03086Y03778*
X03085Y03778*
X03084Y03777*
X03083Y03777*
X03082Y03776*
X0308Y03775*
X03079Y03775*
X03078Y03774*
X03078Y03773*
X03077Y03772*
X03076Y03771*
X03075Y0377*
X03075Y03768*
X03074Y03767*
X03074Y03766*
X03073Y03765*
X03073Y03763*
X03073Y03762*
X03073Y03761*
X03073Y0376*
X03073Y03758*
X03073Y03757*
X03074Y03756*
X03074Y03754*
X03074Y03753*
X03075Y03752*
X03076Y03751*
X03076Y0375*
X03077Y03749*
X03078Y03748*
X03079Y03747*
X0308Y03746*
X03081Y03745*
X03082Y03744*
X03083Y03744*
X03084Y03743*
X03085Y03743*
X03087Y03742*
X03088Y03742*
X03089Y03742*
X0309Y03742*
X04095Y04649D02*
X04415D01*
X04095Y04532D02*
X04415D01*
X04095Y04712D02*
X04415D01*
X04095Y04532D02*
Y04712D01*
X04415Y04532D02*
Y04712D01*
X0309Y03779D02*
Y03795D01*
X02901Y03775D02*
Y0379D01*
Y03721D02*
Y03736D01*
X0309Y03724D02*
Y03739D01*
X04989Y03622D02*
X05309D01*
X04989Y03738D02*
X05309D01*
X04989Y03558D02*
X05309D01*
Y03738*
X04989Y03558D02*
Y03738D01*
G54D16*
X04545Y04534D02*
X04639D01*
G54D17*
X047Y04612D02*
X04968D01*
X047Y0471D02*
X04968D01*
G54D18*
X02701Y03642D03*
G54D19*
X02376Y0364D03*
G54D20*
X02541Y0356D03*
G54D21*
X02539Y0372D03*
M02*